<?xml version="1.0" encoding="UTF-8" standalone="no"?>
<svg
   xmlns:dc="http://purl.org/dc/elements/1.1/"
   xmlns:cc="http://creativecommons.org/ns#"
   xmlns:rdf="http://www.w3.org/1999/02/22-rdf-syntax-ns#"
   xmlns:svg="http://www.w3.org/2000/svg"
   xmlns="http://www.w3.org/2000/svg"
   xmlns:sodipodi="http://sodipodi.sourceforge.net/DTD/sodipodi-0.dtd"
   xmlns:inkscape="http://www.inkscape.org/namespaces/inkscape"
   width="354.33069"
   height="354.33069"
   id="svg2"
   version="1.1"
   inkscape:version="0.48.3.1 r9886"
   sodipodi:docname="Pesthoernchen.svg">
  <metadata
     id="metadata10">
    <rdf:RDF>
      <cc:Work
         rdf:about="">
        <dc:format>image/svg+xml</dc:format>
        <dc:type
           rdf:resource="http://purl.org/dc/dcmitype/StillImage" />
      </cc:Work>
    </rdf:RDF>
  </metadata>
  <defs
     id="defs8" />
  <sodipodi:namedview
     pagecolor="#ffffff"
     bordercolor="#666666"
     borderopacity="1"
     objecttolerance="10"
     gridtolerance="10"
     guidetolerance="10"
     inkscape:pageopacity="0"
     inkscape:pageshadow="2"
     inkscape:window-width="1680"
     inkscape:window-height="886"
     id="namedview6"
     showgrid="false"
     inkscape:zoom="1.941689"
     inkscape:cx="176.87703"
     inkscape:cy="177.49094"
     inkscape:window-x="0"
     inkscape:window-y="27"
     inkscape:window-maximized="1"
     inkscape:current-layer="svg2"
     units="mm" />
  <path
     style="fill:#000000;stroke:none"
     d="m 51.348751,69.045799 -3.731955,-31.455047 0,-14.394684 c -9.626418,0 -19.179689,0.533136 -28.789366,0.533136 -2.808776,0 -8.520533,-1.47748 -10.8001183,0.526953 -1.486703,1.30725 -0.985129,4.64042 -0.907877,6.403822 0.266728,6.091775 1.578403,12.056026 1.578403,18.126637 0,28.485477 10.0734523,58.064424 22.4953713,83.552064 10.688638,21.93164 27.204138,39.91487 45.743956,55.45899 6.060163,5.08079 13.009593,8.88045 19.061231,13.89247 3.52935,2.92265 2.20824,6.71805 3.7005,10.54117 2.100024,5.38148 6.159864,8.26628 11.363264,10.39829 3.10179,1.271 5.07653,-0.80876 7.97413,-0.78797 3.18388,0.023 5.86876,3.92334 9.13209,4.40263 3.80019,0.55873 6.1396,-2.31753 9.59645,-2.31167 2.10163,0.005 3.86737,1.53276 5.81652,2.09735 3.14977,0.91273 8.02211,1.53278 11.2865,1.59196 2.7014,0.0485 5.09945,-1.44854 7.90641,-1.25234 6.11028,0.42651 11.7402,2.35059 18.12664,1.47411 2.6017,-0.35666 4.83768,-2.81069 7.44312,-2.80322 4.02251,0.0118 7.73207,2.4231 12.28079,1.92035 2.88587,-0.31935 4.71186,-3.73942 7.42606,-3.6136 4.63722,0.21486 7.54388,4.28695 12.83313,2.68115 6.51599,-1.97901 4.39517,-9.50849 9.60125,-12.29253 13.07997,-6.99635 26.66589,-11.37979 38.5335,-20.81525 3.6909,-2.93491 8.97908,-5.97112 11.04552,-10.31671 4.06836,-0.75386 7.56094,-6.73671 10.33645,-9.6583 7.44631,-7.83658 13.60084,-17.35199 19.54318,-26.38759 2.54626,-3.87217 4.6932,-9.35015 7.97305,-12.46953 0.73946,-3.85085 3.69677,-7.86696 5.42414,-11.42245 3.25479,-6.70045 6.685,-14.10199 8.98441,-21.1895 8.50566,-26.21592 13.84768,-52.12315 13.84768,-79.879831 l -81.03673,0 c 0.0214,7.455273 2.65182,14.993076 3.17003,22.399513 0.74586,10.654411 -0.98097,21.609831 -2.96957,31.980401 -0.66428,3.463254 -0.7997,15.717931 -5.03867,16.606671 -1.99393,0.41797 -2.82455,-1.75669 -3.31078,-3.27879 -1.57968,-4.93898 -2.7867,-9.768663 -5.11011,-14.463462 C 242.61571,56.123106 230.91655,40.438446 214.13396,27.624459 201.96565,18.333812 187.67226,10.537224 172.37072,7.9712391 138.06872,2.2190171 100.38344,18.736063 80.646191,47.339151 73.951068,57.042233 69.568687,67.826516 66.726004,79.223372 c -0.670153,2.687552 -1.85958,5.745082 -2.025385,8.482212 -0.124754,2.06323 0.680814,5.44491 -0.571523,7.23039 -2.680076,3.82205 -4.901122,-2.50307 -5.623523,-4.18352 -2.221046,-5.16982 -3.122046,-10.8168 -5.003485,-16.068204 -0.705872,-1.968872 -0.456364,-4.266158 -2.153337,-5.638451 M 181.96717,115.42867 c -0.33107,3.35075 1.50345,6.55064 2.75312,9.59645 2.60917,6.36086 3.40301,14.87131 11.26038,16.25373 8.22735,1.44693 17.15579,-6.29581 23.6206,-10.07468 4.94431,-2.89013 11.08124,-2.73499 15.74086,-6.09162 7.77633,-5.60059 11.59145,-18.41666 9.15928,-27.762536 -1.34297,-5.15969 -5.43266,-10.41589 -8.15432,-14.9758 -3.38382,-0.91113 -4.82702,-5.133038 -8.08982,-6.462684 -8.40489,-3.425934 -23.69578,-4.674007 -32.42855,-1.598343 -12.24455,4.31307 -18.66031,14.734287 -18.65977,27.253933 0,4.18565 1.09506,11.26837 4.79822,13.86155 M 137.18372,75.136349 c -11.8479,1.536502 -21.88259,4.990695 -33.03367,9.108635 -5.024814,1.85586 -11.95292,3.83912 -15.082429,8.49073 -7.527888,11.188936 -5.351089,30.343996 5.89382,37.886276 5.823979,3.90629 12.955749,3.95267 19.206779,6.661 8.1911,3.54856 14.50877,9.09744 24.08177,7.77473 5.33616,-0.73732 8.73651,-4.74224 9.95845,-9.92167 1.12865,-4.78436 1.086,-9.61724 2.04458,-14.37602 2.01206,-9.99098 5.27485,-21.228956 1.0636,-30.942696 -2.66674,-6.15186 -6.27074,-15.700342 -14.1329,-14.680985 m 28.25623,54.153871 c -6.40991,-7.60306 0.64828,-18.91142 -3.06128,-27.11106 -1.09026,-2.409236 -4.52153,-1.90543 -5.23753,0.48569 -1.14784,3.83005 -0.81836,11.10736 0.30176,14.89637 -1.86491,1.60474 -1.9886,5.68856 -1.59941,7.99704 -2.13521,1.72683 -1.37069,5.01895 -2.18053,7.46391 -3.76554,11.3718 -1.53543,24.09829 1.99127,35.187 1.01988,3.20682 2.85547,14.2614 8.10793,12.42528 4.02998,-1.40855 -0.66641,-7.51243 1.99126,-9.26858 2.40499,-1.58874 2.0238,7.21013 6.44776,4.29175 2.23278,-1.47252 2.52813,-8.04609 3.45899,-10.55663 5.30257,-14.30726 3.64878,-29.21215 0,-43.85581 -1.58822,-6.37311 -3.62107,-14.2438 -3.81459,-20.74433 -0.0629,-2.116546 0.74265,-6.970216 -2.71367,-6.675926 -3.89296,0.33107 -2.61236,6.699916 -2.62623,9.341606 -0.0171,3.34223 -1.43307,6.29207 -1.57808,9.59646 -0.24045,5.4817 0.80237,10.99806 0.51235,16.52723 m 87.68228,-27.26514 c -4.46875,2.04885 -5.07386,13.85142 -5.04561,18.20128 0.0981,15.21732 5.70989,29.48137 1.39096,44.776 -1.06148,3.76074 -5.10372,4.89685 -6.4067,8.14526 -1.11907,2.78883 1.21182,4.67614 3.8583,3.9548 6.78043,-1.84785 9.12463,-12.16351 9.91314,-17.95657 2.39698,-17.61163 -4.3488,-34.9007 0.0544,-52.25536 0.63923,-2.51801 -0.39399,-6.4115 -3.76447,-4.86541 m -188.978206,5.40654 c -0.261236,6.52345 3.125246,11.79511 4.103018,18.12664 1.772145,11.47896 -2.213582,24.10683 1.316314,35.23498 0.88394,2.78564 0.777313,6.98995 3.11085,9.01534 l -0.533136,1.06627 c 1.510909,1.56742 3.804995,7.41859 6.633283,5.93008 1.589816,-0.83649 1.508248,-3.35076 1.285394,-4.8638 -0.62377,-4.23204 -3.763945,-8.36758 -4.581243,-12.84326 -2.407644,-13.18553 1.334974,-26.23564 -2.11122,-39.40465 -1.440535,-5.50463 -2.671013,-12.23868 -9.22326,-12.2616 m 86.368106,115.6906 c 3.12631,-0.16954 6.68286,1.75029 8.53018,-1.59941 2.84108,-0.57365 2.13255,-4.02998 2.13255,-6.39763 0,-4.82009 2.25196,-16.55176 -2.66835,-19.03351 -4.3296,-2.1848 -12.8198,1.58715 -15.19439,5.86557 -1.78281,3.21214 -1.62607,6.49519 -2.2733,9.96912 -0.40145,2.15653 -1.65805,4.58657 -1.01988,6.81135 1.25073,4.35892 7.78325,2.3314 10.49319,4.38451 M 172.37074,195.204 c -1.73856,0.45849 -5.89543,0.96657 -6.91585,2.49721 -2.67741,4.01452 -0.2687,14.2454 -0.59605,19.02337 -0.12795,1.87291 -1.07746,4.5178 0.44357,6.07616 2.01472,2.06323 11.79298,2.27169 14.5317,1.51891 11.97425,-3.28945 5.27273,-32.47494 -7.46337,-29.11565 m 20.80032,4.16593 c -5.26046,0.86848 -4.80623,5.66351 -4.80623,9.89074 0,7.31197 1.07746,16.6344 11.14788,14.23261 4.86061,-1.15957 4.84621,-6.59809 4.84621,-10.50065 0,-7.37541 -1.71083,-15.18853 -11.18786,-13.6227 m -75.71337,17.35465 c -0.20419,-3.17376 0.006,-6.41203 0,-9.59645 -0.0139,-6.65514 -12.44767,-9.62472 -16.00049,-3.93828 -4.164864,6.66687 3.65411,16.86577 10.64833,16.6829 2.30635,-0.0602 3.64612,-1.85104 5.35216,-3.14817 m 7.55454,-15.6193 c -10.45214,3.91536 -4.76038,25.49299 7.14723,21.62562 11.32062,-3.67651 6.81135,-26.85462 -7.14723,-21.62562 m 91.07782,-0.14607 c -8.23855,1.23687 -13.12902,13.27989 -6.33045,19.43922 2.47214,2.24024 7.46017,2.11495 10.57262,1.53596 3.8066,-0.70747 4.02092,-4.70653 4.2379,-7.87549 0.4473,-6.52665 -0.39559,-14.31364 -8.48007,-13.09969 m 26.65469,32.2926 c 3.87697,9.69402 12.02756,19.61302 18.36602,27.83559 1.85052,2.40071 3.6072,7.42872 6.71272,8.24815 4.63029,1.22194 15.02378,1.31525 19.62848,5.3e-4 2.26583,-0.64723 2.88907,-6.77297 5.77173,-5.11651 1.93583,1.11266 0.68509,5.56755 0.70428,7.41806 0.064,6.23503 2.20932,10.23355 5.32923,15.46096 3.78261,0.68721 7.27891,4.22084 11.19587,5.34469 9.16781,2.63156 20.91654,-0.75119 28.76857,-5.61712 11.63997,-7.2128 16.3337,-30.70173 1.6202,-37.58026 -1.72257,5.93808 -7.39246,-0.14234 -1.59941,-1.06627 0.16368,-2.99249 1.91876,-4.47195 3.04421,-7.08484 2.66834,-6.19505 5.24339,-13.24845 4.31947,-20.09712 -2.48708,-18.43159 -28.12295,-26.15567 -41.63102,-15.02325 -5.19808,4.28376 -8.90445,9.67536 -10.76189,16.12951 -0.8093,2.8107 0.33214,9.19553 -2.60331,10.69045 -3.49044,1.77748 -10.33965,0.45743 -14.21128,0.45743 l -34.65387,0 m -211.655153,13.32841 1.066273,0 c 1.426886,-1.54396 7.028657,-2.88694 5.130638,0.84023 -1.437762,2.82401 -4.907947,3.79166 -7.127021,5.77066 -3.719746,3.31718 -5.545258,7.35249 -8.666345,10.98261 -0.44357,5.99832 -0.613,10.79815 1.711314,16.52723 5.770349,14.22301 26.421228,28.85494 39.775228,15.39271 4.160596,-4.19418 8.264681,-10.8264 7.888287,-16.94946 -0.143414,-2.33088 -4.49434,-9.53994 -1.686311,-10.93037 2.687008,-1.33071 4.709727,2.86668 7.234661,2.96371 9.117702,0.35133 18.704025,-1.21236 27.712969,0.46009 l 4.79823,-6.93077 4.26509,-6.39764 c 2.00246,-7.77419 9.53034,-16.17856 13.86155,-22.92486 -12.06381,-2.23971 -25.13579,1.06627 -37.319554,1.06627 -3.475519,0 -10.213296,1.28806 -13.246844,-0.54806 -2.443365,-1.47839 0.329478,-8.24922 -0.221785,-11.09031 -1.763616,-9.09051 -8.341452,-16.94893 -17.986423,-18.14636 -14.202488,-1.76361 -32.942552,8.85007 -33.550594,24.45337 -0.23362,5.99618 3.138467,10.80187 6.360637,15.46095 m 154.609563,-11.729 0,0.53314 12.29999,19.34485 4.22724,7.31197 2.66568,5.8645 c 1.89477,0.55339 2.99942,2.26583 2.10961,4.26509 -3.6813,8.26788 -9.14755,12.75955 -2.26209,21.61068 5.72536,7.36102 16.81726,6.35552 24.58612,3.86844 2.33461,-0.74746 4.37385,-3.68237 6.99209,-3.35023 2.65608,0.33695 1.74761,3.57735 2.92638,5.21675 2.11389,2.94024 8.01784,5.09144 11.49762,4.50393 16.14124,-2.72487 16.2324,-23.86105 5.63791,-32.7575 -4.60629,-3.86791 -12.74676,-5.55102 -16.40514,-9.87262 -4.67186,-5.51849 -8.55577,-12.46899 -12.5255,-18.49984 -1.7199,-2.6129 -3.71436,-7.34608 -6.63168,-8.78395 -2.76485,-1.3627 -7.09659,-0.40092 -10.06082,-0.32948 -8.38037,0.20206 -16.82472,0.83436 -25.05741,1.07427 m -38.91896,0 -10.06562,16.67385 -8.59415,12.11552 0,0.53313 c 1.20862,1.30779 2.06323,3.48512 -0.12209,4.47675 -3.03354,1.37602 -6.72072,0.78211 -10.0075,2.38259 -9.06226,4.4117 -14.33711,15.28821 -9.77027,24.9028 4.92032,10.35671 15.76752,10.40149 23.112,2.41831 1.7279,-1.87771 2.38792,-8.00185 4.82169,-8.34946 4.6015,-0.65735 2.24557,7.66117 4.8622,9.63165 5.47265,4.12114 22.28564,-3.47232 22.29097,-10.40523 1.92249,-1.24167 3.46432,-6.30167 1.59941,-7.99704 0.73199,-4.14727 -2.54359,-9.70149 -6.93077,-9.59646 0.26816,-5.776 5.04027,-10.62487 8.21883,-15.1464 4.46768,-6.35552 9.97338,-14.33178 12.57349,-21.64001 l -31.98819,0 M 51.348751,69.045799 z"
     id="path4"
     inkscape:connector-curvature="0" />
  <path
     id="path2987"
     d="m 181.96717,115.42867 c -0.33107,3.35075 1.50345,6.55064 2.75312,9.59645 2.60917,6.36086 3.40301,14.87131 11.26038,16.25373 8.22735,1.44693 17.15579,-6.29581 23.6206,-10.07468 4.94431,-2.89013 11.08124,-2.73499 15.74086,-6.09162 7.77633,-5.60059 11.59145,-18.41666 9.15928,-27.762536 -1.34297,-5.15969 -5.43266,-10.41589 -8.15432,-14.9758 -3.38382,-0.91113 -4.82702,-5.133038 -8.08982,-6.462684 -8.40489,-3.425934 -23.69578,-4.674007 -32.42855,-1.598343 -12.24455,4.31307 -18.66031,14.734287 -18.65977,27.253933 0,4.18565 1.09506,11.26837 4.79822,13.86155 M 137.18372,75.136349 c -11.8479,1.536502 -21.88259,4.990695 -33.03367,9.108635 -5.024814,1.85586 -11.95292,3.83912 -15.082429,8.49073 -7.527888,11.188936 -5.351089,30.343996 5.89382,37.886276 5.823979,3.90629 12.955749,3.95267 19.206779,6.661 8.1911,3.54856 14.50877,9.09744 24.08177,7.77473 5.33616,-0.73732 8.73651,-4.74224 9.95845,-9.92167 1.12865,-4.78436 1.086,-9.61724 2.04458,-14.37602 2.01206,-9.99098 5.27485,-21.228956 1.0636,-30.942696 -2.66674,-6.15186 -6.27074,-15.700342 -14.1329,-14.680985 m 28.25623,54.153871 c -6.40991,-7.60306 0.64828,-18.91142 -3.06128,-27.11106 -1.09026,-2.409236 -4.52153,-1.90543 -5.23753,0.48569 -1.14784,3.83005 -0.81836,11.10736 0.30176,14.89637 -1.86491,1.60474 -1.9886,5.68856 -1.59941,7.99704 -2.13521,1.72683 -1.37069,5.01895 -2.18053,7.46391 -3.76554,11.3718 -1.53543,24.09829 1.99127,35.187 1.01988,3.20682 2.85547,14.2614 8.10793,12.42528 4.02998,-1.40855 -0.66641,-7.51243 1.99126,-9.26858 2.40499,-1.58874 2.0238,7.21013 6.44776,4.29175 2.23278,-1.47252 2.52813,-8.04609 3.45899,-10.55663 5.30257,-14.30726 3.64878,-29.21215 0,-43.85581 -1.58822,-6.37311 -3.62107,-14.2438 -3.81459,-20.74433 -0.0629,-2.116546 0.74265,-6.970216 -2.71367,-6.675926 -3.89296,0.33107 -2.61236,6.699916 -2.62623,9.341606 -0.0171,3.34223 -1.43307,6.29207 -1.57808,9.59646 -0.24045,5.4817 0.80237,10.99806 0.51235,16.52723 m 87.68228,-27.26514 c -4.46875,2.04885 -5.07386,13.85142 -5.04561,18.20128 0.0981,15.21732 5.70989,29.48137 1.39096,44.776 -1.06148,3.76074 -5.10372,4.89685 -6.4067,8.14526 -1.11907,2.78883 1.21182,4.67614 3.8583,3.9548 6.78043,-1.84785 9.12463,-12.16351 9.91314,-17.95657 2.39698,-17.61163 -4.3488,-34.9007 0.0544,-52.25536 0.63923,-2.51801 -0.39399,-6.4115 -3.76447,-4.86541 m -188.978206,5.40654 c -0.261236,6.52345 3.125246,11.79511 4.103018,18.12664 1.772145,11.47896 -2.213582,24.10683 1.316314,35.23498 0.88394,2.78564 0.777313,6.98995 3.11085,9.01534 l -0.533136,1.06627 c 1.510909,1.56742 3.804995,7.41859 6.633283,5.93008 1.589816,-0.83649 1.508248,-3.35076 1.285394,-4.8638 -0.62377,-4.23204 -3.763945,-8.36758 -4.581243,-12.84326 -2.407644,-13.18553 1.334974,-26.23564 -2.11122,-39.40465 -1.440535,-5.50463 -2.671013,-12.23868 -9.22326,-12.2616 m 86.368106,115.6906 c 3.12631,-0.16954 6.68286,1.75029 8.53018,-1.59941 2.84108,-0.57365 2.13255,-4.02998 2.13255,-6.39763 0,-4.82009 2.25196,-16.55176 -2.66835,-19.03351 -4.3296,-2.1848 -12.8198,1.58715 -15.19439,5.86557 -1.78281,3.21214 -1.62607,6.49519 -2.2733,9.96912 -0.40145,2.15653 -1.65805,4.58657 -1.01988,6.81135 1.25073,4.35892 7.78325,2.3314 10.49319,4.38451 M 172.37074,195.204 c -1.73856,0.45849 -5.89543,0.96657 -6.91585,2.49721 -2.67741,4.01452 -0.2687,14.2454 -0.59605,19.02337 -0.12795,1.87291 -1.07746,4.5178 0.44357,6.07616 2.01472,2.06323 11.79298,2.27169 14.5317,1.51891 11.97425,-3.28945 5.27273,-32.47494 -7.46337,-29.11565 m 20.80032,4.16593 c -5.26046,0.86848 -4.80623,5.66351 -4.80623,9.89074 0,7.31197 1.07746,16.6344 11.14788,14.23261 4.86061,-1.15957 4.84621,-6.59809 4.84621,-10.50065 0,-7.37541 -1.71083,-15.18853 -11.18786,-13.6227 m -75.71337,17.35465 c -0.20419,-3.17376 0.006,-6.41203 0,-9.59645 -0.0139,-6.65514 -12.44767,-9.62472 -16.00049,-3.93828 -4.164864,6.66687 3.65411,16.86577 10.64833,16.6829 2.30635,-0.0602 3.64612,-1.85104 5.35216,-3.14817 m 7.55454,-15.6193 c -10.45214,3.91536 -4.76038,25.49299 7.14723,21.62562 11.32062,-3.67651 6.81135,-26.85462 -7.14723,-21.62562 m 91.07782,-0.14607 c -8.23855,1.23687 -13.12902,13.27989 -6.33045,19.43922 2.47214,2.24024 7.46017,2.11495 10.57262,1.53596 3.8066,-0.70747 4.02092,-4.70653 4.2379,-7.87549 0.4473,-6.52665 -0.39559,-14.31364 -8.48007,-13.09969"
     style="fill:#ffffff;fill-opacity:1;stroke:none"
     inkscape:connector-curvature="0"
     sodipodi:nodetypes="cccsccccccccccscsccccccccccsccccccccccccccccccccccccccscccscsccccccccccscscccccccccccccc" />
</svg>
