<?xml version="1.0" encoding="UTF-8" standalone="no"?>
<svg
   xmlns:dc="http://purl.org/dc/elements/1.1/"
   xmlns:cc="http://creativecommons.org/ns#"
   xmlns:rdf="http://www.w3.org/1999/02/22-rdf-syntax-ns#"
   xmlns:svg="http://www.w3.org/2000/svg"
   xmlns="http://www.w3.org/2000/svg"
   xmlns:sodipodi="http://sodipodi.sourceforge.net/DTD/sodipodi-0.dtd"
   xmlns:inkscape="http://www.inkscape.org/namespaces/inkscape"
   width="177.16534"
   height="177.16534"
   id="svg2"
   version="1.1"
   inkscape:version="0.48.3.1 r9886"
   sodipodi:docname="Pesthoernchen_small.svg"
   inkscape:export-filename="/home/philipp/_daten/shack/embroidery/pesthoernchen/Pesthoernchen_small.png"
   inkscape:export-xdpi="300"
   inkscape:export-ydpi="300">
  <metadata
     id="metadata10">
    <rdf:RDF>
      <cc:Work
         rdf:about="">
        <dc:format>image/svg+xml</dc:format>
        <dc:type
           rdf:resource="http://purl.org/dc/dcmitype/StillImage" />
        <dc:title></dc:title>
      </cc:Work>
    </rdf:RDF>
  </metadata>
  <defs
     id="defs8" />
  <sodipodi:namedview
     pagecolor="#ffffff"
     bordercolor="#666666"
     borderopacity="1"
     objecttolerance="10"
     gridtolerance="10"
     guidetolerance="10"
     inkscape:pageopacity="0"
     inkscape:pageshadow="2"
     inkscape:window-width="839"
     inkscape:window-height="886"
     id="namedview6"
     showgrid="false"
     inkscape:zoom="3.7479113"
     inkscape:cx="88.582672"
     inkscape:cy="88.582672"
     inkscape:window-x="0"
     inkscape:window-y="27"
     inkscape:window-maximized="0"
     inkscape:current-layer="svg2"
     units="mm"
     showguides="true"
     inkscape:guide-bbox="true" />
  <path
     style="fill:#000000;stroke:none"
     d="m 25.08922,33.838042 -1.860003,-15.677173 0,-7.174297 c -4.797799,0 -9.559142,0.265716 -14.3485978,0.265716 -1.3998923,0 -4.2466277,-0.736375 -5.3827712,0.262632 -0.7409717,0.651532 -0.4909876,2.312782 -0.4524851,3.191659 0.1329369,3.036139 0.7866747,6.008716 0.7866747,9.034304 0,14.197138 5.0206007,28.939263 11.2116754,41.642283 5.32721,10.930713 13.558522,19.893541 22.798753,27.640719 3.020381,2.532262 6.483971,4.426009 9.500104,6.923996 1.759024,1.456649 1.100584,3.348269 1.844326,5.253709 1.04665,2.68213 3.070071,4.11991 5.663441,5.1825 1.545931,0.63347 2.530139,-0.40308 3.974302,-0.39272 1.586842,0.0115 2.924985,1.95539 4.551425,2.19427 1.894013,0.27847 3.059973,-1.15506 4.782864,-1.15214 1.047451,0.002 1.927494,0.76393 2.898949,1.04532 1.569844,0.4549 3.998214,0.76394 5.625183,0.79343 1.346376,0.0242 2.541563,-0.72195 3.940549,-0.62416 3.045358,0.21257 5.851307,1.17153 9.034303,0.73469 1.296686,-0.17776 2.411096,-1.40085 3.709645,-1.39712 2.004817,0.006 3.853658,1.20767 6.120737,0.9571 1.438316,-0.15917 2.348386,-1.86373 3.701146,-1.80102 2.31118,0.10708 3.75986,2.13662 6.39602,1.33629 3.24756,-0.98634 2.19054,-4.73903 4.78525,-6.12659 6.51905,-3.48698 13.29027,-5.67168 19.20507,-10.374306 1.83954,-1.462756 4.47517,-2.976002 5.50508,-5.141841 2.02766,-0.375723 3.76837,-3.357571 5.15168,-4.813689 3.71124,-3.905745 6.77865,-8.648218 9.74031,-13.151555 1.26905,-1.929886 2.33908,-4.660107 3.97375,-6.214804 0.36856,-1.919261 1.84247,-3.920886 2.70339,-5.69294 1.62219,-3.339499 3.3318,-7.028421 4.47783,-10.560831 4.23921,-13.065995 6.90166,-25.978139 6.90166,-39.812047 l -40.38863,0 c 0.0104,3.7157 1.32166,7.47254 1.57994,11.163899 0.37173,5.310149 -0.48892,10.770323 -1.48004,15.939007 -0.33108,1.726086 -0.39857,7.833807 -2.51126,8.276754 -0.99378,0.208316 -1.40776,-0.875533 -1.65009,-1.634146 -0.78731,-2.461584 -1.38889,-4.868694 -2.54688,-7.20858 -4.61599,-9.328977 -10.44685,-17.1462 -18.81128,-23.532683 C 100.15657,8.5632249 93.032753,4.6774154 85.406477,3.3985279 68.310387,0.5316259 49.528071,8.763706 39.691042,23.019465 c -3.336844,4.836007 -5.521019,10.210889 -6.93781,15.891073 -0.334004,1.339473 -0.926814,2.863344 -1.009451,4.227527 -0.06217,1.028312 0.339317,2.713739 -0.284847,3.603621 -1.335747,1.904907 -2.442715,-1.247528 -2.802758,-2.085062 -1.106968,-2.576636 -1.556026,-5.391086 -2.493735,-8.008382 -0.351805,-0.981284 -0.22745,-2.126251 -1.073221,-2.8102 M 90.18934,56.95523 c -0.165004,1.670012 0.749318,3.264834 1.372153,4.782863 1.300408,3.170249 1.696058,7.41185 5.612165,8.100847 4.100502,0.721149 8.550432,-3.137827 11.772492,-5.021213 2.46424,-1.440438 5.52287,-1.363117 7.84522,-3.036058 3.87572,-2.791331 5.77718,-9.178849 4.56499,-13.836828 -0.66934,-2.571584 -2.70763,-5.19127 -4.0641,-7.463927 -1.6865,-0.454106 -2.40579,-2.558302 -4.03197,-3.220997 -4.18899,-1.707481 -11.80996,-2.329523 -16.162364,-0.796611 -6.102674,2.149629 -9.300283,7.343556 -9.300015,13.583338 0,2.086126 0.545777,5.616148 2.391429,6.908586 M 67.869303,36.873568 c -5.904984,0.765791 -10.906266,2.487358 -16.463956,4.539737 -2.504363,0.924959 -5.957326,1.913414 -7.51707,4.231773 -3.751894,5.576558 -2.666979,15.123425 2.937474,18.882491 2.902667,1.946892 6.457136,1.970009 9.572645,3.319837 4.082438,1.768601 7.23116,4.534158 12.002336,3.874921 2.659537,-0.367481 4.354269,-2.36353 4.963283,-4.944953 0.562518,-2.384522 0.541262,-4.793225 1.019018,-7.164998 1.002809,-4.979497 2.62898,-10.580496 0.530097,-15.421816 -1.329101,-3.066082 -3.125333,-7.825041 -7.043827,-7.316992 m 14.082883,26.990248 c -3.194693,-3.789359 0.323103,-9.425438 -1.525739,-13.512132 -0.543385,-1.200761 -2.253527,-0.949665 -2.610381,0.242068 -0.572082,1.908894 -0.40787,5.5359 0.150397,7.424339 -0.929469,0.799802 -0.991117,2.835175 -0.797145,3.985719 -1.064187,0.860651 -0.683151,2.501441 -1.086774,3.720007 -1.876743,5.667696 -0.765258,12.010569 0.992448,17.537173 0.508307,1.598278 1.423164,7.107871 4.040986,6.192751 2.008538,-0.702021 -0.332139,-3.744189 0.992442,-4.619453 1.198645,-0.791827 1.008661,3.593522 3.213559,2.139005 1.112815,-0.733904 1.260018,-4.010165 1.723958,-5.261416 2.642796,-7.130728 1.818549,-14.559314 0,-21.857702 -0.791568,-3.176354 -1.804738,-7.099099 -1.901189,-10.338959 -0.03136,-1.054885 0.370136,-3.47395 -1.352492,-3.327276 -1.940247,0.165005 -1.301998,3.339232 -1.308911,4.65585 -0.0085,1.665764 -0.714241,3.135961 -0.786514,4.782867 -0.11984,2.732076 0.399902,5.481425 0.255355,8.237159 M 125.65297,50.274891 c -2.22722,1.021145 -2.52882,6.903537 -2.51473,9.071505 0.0489,7.5843 2.84581,14.693491 0.69326,22.316324 -0.52904,1.874349 -2.54369,2.440586 -3.1931,4.059591 -0.55775,1.38995 0.60397,2.330584 1.92298,1.971069 3.37935,-0.920967 4.5477,-6.062284 4.9407,-8.94954 1.19465,-8.777623 -2.16744,-17.394482 0.0271,-26.044032 0.31859,-1.254974 -0.19636,-3.195487 -1.87621,-2.424917 m -94.186592,2.694615 c -0.130199,3.251283 1.55762,5.878675 2.044941,9.034304 0.883236,5.721105 -1.103248,12.014826 0.65605,17.561087 0.440555,1.388361 0.387413,3.483786 1.550445,4.493239 l -0.265668,0.531428 c 0.753036,0.781201 1.896407,3.69742 3.306024,2.955548 0.792363,-0.416907 0.751709,-1.670017 0.640639,-2.424115 -0.310887,-2.109245 -1.875948,-4.170395 -2.283288,-6.40107 -1.199968,-6.571659 0.66535,-13.075824 -1.052231,-19.639248 -0.717961,-2.743504 -1.331231,-6.099749 -4.596865,-6.111173 m 43.045798,57.660104 c 1.55815,-0.0845 3.330732,0.87235 4.251434,-0.79714 1.415993,-0.28591 1.062862,-2.00854 1.062862,-3.18858 0,-2.40232 1.122375,-8.24938 -1.329904,-9.486282 -2.157869,-1.088903 -6.389378,0.791034 -7.572872,2.923392 -0.888551,1.60093 -0.810433,3.2372 -1.133011,4.96861 -0.200082,1.07481 -0.82637,2.28594 -0.508308,3.39477 0.623363,2.17248 3.879166,1.16196 5.229799,2.18523 M 85.406487,96.715194 c -0.866496,0.228511 -2.938278,0.481737 -3.446855,1.244608 -1.334418,2.000833 -0.133919,7.099898 -0.29707,9.481228 -0.06377,0.93346 -0.537006,2.25167 0.221074,3.02836 1.004136,1.02831 5.877613,1.13221 7.242588,0.75702 5.967958,-1.63946 2.627926,-16.185484 -3.719737,-14.511216 M 95.77335,98.79149 c -2.621808,0.432849 -2.39542,2.82269 -2.39542,4.92954 0,3.64428 0.537005,8.29057 5.556094,7.09352 2.422526,-0.57793 2.415346,-3.28848 2.415346,-5.23352 0,-3.67589 -0.85268,-7.569949 -5.57602,-6.78954 m -37.735485,8.64954 c -0.101763,-1.5818 0.003,-3.19575 0,-4.78286 -0.007,-3.316916 -6.20391,-4.796952 -7.974632,-1.96283 -2.075764,3.32276 1.821205,8.40588 5.30712,8.31474 1.149483,-0.03 1.817223,-0.92256 2.667512,-1.56905 m 3.765177,-7.784643 c -5.209339,1.951413 -2.37257,12.705683 3.562175,10.778193 5.642187,-1.83237 3.39477,-13.384322 -3.562175,-10.778193 m 45.393118,-0.0728 c -4.10609,0.616453 -6.5435,6.618683 -3.15509,9.688493 1.23211,1.11653 3.71814,1.05409 5.26938,0.76552 1.8972,-0.3526 2.00403,-2.34573 2.11217,-3.92514 0.22293,-3.25287 -0.19716,-7.133904 -4.22646,-6.528873 m 13.28468,16.094603 c 1.93228,4.83149 5.99452,9.77512 9.15361,13.87324 0.92229,1.19652 1.79782,3.70247 3.3456,4.11088 2.30774,0.609 7.48785,0.65551 9.78283,2.5e-4 1.12929,-0.32258 1.43991,-3.37564 2.87663,-2.55005 0.96481,0.55454 0.34144,2.77485 0.351,3.69715 0.0319,3.10753 1.10113,5.10038 2.65609,7.70573 1.88525,0.3425 3.6278,2.10366 5.58001,2.66379 4.56923,1.31156 10.42479,-0.3744 14.33823,-2.79957 5.80136,-3.59485 8.14071,-15.30172 0.80751,-18.72998 -0.85852,2.95955 -3.68439,-0.0709 -0.79715,-0.53142 0.0815,-1.49146 0.95631,-2.22882 1.51724,-3.53108 1.3299,-3.08761 2.6133,-6.60302 2.15282,-10.01639 -1.23956,-9.18629 -14.01646,-13.035965 -20.74887,-7.48758 -2.59072,2.13503 -4.43797,4.8222 -5.36371,8.03894 -0.40336,1.40085 0.16553,4.58305 -1.2975,5.32811 -1.73962,0.8859 -5.15327,0.22798 -7.08288,0.22798 l -17.27146,0 m -105.488771,6.64287 0.53143,0 c 0.711158,-0.7695 3.503077,-1.43885 2.557106,0.41877 -0.71658,1.40749 -2.446118,1.88977 -3.552103,2.8761 -1.853918,1.65328 -2.763752,3.66447 -4.3193,5.47372 -0.221074,2.98955 -0.3055184,5.38179 0.852918,8.23716 2.875938,7.08873 13.16832,14.38128 19.823943,7.67171 2.073639,-2.09037 4.119111,-5.39587 3.931517,-8.4476 -0.07148,-1.1617 -2.239976,-4.7547 -0.840457,-5.44769 1.339203,-0.66321 2.347325,1.42875 3.60575,1.47712 4.544256,0.1751 9.322072,-0.60424 13.812123,0.22931 l 2.391434,-3.4543 2.125718,-3.18857 c 0.998024,-3.87465 4.749914,-8.06339 6.908586,-11.42573 -6.012594,-1.11627 -12.527659,0.53142 -18.600038,0.53142 -1.732195,0 -5.090299,0.64198 -6.602217,-0.27315 -1.217771,-0.73683 0.164211,-4.1114 -0.110542,-5.5274 -0.878985,-4.5307 -4.157373,-8.44733 -8.964419,-9.04413 -7.078509,-0.87898 -16.418543,4.41087 -16.721591,12.18754 -0.116436,2.98849 1.56421,5.38364 3.170137,7.70572 m 77.057287,-5.84572 0,0.26572 6.130306,9.64146 2.106853,3.64428 1.32857,2.92285 c 0.94436,0.27582 1.49491,1.1293 1.05143,2.12573 -1.83476,4.1207 -4.559131,6.35935 -1.12742,10.77074 2.85351,3.66872 8.38171,3.16759 12.2537,1.92803 1.16357,-0.37254 2.17993,-1.83529 3.48486,-1.66975 1.32378,0.16793 0.871,1.78294 1.4585,2.60002 1.05357,1.46542 3.99608,2.53756 5.7304,2.24475 8.04479,-1.35807 8.09022,-11.89233 2.80994,-16.3263 -2.29577,-1.92777 -6.35298,-2.76664 -8.17632,-4.92051 -2.32844,-2.75041 -4.26419,-6.21454 -6.2427,-9.22031 -0.85719,-1.30227 -1.85123,-3.66128 -3.30522,-4.37792 -1.378,-0.67916 -3.53693,-0.19982 -5.0143,-0.16421 -4.17677,0.10068 -8.385432,0.41585 -12.488599,0.53542 m -19.397179,0 -5.016697,8.31023 -4.283318,6.03837 0,0.26571 c 0.602376,0.6518 1.028312,1.73698 -0.06085,2.23121 -1.511914,0.68581 -3.349601,0.3898 -4.98773,1.18748 -4.516624,2.19879 -7.145605,7.61963 -4.869496,12.41153 2.452284,5.16179 7.858521,5.18411 11.519004,1.20529 0.861184,-0.93585 1.190138,-3.98812 2.403126,-4.16136 2.293384,-0.32763 1.119191,3.81832 2.423317,4.80041 2.727565,2.05397 11.107146,-1.7306 11.109803,-5.18597 0.958167,-0.61884 1.726614,-3.14074 0.797144,-3.98571 0.364824,-2.067 -1.267723,-4.83522 -3.454291,-4.78287 0.133651,-2.87876 2.512067,-5.29543 4.09626,-7.54895 2.226687,-3.1676 4.970725,-7.14296 6.266617,-10.78537 l -15.942889,0 M 25.08922,33.838042 z"
     id="path4"
     inkscape:connector-curvature="0" />
  <path
     id="path2987"
     d="m 90.18934,56.95523 c -0.165004,1.670012 0.749318,3.264834 1.372153,4.782863 1.300408,3.170249 1.696058,7.41185 5.612165,8.100847 4.100502,0.721149 8.550432,-3.137827 11.772492,-5.021213 2.46424,-1.440438 5.52287,-1.363117 7.84522,-3.036058 3.87572,-2.791331 5.77718,-9.178849 4.56499,-13.836828 -0.66934,-2.571584 -2.70763,-5.19127 -4.0641,-7.463927 -1.6865,-0.454106 -2.40579,-2.558302 -4.03197,-3.220997 -4.18899,-1.707481 -11.80996,-2.329523 -16.162364,-0.796611 -6.102674,2.149629 -9.300283,7.343556 -9.300015,13.583338 0,2.086126 0.545777,5.616148 2.391429,6.908586 M 67.869303,36.873568 c -5.904984,0.765791 -10.906266,2.487358 -16.463956,4.539737 -2.504363,0.924959 -5.957326,1.913414 -7.51707,4.231773 -3.751894,5.576558 -2.666979,15.123425 2.937474,18.882491 2.902667,1.946892 6.457136,1.970009 9.572645,3.319837 4.082438,1.768601 7.23116,4.534158 12.002336,3.874921 2.659537,-0.367481 4.354269,-2.36353 4.963283,-4.944953 0.562518,-2.384522 0.541262,-4.793225 1.019018,-7.164998 1.002809,-4.979497 2.62898,-10.580496 0.530097,-15.421816 -1.329101,-3.066082 -3.125333,-7.825041 -7.043827,-7.316992 m 14.082883,26.990248 c -3.194693,-3.789359 0.323103,-9.425438 -1.525739,-13.512132 -0.543385,-1.200761 -2.253527,-0.949665 -2.610381,0.242068 -0.572082,1.908894 -0.40787,5.5359 0.150397,7.424339 -0.929469,0.799802 -0.991117,2.835175 -0.797145,3.985719 -1.064187,0.860651 -0.683151,2.501441 -1.086774,3.720007 -1.876743,5.667696 -0.765258,12.010569 0.992448,17.537173 0.508307,1.598278 1.423164,7.107871 4.040986,6.192751 2.008538,-0.702021 -0.332139,-3.744189 0.992442,-4.619453 1.198645,-0.791827 1.008661,3.593522 3.213559,2.139005 1.112815,-0.733904 1.260018,-4.010165 1.723958,-5.261416 2.642796,-7.130728 1.818549,-14.559314 0,-21.857702 -0.791568,-3.176354 -1.804738,-7.099099 -1.901189,-10.338959 -0.03136,-1.054885 0.370136,-3.47395 -1.352492,-3.327276 -1.940247,0.165005 -1.301998,3.339232 -1.308911,4.65585 -0.0085,1.665764 -0.714241,3.135961 -0.786514,4.782867 -0.11984,2.732076 0.399902,5.481425 0.255355,8.237159 M 125.65297,50.274891 c -2.22722,1.021145 -2.52882,6.903537 -2.51473,9.071505 0.0489,7.5843 2.84581,14.693491 0.69326,22.316324 -0.52904,1.874349 -2.54369,2.440586 -3.1931,4.059591 -0.55775,1.38995 0.60397,2.330584 1.92298,1.971069 3.37935,-0.920967 4.5477,-6.062284 4.9407,-8.94954 1.19465,-8.777623 -2.16744,-17.394482 0.0271,-26.044032 0.31859,-1.254974 -0.19636,-3.195487 -1.87621,-2.424917 m -94.186592,2.694615 c -0.130199,3.251283 1.55762,5.878675 2.044941,9.034304 0.883236,5.721105 -1.103248,12.014826 0.65605,17.561087 0.440555,1.388361 0.387413,3.483786 1.550445,4.493239 l -0.265668,0.531428 c 0.753036,0.781201 1.896407,3.69742 3.306024,2.955548 0.792363,-0.416907 0.751709,-1.670017 0.640639,-2.424115 -0.310887,-2.109245 -1.875948,-4.170395 -2.283288,-6.40107 -1.199968,-6.571659 0.66535,-13.075824 -1.052231,-19.639248 -0.717961,-2.743504 -1.331231,-6.099749 -4.596865,-6.111173 m 43.045798,57.660104 c 1.55815,-0.0845 3.330732,0.87235 4.251434,-0.79714 1.415993,-0.28591 1.062862,-2.00854 1.062862,-3.18858 0,-2.40232 1.122375,-8.24938 -1.329904,-9.486282 -2.157869,-1.088903 -6.389378,0.791034 -7.572872,2.923392 -0.888551,1.60093 -0.810433,3.2372 -1.133011,4.96861 -0.200082,1.07481 -0.82637,2.28594 -0.508308,3.39477 0.623363,2.17248 3.879166,1.16196 5.229799,2.18523 M 85.406487,96.715194 c -0.866496,0.228511 -2.938278,0.481737 -3.446855,1.244608 -1.334418,2.000833 -0.133919,7.099898 -0.29707,9.481228 -0.06377,0.93346 -0.537006,2.25167 0.221074,3.02836 1.004136,1.02831 5.877613,1.13221 7.242588,0.75702 5.967958,-1.63946 2.627926,-16.185484 -3.719737,-14.511216 M 95.77335,98.79149 c -2.621808,0.432849 -2.39542,2.82269 -2.39542,4.92954 0,3.64428 0.537005,8.29057 5.556094,7.09352 2.422526,-0.57793 2.415346,-3.28848 2.415346,-5.23352 0,-3.67589 -0.85268,-7.569949 -5.57602,-6.78954 m -37.735485,8.64954 c -0.101763,-1.5818 0.003,-3.19575 0,-4.78286 -0.007,-3.316916 -6.20391,-4.796952 -7.974632,-1.96283 -2.075764,3.32276 1.821205,8.40588 5.30712,8.31474 1.149483,-0.03 1.817223,-0.92256 2.667512,-1.56905 m 3.765177,-7.784643 c -5.209339,1.951413 -2.37257,12.705683 3.562175,10.778193 5.642187,-1.83237 3.39477,-13.384322 -3.562175,-10.778193 m 45.393118,-0.0728 c -4.10609,0.616453 -6.5435,6.618683 -3.15509,9.688493 1.23211,1.11653 3.71814,1.05409 5.26938,0.76552 1.8972,-0.3526 2.00403,-2.34573 2.11217,-3.92514 0.22293,-3.25287 -0.19716,-7.133904 -4.22646,-6.528873"
     style="fill:#ffffff;fill-opacity:1;stroke:none"
     inkscape:connector-curvature="0"
     sodipodi:nodetypes="cccsccccccccccscsccccccccccsccccccccccccccccccccccccccscccscsccccccccccscscccccccccccccc" />
</svg>
