<?xml version="1.0" encoding="UTF-8" standalone="no"?>
<!-- Created with Inkscape (http://www.inkscape.org/) -->

<svg
   xmlns:dc="http://purl.org/dc/elements/1.1/"
   xmlns:cc="http://creativecommons.org/ns#"
   xmlns:rdf="http://www.w3.org/1999/02/22-rdf-syntax-ns#"
   xmlns:svg="http://www.w3.org/2000/svg"
   xmlns="http://www.w3.org/2000/svg"
   xmlns:sodipodi="http://sodipodi.sourceforge.net/DTD/sodipodi-0.dtd"
   xmlns:inkscape="http://www.inkscape.org/namespaces/inkscape"
   id="svg2"
   version="1.1"
   inkscape:version="0.48.3.1 r9886"
   width="177.16534"
   height="177.16534"
   xml:space="preserve"
   sodipodi:docname="earth_small.svg"
   inkscape:export-filename="/home/philipp/_daten/shack/embroidery/hgg/earth_small.png"
   inkscape:export-xdpi="300.22803"
   inkscape:export-ydpi="300.22803"><metadata
     id="metadata8"><rdf:RDF><cc:Work
         rdf:about=""><dc:format>image/svg+xml</dc:format><dc:type
           rdf:resource="http://purl.org/dc/dcmitype/StillImage" /><dc:title></dc:title></cc:Work></rdf:RDF></metadata><defs
     id="defs6"><clipPath
       clipPathUnits="userSpaceOnUse"
       id="clipPath18"><path
         d="m 0,0 6120,0 0,5536.64 -6120,0 L 0,0 z"
         id="path20"
         inkscape:connector-curvature="0" /></clipPath></defs><sodipodi:namedview
     pagecolor="#ffffff"
     bordercolor="#666666"
     borderopacity="1"
     objecttolerance="10"
     gridtolerance="10"
     guidetolerance="10"
     inkscape:pageopacity="0"
     inkscape:pageshadow="2"
     inkscape:window-width="839"
     inkscape:window-height="886"
     id="namedview4"
     showgrid="false"
     units="mm"
     inkscape:zoom="3.7479113"
     inkscape:cx="88.582672"
     inkscape:cy="88.582672"
     inkscape:window-x="0"
     inkscape:window-y="27"
     inkscape:window-maximized="0"
     inkscape:current-layer="g16" /><g
     id="g10"
     inkscape:groupmode="layer"
     inkscape:label="hgg_alles_cmyk_100k"
     transform="matrix(1.25,0,0,-1.25,0,177.16524)"><g
       id="g12"
       transform="scale(0.1,0.1)"><g
         id="g14"><g
           id="g16"
           clip-path="url(#clipPath18)"><path
             d="m 1301.3712,411.5685 c -6.8314,-13.38821 -30.2608,-52.26688 -30.4865,-52.64975 -36.9254,-58.71553 -82.5963,-111.1297 -135.7565,-155.79952 0.4222,8.68657 0.4909,17.55967 0.1766,26.44265 -0.019,0.3435 -0.2256,0.6674 -0.5593,0.84409 -0.1277,0.0591 -0.2847,0.0882 -0.432,0.0882 -0.1962,0 -0.4024,-0.0488 -0.5595,-0.18646 l -11.857,-8.4511 c -0.2649,-0.19631 -0.4122,-0.50059 -0.4122,-0.80485 0.098,-10.16868 -0.3631,-20.30799 -1.3349,-30.16263 -64.006,-50.68663 -135.73687,-88.68196 -213.18707,-112.935726 -8.37749,5.103907 -16.94625,11.601694 -25.49643,19.306804 -0.18451,0.176686 -0.42208,0.255173 -0.65174,0.255173 -0.11579,0 -0.2228,0 -0.32589,-0.03942 l -12.81398,-4.416892 c -0.31803,-0.107962 -0.5673,-0.382856 -0.64386,-0.706742 -0.0697,-0.343515 0.0385,-0.687031 0.2876,-0.922584 7.40763,-7.106331 14.85654,-13.39806 22.15327,-18.688511 C 831.10467,56.221948 770.48679,47.83957 709.27515,47.83957 c -35.52284,0 -71.35291,2.895515 -106.49296,8.608072 -0.18447,0.03943 -25.07536,5.850009 -33.05034,8.549222 -4.84976,1.668665 -19.04376,8.068252 -19.19004,8.127106 -0.0883,0.05914 -0.17961,0.07886 -0.27975,0.09754 -15.26781,1.91397 -30.92236,4.367877 -46.52291,7.283019 -90.83056,29.662153 -176.13997,80.132743 -246.57317,145.905633 -15.93527,21.43683 -30.37762,43.65878 -42.86573,65.96918 51.78007,-30.19211 117.42041,-50.36273 190.10429,-58.39164 5.97364,-0.65766 12.09647,-1.24658 18.19281,-1.76677 0.0187,0 0.05,0 0.0766,0 0.30624,0 0.61346,0.15695 0.79309,0.40236 0.20317,0.29451 0.24242,0.65765 0.10796,0.96193 l -4.02626,9.57984 11.08058,0.55945 c 0.33371,0.0197 0.63309,0.21593 0.80584,0.50058 0.1649,0.28465 0.17177,0.64778 0.0187,0.9423 -43.93856,83.94109 -69.70392,182.1538 -76.58646,291.88973 24.31565,-2.93477 49.42142,-4.40712 74.63124,-4.40712 67.59558,0 137.12774,10.11968 206.6864,30.07441 35.99501,-109.4023 72.3619,-203.36485 108.0693,-279.23779 0.16095,-0.34352 0.51331,-0.55944 0.88925,-0.55944 0.0963,0 0.19141,0.0197 0.2876,0.0394 l 11.54095,3.64152 c 0.26793,0.0788 0.49073,0.2944 0.60558,0.53981 0.10315,0.26504 0.10315,0.55945 -0.0115,0.82447 -35.50423,75.50972 -71.81326,169.65883 -107.93093,279.77761 -0.13348,0.42212 -0.51721,0.66744 -0.93143,0.66744 -0.0844,0 -0.18067,0 -0.27586,-0.0395 l -10.96573,-3.25864 -3.45112,10.54166 c -0.13346,0.42207 -0.5172,0.67726 -0.93142,0.67726 -0.0844,0 -0.17961,0 -0.27584,-0.0395 -68.33165,-19.65021 -136.72526,-29.6227 -203.24704,-29.6227 -25.72708,0 -51.10965,1.54101 -75.47536,4.58381 -2.55003,53.41532 -0.70179,109.63786 5.50939,167.14617 5.2836,48.89035 13.69932,99.53777 25.01056,150.5287 8.07807,-0.49088 16.12273,-0.76563 23.88672,-0.76563 43.55574,0 88.82918,7.09645 134.57767,21.07361 0.49864,0.14718 0.78625,0.6674 0.66354,1.16799 l -2.73358,10.80679 10.9196,3.51377 c 0.48689,0.14733 0.77443,0.66754 0.65178,1.16814 -29.84175,118.40288 -50.3922,216.14458 -57.26296,258.82178 37.29453,-32.3417 109.72124,-103.5622 190.10431,-192.30307 0.19136,-0.20603 0.45936,-0.32384 0.7283,-0.32384 0.21098,0 0.4024,0.0591 0.57517,0.18652 l 9.10573,6.58605 7.45777,-8.28416 c 0.19131,-0.21594 0.45936,-0.3337 0.7283,-0.3337 0.21097,0 0.41421,0.0686 0.58691,0.19633 45.57577,33.91207 82.47964,73.91967 106.78056,115.73307 99.44551,-45.6611 193.73792,-104.85766 272.72732,-171.20957 0.1864,-0.15705 0.4024,-0.22581 0.6379,-0.22581 0.059,0 0.1275,0.0105 0.1865,0.0105 0.2945,0.0591 0.5496,0.25512 0.6968,0.52016 l 4.8586,9.32458 8.3236,-7.06708 c 0.1864,-0.14722 0.4023,-0.22574 0.6379,-0.22574 0.068,0 0.1276,0 0.1866,0.0195 0.3041,0.0592 0.5595,0.24531 0.6968,0.52025 33.4507,65.02684 49.1455,131.54564 45.4256,192.50904 77.1488,-49.8426 140.9292,-118.31466 189.5644,-203.53173 6.0169,-64.30059 -11.739,-137.61168 -51.354,-212.07115 -0.1571,-0.26493 -0.1571,-0.58887 -0.019,-0.88338 l 6.5074,-13.33909 c 0.1571,-0.32395 0.4811,-0.53983 0.854,-0.55945 0.019,0 0.019,0 0.029,0 0.3534,0 0.6771,0.19632 0.844,0.52017 37.485,67.98131 57.5968,136.46326 58.2838,198.2805 0.1375,-0.24532 0.2552,-0.47112 0.3828,-0.72629 14.144,-54.26924 21.3681,-110.61937 21.3681,-167.26397 0,-86.65015 -16.5979,-171.02311 -49.3125,-250.77308 -0.1471,-0.36315 -15.5771,-36.76839 -21.5252,-48.43893 z M 174.04933,320.03023 c 5.27185,-4.25992 10.793,-8.42162 16.49868,-12.42628 4.30109,-8.62769 8.90255,-17.27512 13.73368,-25.82422 -10.5633,12.42628 -20.70457,25.24516 -30.23236,38.2505 z m -46.83388,73.64481 c -49.21108,89.98745 -76.234105,187.75842 -80.30592,290.57457 0.440907,13.62374 1.610311,27.49277 3.477591,41.23436 20.850035,-42.40245 51.254639,-78.88619 90.432249,-108.43052 -3.14486,-22.752 -4.94599,-45.1605 -5.36019,-66.63658 -1.43795,-74.49877 12.7865,-146.90679 42.29055,-215.3004 -20.56321,17.46156 -37.54383,37.15125 -50.53428,58.55857 z m 31.93807,686.65446 c 14.21758,14.2323 30.29714,27.1298 47.74691,38.2703 -16.29941,-37.8973 -22.19257,-75.5196 -17.07386,-109.049 C 122.27713,944.48472 75.914778,872.75389 51.863257,796.14491 64.9875,897.44952 101.96008,995.46587 159.15352,1080.3295 z m 85.38595,102.7573 c -4.83014,-6.4976 -9.29712,-12.8974 -13.34204,-19.1498 -4.65151,-7.1653 -8.99089,-14.5562 -13.28513,-22.5263 -8.45496,-4.6231 -16.77448,-9.6584 -24.78776,-15.0667 15.93037,19.7487 33.18385,38.7806 51.41493,56.7428 z m 80.36343,63.4171 0.67137,0 c 37.42114,0 103.72502,-36.1402 136.24632,-56.8801 -7.54606,0.2356 -15.04895,0.3239 -22.3722,0.3239 -76.90545,0.03 -143.73447,-12.5145 -198.70453,-37.2297 0.72831,1.1878 1.4576,2.395 2.23596,3.5925 20.90382,32.3024 48.47031,62.6417 81.92308,90.1934 z m 71.21941,48.4488 c 16.90898,9.0989 34.41175,17.5598 51.97148,25.1176 8.53152,3.4843 17.24659,6.7824 25.89983,9.7466 -2.70315,-24.509 -2.51175,-66.6268 2.71495,-132.1445 -30.95379,20.6908 -91.25262,53.9847 -135.78599,61.3855 17.35654,13.0545 35.91448,25.1371 55.19973,35.8948 z M 270.4776,916.0202 c 74.53604,120.199 161.7506,207.1241 192.14786,235.7261 -26.50153,-56.9587 -63.09032,-155.61311 -88.99018,-267.83221 -39.60701,3.94576 -75.2447,15.02725 -103.15768,32.10611 z m 69.21806,-362.80604 c -42.01473,6.35064 -81.21049,17.27515 -116.53115,32.49881 -24.39221,10.52209 -47.1786,23.37044 -67.74084,38.15232 11.1493,71.80931 36.68401,146.87737 75.90038,223.18218 9.51601,18.50197 20.23244,37.67144 31.84992,56.98815 29.2999,-17.90331 66.36867,-29.61306 107.35573,-33.91222 -11.25334,-50.95169 -19.63076,-101.49096 -24.89181,-150.21457 -6.22197,-57.57702 -8.21645,-113.64246 -5.94223,-166.69467 z m -186.49223,54.98582 c 19.66903,-13.51574 41.31982,-25.40225 64.40167,-35.37461 37.09525,-15.98929 78.42685,-27.3751 122.84536,-33.8532 3.6317,-62.73992 13.36265,-122.15247 28.90925,-176.63769 11.54092,-40.39026 26.64778,-79.15122 44.89849,-115.25218 -2.77972,0.26502 -5.55256,0.55954 -8.30086,0.86381 -80.9769,8.93198 -151.73598,32.89132 -204.6664,69.25732 -44.92794,90.87072 -61.09682,188.77919 -48.08751,290.99655 z m 98.21859,303.629 C 239.56307,892.10002 228.60911,872.46938 218.85165,853.46672 180.54809,778.96801 155.10861,704.81272 143.2418,633.0428 103.05272,664.92311 73.223186,704.3809 54.577802,750.34641 72.130449,837.8505 118.77274,919.54388 193.2011,993.23775 c 1.89732,-6.99847 4.29423,-13.74152 7.11224,-20.05288 10.73507,-23.99857 27.91985,-44.65021 51.10868,-61.35589 z M 453.69149,1162.867 c -30.75747,-28.6608 -118.50108,-115.468 -194.94621,-239.00438 -20.69672,15.12548 -36.0411,33.64708 -45.60716,55.04463 -3.52668,7.89162 -6.26811,16.53901 -8.18603,25.69665 16.79411,15.8224 34.92213,31.2325 53.86975,45.8281 82.20381,63.2405 164.81005,100.1071 194.86965,112.435 z m -18.02006,26.0305 c 1.27698,0.019 2.49214,0.079 3.77696,0.079 8.49227,0 17.11901,-0.1568 25.88022,-0.4414 -10.08433,0.3434 -19.93013,0.4218 -29.65718,0.363 z m 3.70726,-12.9564 c 2.99077,0 5.99328,-0.019 8.99189,-0.059 -29.87606,-12.1808 -113.67094,-49.3713 -198.11758,-114.3393 -16.55167,-12.7306 -32.62141,-26.2268 -47.76164,-40.0861 -2.80328,33.8533 6.08456,71.6622 25.75361,109.52 56.45709,29.8388 127.48509,44.9643 211.13372,44.9643 z m 99.25805,-273.39746 c -44.27228,-13.49618 -88.05083,-20.33746 -130.149,-20.33746 -6.82464,0 -13.63062,0.20604 -20.74285,0.58892 30.26279,130.5444 72.68781,233.8611 94.12067,276.7151 7.23491,-44.5127 27.32503,-139.8888 56.77118,-256.96656 z m -49.81697,432.13196 c 41.49743,12.7599 82.86732,19.2184 122.96512,19.2184 8.47362,0 16.92758,-0.3044 25.1784,-0.8931 -52.24043,-32.5381 -101.23974,-83.048 -145.69656,-150.2636 -5.2532,67.1764 -6.07768,111.5321 -2.44696,131.9383 z m 184.97083,38.0737 c -5.46421,-2.4833 -10.81261,-5.0646 -15.94998,-7.7737 -12.08962,1.6 -24.50014,2.5421 -37.03832,2.866 17.40755,2.3164 35.15966,3.9655 52.9883,4.9077 z m 42.88437,0.8638 c 97.7514,-1.0601 191.58446,-22.9484 279.06696,-65.0955 -43.49779,10.9931 -87.9281,16.5488 -132.22002,16.5488 -27.85407,0 -56.15772,-2.2085 -84.15902,-6.5372 -26.32098,19.8663 -60.023,34.4913 -97.67384,42.4024 11.49382,5.0647 23.24184,9.3247 34.98592,12.6815 z m 144.34797,-49.5775 c 0.83133,0.01 1.65582,0.049 2.49897,0.049 7.09355,0 14.28233,-0.1865 21.49078,-0.4809 -8.07117,0.3336 -16.07662,0.471 -23.98975,0.4317 z M 1108.5384,1202.374 c 9.3245,-20.0528 15.9891,-41.4307 19.8369,-63.5546 -68.0011,39.1144 -146.39746,65.2624 -233.06822,77.7182 -17.44488,2.5225 -35.62989,4.4857 -54.07981,5.9285 -2.08971,11.3466 -5.48288,22.3202 -10.0647,32.587 -8.49324,18.983 -21.01866,36.2287 -37.27984,51.3443 23.18889,3.0624 46.61523,4.5936 69.67846,4.6132 63.41617,0 126.69892,-11.6705 188.07741,-34.6973 29.1812,-30.1333 47.8009,-54.3282 56.8998,-73.9393 z m -265.33723,4.6231 c 109.21572,-8.7259 206.03263,-38.1328 287.80453,-87.406 6.007,-60.2468 -8.2056,-126.57914 -41.1559,-191.91029 -49.3125,40.93996 -104.60537,79.34739 -164.34866,114.13319 -34.75626,20.2492 -70.98873,39.0947 -107.69337,56.0262 19.35493,37.1317 28.11611,74.8423 25.3934,109.1569 z m -309.43386,-22.4676 c 83.99909,16.7551 163.81381,25.2649 237.36441,25.2649 19.63764,0 39.17319,-0.6183 58.06776,-1.8059 3.15175,-32.5087 -5.10303,-68.59 -23.91023,-104.4554 -95.28576,42.6872 -188.98434,70.6217 -271.52194,80.9964 z m 265.03493,-92.657 c -23.36945,-39.7032 -58.85401,-77.836 -102.716,-110.38381 -78.36988,86.53251 -150.84279,158.02761 -189.20325,191.74351 87.27249,-6.9689 188.10978,-35.0802 291.91925,-81.3597 z m -285.58538,118.1869 c 45.16646,64.6442 94.68408,111.8661 147.21892,140.409 37.79712,-5.526 72.08616,-17.7167 99.3346,-35.3353 -106.08269,-20.2785 -191.87893,-67.6083 -246.55352,-105.0737 z m 108.08408,3.2392 c -12.23096,-1.708 -23.90544,-3.5238 -34.95554,-5.3887 11.0501,1.8649 22.72458,3.6807 34.95554,5.3887 z m 152.93634,10.7969 c -5.09222,0.019 -10.1344,-0.019 -15.15691,-0.079 3.96837,0.04 7.91808,0.1179 11.92475,0.1179 1.07274,0 2.16622,-0.04 3.23216,-0.04 z m -3.23216,1.0109 c -102.00738,0 -189.10022,-15.6359 -254.33028,-29.7111 57.03719,39.7621 147.11582,89.7027 258.9307,108.2931 19.17043,-15.5182 33.56075,-33.814 42.73911,-54.3674 3.57773,-8.0094 6.39573,-16.7157 8.35096,-25.8537 -18.19281,1.0895 -36.91173,1.6391 -55.69049,1.6391 z M 1326.2926,953.24987 c 0.8147,-2.65992 1.5999,-5.40827 2.3262,-8.14684 -49.3419,77.11947 -111.4635,139.16257 -184.7156,184.48017 -3.573,27.5615 -11.1798,54.0435 -22.6146,78.6898 -5.8598,12.6226 -15.0471,26.5899 -28.0033,42.5596 105.2896,-75.0483 185.7757,-177.8057 233.0073,-297.58273 z m -138.3282,236.21703 c -127.865,127.8746 -297.87124,198.3098 -478.68925,198.3098 -180.82581,0 -350.83505,-70.4352 -478.69118,-198.3098 C 102.71538,1061.6214 32.301495,891.59947 32.301495,710.78063 32.301495,529.942 102.71538,359.95916 230.58397,232.09426 358.4401,104.21949 528.44934,33.80394 709.27515,33.80394 c 180.81801,0 350.82425,70.41555 478.68925,198.29032 127.865,127.8649 198.2806,297.8673 198.2806,478.68637 0,180.81884 -70.4156,350.84077 -198.2806,478.68627"
             style="fill:#231f20;fill-opacity:1;fill-rule:nonzero;stroke:none"
             id="path22"
             inkscape:connector-curvature="0" /><path
             d="m 693.48613,957.55878 c -26.59771,-18.4332 -55.56389,-34.71691 -86.17217,-48.39962 -15.27466,-6.8217 -31.01459,-13.01515 -46.8488,-18.42335 27.35645,-107.2037 57.61532,-212.71903 87.69358,-305.72956 33.89444,10.54166 67.32762,23.43915 99.45035,38.33882 52.51627,24.38147 101.976,53.73923 147.0845,87.26859 -17.26523,23.72378 -35.52284,47.93828 -54.32909,72.03512 -44.78266,57.3807 -94.18543,116.21409 -146.87837,174.91"
             style="fill:#00ff00;fill-opacity:1;fill-rule:nonzero;stroke:none"
             id="path24"
             inkscape:connector-curvature="0" /><path
             d="m 1095.317,900.20756 c -39.2419,-70.07206 -98.02128,-136.97366 -170.48726,-194.001 63.2061,-88.57404 113.27346,-171.5827 148.90316,-246.90593 69.1887,53.9454 126.7168,113.98606 171.0136,178.53201 9.8349,14.35015 19.081,29.04365 27.4732,43.79624 -3.1704,6.42907 -6.5371,12.87774 -10.0805,19.3755 -37.6321,68.5703 -93.7468,135.57995 -166.8222,199.20318"
             style="fill:#00ff00;fill-opacity:1;fill-rule:nonzero;stroke:none"
             id="path26"
             inkscape:connector-curvature="0" /><path
             d="m 1262.787,625.45546 c -46.4562,-67.69666 -106.8894,-130.43657 -179.6607,-186.57078 30.6143,-68.57029 48.91,-130.99607 54.4558,-185.82479 62.9559,47.72239 114.5651,101.89346 157.5663,165.36948 27.375,75.68642 23.3998,156.02529 -11.7883,238.94567 -6.5372,-10.8165 -13.4372,-21.53496 -20.5731,-31.91958"
             style="fill:#00ff00;fill-opacity:1;fill-rule:nonzero;stroke:none"
             id="path28"
             inkscape:connector-curvature="0" /><path
             d="m 886.90317,320.23639 c -38.43022,-17.8444 -78.1511,-33.50971 -118.1419,-46.60351 35.55032,-73.17361 70.38415,-127.65882 103.62981,-162.09112 39.92801,13.81018 80.98376,31.51716 122.06701,52.69871 45.88301,23.68456 85.97881,47.78136 122.46251,73.65469 -3.3961,54.36739 -20.7594,117.42132 -51.6681,187.57185 -54.8826,-40.36079 -114.8488,-75.74525 -178.34933,-105.23062"
             style="fill:#00ff00;fill-opacity:1;fill-rule:nonzero;stroke:none"
             id="path30"
             inkscape:connector-curvature="0" /><path
             d="m 483.63626,225.78291 c -12.28789,0 -24.90261,0.34362 -37.62431,1.00117 33.17696,-57.72425 75.89644,-108.8525 127.13273,-152.108914 94.35723,-8.93196 184.4329,0.657656 276.52483,29.416744 -33.05825,36.788 -67.29626,91.53823 -101.91904,162.96472 -90.02469,-27.39469 -178.86172,-41.27372 -264.11421,-41.27372"
             style="fill:#00ff00;fill-opacity:1;fill-rule:nonzero;stroke:none"
             id="path32"
             inkscape:connector-curvature="0" /><path
             inkscape:connector-curvature="0"
             id="path3065"
             style="fill:#ffffff;fill-opacity:1;fill-rule:nonzero;stroke:none"
             d="m 843.20117,1206.9971 c 109.21572,-8.7259 206.03263,-38.1328 287.80453,-87.406 6.007,-60.2468 -8.2056,-126.57914 -41.1559,-191.91029 -49.3125,40.93996 -104.60537,79.34739 -164.34866,114.13319 -34.75626,20.2492 -70.98873,39.0947 -107.69337,56.0262 19.35493,37.1317 28.11611,74.8423 25.3934,109.1569 z m -309.43386,-22.4676 c 83.99909,16.7551 163.81381,25.2649 237.36441,25.2649 19.63764,0 39.17319,-0.6183 58.06776,-1.8059 3.15175,-32.5087 -5.10303,-68.59 -23.91023,-104.4554 -95.28576,42.6872 -188.98434,70.6217 -271.52194,80.9964 z"
             sodipodi:nodetypes="cccccccsccc" /></g></g></g></g></svg>