<?xml version="1.0" encoding="UTF-8" standalone="no"?>
<!-- Created with Inkscape (http://www.inkscape.org/) -->

<svg
   xmlns:dc="http://purl.org/dc/elements/1.1/"
   xmlns:cc="http://creativecommons.org/ns#"
   xmlns:rdf="http://www.w3.org/1999/02/22-rdf-syntax-ns#"
   xmlns:svg="http://www.w3.org/2000/svg"
   xmlns="http://www.w3.org/2000/svg"
   xmlns:sodipodi="http://sodipodi.sourceforge.net/DTD/sodipodi-0.dtd"
   xmlns:inkscape="http://www.inkscape.org/namespaces/inkscape"
   id="svg2"
   version="1.1"
   inkscape:version="0.48.3.1 r9886"
   width="354.33069"
   height="354.33069"
   xml:space="preserve"
   sodipodi:docname="earth.svg"
   inkscape:export-filename="/home/philipp/_daten/shack/embroidery/hgg/earth_300dpi.png"
   inkscape:export-xdpi="299.97403"
   inkscape:export-ydpi="299.97403"><metadata
     id="metadata8"><rdf:RDF><cc:Work
         rdf:about=""><dc:format>image/svg+xml</dc:format><dc:type
           rdf:resource="http://purl.org/dc/dcmitype/StillImage" /><dc:title></dc:title></cc:Work></rdf:RDF></metadata><defs
     id="defs6"><clipPath
       clipPathUnits="userSpaceOnUse"
       id="clipPath18"><path
         d="m 0,0 6120,0 0,5536.64 -6120,0 L 0,0 z"
         id="path20"
         inkscape:connector-curvature="0" /></clipPath></defs><sodipodi:namedview
     pagecolor="#ffffff"
     bordercolor="#666666"
     borderopacity="1"
     objecttolerance="10"
     gridtolerance="10"
     guidetolerance="10"
     inkscape:pageopacity="0"
     inkscape:pageshadow="2"
     inkscape:window-width="839"
     inkscape:window-height="886"
     id="namedview4"
     showgrid="false"
     units="mm"
     inkscape:zoom="1.3250868"
     inkscape:cx="141.78937"
     inkscape:cy="198.36742"
     inkscape:window-x="0"
     inkscape:window-y="27"
     inkscape:window-maximized="0"
     inkscape:current-layer="g16" /><g
     id="g10"
     inkscape:groupmode="layer"
     inkscape:label="hgg_alles_cmyk_100k"
     transform="matrix(1.25,0,0,-1.25,0,354.33058)"><g
       id="g12"
       transform="scale(0.1,0.1)"><g
         id="g14"><g
           id="g16"
           clip-path="url(#clipPath18)"><path
             d="m 2600.1874,837.75682 c -13.6508,-26.75265 -60.468,-104.44095 -60.9189,-105.20599 -73.7853,-117.32681 -165.0461,-222.06207 -271.272,-311.32236 0.8434,17.35769 0.9807,35.08814 0.353,52.83831 -0.039,0.68642 -0.4511,1.33363 -1.1178,1.68668 -0.255,0.11825 -0.5688,0.17633 -0.8632,0.17633 -0.3921,0 -0.804,-0.0975 -1.118,-0.37257 l -23.6928,-16.8872 c -0.5296,-0.39228 -0.8237,-1.00028 -0.8237,-1.60828 0.1949,-20.3193 -0.7256,-40.5799 -2.6675,-60.27169 -127.8985,-101.28326 -271.2327,-177.20644 -425.9956,-225.67089 -16.7401,10.19874 -33.8624,23.18278 -50.9476,38.57934 -0.3687,0.35306 -0.8434,0.50989 -1.3023,0.50989 -0.2314,0 -0.4452,0 -0.6512,-0.0788 l -25.6052,-8.82593 c -0.6355,-0.21574 -1.1336,-0.76503 -1.2866,-1.41224 -0.1393,-0.68642 0.077,-1.37284 0.5747,-1.84352 14.8021,-14.20004 29.6867,-26.77232 44.2672,-37.34383 -116.6306,-33.0092 -237.7587,-49.75908 -360.0733,-49.75908 -70.9826,0 -142.5791,5.78589 -212.7968,17.20086 -0.3686,0.0788 -50.1062,11.68962 -66.042,17.08325 -9.6909,3.33438 -38.0537,16.12218 -38.346,16.23979 -0.1765,0.11825 -0.3589,0.15765 -0.559,0.195 -30.5085,3.82455 -61.7898,8.728 -92.9632,14.55311 -181.49982,59.27162 -351.96712,160.1232 -492.70846,291.55215 -31.84224,42.83559 -60.7013,87.24004 -85.65535,131.82122 103.46818,-60.3306 234.63231,-100.63605 379.871,-116.6796 11.93668,-1.31413 24.17146,-2.49094 36.3533,-3.53041 0.0374,0 0.10002,0 0.15308,0 0.61195,0 1.22584,0.31365 1.58478,0.80403 0.40598,0.5885 0.48443,1.31413 0.21574,1.92213 l -8.04539,19.1427 22.14149,1.1179 c 0.66685,0.0394 1.26507,0.43147 1.61024,1.00026 0.32952,0.56881 0.34325,1.29443 0.0374,1.88293 -87.79909,167.73311 -139.28408,363.98414 -153.03693,583.2611 48.58811,-5.8643 98.75507,-8.8064 149.12995,-8.8064 135.07111,0 274.01195,20.2214 413.00575,60.0954 71.9261,-218.61031 144.5953,-406.36856 215.9467,-557.9797 0.3216,-0.68641 1.0257,-1.11789 1.7769,-1.11789 0.1924,0 0.3825,0.0394 0.5747,0.0788 l 23.0614,7.27656 c 0.5354,0.15766 0.9806,0.5883 1.2101,1.07868 0.206,0.5296 0.206,1.1179 -0.023,1.64749 -70.9454,150.88531 -143.499,339.01635 -215.6702,559.05835 -0.2667,0.8435 -1.0335,1.3337 -1.8612,1.3337 -0.1687,0 -0.361,0 -0.5512,-0.079 l -21.912,-6.5115 -6.8961,21.0646 c -0.2667,0.8434 -1.0335,1.3533 -1.8612,1.3533 -0.1687,0 -0.3589,0 -0.5512,-0.079 -136.5421,-39.2657 -273.20784,-59.193 -406.13326,-59.193 -51.40848,0 -102.12857,3.0793 -150.8167,9.1595 -5.09554,106.7358 -1.40235,219.081 11.00897,333.9955 10.55785,97.6939 27.37432,198.8988 49.97673,300.7901 16.14178,-0.9809 32.21684,-1.5299 47.731,-1.5299 87.03415,0 177.50063,14.1803 268.91636,42.1098 0.9964,0.2941 1.5711,1.3336 1.3259,2.3339 l -5.4623,21.5944 21.8198,7.0213 c 0.9729,0.2944 1.5475,1.3339 1.3024,2.3342 -59.6305,236.5954 -100.6949,431.9051 -114.4242,517.1838 74.5228,-64.6258 219.2476,-206.9402 379.871,-384.2645 0.3824,-0.4117 0.9179,-0.6471 1.4553,-0.6471 0.4216,0 0.8041,0.1182 1.1493,0.3727 l 18.1953,13.1604 14.9023,-16.5536 c 0.3823,-0.4315 0.9179,-0.6668 1.4553,-0.6668 0.4216,0 0.8277,0.137 1.1728,0.3923 91.0706,67.764 164.8128,147.708 213.3715,231.2607 198.7144,-91.2413 387.1318,-209.5292 544.9701,-342.1152 0.3725,-0.3138 0.8042,-0.4512 1.2749,-0.4512 0.1182,0 0.2549,0.021 0.3725,0.021 0.5886,0.1182 1.0984,0.5098 1.3926,1.0394 l 9.7086,18.6326 16.6322,-14.1216 c 0.3725,-0.2942 0.804,-0.4511 1.2747,-0.4511 0.137,0 0.255,0 0.3727,0.039 0.6081,0.1183 1.118,0.4902 1.3926,1.0396 66.8421,129.9382 98.2038,262.8577 90.7704,384.6761 154.1608,-99.5965 281.6082,-236.4192 378.7923,-406.7019 12.0229,-128.487 -23.4574,-274.979 -102.6169,-423.7657 -0.3139,-0.5294 -0.3139,-1.1767 -0.039,-1.7652 l 13.0035,-26.6545 c 0.3139,-0.6473 0.9611,-1.0787 1.7064,-1.1179 0.039,0 0.039,0 0.058,0 0.7061,0 1.3532,0.3923 1.6866,1.0394 74.9034,135.8419 115.091,272.6842 116.4641,396.2089 0.2745,-0.4902 0.5099,-0.9414 0.7648,-1.4513 28.2628,-108.4421 42.6983,-221.0423 42.6983,-334.2309 0,-173.1464 -33.1662,-341.7425 -98.5374,-501.10082 -0.2942,-0.72565 -31.1265,-73.47149 -43.0121,-96.79183 z M 347.54545,654.84284 c 10.53432,-8.51227 21.56682,-16.8283 32.96805,-24.83048 8.59456,-17.24008 17.78928,-34.51956 27.44297,-51.60259 -21.10785,24.83048 -41.37235,50.44549 -60.41102,76.43307 z M 253.96084,802.0017 c -98.33476,179.81505 -152.33282,375.1834 -160.469217,580.6331 0.88103,27.2233 3.217762,54.9367 6.949007,82.3955 41.66303,-84.7296 102.41827,-157.6323 180.7039,-216.6685 -6.28412,-45.4636 -9.88318,-90.2408 -10.71086,-133.1548 -2.87334,-148.86526 25.5503,-293.5527 84.50601,-430.21846 -41.08992,34.89211 -75.02099,74.23649 -100.97884,117.01316 z m 63.81942,1372.0896 c 28.40992,28.4393 60.54048,54.2113 95.40905,76.4725 -32.56989,-75.7272 -44.34574,-150.905 -34.11739,-217.9042 -134.97894,-130.0167 -227.62132,-273.351 -275.68164,-426.4329 26.22518,202.4293 100.10468,398.2878 214.38998,567.8646 z m 170.62029,205.3321 c -9.65171,-12.984 -18.57774,-25.772 -26.6604,-38.2657 -9.29476,-14.3177 -17.9658,-29.0865 -26.54664,-45.0127 -16.89493,-9.2378 -33.51919,-19.2995 -49.53151,-30.1065 31.83244,39.4623 66.30875,77.4923 102.73855,113.3849 z m 160.58414,126.7215 1.34155,0 c 74.77583,0 207.26583,-72.2162 272.25068,-113.6591 -15.07873,0.4707 -30.07116,0.6473 -44.70466,0.6473 -153.67435,0.058 -287.2137,-25.0071 -397.05619,-74.3934 1.45531,2.3732 2.91259,4.7857 4.46793,7.1785 41.77051,64.5474 96.85454,125.1722 163.70069,180.2267 z m 142.31236,96.8116 c 33.78791,18.1815 68.76238,35.0883 103.85063,50.1905 17.0479,6.9626 34.46258,13.5528 51.7537,19.476 -5.40151,-48.9745 -5.01905,-133.1353 5.42505,-264.0544 -61.8526,41.3449 -182.34318,107.8734 -271.33083,122.662 34.68227,26.0857 71.76519,50.2297 110.30145,71.7259 z M 540.23074,1845.7644 c 148.93971,240.1847 323.21396,413.8803 383.95448,471.0335 -52.95598,-113.8162 -126.0686,-310.9498 -177.82231,-535.1887 -79.1437,7.8845 -150.35578,30.0278 -206.13217,64.1552 z m 138.3132,-724.9678 c -83.95486,12.69 -162.27677,34.5196 -232.85535,64.9399 -48.74109,21.0255 -94.27343,46.6994 -135.3614,76.2369 22.2788,143.4911 73.30288,293.4939 151.66596,445.968 19.01514,36.9711 40.42897,75.276 63.6433,113.8751 58.54776,-35.7748 132.61948,-59.1735 214.52081,-67.7642 -22.48668,-101.8129 -39.22666,-202.8017 -49.73941,-300.1624 -12.4329,-115.0518 -16.41832,-227.0831 -11.87391,-333.0933 z m -372.65327,109.874 c 39.30314,-27.0075 82.56624,-50.7594 128.68895,-70.6864 74.12464,-31.9502 156.71443,-54.7016 245.47259,-67.6463 7.25693,-125.36842 26.70158,-244.08802 57.76715,-352.96169 23.06135,-80.70882 53.24823,-158.16187 89.71725,-230.2997 -5.55449,0.52959 -11.09526,1.1181 -16.58698,1.7261 -161.81,17.84808 -303.20249,65.72423 -408.96934,138.39166 -89.7761,181.58006 -122.08514,377.22313 -96.08962,581.47633 z m 196.26274,606.7188 c -23.69682,-39.4229 -45.58529,-78.6493 -65.0829,-116.6209 -76.53908,-148.8651 -127.37289,-297.044 -151.08542,-440.4564 -80.30678,63.704 -139.91288,142.5495 -177.17054,234.3989 35.07412,174.8528 128.27588,338.0945 277.00044,485.3513 3.79126,-13.9844 8.58082,-27.4586 14.21183,-40.0701 21.45108,-47.9545 55.79011,-89.2211 102.12659,-122.6028 z m 404.17975,501.6304 c -61.46032,-57.2708 -236.79173,-230.7311 -389.54623,-477.5845 -41.35667,30.2241 -72.0182,67.2344 -91.13334,109.9915 -7.04708,15.7692 -12.52508,33.0485 -16.35752,51.3477 33.55841,31.6167 69.78226,62.4095 107.64384,91.5747 164.26164,126.3687 329.32743,200.0364 389.39325,224.6706 z m -36.00811,52.0146 c 2.55169,0.039 4.97983,0.1576 7.54721,0.1576 16.96946,0 34.20762,-0.3135 51.71448,-0.8823 -20.15074,0.6863 -39.82489,0.8432 -59.26169,0.7255 z m 7.40795,-25.8897 c 5.9762,0 11.9759,-0.039 17.96778,-0.1182 -59.69907,-24.34 -227.14002,-98.655 -395.88332,-228.4757 -33.07394,-25.4385 -65.1849,-52.4068 -95.43847,-80.1008 -5.60157,67.6464 12.15831,143.197 51.46148,218.8455 112.81391,59.6245 254.74381,89.8487 421.89253,89.8487 z m 198.3398,-546.3095 c -88.46593,-26.9684 -175.94528,-40.6388 -260.06686,-40.6388 -13.63717,0 -27.23705,0.4117 -41.44886,1.1768 60.47183,260.8571 145.24653,467.3071 188.07419,552.9389 14.45698,-88.9464 54.60153,-279.5293 113.44153,-513.4769 z m -99.54548,863.4964 c 82.92118,25.4974 165.58748,38.4028 245.71188,38.4028 16.9322,0 33.8251,-0.608 50.3121,-1.7847 -104.3881,-65.0182 -202.2997,-165.9483 -291.13439,-300.2605 -10.49706,134.2337 -12.14457,222.8663 -4.88959,263.6424 z m 369.61318,76.08 c -10.9187,-4.9622 -21.606,-10.1203 -31.8716,-15.5336 -24.1578,3.197 -48.9568,5.0797 -74.0109,5.7269 34.7842,4.6288 70.2569,7.924 105.8825,9.8067 z m 85.6926,1.7261 c 195.3292,-2.1184 382.8287,-45.8561 557.6384,-130.0756 -86.9184,21.9668 -175.7001,33.0681 -264.2053,33.0681 -55.6587,0 -112.2157,-4.413 -168.1686,-13.0625 -52.5952,39.6973 -119.9394,68.9211 -195.1742,84.7295 22.9672,10.1205 46.4424,18.6328 69.9097,25.3405 z m 288.4396,-99.067 c 1.6612,0.021 3.3087,0.097 4.9935,0.097 14.1745,0 28.5393,-0.3728 42.9434,-0.961 -16.128,0.6667 -32.1247,0.9413 -47.9369,0.8629 z m 494.5913,-243.1071 c 18.6326,-40.0701 31.95,-82.788 39.6385,-126.9965 -135.8812,78.1592 -292.5348,130.409 -465.7224,155.2984 -34.8588,5.0406 -71.1965,8.9633 -108.0636,11.8465 -4.1757,22.673 -10.956,44.6007 -20.1115,65.1161 -16.9714,37.9324 -42,72.3929 -74.4935,102.5975 46.3366,6.1194 93.1477,9.1789 139.2332,9.2181 126.7197,0 253.1728,-23.3201 375.8208,-69.333 58.3104,-60.213 95.5168,-108.5598 113.6985,-147.7471 z m -530.2032,9.2379 c 218.2375,-17.4364 411.6994,-76.1979 575.0981,-174.6568 12.0034,-120.3866 -16.3967,-252.9335 -82.2388,-383.4798 -98.5374,81.8072 -209.025,158.5541 -328.4055,228.0637 -69.4508,40.4623 -141.8514,78.12 -215.1955,111.9529 38.6755,74.1974 56.1823,149.5517 50.7417,218.12 z m -618.3182,-44.8952 c 167.849,33.4802 327.3367,50.4848 474.3073,50.4848 39.2404,0 78.2768,-1.2355 116.0324,-3.6088 6.2979,-64.9595 -10.197,-137.0578 -47.778,-208.725 -190.4023,85.2984 -377.6331,141.1178 -542.5617,161.849 z m 529.5992,-185.1496 c -46.6974,-79.336 -117.6035,-155.5338 -205.2496,-220.5716 -156.6006,172.9112 -301.4177,315.7746 -378.0705,383.1465 174.39,-13.9255 375.8855,-70.0981 583.3201,-162.5749 z m -570.6636,236.164 c 90.2527,129.1735 189.2,223.5333 294.1764,280.5686 75.5271,-11.0422 144.0443,-35.402 198.4928,-70.6079 -211.977,-40.521 -383.4171,-135.0964 -492.6692,-209.9607 z m 215.9762,6.4725 c -24.4402,-3.4128 -47.7684,-7.0413 -69.849,-10.7678 22.0806,3.7265 45.4088,7.355 69.849,10.7678 z m 305.6011,21.5746 c -10.1754,0.039 -20.2508,-0.039 -30.2869,-0.1578 7.9297,0.079 15.8221,0.2355 23.8283,0.2355 2.1436,0 4.3286,-0.079 6.4586,-0.079 z m -6.4586,2.0202 c -203.8336,0 -377.8646,-31.2441 -508.2089,-59.3696 113.9731,79.4536 293.9704,179.2462 517.4016,216.3939 38.3068,-31.0088 67.0619,-67.568 85.4023,-108.6383 7.1491,-16.0044 12.7801,-33.4015 16.6871,-51.6615 -36.3533,2.1771 -73.7579,3.2755 -111.2821,3.2755 z m 1109.5888,-543.2304 c 1.6279,-5.3151 3.197,-10.8069 4.6483,-16.2792 -98.5961,154.1021 -222.729,278.0779 -369.1031,368.6327 -7.1395,55.0742 -22.3397,107.991 -45.1892,157.24 -11.7091,25.2227 -30.0673,53.1324 -55.9567,85.0435 210.3921,-149.9635 371.2214,-355.2957 465.6007,-594.637 z m -276.4108,472.0144 c -255.5027,255.5224 -595.2134,396.2677 -956.5283,396.2677 -361.3305,0 -701.04707,-140.7453 -956.53228,-396.2677 C 205.0042,2136.7083 64.301495,1796.9663 64.301495,1435.6497 64.301495,1074.2936 205.0042,734.62979 460.51432,479.12705 715.99953,223.60461 1055.7161,82.898551 1417.0466,82.898551 c 361.3149,0 701.0256,140.706059 956.5283,396.228499 255.503,255.50274 396.2091,595.20565 396.2091,956.52265 0,361.3166 -140.7061,701.0586 -396.2091,956.5223"
             style="fill:#231f20;fill-opacity:1;fill-rule:nonzero;stroke:none"
             id="path22"
             inkscape:connector-curvature="0" /><path
             d="m 1385.4966,1928.7678 c -53.1482,-36.8337 -111.0291,-69.3722 -172.1913,-96.7133 -30.5222,-13.6313 -61.9741,-26.0072 -93.6144,-36.814 54.6643,-214.217 115.1283,-425.0603 175.2314,-610.9162 67.7287,21.0646 134.5357,46.8367 198.7241,76.6096 104.9393,48.7196 203.7709,107.383 293.9078,174.3822 -34.4998,47.4054 -70.9826,95.7914 -108.5617,143.9423 -89.4858,114.6595 -188.2036,232.2218 -293.4959,349.5094"
             style="fill:#00ff00;fill-opacity:1;fill-rule:nonzero;stroke:none"
             id="path24"
             inkscape:connector-curvature="0" /><path
             d="m 2188.4448,1814.1672 c -78.4142,-140.0197 -195.8686,-273.7041 -340.6718,-387.6575 126.3,-176.9908 226.3458,-342.8607 297.542,-493.37338 138.2545,107.79498 253.2083,227.76968 341.7233,356.74698 19.6524,28.6748 38.1281,58.0357 54.8975,87.5147 -6.335,12.8467 -13.0625,25.7326 -20.1428,38.7166 -75.1975,137.0188 -187.327,270.9191 -333.3482,398.0526"
             style="fill:#00ff00;fill-opacity:1;fill-rule:nonzero;stroke:none"
             id="path26"
             inkscape:connector-curvature="0" /><path
             d="m 2523.0874,1265.1509 c -92.8299,-135.2731 -213.5892,-260.6415 -359.0022,-372.81025 61.1738,-137.0188 97.733,-261.7595 108.8147,-371.31957 125.7999,95.36003 228.9267,203.60598 314.8528,330.4453 54.7015,151.23842 46.758,311.77352 -23.5558,477.46702 -13.0625,-21.6138 -26.8505,-43.0317 -41.1095,-63.7825"
             style="fill:#00ff00;fill-opacity:1;fill-rule:nonzero;stroke:none"
             id="path28"
             inkscape:connector-curvature="0" /><path
             d="m 1771.9872,655.25481 c -76.7922,-35.65715 -156.1634,-66.95994 -236.074,-93.12426 71.0375,-146.21729 140.6433,-255.09096 207.0756,-323.89442 79.7851,27.59585 161.8237,62.97836 243.9172,105.30385 91.6845,47.32706 171.8051,95.47786 244.7076,147.17857 -6.7861,108.63822 -41.482,234.63413 -103.2446,374.81062 -109.6676,-80.64992 -229.4935,-151.356 -356.3818,-210.27436"
             style="fill:#00ff00;fill-opacity:1;fill-rule:nonzero;stroke:none"
             id="path30"
             inkscape:connector-curvature="0" /><path
             d="m 966.16952,466.51557 c -24.55394,0 -49.76099,0.68663 -75.18182,2.00055 66.29502,-115.34598 151.6581,-217.51169 254.0397,-303.94769 188.5469,-17.84807 368.5383,1.31413 552.5586,58.78123 -66.0578,73.51067 -134.473,182.91393 -203.6571,325.64003 -179.8895,-54.74073 -357.4058,-82.47412 -527.75938,-82.47412"
             style="fill:#00ff00;fill-opacity:1;fill-rule:nonzero;stroke:none"
             id="path32"
             inkscape:connector-curvature="0" /><path
             inkscape:connector-curvature="0"
             id="path3065"
             style="fill:#ffffff;fill-opacity:1;fill-rule:nonzero;stroke:none"
             d="m 1684.6608,2427.2015 c 218.2375,-17.4364 411.6994,-76.1979 575.0981,-174.6568 12.0034,-120.3866 -16.3967,-252.9335 -82.2388,-383.4798 -98.5374,81.8072 -209.025,158.5541 -328.4055,228.0637 -69.4508,40.4623 -141.8514,78.12 -215.1955,111.9529 38.6755,74.1974 56.1823,149.5517 50.7417,218.12 z m -618.3182,-44.8952 c 167.849,33.4802 327.3367,50.4848 474.3073,50.4848 39.2404,0 78.2768,-1.2355 116.0324,-3.6088 6.2979,-64.9595 -10.197,-137.0578 -47.778,-208.725 -190.4023,85.2984 -377.6331,141.1178 -542.5617,161.849 z"
             sodipodi:nodetypes="cccccccsccc" /></g></g></g></g></svg>