<?xml version="1.0" encoding="UTF-8" standalone="no"?>
<!-- Created with Inkscape (http://www.inkscape.org/) -->

<svg
   xmlns:dc="http://purl.org/dc/elements/1.1/"
   xmlns:cc="http://creativecommons.org/ns#"
   xmlns:rdf="http://www.w3.org/1999/02/22-rdf-syntax-ns#"
   xmlns:svg="http://www.w3.org/2000/svg"
   xmlns="http://www.w3.org/2000/svg"
   xmlns:sodipodi="http://sodipodi.sourceforge.net/DTD/sodipodi-0.dtd"
   xmlns:inkscape="http://www.inkscape.org/namespaces/inkscape"
   id="svg2"
   version="1.1"
   inkscape:version="0.48.3.1 r9886"
   width="354.33069"
   height="354.33069"
   xml:space="preserve"
   sodipodi:docname="hgg_alles_cmyk_100k.pdf"><metadata
     id="metadata8"><rdf:RDF><cc:Work
         rdf:about=""><dc:format>image/svg+xml</dc:format><dc:type
           rdf:resource="http://purl.org/dc/dcmitype/StillImage" /><dc:title></dc:title></cc:Work></rdf:RDF></metadata><defs
     id="defs6"><clipPath
       clipPathUnits="userSpaceOnUse"
       id="clipPath18"><path
         d="m 0,0 6120,0 0,5536.64 -6120,0 L 0,0 z"
         id="path20"
         inkscape:connector-curvature="0" /></clipPath></defs><sodipodi:namedview
     pagecolor="#ffffff"
     bordercolor="#666666"
     borderopacity="1"
     objecttolerance="10"
     gridtolerance="10"
     guidetolerance="10"
     inkscape:pageopacity="0"
     inkscape:pageshadow="2"
     inkscape:window-width="1680"
     inkscape:window-height="886"
     id="namedview4"
     showgrid="false"
     units="mm"
     inkscape:zoom="1.965614"
     inkscape:cx="159.74849"
     inkscape:cy="283.12927"
     inkscape:window-x="0"
     inkscape:window-y="27"
     inkscape:window-maximized="1"
     inkscape:current-layer="g16" /><g
     id="g10"
     inkscape:groupmode="layer"
     inkscape:label="hgg_alles_cmyk_100k"
     transform="matrix(1.25,0,0,-1.25,0,354.33058)"><g
       id="g12"
       transform="scale(0.1,0.1)"><g
         id="g14"><g
           id="g16"
           clip-path="url(#clipPath18)"><path
             d="m 1286.773,1848.0763 c -6.5806,-12.8966 -29.1497,-50.3477 -29.3671,-50.7165 -35.5696,-56.5596 -79.5636,-107.0492 -130.7718,-150.0788 0.4066,8.3676 0.4728,16.9149 0.1702,25.4717 -0.019,0.3309 -0.2175,0.6429 -0.5389,0.8131 -0.1229,0.057 -0.2742,0.085 -0.4161,0.085 -0.189,0 -0.3876,-0.047 -0.5389,-0.1796 l -11.4216,-8.1408 c -0.2553,-0.1891 -0.3971,-0.4822 -0.3971,-0.7753 0.094,-9.7953 -0.3498,-19.5623 -1.2859,-29.0551 -61.6559,-48.8255 -130.75283,-85.4257 -205.3592,-108.7889 -8.06982,4.9165 -16.32401,11.1757 -24.56024,18.5979 -0.17775,0.1702 -0.40656,0.2458 -0.62781,0.2458 -0.11157,0 -0.21463,0 -0.31391,-0.038 l -12.34347,-4.2547 c -0.30634,-0.104 -0.54649,-0.3688 -0.62024,-0.6808 -0.0671,-0.3309 0.0369,-0.6618 0.27703,-0.8887 7.13567,-6.8454 14.31105,-12.9061 21.33988,-18.0023 -56.22401,-15.9127 -114.61604,-23.9873 -173.5801,-23.9873 -34.2185,0 -68.73294,2.7892 -102.5827,8.292 -0.17775,0.038 -24.15462,5.6352 -31.83679,8.2353 -4.6717,1.6074 -18.34454,7.772 -18.48542,7.8287 -0.0851,0.057 -0.17303,0.076 -0.26947,0.094 -14.70721,1.8437 -29.78695,4.2075 -44.81469,7.0156 -87.49539,28.573 -169.67236,77.1904 -237.51937,140.5482 -15.35015,20.6497 -29.2622,42.0557 -41.29177,63.5469 49.87878,-29.0835 113.10892,-48.5135 183.12396,-56.2476 5.7543,-0.6335 11.65231,-1.2008 17.52479,-1.7019 0.018,0 0.0482,0 0.0738,0 0.295,0 0.59094,0.1512 0.76397,0.3876 0.19571,0.2837 0.23353,0.6335 0.104,0.9266 l -3.87843,9.2281 10.67372,0.5389 c 0.32147,0.019 0.60985,0.208 0.77625,0.4822 0.15885,0.2742 0.16547,0.624 0.018,0.9077 -42.3252,80.8589 -67.14451,175.4654 -73.77433,281.172 23.42281,-2.827 47.60674,-4.2453 71.8909,-4.2453 65.11357,0 132.09261,9.7481 199.09719,28.9701 34.67328,-105.3852 69.70491,-195.8976 104.10116,-268.9846 0.15506,-0.3309 0.49449,-0.5389 0.85662,-0.5389 0.0927,0 0.18437,0.019 0.27703,0.038 l 11.11716,3.5078 c 0.25812,0.076 0.47275,0.2836 0.58337,0.52 0.0993,0.2553 0.0993,0.5389 -0.0113,0.7942 -34.20054,72.7371 -69.17638,163.4292 -103.96785,269.5046 -0.12859,0.4066 -0.49828,0.6429 -0.89728,0.6429 -0.0813,0 -0.17397,0 -0.26568,-0.038 l -10.5631,-3.139 -3.32437,10.1546 c -0.12859,0.4066 -0.49828,0.6524 -0.89728,0.6524 -0.0813,0 -0.17302,0 -0.26568,-0.038 -65.8227,-18.9288 -131.70497,-28.5351 -195.78417,-28.5351 -24.78243,0 -49.233,1.4844 -72.70403,4.4155 -2.4564,51.454 -0.67603,105.6121 5.30708,161.0088 5.08961,47.0952 13.19631,95.8829 24.09222,145.0015 7.78145,-0.4728 15.53074,-0.7375 23.00963,-0.7375 41.95645,0 85.56752,6.8359 129.63621,20.2998 0.48032,0.1418 0.75735,0.6429 0.63916,1.1251 l -2.63321,10.41 10.51866,3.3848 c 0.46897,0.1419 0.746,0.643 0.62781,1.1252 -28.74596,114.0553 -48.54184,208.208 -55.16032,249.3182 35.92512,-31.1541 105.69243,-99.7594 183.12395,-185.2419 0.18437,-0.1985 0.44249,-0.312 0.70156,-0.312 0.20328,0 0.38765,0.057 0.55406,0.1797 l 8.77138,6.3442 7.18389,-7.98 c 0.18437,-0.208 0.44249,-0.3214 0.70156,-0.3214 0.20328,0 0.399,0.066 0.56541,0.1891 43.90228,32.6669 79.4511,71.2054 102.85972,111.4836 95.79403,-43.9846 186.62418,-101.0075 262.71308,-164.9231 0.1796,-0.1513 0.3877,-0.2175 0.6146,-0.2175 0.057,0 0.1229,0.01 0.1796,0.01 0.2837,0.057 0.5295,0.2458 0.6713,0.5011 l 4.6802,8.9822 8.0179,-6.8076 c 0.1796,-0.1418 0.3876,-0.2174 0.6145,-0.2174 0.066,0 0.1229,0 0.1797,0.019 0.2931,0.057 0.5389,0.2363 0.6713,0.5011 32.2225,62.6392 47.341,126.7155 43.7576,185.4404 74.3161,-48.0124 135.7545,-113.9703 182.6039,-196.0583 5.7959,-61.9396 -11.3081,-132.5588 -49.4684,-204.2842 -0.1513,-0.2553 -0.1513,-0.5673 -0.019,-0.851 l 6.2686,-12.8493 c 0.1513,-0.312 0.4633,-0.52 0.8226,-0.5389 0.019,0 0.019,0 0.028,0 0.3404,0 0.6524,0.1891 0.8131,0.5011 36.1086,65.4851 55.4818,131.4525 56.1437,190.9999 0.1323,-0.2363 0.2458,-0.4538 0.3687,-0.6996 13.6246,-52.2766 20.5835,-106.5576 20.5835,-161.1223 0,-83.4685 -15.9884,-164.7434 -47.5018,-241.5651 -0.1418,-0.3498 -15.0051,-35.4183 -20.7348,-46.6603 z M 200.84457,1759.8992 c 5.07827,-4.1035 10.39669,-8.1124 15.89287,-11.97 4.14317,-8.3109 8.57566,-16.6408 13.2294,-24.876 -10.17544,11.97 -19.94432,24.3182 -29.12227,36.846 z m -45.11422,70.9407 c -47.40412,86.6832 -73.434903,180.8642 -77.357205,279.9051 0.424717,13.1235 1.551183,26.4833 3.349898,39.7203 20.084447,-40.8455 49.372657,-75.9896 87.111717,-104.4491 -3.02938,-21.9166 -4.76437,-43.5023 -5.16337,-64.1898 -1.38515,-71.7633 12.317,-141.5126 40.73771,-207.3949 -19.80817,16.8204 -36.16528,35.7871 -48.67875,56.4084 z m 30.76535,661.4416 c 13.69554,13.7097 29.18468,26.1336 45.99373,36.865 -15.70093,-36.5057 -21.3777,-72.7466 -16.44693,-105.0448 -65.06914,-62.677 -109.72914,-131.774 -132.897519,-205.57 12.642339,97.5848 48.257339,192.0021 103.350719,273.7498 z m 82.25072,98.9842 c -4.65279,-6.2592 -8.95575,-12.4239 -12.85215,-18.4467 -4.48071,-6.9021 -8.66075,-14.0217 -12.7973,-21.6992 -8.14452,-4.4533 -16.15856,-9.3037 -23.8776,-14.5134 15.34543,19.0235 31.96538,37.3566 49.52705,54.6593 z m 77.41261,61.0885 0.64672,0 c 36.04709,0 99.91639,-34.8132 131.24356,-54.7915 -7.26899,0.2269 -14.49637,0.312 -21.55072,0.312 -74.08162,0.028 -138.45677,-12.0551 -191.40841,-35.8627 0.70156,1.144 1.40407,2.307 2.15385,3.4605 20.13626,31.1163 46.69055,60.3416 78.915,86.8817 z m 68.60435,46.6698 c 16.28809,8.7648 33.1482,16.915 50.06315,24.1953 8.21826,3.3565 16.61333,6.5334 24.94884,9.3888 -2.6039,-23.6091 -2.41953,-64.1804 2.61525,-127.2924 -29.81721,19.9311 -87.90196,52.0024 -130.80013,59.1315 16.71924,12.5751 34.59576,24.2142 53.17289,34.5768 z M 293.73214,2334.0053 c 71.79919,115.7856 155.81137,199.5188 185.09248,227.0706 -25.52843,-54.8672 -60.77374,-149.8992 -85.72259,-257.9978 -38.15271,3.8009 -72.48183,14.4755 -99.36989,30.9272 z m 66.67648,-349.4843 c -40.47202,6.1174 -78.22857,16.6408 -112.2523,31.3055 -23.49656,10.1357 -45.44628,22.5123 -65.25351,36.7514 10.73991,69.1726 35.33703,141.4843 73.11343,214.9873 9.1666,17.8226 19.48954,36.2882 30.68045,54.8956 28.22405,-17.2459 63.93171,-28.5257 103.41379,-32.667 -10.84013,-49.0808 -18.90995,-97.7644 -23.97782,-144.6989 -5.99351,-55.4629 -7.91476,-109.4697 -5.72404,-160.5739 z m -179.64452,52.9668 c 18.94682,-13.0195 39.80261,-24.4695 62.03693,-34.0757 35.73318,-15.4022 75.54714,-26.3699 118.33468,-32.6102 3.49834,-60.4362 12.872,-117.6672 27.84774,-170.1518 11.11716,-38.9072 25.66931,-76.2449 43.24989,-111.0203 -2.67765,0.2553 -5.34868,0.539 -7.99607,0.8321 -78.00355,8.604 -146.16446,31.6836 -197.15136,66.7143 -43.27826,87.5341 -58.85344,181.8475 -46.32181,280.3116 z m 94.61215,292.4802 c -11.4235,-19.0045 -21.97525,-37.9144 -31.37444,-56.2193 -36.8971,-71.7632 -61.4025,-143.1956 -72.83357,-212.3303 -38.71339,30.7097 -67.44763,68.7187 -85.40839,112.9964 16.90814,84.2911 61.8378,162.9848 133.53327,233.9727 1.82765,-6.7414 4.13655,-13.2369 6.85108,-19.3165 10.3409,-23.1174 26.89467,-43.0107 49.23205,-59.103 z m 194.84245,241.8204 c -29.62811,-27.6085 -114.14991,-111.2283 -187.78809,-230.2286 -19.93676,14.5701 -34.71773,32.4116 -43.93254,53.0235 -3.39718,7.6018 -6.03795,15.9316 -7.88545,24.7531 16.17746,15.2414 33.63985,30.0857 51.89174,44.1453 79.18541,60.9184 158.75848,96.4313 187.71434,108.3067 z m -17.35839,25.0746 c 1.23009,0.019 2.40062,0.076 3.63828,0.076 8.18044,0 16.49042,-0.1512 24.92993,-0.4254 -9.71404,0.3309 -19.19833,0.4065 -28.56821,0.3498 z m 3.57114,-12.4806 c 2.88094,0 5.77321,-0.019 8.66171,-0.057 -28.77906,-11.7336 -109.49712,-47.5585 -190.843,-110.141 -15.94392,-12.2631 -31.42361,-25.2637 -46.00791,-38.6141 -2.70034,32.6102 5.86114,69.0308 24.80797,105.4986 54.38407,28.7431 122.80405,43.3132 203.38123,43.3132 z m 95.61344,-263.3588 c -42.64667,-13.0006 -84.81774,-19.5907 -125.37013,-19.5907 -6.57405,0 -13.13013,0.1985 -19.9812,0.5673 29.15158,125.7511 70.01882,225.2742 90.6647,266.5546 6.96926,-42.8783 26.3217,-134.7523 54.68663,-247.5312 z m -47.98778,416.2647 c 39.97374,12.2915 79.82457,18.5128 118.45003,18.5128 8.16248,0 16.30605,-0.2931 24.2539,-0.8604 -50.32221,-31.3432 -97.52239,-79.9985 -140.34681,-144.7462 -5.0603,64.7099 -5.85452,107.4369 -2.35712,127.0938 z m 178.179,36.6758 c -5.26358,-2.3921 -10.4156,-4.8787 -15.36433,-7.4883 -11.6457,1.5412 -23.60057,2.4488 -35.67835,2.7608 16.7684,2.2314 33.86866,3.8199 51.04268,4.7275 z m 41.30973,0.8321 c 94.1621,-1.0212 184.54977,-22.1058 268.82006,-62.7054 -41.90066,10.5895 -84.69955,15.9411 -127.36512,15.9411 -26.83133,0 -54.0957,-2.1274 -81.06885,-6.297 -25.35446,19.1368 -57.81906,33.2247 -94.0874,40.8454 11.07177,4.8788 22.38843,8.9823 33.70131,12.2159 z m 139.0477,-47.7571 c 0.80083,0.01 1.59505,0.047 2.40724,0.047 6.83311,0 13.75793,-0.1797 20.70166,-0.4633 -7.77482,0.3214 -15.4863,0.4538 -23.1089,0.416 z m 238.42706,-117.1944 c 8.9822,-19.3165 15.4021,-39.9095 19.1085,-61.221 -65.5041,37.6781 -141.02191,62.8661 -224.51028,74.8645 -16.80433,2.4299 -34.32156,4.3209 -52.09407,5.7108 -2.01297,10.93 -5.28155,21.5006 -9.69514,31.3905 -8.18139,18.286 -20.24688,34.8983 -35.91094,49.459 22.33738,2.95 44.90357,4.4249 67.11992,4.4438 61.08765,0 122.04671,-11.2419 181.17151,-33.4233 28.1096,-29.0268 46.0457,-52.3333 54.8105,-71.2243 z m -255.59446,4.4533 c 105.20551,-8.4055 198.46746,-36.7326 277.23686,-84.1966 5.7865,-58.0346 -7.9043,-121.9313 -39.6447,-184.8636 -47.5018,39.4367 -100.76449,76.434 -158.31409,109.9424 -33.48006,19.5056 -68.38216,37.6592 -103.73903,53.969 18.64426,35.7682 27.08377,72.0942 24.46096,105.1488 z m -298.07186,-21.6425 c 80.91472,16.1397 157.7988,24.3371 228.64871,24.3371 18.91657,0 37.7348,-0.5956 55.93563,-1.7397 3.03599,-31.3149 -4.91564,-66.0713 -23.03232,-100.6198 -91.78701,41.1197 -182.04514,68.0285 -261.55202,78.0224 z m 255.30323,-89.2549 c -22.51135,-38.2454 -56.69298,-74.978 -98.94442,-106.3307 -75.49231,83.3551 -145.30406,152.2251 -182.25599,184.703 84.06796,-6.7131 181.2027,-33.7921 281.20041,-78.3723 z m -275.09912,113.8473 c 43.50802,62.2705 91.20742,107.7584 141.81328,135.2534 36.40922,-5.3231 69.43923,-17.0662 95.68718,-34.0379 -102.18747,-19.5339 -184.83341,-65.1258 -237.50046,-101.2155 z m 104.11535,3.1202 c -11.78184,-1.6452 -23.02759,-3.3944 -33.672,-5.1908 10.64441,1.7964 21.89016,3.5456 33.672,5.1908 z m 147.3208,10.4004 c -4.90524,0.019 -9.76226,-0.019 -14.60037,-0.076 3.82265,0.038 7.62733,0.1135 11.48685,0.1135 1.03343,0 2.08671,-0.038 3.11352,-0.038 z m -3.11352,0.9739 c -98.26177,0 -182.15671,-15.0618 -244.99164,-28.6202 54.94286,38.3021 141.714,86.409 249.42319,104.3167 18.46651,-14.9483 32.32845,-32.5724 41.16979,-52.3711 3.44634,-7.7152 6.16086,-16.1018 8.04429,-24.9044 -17.52479,1.0495 -35.55637,1.579 -53.64563,1.579 z M 1310.7792,2369.868 c 0.7848,-2.5623 1.5412,-5.2097 2.2408,-7.8477 -47.5301,74.2878 -107.3707,134.0527 -177.9331,177.7063 -3.4417,26.5496 -10.7693,52.0591 -21.7843,75.8005 -5.6446,12.1591 -14.4945,25.6135 -26.975,40.9968 101.4235,-72.2927 178.9543,-171.2769 224.4516,-286.6559 z m -133.249,227.5434 c -123.1699,123.1794 -286.93386,191.0283 -461.11246,191.0283 -174.18617,0 -337.95295,-67.8489 -461.1144,-191.0283 C 132.12988,2474.2603 64.301495,2310.4813 64.301495,2136.3018 c 0,-174.1985 67.828385,-337.9398 191.001845,-461.1097 123.16145,-123.1794 286.92823,-191.0094 461.1144,-191.0094 174.1786,0 337.94256,67.83 461.11246,191.0094 123.17,123.1699 191,286.9301 191,461.1097 0,174.1795 -67.83,337.9585 -191,461.1096"
             style="fill:#231f20;fill-opacity:1;fill-rule:nonzero;stroke:none"
             id="path22"
             inkscape:connector-curvature="0" /><path
             d="m 701.20846,2374.0187 c -25.62109,-17.7564 -53.52366,-33.4422 -83.00806,-46.6225 -14.71383,-6.5712 -29.87583,-12.5372 -45.12859,-17.7469 26.35196,-103.2673 55.49975,-204.9083 84.47358,-294.5036 32.64992,10.1546 64.85545,22.5785 95.79875,36.9311 50.5879,23.4862 98.23152,51.766 141.68374,84.0642 -16.6313,22.8527 -34.2185,46.1781 -52.33423,69.3901 -43.13832,55.2738 -90.7271,111.9469 -141.48519,168.4876"
             style="fill:#231f20;fill-opacity:1;fill-rule:nonzero;stroke:none"
             id="path24"
             inkscape:connector-curvature="0" /><path
             d="m 1088.2847,2318.7733 c -37.801,-67.4991 -94.4221,-131.9442 -164.22721,-186.8776 60.88531,-85.3217 109.11421,-165.2824 143.43571,-237.8399 66.6482,51.9646 122.0638,109.8007 164.7341,171.9766 9.4739,13.8232 18.3804,27.9772 26.4644,42.1881 -3.0539,6.193 -6.297,12.4049 -9.7102,18.6641 -36.2504,66.0525 -90.3045,130.6016 -160.6968,191.8887"
             style="fill:#231f20;fill-opacity:1;fill-rule:nonzero;stroke:none"
             id="path26"
             inkscape:connector-curvature="0" /><path
             d="m 1249.6055,2054.1097 c -44.7504,-65.211 -102.9647,-125.6472 -173.0638,-179.7202 29.49,-66.0525 47.1141,-126.1861 52.4562,-179.0016 60.6442,45.9701 110.3584,98.1521 151.7807,159.2974 26.3699,72.9073 22.5406,150.2963 -11.3555,230.1719 -6.297,-10.4193 -12.9438,-20.7442 -19.8176,-30.7475"
             style="fill:#231f20;fill-opacity:1;fill-rule:nonzero;stroke:none"
             id="path28"
             inkscape:connector-curvature="0" /><path
             d="m 887.52347,1760.0978 c -37.01906,-17.1892 -75.28145,-32.2793 -113.80386,-44.8923 34.24497,-70.4868 67.79973,-122.9714 99.82468,-156.1394 38.46189,13.3031 78.01016,30.3599 117.58491,50.7637 44.1982,22.8149 82.8218,46.0269 117.9659,70.9502 -3.2714,52.3711 -19.9972,113.1098 -49.771,180.6845 -52.8674,-38.8788 -110.63167,-72.964 -171.80063,-101.3667"
             style="fill:#231f20;fill-opacity:1;fill-rule:nonzero;stroke:none"
             id="path30"
             inkscape:connector-curvature="0" /><path
             d="m 499.06394,1669.1125 c -11.83669,0 -23.98822,0.331 -36.24281,0.9644 31.95876,-55.6047 73.10964,-104.8556 122.46461,-146.5237 90.89257,-8.604 177.66087,0.6335 266.37123,28.3366 -31.84436,35.4372 -64.8252,88.1771 -98.17668,156.9809 -86.71914,-26.3888 -172.29422,-39.7582 -254.41635,-39.7582"
             style="fill:#231f20;fill-opacity:1;fill-rule:nonzero;stroke:none"
             id="path32"
             inkscape:connector-curvature="0" /><path
             d="m 2721.5655,1945.7084 -373.169,0 0,381.2056 373.169,0 0,-381.2056 z m 23.8265,402.9048 -420.8315,0 c -1.0495,0 -1.9004,-0.851 -1.9004,-1.9005 l 0,-420.803 c 0,-1.0496 0.8509,-1.9005 1.9004,-1.9005 l 397.005,0 0,-377.1873 -397.005,0 c -1.0495,0 -1.9004,-0.8415 -1.9004,-1.9005 l 0,-17.9077 c 0,-1.04 0.8509,-1.891 1.9004,-1.891 l 420.8315,0 c 1.0495,0 1.9004,0.851 1.9004,1.891 l 0,819.699 c 0,1.0495 -0.8509,1.9005 -1.9004,1.9005"
             style="fill:#231f20;fill-opacity:1;fill-rule:nonzero;stroke:none"
             id="path34"
             inkscape:connector-curvature="0" /><path
             d="m 2273.9197,1945.7084 -373.1879,0 0,381.2056 373.1879,0 0,-381.2056 z m 23.8265,402.9048 -420.8315,0 c -1.04,0 -1.891,-0.851 -1.891,-1.9005 l 0,-420.803 c 0,-1.0496 0.851,-1.9005 1.891,-1.9005 l 397.005,0 0,-377.1873 -397.005,0 c -1.04,0 -1.891,-0.8415 -1.891,-1.9005 l 0,-17.9077 c 0,-1.04 0.851,-1.891 1.891,-1.891 l 420.8315,0 c 1.0401,0 1.891,0.851 1.891,1.891 l 0,819.699 c 0,1.0495 -0.8509,1.9005 -1.891,1.9005"
             style="fill:#231f20;fill-opacity:1;fill-rule:nonzero;stroke:none"
             id="path36"
             inkscape:connector-curvature="0" /><path
             d="m 1850.1004,2348.6132 -397.0049,0 0,396.9955 c 0,1.04 -0.851,1.8815 -1.8816,1.8815 l -21.945,0 c -1.0305,0 -1.8815,-0.8415 -1.8815,-1.8815 l 0,-819.699 c 0,-1.0496 0.851,-1.9005 1.8815,-1.9005 l 21.945,0 c 1.0306,0 1.8816,0.8509 1.8816,1.9005 l 0,401.0043 373.1784,0 0,-401.0043 c 0,-1.0496 0.8509,-1.9005 1.9004,-1.9005 l 21.9261,0 c 1.0401,0 1.891,0.8509 1.891,1.9005 l 0,420.803 c 0,1.0495 -0.8509,1.9005 -1.891,1.9005"
             style="fill:#231f20;fill-opacity:1;fill-rule:nonzero;stroke:none"
             id="path38"
             inkscape:connector-curvature="0" /><path
             inkscape:connector-curvature="0"
             id="path3065"
             style="fill:#ffffff;fill-opacity:1;fill-rule:nonzero;stroke:none"
             d="m 845.42614,2614.298 c 105.20551,-8.4055 198.46746,-36.7326 277.23686,-84.1966 5.7865,-58.0346 -7.9043,-121.9313 -39.6447,-184.8636 -47.5018,39.4367 -100.76449,76.434 -158.31409,109.9424 -33.48006,19.5056 -68.38216,37.6592 -103.73903,53.969 18.64426,35.7682 27.08377,72.0942 24.46096,105.1488 z m -298.07186,-21.6425 c 80.91472,16.1397 157.7988,24.3371 228.64871,24.3371 18.91657,0 37.7348,-0.5956 55.93563,-1.7397 3.03599,-31.3149 -4.91564,-66.0713 -23.03232,-100.6198 -91.78701,41.1197 -182.04514,68.0285 -261.55202,78.0224 z"
             sodipodi:nodetypes="cccccccsccc" /></g></g></g></g></svg>