<?xml version="1.0" encoding="UTF-8" standalone="no"?>
<!-- Created with Inkscape (http://www.inkscape.org/) -->

<svg
   xmlns:dc="http://purl.org/dc/elements/1.1/"
   xmlns:cc="http://creativecommons.org/ns#"
   xmlns:rdf="http://www.w3.org/1999/02/22-rdf-syntax-ns#"
   xmlns:svg="http://www.w3.org/2000/svg"
   xmlns="http://www.w3.org/2000/svg"
   xmlns:sodipodi="http://sodipodi.sourceforge.net/DTD/sodipodi-0.dtd"
   xmlns:inkscape="http://www.inkscape.org/namespaces/inkscape"
   id="svg2"
   version="1.1"
   inkscape:version="0.48.3.1 r9886"
   width="177.16534"
   height="177.16534"
   xml:space="preserve"
   sodipodi:docname="club-mate_small.svg"
   inkscape:export-filename="/home/philipp/_daten/shack/embroidery/club-mate/club-mate_small.png"
   inkscape:export-xdpi="300"
   inkscape:export-ydpi="300"><metadata
     id="metadata8"><rdf:RDF><cc:Work
         rdf:about=""><dc:format>image/svg+xml</dc:format><dc:type
           rdf:resource="http://purl.org/dc/dcmitype/StillImage" /><dc:title></dc:title></cc:Work></rdf:RDF></metadata><defs
     id="defs6" /><sodipodi:namedview
     pagecolor="#ffffff"
     bordercolor="#666666"
     borderopacity="1"
     objecttolerance="10"
     gridtolerance="10"
     guidetolerance="10"
     inkscape:pageopacity="0"
     inkscape:pageshadow="2"
     inkscape:window-width="839"
     inkscape:window-height="886"
     id="namedview4"
     showgrid="false"
     units="mm"
     inkscape:zoom="3.7479113"
     inkscape:cx="88.582672"
     inkscape:cy="88.582672"
     inkscape:window-x="0"
     inkscape:window-y="27"
     inkscape:window-maximized="0"
     inkscape:current-layer="g10"
     inkscape:document-units="mm" /><g
     id="g10"
     inkscape:groupmode="layer"
     inkscape:label="181"
     transform="matrix(1.25,0,0,-1.25,0,177.16535)"><path
       d="m 71.1031,133.55576 c 34.15321,0 62.00836,-27.85495 62.00836,-62.008198 0,-34.153383 -27.85515,-62.0083235 -62.00836,-62.0083235 -34.153373,0 -62.0083608,27.8549405 -62.0083608,62.0083235 0,34.153248 27.8549878,62.008198 62.0083608,62.008198 z m -16.505395,-2.05005 4.39946,6.39913 5.732612,-4.53281 4.13274,4.93267 3.466213,-4.53259 6.665681,4.93267 2.53299,-5.8659 6.932442,3.99939 2.399677,-6.53239 7.865594,1.9996 0.533142,-5.33251 6.665894,2.13307 1.19984,-6.79914 6.13248,1.73317 -0.26673,-6.79914 6.93245,0.93323 -0.39992,-7.46565 7.86558,0.39989 -2.53299,-5.73241 5.33255,-1.99978 -1.73302,-5.332596 7.06557,-1.866482 -4.13275,-4.799201 6.79921,-2.933061 -4.79935,-4.532604 5.99914,-3.199595 -4.7993,-3.066385 3.59951,-3.466057 -4.66611,-3.466213 4.53282,-4.39947 -4.53282,-3.466049 4.13274,-4.799365 -4.79938,-1.599927 3.46622,-5.065978 -5.73241,-1.599704 2.93283,-5.465878 -5.33253,-0.400024 1.8663,-6.532428 -6.79896,-1.19985 0.39991,-7.065565 -5.46591,-0.533315 0,-6.532438 -5.46599,0 -1.19983,-6.532375 -7.06558,2.799542 -0.13356,-7.865514 -6.532379,2.799543 L 95.392093,7.1227414 88.326463,11.522043 84.860226,5.3895329 79.39423,9.2558371 74.328258,3.9230779 68.99573,8.0559873 62.863214,4.1898539 58.597172,8.9890511 53.131175,6.056206 l -3.732843,5.599321 -7.465611,-1.8665434 0.533328,6.1325204 -8.265582,-1.599693 0.133312,6.532364 -6.13252,-2.399679 0,7.598964 -7.998822,0.799923 2.399687,4.799378 -6.799148,1.066366 2.133081,5.999218 -6.132518,0.66662 2.666292,5.732505 -5.9992126,1.599864 3.7328296,5.199287 -6.2658172,0.933231 3.8661334,3.866129 -4.7991981,2.533 3.9993781,4.532593 -4.79937,2.932997 4.6660676,2.932909 -5.5993034,3.999421 5.9992135,3.732834 -4.532764,4.666078 4.7993706,1.466399 -2.6662924,4.532819 3.5995279,1.066515 -2.5329864,4.932638 4.7993704,1.599735 -1.333147,6.665741 5.199278,0.26671 -1.999775,7.06558 6.799146,0.13336 0.266608,7.59896 5.599126,-1.06638 0.66663,6.26578 6.265823,-0.53333 0.666628,5.99922 5.865799,-2.1331 1.066537,6.26576 6.265759,-2.53292 3.332989,5.59931"
       style="fill:#d9261c;fill-opacity:1;fill-rule:evenodd;stroke:none"
       id="path16"
       inkscape:connector-curvature="0" /><path
       d="m 71.328633,133.32229 c 34.153387,0 62.008297,-27.85515 62.008297,-62.008362 0,-34.153383 -27.85491,-62.0083631 -62.008297,-62.0083631 -34.153448,0 -62.0083847,27.8549801 -62.0083847,62.0083631 0,34.153212 27.8549367,62.008362 62.0083847,62.008362"
       style="fill:#ffffff;fill-opacity:1;fill-rule:evenodd;stroke:none"
       id="path18"
       inkscape:connector-curvature="0" /><path
       d="m 131.3445,71.313928 c 0,-32.981914 -27.01261,-59.994364 -60.037299,-59.994364 -32.981913,0 -59.994371,27.01245 -59.994371,59.994364 0,32.981812 27.012458,59.994202 59.994371,59.994202 33.024689,0 60.037299,-27.01239 60.037299,-59.994202 z m -2.87739,0 c 0,-19.454127 -9.83448,-36.76107 -24.82221,-47.067892 -2.40494,4.337464 -4.337496,6.055331 -5.454154,10.993993 2.233284,0.773058 3.306834,0.987742 5.368144,2.147292 0.98776,0.515269 1.88968,1.417189 1.54606,3.006108 -0.30057,1.202504 0.17175,2.662561 0.85899,3.521548 0.81593,0.987743 1.15937,1.889504 0.72999,3.006152 -0.34362,0.858816 -0.086,2.061309 0.773,2.49069 2.14729,1.073746 0.77306,3.177989 2.14729,4.981668 1.15956,1.50311 2.57667,3.263901 0.98774,4.938644 1.11663,4.766918 1.67475,7.128905 2.79142,11.895827 -0.34359,0.128902 -0.51542,0.214726 -0.85888,0.343591 -1.11659,-4.681089 -1.71784,-7.000004 -2.83448,-12.067605 -1.84658,-0.601186 -2.57671,-1.588919 -3.90789,-3.349731 -2.31905,-3.135047 -5.32523,-4.938705 -9.490896,-5.49684 0.08591,2.490744 0.429458,7.472335 1.803678,21.000009 l -0.472496,0.08612 C 96.773623,65.344734 96.387068,62.166815 95.52824,55.810924 92.393194,52.890627 90.847166,51.430398 87.71212,48.553143 82.945197,55.252605 79.55261,59.97658 74.399185,63.970474 c 1.460229,4.251494 2.147244,6.355852 3.392623,10.263761 -1.760578,-0.08591 -1.846546,-4.337334 -3.564426,-5.496839 -0.687054,-0.47253 -0.987742,-1.331357 -1.030665,-2.490903 -0.0859,-1.460069 -0.128715,-2.233118 -0.171762,-3.693186 -0.128705,-2.19018 -2.447801,-2.361988 -2.834283,-0.472485 -0.429454,1.932553 -0.644143,2.87742 -1.073567,4.723975 -4.809959,-0.214705 -6.828397,3.263728 -5.497044,6.613513 1.932554,-0.687039 7.000035,-1.245349 6.441725,0.644312 -2.447852,-0.08612 -6.012291,-0.257809 -5.196342,0.987734 0.601252,0.601176 0.987734,0.944626 1.760728,1.674742 1.589004,-0.472304 2.963239,-0.343624 4.981657,-0.558308 0.601195,-2.018363 3.092105,-0.68704 4.25165,1.417201 -2.920327,0 -4.981637,-0.08591 -7.901919,-0.257651 -0.171768,0.90193 -0.171768,1.674943 0.257616,2.576682 -0.644143,-0.128925 -0.944811,-0.214694 -1.589004,-0.343555 -1.159476,-0.558184 -1.417107,0.343555 -1.073557,1.588929 0.55819,1.932594 0.343439,3.650475 0.730007,5.840634 0.300678,1.975487 2.061414,1.760748 2.834483,0.515257 1.588975,-2.447865 5.282146,-2.276058 8.846551,-0.171537 1.030709,0.644144 1.932578,0.04288 2.404933,-0.687215 0.816121,-1.331387 1.846741,-2.834313 0.68718,-4.509291 -0.944801,-1.417177 -1.073671,-3.006105 -0.257626,-4.723795 3.478508,-7.172012 9.920317,-1.073736 5.840464,6.913966 10.650445,2.834528 16.662713,4.079903 25.552343,10.650439 1.50317,1.116678 3.65031,3.478642 -1.80367,2.834357 -9.0185,-1.073572 -14.343718,-1.803673 -23.748673,-4.809784 -16.276153,-5.196351 -26.024653,-4.595109 -43.073851,-2.79142 4.294349,1.460058 6.398752,2.19018 10.650241,3.69328 16.834457,-0.68717 26.583146,1.588983 40.926751,5.325223 -4.595079,-0.12891 -6.871269,-0.214866 -11.509241,-0.386505 -2.533806,11.938755 -3.950972,18.638215 -7.515397,29.374455 29.24553,-2.40491 52.35008,-27.09841 52.35008,-56.90228 z M 21.834389,42.927224 c -4.895778,8.374267 -7.687201,18.079894 -7.687201,28.386704 0,26.067586 17.736394,48.227352 41.785623,54.969662 C 54.300941,114.98904 53.356074,108.16084 53.6997,96.007282 42.534006,93.903051 37.208789,93.215866 27.202485,90.252637 c -4.59504,-1.331193 -5.196287,-3.006105 -1.331305,-3.993859 8.503135,-2.104251 15.589099,-1.932609 25.337656,-2.447812 0.128904,-1.15954 0.214683,-1.717834 0.343559,-2.834348 -6.914136,-4.552158 1.417176,-15.073891 4.423298,-4.165826 1.632036,-2.0613 2.319086,-4.165681 1.803678,-6.99996 -0.257585,-1.331352 -1.502936,-3.135047 -3.564435,-1.975496 -1.245365,0.730102 -3.0061,1.245309 -4.595072,0 C 47.730351,66.375203 47.129099,65.731094 45.02475,63.755599 42.576951,61.565439 39.699533,61.908868 36.521618,58.64514 30.466457,52.41799 27.503217,49.025338 21.834389,42.927224 z m 30.061616,36.632103 c -1.932551,-1.803669 -2.104335,-3.822102 -1.460216,-5.153455 0.472488,-1.073512 1.76078,-1.502936 2.533782,-0.729956 1.073748,1.073576 1.417168,2.233127 1.80367,3.736286 -0.987744,0.644109 -1.80367,1.588945 -2.877236,2.147125 z m 9.963279,4.852846 c -1.116683,0.730116 -1.460134,1.631856 -2.748554,1.803672 -2.662512,0.343621 -4.208613,-1.417116 -2.834295,-3.90804 0.64411,-1.245362 1.116434,-1.932533 2.361969,-2.490733 0.987764,-0.429563 1.588929,-0.515366 2.233113,0.987734 0.6012,1.417186 -0.601241,3.00616 0.987767,3.607367 z m 20.269988,-4.251661 c 1.245554,0 2.147313,1.503172 3.006159,2.748545 1.245491,-1.245373 1.245491,-2.576727 1.073687,-4.337474 -0.214673,-2.147123 -2.920296,-3.349731 -3.521537,-2.061299 -0.601176,1.28825 -0.644108,2.404854 -0.558309,3.650228 z M 63.877637,79.387509 c -0.429444,-0.644107 -1.159561,-1.073547 -1.846616,-1.073547 -0.687179,0 0,0.901925 0.343626,1.417107 0.601241,0.901929 0.901728,1.245549 1.588974,1.245549 0.687075,0 0.300518,-1.073746 -0.08612,-1.589109 z m 40.926743,-7.000005 c 0,-0.515278 -0.38651,-0.90176 -0.85899,-0.90176 -0.51524,0 -0.90175,0.386482 -0.90175,0.90176 0,0.472466 0.38651,0.858987 0.90175,0.858987 0.47248,0 0.85899,-0.386521 0.85899,-0.858987 z m 4.98165,0.08612 c 0,-0.515418 -0.38657,-0.901919 -0.90193,-0.901919 -0.47231,0 -0.85886,0.386501 -0.85886,0.901919 0,0.472325 0.38655,0.90176 0.85886,0.90176 0.51536,0 0.90193,-0.429435 0.90193,-0.90176 z m -1.58898,-3.56448 c 0,-0.34355 -0.30069,-0.601166 -0.64413,-0.601166 -0.34362,0 -0.60123,0.257616 -0.60123,0.601166 0,0.34346 0.25761,0.644182 0.60123,0.644182 0.34344,0 0.64413,-0.300722 0.64413,-0.644182 z m -3.17793,0.171752 c 0,-0.300519 -0.30066,-0.601176 -0.64412,-0.601176 -0.34363,0 -0.60141,0.300657 -0.60141,0.601176 0,0.34362 0.25778,0.644353 0.60141,0.644353 0.34346,0 0.64412,-0.300733 0.64412,-0.644353 z m -3.56449,0.644353 c 0,-0.300733 -0.25771,-0.558349 -0.51535,-0.558349 -0.30056,0 -0.55831,0.257616 -0.55831,0.558349 0,0.300508 0.25775,0.515197 0.55831,0.515197 0.25764,0 0.51535,-0.214689 0.51535,-0.515197 z m -0.64411,-3.993914 c 0,-0.343624 -0.2578,-0.644303 -0.60137,-0.644303 -0.343421,0 -0.601235,0.300679 -0.601235,0.644303 0,0.343465 0.257814,0.601251 0.601235,0.601251 0.34357,0 0.60137,-0.257786 0.60137,-0.601251 z m 4.07971,-0.472486 c 0,-0.429432 -0.34358,-0.773003 -0.77303,-0.773003 -0.4723,0 -0.81594,0.343571 -0.81594,0.773003 0,0.472486 0.34364,0.815951 0.81594,0.815951 0.42945,0 0.77303,-0.343465 0.77303,-0.815951 z m 2.23308,-1.84657 c 0,-0.300722 -0.30052,-0.60123 -0.60119,-0.60123 -0.34343,0 -0.64418,0.300508 -0.64418,0.60123 0,0.343561 0.30075,0.644143 0.64418,0.644143 0.30067,0 0.60119,-0.300582 0.60119,-0.644143 z m -4.68091,-0.429423 c 0,-0.515428 -0.42938,-0.901929 -0.90194,-0.901929 -0.47232,0 -0.85879,0.386501 -0.85879,0.901929 0,0.472325 0.38647,0.858826 0.85879,0.858826 0.47256,0 0.90194,-0.386501 0.90194,-0.858826 z m 2.44783,-1.760793 c 0,-0.38649 -0.30054,-0.73011 -0.68705,-0.73011 -0.38648,0 -0.7301,0.34362 -0.7301,0.73011 0,0.386558 0.34362,0.687055 0.7301,0.687055 0.38651,0 0.68705,-0.300497 0.68705,-0.687055 z m -3.17795,-1.331308 c 0,-0.47237 -0.34358,-0.81593 -0.773,-0.81593 -0.42943,0 -0.81593,0.34356 -0.81593,0.81593 0,0.42938 0.3865,0.773005 0.81593,0.773005 0.42942,0 0.773,-0.343625 0.773,-0.773005 z m 2.74854,-1.846604 c 0,-0.429455 -0.30074,-0.730146 -0.68723,-0.730146 -0.42945,0 -0.72995,0.300691 -0.72995,0.730146 0,0.386492 0.3005,0.687054 0.72995,0.687054 0.38649,0 0.68723,-0.300562 0.68723,-0.687054 z m -2.66256,-2.233113 c 0,-0.300683 -0.21485,-0.515367 -0.51537,-0.515367 -0.30071,0 -0.51542,0.214684 -0.51542,0.515367 0,0.300558 0.21471,0.515233 0.51542,0.515233 0.30052,0 0.51537,-0.214675 0.51537,-0.515233 z M 82.558704,40.221934 c -0.257616,-4.165712 0,-7.000013 0.472496,-11.337499 0.171759,-1.889652 1.588974,-2.276154 2.748546,-0.472474 0.94464,1.503107 1.331187,2.319034 2.361968,3.736222 0.81595,1.073738 1.417201,2.619606 3.478431,2.834464 4.423363,0.429456 7.901973,1.76064 11.165685,3.006172 1.37425,0.515257 1.50319,1.674742 1.15956,3.177936 -0.3865,1.54588 -1.15956,2.147281 -1.97547,3.564416 -0.64414,1.202471 0.17174,2.318917 0.98772,2.834345 3.82223,2.404933 5.15342,5.668849 7.42958,9.190199 1.54611,2.361987 -1.37423,1.932548 -2.01839,1.417185 -1.41714,-1.116508 -2.01852,-2.147117 -3.09208,-3.607346 -0.7301,-0.987758 -1.80367,-1.546117 -3.00616,-2.576743 -3.048995,-1.073562 -4.55217,-1.588994 -7.558277,-2.662548 -0.343623,-0.128915 -0.687243,0.730125 -0.343623,0.901812 0.472305,0.214679 1.073566,0 1.15955,0.515367 0.128915,1.245369 0.214684,1.889653 0.34356,3.0921 0.04288,0.515273 -0.772984,0.901764 -1.159487,0.558204 -2.147301,-2.018432 -3.177968,-3.049064 -5.325216,-5.067483 -0.858873,-0.815936 -1.159551,-1.331312 -1.846624,-2.319055 -1.975477,-2.705439 -2.96323,-4.079728 -4.981769,-6.785274"
       style="fill:#193882;fill-opacity:1;fill-rule:evenodd;stroke:none"
       id="path20"
       inkscape:connector-curvature="0" /><path
       d="m 71.185177,133.72988 c 34.300393,0 62.276063,-27.97557 62.276063,-62.276142 0,-34.300552 -27.97567,-62.2760524 -62.276063,-62.2760524 -34.300551,0 -62.2762337,27.9755004 -62.2762337,62.2760524 0,34.300572 27.9756827,62.276142 62.2762337,62.276142 z"
       style="fill:none;stroke:#1f1917;stroke-width:0.1243241;stroke-linecap:butt;stroke-linejoin:miter;stroke-miterlimit:10;stroke-opacity:1;stroke-dasharray:none"
       id="path22"
       inkscape:connector-curvature="0" /></g></svg>