<?xml version="1.0" encoding="UTF-8" standalone="no"?>
<!-- Created with Inkscape (http://www.inkscape.org/) -->

<svg
   xmlns:dc="http://purl.org/dc/elements/1.1/"
   xmlns:cc="http://creativecommons.org/ns#"
   xmlns:rdf="http://www.w3.org/1999/02/22-rdf-syntax-ns#"
   xmlns:svg="http://www.w3.org/2000/svg"
   xmlns="http://www.w3.org/2000/svg"
   xmlns:sodipodi="http://sodipodi.sourceforge.net/DTD/sodipodi-0.dtd"
   xmlns:inkscape="http://www.inkscape.org/namespaces/inkscape"
   id="svg2"
   version="1.1"
   inkscape:version="0.48.3.1 r9886"
   width="354.33069"
   height="354.33069"
   xml:space="preserve"
   sodipodi:docname="club-mate.svg"
   inkscape:export-filename="/home/philipp/_daten/shack/embroidery/club-mate/club-mate.png"
   inkscape:export-xdpi="300"
   inkscape:export-ydpi="300"><metadata
     id="metadata8"><rdf:RDF><cc:Work
         rdf:about=""><dc:format>image/svg+xml</dc:format><dc:type
           rdf:resource="http://purl.org/dc/dcmitype/StillImage" /><dc:title></dc:title></cc:Work></rdf:RDF></metadata><defs
     id="defs6" /><sodipodi:namedview
     pagecolor="#ffffff"
     bordercolor="#666666"
     borderopacity="1"
     objecttolerance="10"
     gridtolerance="10"
     guidetolerance="10"
     inkscape:pageopacity="0"
     inkscape:pageshadow="2"
     inkscape:window-width="839"
     inkscape:window-height="886"
     id="namedview4"
     showgrid="false"
     units="mm"
     inkscape:zoom="1.8739557"
     inkscape:cx="177.05762"
     inkscape:cy="177.14141"
     inkscape:window-x="0"
     inkscape:window-y="27"
     inkscape:window-maximized="0"
     inkscape:current-layer="g10" /><g
     id="g10"
     inkscape:groupmode="layer"
     inkscape:label="181"
     transform="matrix(1.25,0,0,-1.25,0,354.33069)"><path
       d="m 140.71555,268.40075 c 68.34321,0 124.08352,-55.73988 124.08352,-124.08318 0,-68.343557 -55.74031,-124.083442 -124.08352,-124.083442 -68.343539,0 -124.083521,55.739885 -124.083521,124.083442 0,68.3433 55.739982,124.08318 124.083521,124.08318 z m -33.02857,-4.10227 8.80366,12.80514 11.4714,-9.07051 8.26993,9.87065 6.93616,-9.07006 13.33854,9.87065 5.06871,-11.73813 13.87235,8.0031 4.80194,-13.07179 15.73966,4.00133 1.06686,-10.67077 13.33898,4.26845 2.40095,-13.60561 12.27157,3.4682 -0.53376,-13.6056 13.87238,1.86748 -0.80027,-14.93937 15.73963,0.80024 -5.06871,-11.47103 10.67084,-4.00172 -3.4679,-10.67092 14.13875,-3.73497 -8.26993,-9.60357 13.60574,-5.86928 -9.60389,-9.07009 12.00475,-6.40264 -9.60378,-6.13607 7.20292,-6.93585 -9.33727,-6.93616 9.07052,-8.80368 -9.07052,-6.93583 8.26993,-9.6039 -9.60391,-3.20158 6.93617,-10.13741 -11.471,-3.20113 5.86881,-10.937646 -10.67079,-0.800481 3.73463,-13.071893 -13.60526,-2.400992 0.80024,-14.138737 -10.93767,-1.067207 0,-13.071914 -10.9379,0 -2.40095,-13.071786 -14.13878,5.602102 -0.26726,-15.739505 -13.07179,5.602102 -4.80196,-12.271562 -14.13887,8.80334 -6.93621,-12.271626 -10.93788,7.736775 -10.1374,-10.6712642 -10.6708,8.2702712 -12.27164,-7.7364318 -8.53668,9.6035638 -10.93788,-5.86885 -7.469709,11.204675 -14.93926,-3.735099 1.067229,12.271647 -16.540071,-3.201109 0.26677,13.071764 -12.271648,-4.801942 0,15.206115 -16.006258,1.600705 4.801956,9.603927 -13.605617,2.133881 4.268459,12.004898 -12.271643,1.333957 5.335456,11.471188 -12.004888,3.201452 7.469683,10.404172 -12.538386,1.86747 7.736431,7.73642 -9.6035654,5.06873 8.0030644,9.07007 -9.6039103,5.86915 9.3371613,5.86898 -11.2046378,8.00315 12.0048898,7.46969 -9.070411,9.33718 9.60391,2.93438 -5.335456,9.07052 7.202935,2.13418 -5.068703,9.87059 9.60391,3.20119 -2.667729,13.33864 10.404158,0.53373 -4.001705,14.13878 13.605616,0.26684 0.533501,15.20613 11.204283,-2.1339 1.333978,12.53829 12.538396,-1.06723 1.333977,12.0049 11.737915,-4.26849 2.134223,12.53827 12.538268,-5.06858 6.669568,11.20465"
       style="fill:#d9261c;fill-opacity:1;fill-rule:evenodd;stroke:none"
       id="path16"
       inkscape:connector-curvature="0" /><path
       d="m 141.16686,267.93358 c 68.34355,0 124.08339,-55.74031 124.08339,-124.08353 0,-68.343553 -55.73984,-124.083524 -124.08339,-124.083524 -68.343688,0 -124.083568,55.739971 -124.083568,124.083524 0,68.34322 55.73988,124.08353 124.083568,124.08353"
       style="fill:#ffffff;fill-opacity:1;fill-rule:evenodd;stroke:none"
       id="path18"
       inkscape:connector-curvature="0" /><path
       d="m 261.26326,143.85005 c 0,-65.999357 -54.05434,-120.053354 -120.13929,-120.053354 -65.999355,0 -120.053369,54.053997 -120.053369,120.053354 0,65.99917 54.054014,120.05304 120.053369,120.05304 66.08495,0 120.13929,-54.05387 120.13929,-120.05304 z m -5.75791,0 c 0,-38.92921 -19.67955,-73.561738 -49.67116,-94.186486 -4.81246,8.6796 -8.67965,12.117186 -10.91417,21.999829 4.46898,1.546948 6.61725,1.97655 10.74206,4.296898 1.9766,1.031092 3.78139,2.835904 3.09379,6.015455 -0.60147,2.406302 0.34369,5.327989 1.71892,7.046889 1.63273,1.97655 2.31999,3.781041 1.46076,6.015541 -0.68762,1.718558 -0.17191,4.124838 1.54684,4.984064 4.29688,2.14865 1.54693,6.3594 4.29688,9.9687 2.32034,3.00784 5.15612,6.53132 1.97655,9.88261 2.23445,9.53897 3.35131,14.26549 5.58585,23.80447 -0.68757,0.25794 -1.03139,0.42968 -1.71866,0.68755 -2.23442,-9.36722 -3.43755,-14.00755 -5.67203,-24.14821 -3.69517,-1.20302 -5.1562,-3.17955 -7.82001,-6.70307 -4.64058,-6.27347 -10.65619,-9.88273 -18.99201,-10.9996 0.17191,4.98417 0.85938,14.95272 3.6093,42.02264 l -0.9455,0.17233 c -1.71851,-12.80443 -2.49204,-19.16369 -4.21062,-31.88232 -6.27347,-5.84374 -9.36719,-8.76577 -15.64066,-14.52338 -9.53898,13.40614 -16.32781,22.85918 -26.64021,30.85127 2.92203,8.50757 4.2968,12.71855 6.7889,20.53858 -3.52305,-0.17191 -3.69508,-8.67934 -7.13269,-10.9996 -1.37485,-0.94557 -1.97655,-2.66415 -2.06244,-4.98449 -0.17191,-2.92171 -0.25757,-4.46864 -0.34371,-7.39035 -0.25755,-4.38272 -4.89824,-4.72652 -5.67162,-0.94548 -0.85937,3.86719 -1.28898,5.75794 -2.14829,9.45304 -9.6251,-0.42964 -13.66415,6.53097 -11.00001,13.23415 3.86719,-1.37482 14.00761,-2.49204 12.89039,1.28932 -4.89834,-0.17234 -12.03106,-0.5159 -10.39828,1.97653 1.20315,1.203 1.97653,1.89027 3.52335,3.35129 3.17972,-0.94512 5.92967,-0.68762 9.96868,-1.11722 1.20304,-4.0389 6.18754,-1.37482 8.50788,2.83593 -5.8438,0 -9.96864,-0.17191 -15.81235,-0.51558 -0.34372,1.80483 -0.34372,3.35169 0.51551,5.15614 -1.28898,-0.25799 -1.89064,-0.42962 -3.17972,-0.68748 -2.3202,-1.11697 -2.83574,0.68748 -2.14827,3.17957 1.11698,3.86727 0.68725,7.30488 1.4608,11.68756 0.60168,3.9531 4.12505,3.52339 5.67202,1.03107 3.17966,-4.89837 10.56998,-4.55457 17.70263,-0.34326 2.06253,1.28898 3.86724,0.0858 4.81246,-1.37517 1.63312,-2.66421 3.69547,-5.67168 1.3751,-9.02344 -1.89062,-2.83588 -2.1485,-6.01545 -0.51553,-9.45268 6.96076,-14.35175 19.85132,-2.14863 11.68722,13.83538 21.31236,5.67211 33.34338,8.1642 51.13222,21.31235 3.00796,2.23456 7.30456,6.96104 -3.6093,5.67178 -18.04673,-2.14831 -28.70288,-3.6093 -47.52292,-9.62476 -32.56984,-10.3983 -52.07734,-9.19517 -86.194102,-5.58585 8.593324,2.92169 12.804395,4.38272 21.311952,7.39054 33.68705,-1.37508 53.19493,3.17968 81.89759,10.65619 -9.19511,-0.25797 -13.74994,-0.42999 -23.03088,-0.77344 -5.07034,23.89038 -7.9062,37.2965 -15.03889,58.78056 C 209.27153,252.90398 255.5055,203.4904 255.5055,143.85055 z M 42.125055,87.046064 c -9.796832,16.757556 -15.382683,36.179266 -15.382683,56.803986 0,52.16325 35.491894,96.50665 83.616258,109.99855 -3.2655,-22.60128 -5.15625,-36.26503 -4.46863,-60.58524 -22.343414,-4.21073 -32.999585,-5.58584 -53.022971,-11.51549 -9.195032,-2.66382 -10.398172,-6.01545 -2.664044,-7.99202 17.01543,-4.21077 31.194992,-3.8673 50.702605,-4.89826 0.25795,-2.32033 0.4296,-3.43752 0.68749,-5.67175 -13.835722,-9.10922 2.83588,-30.16402 8.85136,-8.33614 3.26583,-4.12482 4.64067,-8.33585 3.6093,-14.00746 -0.51545,-2.66414 -3.00749,-6.27347 -7.13271,-3.95312 -2.49207,1.46099 -6.01544,2.49196 -9.195096,0 -3.781062,-2.92184 -4.984213,-4.21075 -9.195177,-8.16387 C 83.63252,124.34257 77.874586,125.0298 71.515334,118.49883 59.39849,106.03782 53.468819,99.248862 42.125055,87.046064 z m 60.155615,73.303666 c -3.867184,-3.60928 -4.210938,-7.64832 -2.922004,-10.31246 0.945484,-2.14818 3.523454,-3.00749 5.070294,-1.4607 2.14865,2.14831 2.83586,4.46866 3.60928,7.4766 -1.97655,1.28891 -3.60928,3.1796 -5.75757,4.29656 z m 19.93729,9.71092 c -2.23457,1.46102 -2.92184,3.26547 -5.50007,3.60929 -5.32789,0.68761 -8.42176,-2.83576 -5.67164,-7.82029 1.28891,-2.49207 2.23407,-3.86715 4.72648,-4.98415 1.97659,-0.85959 3.17957,-1.03129 4.46863,1.97653 1.20305,2.8359 -1.20313,6.01556 1.9766,7.21862 z m 40.56181,-8.5079 c 2.49245,0 4.29694,3.00796 6.01556,5.50005 2.49232,-2.49209 2.49232,-5.15623 2.14853,-8.67962 -0.42958,-4.29656 -5.84374,-6.70307 -7.04687,-4.12482 -1.203,2.57789 -1.28891,4.8123 -1.11722,7.30439 z m -36.52293,-1.54684 c -0.85935,-1.28891 -2.32037,-2.14825 -3.69522,-2.14825 -1.3751,0 0,1.80482 0.68762,2.83574 1.20313,1.80483 1.80443,2.49244 3.17966,2.49244 1.37489,0 0.60136,-2.14865 -0.17234,-3.17993 z m 81.89756,-14.00755 c 0,-1.03111 -0.77342,-1.80449 -1.7189,-1.80449 -1.03104,0 -1.80447,0.77338 -1.80447,1.80449 0,0.94544 0.77343,1.7189 1.80447,1.7189 0.94548,0 1.7189,-0.77346 1.7189,-1.7189 z m 9.96869,0.17234 c 0,-1.03139 -0.77355,-1.80481 -1.80484,-1.80481 -0.94511,0 -1.71864,0.77342 -1.71864,1.80481 0,0.94516 0.77353,1.80449 1.71864,1.80449 1.03129,0 1.80484,-0.85933 1.80484,-1.80449 z m -3.17966,-7.1328 c 0,-0.68747 -0.60173,-1.20298 -1.28898,-1.20298 -0.68761,0 -1.20313,0.51551 -1.20313,1.20298 0,0.68729 0.51552,1.28906 1.20313,1.28906 0.68725,0 1.28898,-0.60177 1.28898,-1.28906 z m -6.35932,0.34369 c 0,-0.60136 -0.60164,-1.203 -1.28893,-1.203 -0.6876,0 -1.20347,0.60164 -1.20347,1.203 0,0.68761 0.51587,1.2894 1.20347,1.2894 0.68729,0 1.28893,-0.60179 1.28893,-1.2894 z m -7.13278,1.2894 c 0,-0.60179 -0.51572,-1.1173 -1.03128,-1.1173 -0.60145,0 -1.11722,0.51551 -1.11722,1.1173 0,0.60134 0.51577,1.03095 1.11722,1.03095 0.51556,0 1.03128,-0.42961 1.03128,-1.03095 z m -1.28893,-7.99213 c 0,-0.68762 -0.5159,-1.2893 -1.20339,-1.2893 -0.68721,0 -1.20313,0.60168 -1.20313,1.2893 0,0.6873 0.51592,1.20315 1.20313,1.20315 0.68749,0 1.20339,-0.51585 1.20339,-1.20315 z m 8.16383,-0.94548 c 0,-0.85933 -0.68755,-1.54684 -1.54693,-1.54684 -0.94511,0 -1.63273,0.68751 -1.63273,1.54684 0,0.94548 0.68762,1.63278 1.63273,1.63278 0.85938,0 1.54693,-0.6873 1.54693,-1.63278 z m 4.46855,-3.69513 c 0,-0.60177 -0.60137,-1.20311 -1.20305,-1.20311 -0.68723,0 -1.28904,0.60134 -1.28904,1.20311 0,0.68749 0.60181,1.28898 1.28904,1.28898 0.60168,0 1.20305,-0.60149 1.20305,-1.28898 z m -9.36687,-0.85931 c 0,-1.03141 -0.85923,-1.80483 -1.80484,-1.80483 -0.94516,0 -1.71853,0.77342 -1.71853,1.80483 0,0.94516 0.77337,1.71858 1.71853,1.71858 0.94561,0 1.80484,-0.77342 1.80484,-1.71858 z m 4.89832,-3.52348 c 0,-0.7734 -0.60143,-1.46101 -1.37485,-1.46101 -0.7734,0 -1.46099,0.68761 -1.46099,1.46101 0,0.77353 0.68759,1.37485 1.46099,1.37485 0.77342,0 1.37485,-0.60132 1.37485,-1.37485 z m -6.35934,-2.66405 c 0,-0.94525 -0.68753,-1.63274 -1.54684,-1.63274 -0.85933,0 -1.63273,0.68749 -1.63273,1.63274 0,0.85922 0.7734,1.54684 1.63273,1.54684 0.85931,0 1.54684,-0.68762 1.54684,-1.54684 z m 5.50003,-3.6952 c 0,-0.85937 -0.60179,-1.46108 -1.37521,-1.46108 -0.85936,0 -1.46068,0.60171 -1.46068,1.46108 0,0.7734 0.60132,1.37485 1.46068,1.37485 0.77342,0 1.37521,-0.60145 1.37521,-1.37485 z m -5.32797,-4.46863 c 0,-0.60169 -0.42994,-1.03129 -1.03131,-1.03129 -0.60176,0 -1.03141,0.4296 -1.03141,1.03129 0,0.60144 0.42965,1.03102 1.03141,1.03102 0.60137,0 1.03131,-0.42958 1.03131,-1.03102 z M 163.6391,81.632569 c -0.51551,-8.335909 0,-14.007567 0.9455,-22.687209 0.3437,-3.781341 3.17966,-4.554761 5.50005,-0.945458 1.8903,3.007834 2.66381,4.640566 4.72648,7.47647 1.63278,2.14863 2.83593,5.242034 6.96061,5.671979 8.85149,0.859375 15.81245,3.523177 22.34342,6.015583 2.74997,1.03107 3.00796,3.351289 2.32034,6.359295 -0.77342,3.093425 -2.32034,4.296876 -3.95307,7.132673 -1.28898,2.406238 0.34366,4.64033 1.97652,5.671743 7.64857,4.812455 10.31238,11.343805 14.86714,18.390295 3.09391,4.72652 -2.74993,3.86718 -4.03891,2.8359 -2.83586,-2.23422 -4.03925,-4.29655 -6.18751,-7.21858 -1.46099,-1.97658 -3.60928,-3.0939 -6.01556,-5.15626 -6.10128,-2.14828 -9.10925,-3.1797 -15.1247,-5.327963 -0.68762,-0.257971 -1.37523,1.461033 -0.68762,1.804593 0.94512,0.42959 2.14829,0 2.32035,1.03129 0.25797,2.49208 0.4296,3.78134 0.68749,6.18753 0.0858,1.0311 -1.5468,1.8045 -2.32022,1.11701 -4.29692,-4.03904 -6.35936,-6.10141 -10.65617,-10.140423 -1.71867,-1.632753 -2.32035,-2.664059 -3.69524,-4.640609 -3.95308,-5.413794 -5.92965,-8.163851 -9.9689,-13.577859"
       style="fill:#193882;fill-opacity:1;fill-rule:evenodd;stroke:none"
       id="path20"
       inkscape:connector-curvature="0" /><path
       d="m 140.87979,268.74917 c 68.63775,0 124.61921,-55.98126 124.61921,-124.61935 0,-68.638052 -55.98146,-124.619188 -124.61921,-124.619188 -68.638049,0 -124.619551,55.981136 -124.619551,124.619188 0,68.63809 55.981502,124.61935 124.619551,124.61935 z"
       style="fill:none;stroke:#1f1917;stroke-width:0.24878214;stroke-linecap:butt;stroke-linejoin:miter;stroke-miterlimit:10;stroke-opacity:1;stroke-dasharray:none"
       id="path22"
       inkscape:connector-curvature="0" /></g></svg>