<?xml version="1.0" encoding="UTF-8" standalone="no"?>
<!-- Created with Inkscape (http://www.inkscape.org/) -->

<svg
   xmlns:dc="http://purl.org/dc/elements/1.1/"
   xmlns:cc="http://creativecommons.org/ns#"
   xmlns:rdf="http://www.w3.org/1999/02/22-rdf-syntax-ns#"
   xmlns:svg="http://www.w3.org/2000/svg"
   xmlns="http://www.w3.org/2000/svg"
   xmlns:sodipodi="http://sodipodi.sourceforge.net/DTD/sodipodi-0.dtd"
   xmlns:inkscape="http://www.inkscape.org/namespaces/inkscape"
   version="1.0"
   viewBox="0 0 354.3307 354.3307"
   id="svg2"
   inkscape:version="0.48.3.1 r9886"
   width="100%"
   height="100%"
   sodipodi:docname="tux.svg"
   inkscape:export-filename="/home/philipp/_daten/shack/embroidery/tux/tux.png"
   inkscape:export-xdpi="300"
   inkscape:export-ydpi="300">
  <defs
     id="defs24" />
  <sodipodi:namedview
     pagecolor="#ffffff"
     bordercolor="#666666"
     borderopacity="1"
     objecttolerance="10"
     gridtolerance="10"
     guidetolerance="10"
     inkscape:pageopacity="0"
     inkscape:pageshadow="2"
     inkscape:window-width="839"
     inkscape:window-height="886"
     id="namedview22"
     showgrid="false"
     inkscape:document-units="mm"
     units="mm"
     inkscape:zoom="1.8739556"
     inkscape:cx="177.16535"
     inkscape:cy="177.16535"
     inkscape:window-x="0"
     inkscape:window-y="27"
     inkscape:window-maximized="0"
     inkscape:current-layer="svg2" />
  <metadata
     id="metadata4">
    <rdf:RDF>
      <cc:Work
         rdf:about="">
        <dc:format>image/svg+xml</dc:format>
        <dc:type
           rdf:resource="http://purl.org/dc/dcmitype/StillImage" />
        <dc:title></dc:title>
      </cc:Work>
    </rdf:RDF>
  </metadata>
  <path
     d="m 180.08998,7.5208042 c -9.27586,0 -10.83144,0.1152279 -16.99613,1.7284186 -7.60504,2.0164892 -12.04132,4.5515042 -17.22657,9.7943762 -2.65025,2.592628 -3.97537,4.263434 -5.24288,6.39515 -3.16876,5.473327 -5.24287,11.695636 -6.51038,20.107275 -0.69136,4.090593 -0.74898,5.588556 -0.69136,15.728615 0,10.658584 1.2675,43.152861 2.01649,52.889621 0.51852,6.45277 0.28807,7.14413 -5.12764,14.69156 -1.90127,2.65025 -4.55151,6.51038 -5.87663,8.58448 -3.62968,5.58856 -8.75732,12.7903 -12.96315,18.32125 -7.77788,10.02483 -9.73675,13.71212 -14.633954,27.02095 -4.724341,13.02076 -7.605039,19.47352 -14.576329,33.0128 -3.572066,6.79845 -4.49389,9.67915 -4.666732,14.51872 -0.230456,4.14821 0.345684,9.90961 0.979438,10.94666 0.518525,0.69137 1.152279,0.86421 2.419786,0.51853 -0.172841,0.17284 -0.288069,0.28807 -0.403298,0.34568 -2.016488,1.32511 -4.321047,4.1482 -5.761396,7.72027 -0.05761,0.0576 -0.05761,0.17285 -0.115229,0.23046 -0.518525,0.80659 -1.094664,2.18932 -1.786033,4.32104 -2.074103,5.87663 -3.802521,8.46926 -6.913676,10.14007 -2.650242,1.44034 -5.012415,1.78602 -11.926092,1.78602 -7.144132,0 -8.69971,0.34569 -10.831426,2.18934 -3.802523,3.22638 -4.378662,9.62153 -1.786033,18.49409 2.362172,8.00833 2.246944,11.69563 -0.806596,20.68341 -1.670805,4.9548 -1.901261,5.99185 -1.901261,8.12357 0,1.61318 0.172842,2.82308 0.518526,3.57206 0.748982,1.55558 3.111154,3.45684 5.415713,4.43627 2.592629,0.97944 15.613386,4.20583 24.946849,6.04948 14.461106,2.9383 19.646364,4.49388 33.070433,9.85198 11.92609,4.72435 16.99611,6.45276 21.0291,7.08652 1.90125,0.28807 5.819,-0.0576 7.60504,-0.74898 2.13171,-0.74898 4.1482,-2.13171 8.58447,-5.87663 7.8355,-6.56799 12.09894,-8.64209 20.85627,-10.02482 3.28399,-0.51853 6.27992,-0.57614 31.34199,-0.57614 15.21009,0 28.63414,0.11523 29.84404,0.28807 2.82309,0.34568 3.91775,1.2675 6.27992,5.41571 3.62969,6.51038 8.06596,9.39108 16.13191,10.60096 3.80253,0.57614 10.31291,0.63376 13.30883,0.17285 6.56799,-1.09466 9.85199,-3.05354 17.28419,-10.48574 8.6421,-8.69971 16.70806,-14.17304 28.05801,-19.12785 5.76139,-2.535 8.35402,-3.97535 15.15247,-8.58447 8.35403,-5.64618 9.96722,-7.4322 9.96722,-11.1195 0,-3.86013 -2.0741,-6.27992 -9.73676,-11.34995 -7.31698,-4.83958 -10.60098,-7.77788 -13.65451,-12.27178 -2.13172,-3.16876 -2.8807,-5.58855 -3.16877,-10.3129 -0.11523,-2.18933 -0.34569,-3.68729 -0.63376,-4.60912 -0.28807,-3.28399 -1.61318,-7.0289 -3.97536,-8.23879 -3.284,-1.72842 -4.43627,-1.20989 -5.53094,-0.51852 3.68729,-4.14822 4.89719,-6.10708 6.10708,-9.67915 2.13172,-6.33754 1.67081,-13.42406 -2.01649,-31.86053 -4.26343,-21.4324 -11.52279,-36.75772 -26.50242,-56.00078 -9.50631,-12.27177 -13.36644,-18.37885 -22.64229,-35.77827 -4.60912,-8.69971 -5.93424,-11.69564 -7.02891,-16.362369 C 237.76156,93.019936 237.01258,86.97047 235.80268,69.743892 234.65041,53.669594 233.84381,47.043988 232.34585,41.455433 228.37048,26.245345 216.44439,14.72255 199.79395,9.9405909 192.70743,7.9241017 189.6539,7.5208042 180.08998,7.5208042 z"
     id="path6"
     inkscape:connector-curvature="0"
     style="fill:#ffffff" />
  <g
     transform="matrix(0.5761397,0,0,0.5761397,-105.09918,-162.09473)"
     id="g8"
     style="fill:#f8bf11">
    <path
       d="m 552,300.4 c 0,25.1 -29.9,30.4 -44.4,39.4 -13.5,12.5 -91.2,47.8 -111.8,47.8 -33.1,-7 -73.4,-56.4 -78.6,-89.2 0,-19.1 24.3,-34.4 37.9,-46.9 13.5,-12.5 29.1,-24.3 55.7,-19.3 20.6,0 52.8,9.8 66.3,22.3 27,9 74.9,14.8 74.9,45.9 z"
       transform="matrix(0.55569,0,0,0.55569,249.6684,292.4824)"
       id="path10"
       inkscape:connector-curvature="0" />
    <path
       d="m 7.597,971.1 c 30.75,14 102.4,31.9 127.6,34.9 16.9,7 128.5,33 154.2,33 38.1,-27 44.4,-67.9 33.7,-109.3 -47.5,-76.7 -84.2,-177.2 -173,-211.8 -8.9,4.4 -16.2,16.3 -19.4,18.3 -6.4,4.1 -13.5,13 -18,24.1 -4.7,11.6 -9,25.8 -14.24,46.5 -10.26,20.6 -52.15,2 -80.84,17 -10.46,31.7 7.39,109.9 -10.02,147.3 z"
       transform="matrix(0.55569,0,0,0.55569,249.6684,292.4824)"
       id="path12"
       inkscape:connector-curvature="0" />
    <path
       d="m 834.2,853.6 c 19.2,15.7 49.3,27.4 62.9,53.5 -25.9,30.9 -48.2,41.8 -81,57.4 -45,21.4 -73.2,41.5 -93.8,55.5 -20.6,18 -68.4,29 -90.1,26 -13.7,-9 -29.1,-118.3 -24.1,-154 0,-19 -23.3,-95.1 14,-141.5 36.1,-6.9 67.1,26.1 90,48.6 18.9,-12.7 48.8,-32.2 71.4,-37.1 7.4,-1.7 7.7,-9.4 23.2,-1.3 7.4,3.9 11.7,16.1 12.5,26.5 1.3,16.8 3,52.4 15,66.4 z"
       transform="matrix(0.55569,0,0,0.55569,249.6684,292.4824)"
       id="path14"
       inkscape:connector-curvature="0" />
  </g>
  <g
     transform="matrix(0.5761397,0,0,0.5761397,-105.09918,-162.09473)"
     id="g16">
    <g
       transform="matrix(0.55569,0,0,0.55569,249.6684,292.4824)"
       id="g18">
      <path
         d="m 265.5,1063 c -12.6,-2 -28.5,-7 -65.7,-22 -42,-17 -58.1,-21 -103.3,-31 C 67.4,1005 26.59,994.5 18.62,991.3 11.41,988.4 3.92,982.4 1.63,977.5 0.562,975.3 0,971.4 0,966.4 c 0,-6.8 0.7248,-9.8 5.962,-25.3 9.516,-28.2 9.976,-39.7 2.577,-64.7 -8.194,-27.7 -6.277,-47.7 5.529,-57.8 6.67,-5.7 11.53,-6.7 33.8,-6.7 21.64,0 28.95,-1.1 37.33,-5.7 9.65,-5.3 15.08,-13.3 21.48,-31.7 4.1,-11.9 6.8,-16.6 9.4,-16.6 2.1,0 3.9,5.2 3.9,11.5 0,5.6 -6.3,29.2 -9.4,35.3 -3.3,6.6 -7.8,11.7 -12.99,14.7 -9.68,5.7 -28.33,7.2 -48.79,4.1 -13.07,-2.1 -20.57,-1.6 -25.57,1.4 -7.4,4.5 -8.61,14.6 -3.24,27.1 10.4,24.1 12.39,29.3 14.59,37.4 2.61,9.7 3.03,18.2 1.39,28.3 -1.63,10 -4.5,16.3 -12.99,28.2 -4.38,6.2 -8.39,12.8 -8.92,14.8 -1.5,5.4 0.71,9.5 6.67,12.6 5.06,2.5 77.22,21.2 128.2,32.7 15.7,4 44.3,11 63.5,16 19.3,5 39.3,9 44.5,10 16.1,2 31,0 41.3,-6 14.3,-9 24.3,-29.7 25.5,-53.8 0.8,-15.9 -2.7,-30.2 -12,-48.7 -7.1,-14.2 -10.6,-19.7 -44.3,-70.6 -59.5,-89.6 -85.3,-119.5 -107.3,-124.1 -7.1,-1.4 -11.8,-0.6 -21.3,3.7 -9.1,4.1 -12.2,4.3 -14.4,1 -2.1,-3.2 -3.8,-21.1 -3.2,-34.1 0.7,-15.1 3.6,-24.1 14.6,-45.5 21.8,-42.2 30.7,-62.4 45.6,-103 15.3,-41.6 21.5,-53.1 45.6,-84.5 13.2,-17.1 29.2,-39.7 40.5,-57.1 4.3,-6.5 12.6,-18.6 18.5,-26.9 16.8,-23.6 17.6,-25.8 16,-45.9 -2.4,-30.3 -6.4,-131.9 -6.4,-165.1 -0.1,-31.6 0.1,-36.4 2.1,-49.2 4.1,-26.16 10.5,-45.79 20.5,-62.79 3.8,-6.64 8.1,-11.89 16.2,-20.07 16.2,-16.34 30.2,-24.18 53.9,-30.38 19.3,-5.052 24.2,-5.554 53.1,-5.528 29.8,0.026 39.3,1.205 61.5,7.583 52,14.94 89.3,50.96 101.8,98.39 4.6,17.5 7.1,38.3 10.7,88.5 3.8,53.7 6.1,72.6 11.2,93.8 3.4,14.4 7.5,23.9 21.9,51 29,54.4 41,73.4 70.7,111.6 46.8,60.2 69.4,108 82.8,175 11.5,57.6 12.9,79.7 6.3,99.6 -4,12 -7.9,18 -21.6,33.1 -28.8,31.9 -60.9,51.9 -82.9,51.9 -20,0 -38.3,-13.6 -51.4,-38.3 -6.1,-13.6 -5.3,-24.5 -22.8,-20.6 -8.5,2.3 -15.5,12.6 -17.6,25.9 -1.6,9.5 -1.3,45.9 0.4,55 0.7,4.1 3.1,16.3 5.1,27 3.6,18.5 3.8,20.5 3.8,39.5 0,17.5 -0.4,22.8 -3.3,42 -2.7,18 -3.2,24.2 -2.9,34 0.4,11.4 0.6,12.5 4,19.6 4.1,9 13.1,19 20.9,24 17.2,11 41.2,12 61.4,2 5.7,-3 14,-9 28,-20 22.7,-18.4 39.6,-30.1 52.4,-36.6 4.9,-2.4 16.7,-6.9 26.2,-10 39.4,-12.7 57.4,-20.3 67.4,-28.6 11.9,-9.7 17.6,-20.2 15.5,-28.1 -2.7,-9.8 -14,-16.8 -37.1,-22.8 -17.4,-4.6 -21.6,-6.7 -28.7,-14.5 -6.3,-6.9 -11.2,-16.8 -14.8,-30 -3.5,-12.9 -4,-33.8 -1,-42 2.1,-5.8 4.2,-8.5 6.6,-8.5 2.8,0 4.2,4.9 5,18 1,14.6 3.3,22.3 10,32.1 9.5,14.1 19.6,23.2 42.5,38.4 23.9,15.8 30.5,23.4 30.5,35.5 0,11.5 -5.1,17.1 -31.1,34.6 -21.3,14.4 -29.3,19 -47.3,26.8 -35.5,15.5 -60.7,32.7 -87.8,59.7 -23.2,23 -33.3,30 -54,33 -9.3,1 -29.6,1 -41.5,-1 -25.2,-3 -38.9,-12 -50.4,-33 -7.3,-13 -10.7,-16 -19.5,-17 -3.8,0 -45.8,-1 -93.4,-1 -78.2,0 -87.6,1 -97.7,2 -27.4,5 -40.9,11 -65.3,31 -13.8,12 -20.1,16 -26.8,19 -5.5,2 -17.8,3 -23.7,2 z m 90.2,-64.5 c 2.2,-1.9 5.5,-6.3 7.4,-9.8 3,-5.6 3.4,-7.3 3.7,-15.9 0.7,-15.8 -2.7,-24.7 -13.9,-36.5 -7.7,-8.1 -8.8,-11.6 -4.4,-13.6 4.1,-1.8 9.3,0.5 18.6,8.3 17.6,14.9 28,17.4 66.4,16.6 41.3,-1 63.8,-5.3 86.5,-16.7 14.7,-7.4 24.4,-15.8 36.7,-32.1 8.7,-11.4 12.6,-15.3 17.5,-17.3 8.1,-3.4 12.4,3.2 12.2,18.9 -0.1,7.3 -0.9,11.9 -4.2,24.1 -9,32.5 -11.8,50.8 -9.3,60.1 1.5,5.4 6.2,9.5 10.5,9.1 3,-0.3 3.1,-0.5 3.9,-6.3 0.4,-3.3 2.1,-14.5 3.8,-25 1.6,-10.4 3.6,-23.9 4.5,-30 2.1,-15.8 3.7,-64.8 3.8,-118 0.1,-45.9 0.1,-46 2.5,-53 1.9,-5.4 3.6,-8.1 7.5,-12 6.1,-6 11.8,-8.2 24.7,-9.1 l 8.6,-0.7 1.2,-6.1 c 2.9,-13.9 11.2,-21.8 27.6,-26.2 5.3,-1.4 10.6,-1.9 22,-1.9 16.5,0 21.1,1 36,8.2 6.7,3.2 12.5,4.3 12.5,2.4 0,-1.5 -8.1,-9.1 -14.6,-13.7 -3.4,-2.5 -9.3,-5.7 -13,-7.2 -5.1,-2.1 -7,-3.4 -7.2,-4.9 -0.2,-1.2 1.3,-7.9 3.3,-15 5.8,-21 7.7,-34.3 7.8,-54.3 0.2,-32.9 -5.6,-54.7 -24.7,-91.6 -17.7,-34.2 -36.4,-59.3 -51.2,-68.7 -4.3,-2.6 -9.4,-4.4 -9.4,-3.3 0,0.4 3.6,5.7 7.9,11.9 20.4,28.9 41.6,65.8 50.6,88.3 7.3,18 12.8,42.4 14.5,64.6 2.9,36.4 -7,67.5 -24,75.1 -3.4,1.6 -7.2,2.2 -15.5,2.4 -13.2,0.5 -15,-0.2 -18.5,-7.2 l -2.5,-5 -0.6,-40 c -1.1,-68.1 -4.3,-79.7 -40,-144.2 -11,-19.8 -13.2,-25 -17.9,-43 -9.6,-37 -18.9,-58.7 -33.5,-78.3 -22.3,-29.8 -25.2,-42.2 -16.3,-69.7 5.7,-17.9 5.6,-27.1 -0.4,-33.2 -4.4,-4.5 -7.8,-6.1 -27.9,-12.5 -30.5,-9.7 -44.6,-18.4 -48.5,-29.9 -3.9,-11.3 -1.1,-29.7 5.9,-38.8 5,-6.6 11.4,-9.4 21.2,-9.4 6.5,0.1 9.1,0.6 13.6,2.6 6.9,3.3 12.4,8 15.2,13.3 3,5.7 2.9,19.2 -0.2,29.1 -5.1,16.1 -4.9,14.4 -1.3,17.6 6.5,5.8 16.8,6.3 21.3,0.9 3.9,-4.6 5.1,-9.3 5.6,-22.5 0.6,-14.4 -0.9,-24 -6.8,-42.1 -8.1,-24.8 -16.2,-32 -40.7,-36 -18.3,-3 -28.3,-0.6 -37.5,8.9 -14.4,15 -21.6,38.9 -18.7,62.9 1.6,13.3 1.3,13.9 -6.2,11.5 -6.7,-2.1 -21.4,-3.8 -29.9,-3.5 -9.1,0.4 -9.9,-0.4 -9.9,-10.6 -0.1,-41.5 -12.6,-64.1 -35.5,-63.9 -15.9,0 -28.8,12.1 -33.6,31.3 -1.9,7.5 -1.5,29 0.6,41.5 4.3,24.6 13.6,36.9 20.9,27.3 3,-4.1 5.6,-9.3 5.6,-11 0,-0.7 -2.3,-2.3 -5,-3.6 -3,-1.4 -5.7,-3.6 -6.9,-5.6 -5.7,-9.1 -8.5,-25.4 -6.1,-34.1 3.1,-11 18.2,-17.8 28.6,-12.9 8.8,4.2 18.2,23.6 17.2,35.8 -0.8,9.7 -2.6,12.7 -11.4,19.2 -4.4,3.2 -11.5,9 -15.9,12.9 -4.4,3.9 -9.8,8.4 -12,10 -11.2,8.1 -17.5,17.6 -17.5,26.6 0,5.9 2.4,9.1 9.9,12.8 5.9,3 11.2,8.2 16.8,16.4 7.5,10.8 16.4,14.2 36.8,14.1 24.9,-0.1 47.2,-5.4 89,-21 22.7,-8.5 29,-11.2 30.3,-13.2 3.7,-5.4 8,-9.2 10.6,-9.2 3.5,0 6.6,3.3 6.6,6.9 0,6.1 -9.4,11.1 -42,22.2 -9.6,3.3 -24.5,9.3 -33,13.3 -17.2,8.2 -22,9.9 -33.3,12.1 -9.3,1.8 -30.8,2 -42.6,0.4 -9.6,-1.3 -15.4,-0.6 -14.9,1.9 0.5,2.6 22.7,19.9 27.8,21.8 7.2,2.5 21.4,3 30.6,0.9 13.9,-3 57.8,-21.9 79.6,-34.1 7.3,-4.1 11.4,-5.8 14,-5.8 4.4,-0.1 7.8,2.7 7.8,6.2 0,3.8 -7.4,10.3 -15.5,13.7 -14.3,5.8 -17.3,7.4 -31.5,16.4 -19.4,12.4 -27.9,18.6 -40.7,29.8 -13.7,11.9 -17.6,13.5 -32.8,13.7 -12.1,0.1 -15.8,-1.1 -23.7,-7.9 -6.2,-5.3 -21,-23.7 -25.2,-31.4 -4.4,-8 -14.2,-19.1 -16.8,-19.1 -1.7,0 -1.9,0.4 -4.8,13 -2,9 -9.4,26 -21.4,49.5 -14.4,28.3 -15.1,30.8 -15.1,60.5 0,24.8 0.6,22.7 -11.5,39.5 -14.8,20.8 -37.8,75.1 -43.3,102.5 -4.2,20.5 -7.1,55.4 -6.3,75 0.6,15.6 -0.2,20.2 -3.9,22.5 -3.8,2.4 -8.3,-0.1 -17.6,-9.3 -14.6,-14.7 -19.3,-26.9 -19.2,-50.2 0.1,-14.8 1.4,-26.2 4.3,-37.2 2.5,-9.4 2.6,-12.1 0.3,-11.6 -2.4,0.4 -7.8,11.5 -10.4,21.4 -1.6,5.9 -2.2,12 -2.6,24.4 -0.4,15.2 -0.3,17.4 2.1,28 3,13.3 8.7,25.7 16.6,36.1 12.1,16 73.4,70.4 114.2,101.5 9.8,7.4 20.7,16.7 24.3,20.6 21.6,23.4 17.4,44.8 -12.1,61.3 -4.6,2.6 -8.4,4.9 -8.4,5.1 0,0.2 3.8,5.5 8.4,11.6 16.9,22.8 26.7,39.5 30.1,51.2 2.3,7.7 2.2,18.8 -0.3,25.9 -1,3.2 -1.6,5.8 -1.2,5.8 0.4,0 2.5,-2 4.7,-3.5 z M 373,253.9 c -3.1,-5.9 2.7,-11 12.6,-11 3.5,0 6.6,0.4 6.9,1 0.7,1.2 -2.7,3 -5.7,3 -1.8,0 -2.8,1 -4.3,4.3 -1.6,3.5 -2.5,4.3 -5.2,4.5 -2.4,0.2 -3.4,-0.2 -4.3,-1.8 z m 59.3,-4.3 c -5.8,-2.1 -10.3,-5 -9.2,-6.1 0.3,-0.3 3.7,-0.8 7.5,-1.2 9,-0.8 12.4,0.5 12.4,4.5 0,2 -0.7,3.4 -1.9,4.1 -1.1,0.5 -2.1,1 -2.3,0.9 -0.1,0 -3.1,-1 -6.5,-2.2 z M 224.1,529.9 c 9.6,-9.9 12.3,-14.9 11.7,-22 -0.3,-4.9 -2.2,-6.6 -6.2,-5.6 -2.9,0.7 -4.5,3.7 -7.1,12.8 -1.1,4.4 -2.9,7.3 -7,11.9 -5.5,6.2 -6.5,8.5 -4.3,10.7 2.3,2.3 4.2,1.2 12.9,-7.8 z M 608.7,361.1 c 2.1,-1.3 6.3,-11.6 6.3,-15.5 0,-3.1 -0.6,-4.5 -3.1,-6.8 -1.7,-1.6 -3.5,-2.9 -4,-2.9 -0.5,0 -4.4,-1.6 -8.7,-3.7 -5.2,-2.5 -9.8,-5.6 -14.3,-10 -3.6,-3.4 -7.1,-6.3 -7.7,-6.3 -0.6,0 -1.4,1.2 -1.8,2.6 -1.1,4.6 0.5,11.7 4.7,20.1 3.6,7.5 4.9,9 13.2,15.8 8.9,7.3 12.2,8.7 15.4,6.7 z M 368.1,227.2 c 1.2,-3.1 0.9,-5.5 -2.2,-15.6 -1.3,-4.4 -3.2,-8.1 -5.2,-10.3 -2.9,-3.1 -3.4,-3.3 -5.7,-2.1 -3.3,1.8 -3,5.8 0.9,10.2 2.9,3.3 5.4,9.6 6.6,16.8 0.8,4.6 4,5.2 5.6,1 z M 509,224.4 c 2.2,-2.6 0.6,-15 -2.4,-19.6 -3.1,-4.7 -10.3,-9 -16,-9.6 -3.8,-0.5 -4.5,-0.2 -5.6,1.7 -1.4,2.6 -0.7,3.4 4.2,4.9 6.2,2 11.9,10.5 13.4,19.9 0.6,3.5 1.1,4.2 2.9,4.2 1.3,0 2.8,-0.7 3.5,-1.5 z m 6.7,-134.7 c 7.2,-4.97 7.7,-5.19 14.6,-5.37 8.8,-0.23 10.7,-0.97 10.7,-4.07 0,-4.83 -16.6,-19.55 -23.6,-20.85 -7,-1.32 -9.5,2.48 -10.9,16.71 -0.6,5.32 -1.3,7.54 -3.6,10.39 -3.1,3.93 -3.6,6.24 -1.6,8.22 2,2.05 6.3,0.54 14.4,-5.03 z"
         id="path20"
         inkscape:connector-curvature="0"
         style="fill:#000000" />
    </g>
  </g>
</svg>
