<?xml version="1.0" encoding="UTF-8" standalone="no"?>
<!-- Created with Inkscape (http://www.inkscape.org/) -->

<svg
   xmlns:dc="http://purl.org/dc/elements/1.1/"
   xmlns:cc="http://creativecommons.org/ns#"
   xmlns:rdf="http://www.w3.org/1999/02/22-rdf-syntax-ns#"
   xmlns:svg="http://www.w3.org/2000/svg"
   xmlns="http://www.w3.org/2000/svg"
   xmlns:sodipodi="http://sodipodi.sourceforge.net/DTD/sodipodi-0.dtd"
   xmlns:inkscape="http://www.inkscape.org/namespaces/inkscape"
   width="354.33069"
   height="354.33069"
   id="svg3007"
   version="1.1"
   inkscape:version="0.48.3.1 r9886"
   sodipodi:docname="tux_monochrome.svg"
   inkscape:export-filename="/home/philipp/_daten/shack/embroidery/tux/tux_monochrome.png"
   inkscape:export-xdpi="300"
   inkscape:export-ydpi="300">
  <defs
     id="defs3009" />
  <sodipodi:namedview
     id="base"
     pagecolor="#ffffff"
     bordercolor="#666666"
     borderopacity="1.0"
     inkscape:pageopacity="0.0"
     inkscape:pageshadow="2"
     inkscape:zoom="1.8739557"
     inkscape:cx="177.16534"
     inkscape:cy="177.16534"
     inkscape:document-units="mm"
     inkscape:current-layer="layer1"
     showgrid="false"
     inkscape:window-width="839"
     inkscape:window-height="886"
     inkscape:window-x="0"
     inkscape:window-y="27"
     inkscape:window-maximized="0"
     units="mm" />
  <metadata
     id="metadata3012">
    <rdf:RDF>
      <cc:Work
         rdf:about="">
        <dc:format>image/svg+xml</dc:format>
        <dc:type
           rdf:resource="http://purl.org/dc/dcmitype/StillImage" />
        <dc:title></dc:title>
      </cc:Work>
    </rdf:RDF>
  </metadata>
  <g
     inkscape:label="Layer 1"
     inkscape:groupmode="layer"
     id="layer1"
     transform="translate(0,-698.02817)">
    <path
       inkscape:connector-curvature="0"
       style="font-size:medium;font-style:normal;font-variant:normal;font-weight:normal;font-stretch:normal;text-indent:0;text-align:start;text-decoration:none;line-height:normal;letter-spacing:normal;word-spacing:normal;text-transform:none;direction:ltr;block-progression:tb;writing-mode:lr-tb;text-anchor:start;baseline-shift:baseline;color:#000000;fill:#000000;fill-opacity:1;stroke:none;stroke-width:309;marker:none;visibility:visible;display:inline;overflow:visible;enable-background:accumulate;font-family:Bitstream Vera Sans;-inkscape-font-specification:Bitstream Vera Sans"
       d="m 184.91398,705.27374 c -2.18782,-0.004 -4.46985,0.0879 -6.84958,0.27753 -60.14509,4.84384 -44.19419,68.38404 -45.08686,89.66161 -1.09837,15.56013 -4.25324,27.82258 -14.95489,43.03451 -12.57283,14.95132 -30.273951,39.15025 -38.659435,64.3405 -3.957563,11.8887 -5.840818,24.00649 -4.10159,35.47517 -0.544815,0.48789 -1.063486,0.99905 -1.556671,1.52557 -3.691382,3.94088 -6.418895,8.71582 -9.458035,11.9307 -2.83936,2.83234 -6.884735,3.90966 -11.330268,5.5046 -4.44723,1.59567 -9.32995,3.94812 -12.293792,9.63549 0,0 0,0.002 -0.002,0.003 -0.0048,0.009 -0.01017,0.0182 -0.01516,0.0279 l 0,0 c -2.683019,5.01127 -1.885398,10.78216 -1.065986,16.12877 0.819435,5.34656 1.648989,10.39887 0.547866,13.82661 -3.519681,9.6202 -3.969044,16.2747 -1.491304,21.1016 2.483024,4.8371 7.588328,6.972 13.358428,8.1772 11.540235,2.4101 27.168735,1.8114 39.485804,8.3394 l 1.058665,-1.9976 -1.047707,2.0036 c 13.186025,6.894 26.554035,9.3427 37.219375,6.9067 7.73255,-1.7662 14.00955,-6.3705 17.23319,-13.4555 8.342,-0.041 17.49588,-3.574 32.15925,-4.3813 9.94765,-0.8013 22.37402,3.5325 36.6674,2.7388 0.37362,1.5507 0.91436,3.0422 1.65454,4.4597 0.008,0.014 0.0147,0.028 0.0225,0.043 5.54088,11.0798 15.83618,16.1478 26.80783,15.2819 10.98614,-0.8671 22.66662,-7.3449 32.10849,-18.5813 l -1.73092,-1.4547 1.74415,1.4387 c 8.99952,-10.9123 23.93725,-15.4371 33.84217,-21.4111 4.95248,-2.9871 8.97103,-6.72739 9.28153,-12.15992 0.31033,-5.42975 -2.87743,-11.51468 -10.20758,-19.65142 0,0 -0.002,-0.002 -0.002,-0.002 -0.003,-0.004 -0.006,-0.007 -0.009,-0.0103 -2.40845,-2.7217 -3.55739,-7.76612 -4.79214,-13.13796 -1.2339,-5.36858 -2.61121,-11.15976 -7.01875,-14.9128 l 0,0 c -0.009,-0.008 -0.0177,-0.0148 -0.0265,-0.0224 0,0 0,0 0,0 -1.75414,-1.52852 -3.57701,-2.56594 -5.4127,-3.2629 6.12786,-18.17371 3.72357,-36.27029 -2.46213,-52.62332 -7.5916,-20.06972 -20.84538,-37.55739 -30.96751,-49.52049 -11.33009,-14.29114 -22.41191,-27.85944 -22.19362,-47.89936 0.33748,-30.58531 3.36429,-87.30481 -50.45662,-87.37827 z m 7.28628,47.11962 c 3.05404,0 5.6624,0.89518 8.34174,2.8399 2.7219,1.97556 4.68285,4.44866 6.2633,7.90227 1.55118,3.36579 2.29752,6.65838 2.37068,10.56565 0,0.10243 0,0.19022 0.0292,0.29266 0.0292,4.00966 -0.6585,7.41936 -2.18045,10.90222 -0.86841,1.98735 -1.86571,3.65535 -3.05938,5.09944 -0.40524,-0.19456 -0.82612,-0.38162 -1.26264,-0.56114 l 0,0 c -3.02568,-1.29589 -5.34676,-2.1206 -7.28124,-2.79185 0.70124,-0.84291 1.28514,-1.8426 1.7986,-3.09232 0.7756,-1.88774 1.15608,-3.73165 1.22923,-5.9267 0,-0.0879 0.0293,-0.161 0.0293,-0.26344 0.0438,-2.10723 -0.23415,-3.90722 -0.84876,-5.75111 -0.64389,-1.93164 -1.46341,-3.32183 -2.64874,-4.47792 -1.18533,-1.15611 -2.37068,-1.68291 -3.79017,-1.72684 -0.0665,-0.004 -0.13289,-0.004 -0.19846,-0.004 -1.33521,0.004 -2.49461,0.46188 -3.69413,1.46613 -1.2585,1.05367 -2.19506,2.39992 -2.97068,4.27308 -0.7756,1.87311 -1.15608,3.7316 -1.22922,5.94133 -0.0147,0.0879 -0.0147,0.16101 -0.0147,0.2488 -0.0253,1.21464 0.0519,2.32733 0.23918,3.40783 -2.73207,-1.36135 -5.30668,-2.28946 -7.723,-2.86456 -0.13775,-1.04489 -0.21741,-2.12313 -0.24285,-3.25052 l 0,-0.30736 c -0.0438,-3.99505 0.61462,-7.41933 2.15118,-10.90217 1.53656,-3.48287 3.43896,-5.98529 6.11695,-8.01939 2.67798,-2.03409 5.31207,-2.97064 8.42909,-2.99991 0.0487,0 0.0974,0 0.14588,0 z m -41.80067,3.30954 c 2.02598,0.005 3.83885,0.68164 5.71405,2.17908 2.03411,1.62432 3.57067,3.70232 4.85844,6.6291 1.28778,2.92679 1.97557,5.85355 2.1658,9.30715 l 0,0.029 c 0.0921,1.45048 0.0809,2.81582 -0.0334,4.13813 -0.40071,0.11389 -0.79337,0.23712 -1.17803,0.36953 -2.18451,0.75196 -4.10972,1.77674 -5.78767,2.88473 0.16406,-1.15902 0.18849,-2.33497 0.0627,-3.64616 -0.0148,-0.0732 -0.0148,-0.1317 -0.0148,-0.20484 -0.17561,-1.74143 -0.54146,-3.20481 -1.15607,-4.68286 -0.65852,-1.53649 -1.39022,-2.61942 -2.35606,-3.45358 -0.87528,-0.7559 -1.70227,-1.10301 -2.61214,-1.09615 -0.0942,0 -0.18933,0.005 -0.28536,0.0132 -1.02436,0.0877 -1.87313,0.58529 -2.67801,1.56578 -0.80484,0.98046 -1.33166,2.19508 -1.71214,3.80477 -0.38049,1.60972 -0.48293,3.1902 -0.32196,5.00477 0,0.0732 0.0148,0.13173 0.0148,0.20487 0.17558,1.75609 0.52679,3.21944 1.15606,4.6975 0.64388,1.52191 1.39022,2.6048 2.35606,3.43893 0.16175,0.13969 0.32177,0.26517 0.48107,0.37727 -1.00462,0.7732 -1.48432,1.12966 -2.30757,1.73458 -0.528,0.38742 -1.15684,0.84872 -1.88775,1.38748 -1.59395,-1.4932 -2.83742,-3.36982 -3.92463,-5.84075 -1.28778,-2.92673 -1.97558,-5.85352 -2.18045,-9.30713 l 0,-0.029 c -0.19023,-3.45357 0.14635,-6.42424 1.09755,-9.49735 0.95121,-3.07313 2.22436,-5.29745 4.0682,-7.12674 1.84386,-1.82919 3.70237,-2.75111 5.94136,-2.86816 0.17492,-0.0103 0.34827,-0.014 0.51994,-0.0132 z m 19.01075,23.95969 c 4.70888,-0.0181 10.37539,1.52562 17.23546,5.93636 4.21377,2.74021 7.49259,2.96921 15.04269,6.2029 l 0.009,0.004 0.009,0.004 c 3.63266,1.49046 5.76485,3.43322 6.80658,5.47898 1.04171,2.04581 1.06718,4.26426 0.19526,6.59804 -1.74379,4.66764 -7.30997,9.57982 -15.12088,12.01898 l -0.007,0.003 -0.007,0.003 c -3.80857,1.2374 -7.12961,3.96999 -11.0449,6.20886 -3.91518,2.23875 -8.34549,4.04445 -14.36951,3.69596 0,-3e-5 0,0 0,0 -5.12837,-0.2989 -8.1939,-2.03989 -10.96579,-4.2676 -2.77195,-2.22774 -5.18747,-5.02643 -8.72452,-7.10336 l -0.009,-0.005 -0.009,-0.005 c -5.69737,-3.22027 -8.80787,-6.94484 -9.78408,-10.17374 -0.97625,-3.22891 -0.06,-5.98505 2.7667,-8.10352 3.1781,-2.38175 5.38579,-4.00188 6.85639,-5.08111 1.46093,-1.07202 2.06873,-1.47399 2.53396,-1.92071 0.002,-0.004 0.005,-0.005 0.007,-0.007 0,0 0.002,-0.004 0.002,-0.004 2.38794,-2.26033 6.19452,-6.37843 11.93252,-8.35359 1.97491,-0.67985 4.1786,-1.11847 6.64515,-1.12821 z m 32.92796,19.47449 c -2.03202,0.12117 -4.16023,1.16738 -6.63825,2.55086 -2.47804,1.38346 -5.26468,3.15317 -8.28461,4.89593 -6.03984,3.48551 -12.99247,6.81893 -19.90201,6.81893 -6.9203,0 -12.44921,-3.19608 -16.59617,-6.48233 -2.07348,-1.64315 -3.78481,-3.29821 -5.15203,-4.57856 -0.68361,-0.64023 -1.27647,-1.18584 -1.82968,-1.61203 -0.55312,-0.42617 -1.00334,-0.84876 -1.92892,-0.84876 l -0.0444,1.94492 c -0.0662,0.6508 -0.13436,0.63072 -0.10745,0.64847 0.0431,0.0284 0.25793,0.10242 0.50853,0.29543 0.4067,0.31331 0.97125,0.82404 1.64127,1.45148 1.34005,1.25493 3.1207,2.98031 5.31301,4.71761 4.38458,3.47452 10.48226,7.03932 18.19582,7.03932 7.72427,0 15.03235,-3.61037 21.1898,-7.16372 3.07872,-1.77671 5.87489,-3.55022 8.2526,-4.87763 2.37758,-1.32748 4.37801,-2.15988 5.53615,-2.22895 l -0.15368,-2.57097 z m 6.86604,9.24355 c 5.13032,20.22352 17.06279,49.43401 24.73213,63.68926 4.07651,7.56313 12.1867,23.63215 15.69069,42.99242 2.22027,-0.068 4.66503,0.25456 7.28308,0.92422 9.16143,-23.75067 -7.76877,-49.3333 -15.51051,-56.45784 -3.12558,-3.0329 -3.27582,-4.39175 -1.72633,-4.32751 8.39948,7.42793 19.42614,22.36787 23.43793,39.23106 1.8293,7.68934 2.21933,15.77295 0.25655,23.75073 0.96029,0.39894 1.93558,0.83268 2.92402,1.3006 14.7058,7.16097 20.14448,13.38799 17.52951,21.88675 -0.86127,-0.0302 -1.70848,-0.0268 -2.53483,-0.007 -0.077,0.002 -0.15367,0.004 -0.23051,0.006 2.12956,-6.73667 -2.58813,-11.70535 -15.15928,-17.39323 -13.03876,-5.73647 -23.42878,-5.16575 -25.18484,6.46817 -0.11239,0.60951 -0.2028,1.23059 -0.27165,1.86033 -0.97414,0.33829 -1.95357,0.77017 -2.93545,1.30745 -6.12257,3.35007 -9.46436,9.42874 -11.32296,16.88424 -1.85714,7.44948 -2.38954,16.45545 -2.90207,26.5792 0,0.002 0,0.004 0,0.005 -0.31317,5.09056 -2.40606,11.97571 -4.52872,19.26819 -21.35952,15.23613 -51.00449,21.83723 -76.17419,4.65993 -1.70575,-2.69832 -3.66248,-5.37188 -5.67658,-8.00871 -1.28619,-1.68392 -2.60741,-3.35754 -3.92096,-5.00758 2.5838,0.002 4.78005,-0.42114 6.55506,-1.22598 2.20732,-1.0009 3.75823,-2.60852 4.52552,-4.67234 1.53453,-4.12768 -0.007,-9.95053 -4.91927,-16.59987 -4.91224,-6.6489 -13.23184,-14.15278 -25.45697,-21.65028 0,0 -0.002,0 -0.002,-0.002 -8.98126,-5.58759 -14.004106,-12.4363 -16.355129,-19.87229 -2.351245,-7.43663 -2.021568,-15.47805 -0.209447,-23.41738 3.478196,-15.23923 12.414976,-30.06059 18.117146,-39.36185 1.5352,-1.12959 0.54851,2.09675 -5.77258,13.83495 -5.66511,10.732 -16.256029,35.49906 -1.75516,54.83211 0.38751,-13.75836 3.67323,-27.79021 9.18915,-40.91532 8.03435,-18.21213 24.83931,-49.7942 26.17402,-74.96556 0.68815,0.49972 3.05292,2.09528 4.10662,2.69451 0.002,0.003 0.005,0.003 0.007,0.004 3.08291,1.81545 5.39829,4.46926 8.3971,6.8793 3.00475,2.41482 6.75848,4.50055 12.42961,4.83101 l 0,0 c 6.61939,0.38303 11.66435,-1.66721 15.7977,-4.03074 4.12713,-2.35996 7.4242,-4.97172 10.54782,-5.99121 0.005,-0.003 0.009,-0.003 0.0141,-0.004 6.60051,-2.06407 11.8486,-5.71739 14.83506,-9.97845 z m 41.92324,115.77935 c 2.67348,-0.0123 5.91207,0.87894 9.45713,2.46488 9.54126,4.4048 12.52656,8.18034 9.92174,13.72658 -2.19507,4.18528 -11.59001,10.84367 -18.0289,9.08763 -6.57059,-1.69754 -9.7754,-11.16565 -8.70714,-18.32159 0.57222,-4.85937 3.32073,-6.93864 7.35717,-6.9575 z m -10.79522,13.07672 c 0.53935,8.75074 4.86886,17.67552 12.52567,19.60708 8.37896,2.20767 20.45969,-4.98155 25.5603,-10.84551 1.01705,-0.0408 2.0114,-0.0905 2.97708,-0.11386 4.47422,-0.10803 8.22686,0.14737 12.06104,3.50066 l 0.0132,0.0114 0.0137,0.0113 c 2.94649,2.49632 4.34705,7.21386 5.56178,12.49869 1.21468,5.28484 2.18603,11.04063 5.82885,15.14099 l 0.005,0.006 0.005,0.006 c 7.00341,7.77165 9.25453,13.0247 9.06293,16.37754 -0.19164,3.35295 -2.61926,5.84199 -7.10198,8.54571 -8.96154,5.4051 -24.84013,10.1053 -34.98221,22.3903 -8.80654,10.4802 -19.54512,16.2362 -29.00247,16.9826 -9.45735,0.7463 -17.61679,-3.1788 -22.4273,-12.834 l -0.0109,-0.022 -0.0113,-0.021 c -2.9843,-5.677 -1.74113,-14.6359 0.77283,-24.0859 2.51401,-9.45011 6.12597,-19.15324 6.60948,-27.03983 l 0,-0.0123 0,-0.0119 c 0.51148,-10.10483 1.07708,-18.92935 2.77451,-25.73816 1.69739,-6.80884 4.37016,-11.42018 9.1059,-14.01146 0.22054,-0.12065 0.43945,-0.23449 0.65715,-0.34208 z m -153.788022,0.66036 c 0.706835,0.003 1.454846,0.0619 2.251787,0.18246 5.360654,0.81204 10.035336,4.56017 14.539165,10.66898 4.50387,6.10891 8.69463,14.44799 13.00266,23.69818 l 0.005,0.0113 0.005,0.011 c 3.46192,7.22556 10.76715,15.17055 16.95789,23.27557 6.1907,8.10495 10.98191,16.24065 10.358,22.46755 l -0.003,0.026 -0.002,0.027 c -0.8071,10.6202 -6.79789,16.4017 -15.99437,18.5023 -9.19372,2.0998 -21.6572,0.01 -34.105982,-6.4993 -0.0036,0 -0.0074,0 -0.01097,-0.01 -13.77284,-7.2947 -30.157331,-6.5702 -40.667488,-8.7652 -5.256507,-1.0979 -8.686399,-2.7484 -10.260614,-5.8151 -1.574322,-3.0667 -1.609457,-8.4171 1.735919,-17.53959 l 0.01472,-0.0402 0.01324,-0.0412 c 1.654419,-5.10332 0.430071,-10.68709 -0.373164,-15.92807 -0.803232,-5.241 -1.196045,-10.00815 0.593588,-13.33093 l 0.0083,-0.0151 0.0082,-0.0156 c 2.291322,-4.41672 5.652204,-5.99558 9.823436,-7.49207 4.171207,-1.49657 9.117374,-2.67187 13.023201,-6.58615 l 0.02022,-0.0207 0.02018,-0.0211 c 3.610791,-3.80916 6.323053,-8.58388 9.497365,-11.97278 2.678326,-2.85935 5.358609,-4.75444 9.398599,-4.78252 0.04675,0 0.09373,0 0.140852,0 z"
       id="path154" />
  </g>
</svg>
