<?xml version="1.0" encoding="UTF-8" standalone="no"?>
<!-- Created with Inkscape (http://www.inkscape.org/) -->

<svg
   xmlns:dc="http://purl.org/dc/elements/1.1/"
   xmlns:cc="http://creativecommons.org/ns#"
   xmlns:rdf="http://www.w3.org/1999/02/22-rdf-syntax-ns#"
   xmlns:svg="http://www.w3.org/2000/svg"
   xmlns="http://www.w3.org/2000/svg"
   xmlns:sodipodi="http://sodipodi.sourceforge.net/DTD/sodipodi-0.dtd"
   xmlns:inkscape="http://www.inkscape.org/namespaces/inkscape"
   width="354.33069"
   height="354.33069"
   id="svg3007"
   version="1.1"
   inkscape:version="0.48.3.1 r9886"
   sodipodi:docname="tux_linux.svg">
  <defs
     id="defs3009" />
  <sodipodi:namedview
     id="base"
     pagecolor="#ffffff"
     bordercolor="#666666"
     borderopacity="1.0"
     inkscape:pageopacity="0.0"
     inkscape:pageshadow="2"
     inkscape:zoom="1.8739557"
     inkscape:cx="177.16534"
     inkscape:cy="177.16534"
     inkscape:document-units="mm"
     inkscape:current-layer="text2999"
     showgrid="false"
     inkscape:window-width="839"
     inkscape:window-height="886"
     inkscape:window-x="0"
     inkscape:window-y="27"
     inkscape:window-maximized="0"
     units="mm" />
  <metadata
     id="metadata3012">
    <rdf:RDF>
      <cc:Work
         rdf:about="">
        <dc:format>image/svg+xml</dc:format>
        <dc:type
           rdf:resource="http://purl.org/dc/dcmitype/StillImage" />
        <dc:title></dc:title>
      </cc:Work>
    </rdf:RDF>
  </metadata>
  <g
     inkscape:label="Layer 1"
     inkscape:groupmode="layer"
     id="layer1"
     transform="translate(0,-698.02812)">
    <path
       inkscape:connector-curvature="0"
       style="font-size:medium;font-style:normal;font-variant:normal;font-weight:normal;font-stretch:normal;text-indent:0;text-align:start;text-decoration:none;line-height:normal;letter-spacing:normal;word-spacing:normal;text-transform:none;direction:ltr;block-progression:tb;writing-mode:lr-tb;text-anchor:start;baseline-shift:baseline;color:#000000;fill:#000000;fill-opacity:1;stroke:none;stroke-width:309;marker:none;visibility:visible;display:inline;overflow:visible;enable-background:accumulate;font-family:Bitstream Vera Sans;-inkscape-font-specification:Bitstream Vera Sans"
       d="m 174.73893,702.81767 c -1.74516,-0.003 -3.56548,0.07 -5.46374,0.22139 -47.97642,3.86383 -35.25275,54.54845 -35.96481,71.5211 -0.87614,12.41198 -3.39271,22.19347 -11.92919,34.32768 -10.02907,11.92635 -24.148866,31.22932 -30.837784,51.32302 -3.15686,9.48337 -4.659091,19.14945 -3.271748,28.29777 -0.434587,0.38918 -0.848319,0.79693 -1.241723,1.21692 -2.944534,3.14355 -5.120212,6.95241 -7.544467,9.51686 -2.264895,2.25929 -5.491803,3.11865 -9.037906,4.3909 -3.547459,1.27281 -7.4423,3.14932 -9.80649,7.68602 0,0 0,0.002 -0.0016,0.002 -0.0039,0.008 -0.0081,0.0147 -0.01209,0.0223 l 0,0 c -2.140186,3.99739 -1.503943,8.6007 -0.850314,12.86558 0.653646,4.26482 1.315361,8.29493 0.43702,11.02921 -2.807573,7.67381 -3.16602,12.98196 -1.189581,16.8323 1.980655,3.85833 6.053044,5.56135 10.655727,6.52267 9.205393,1.92265 21.671907,1.44486 31.496966,6.65224 l 0.84447,-1.59341 -0.83573,1.59816 c 10.5182,5.49919 21.18158,7.45246 29.68909,5.50929 6.16808,-1.40882 11.1751,-5.08158 13.74653,-10.73305 6.65423,-0.0328 13.95608,-2.85095 25.65273,-3.49499 7.93502,-0.63915 17.84725,2.81782 29.24879,2.18472 0.29802,1.237 0.72935,2.42678 1.31979,3.55736 0.006,0.0116 0.0117,0.0231 0.0178,0.0346 4.41982,8.83815 12.63218,12.88073 21.38404,12.19003 8.76339,-0.69158 18.08065,-5.85889 25.61223,-14.82194 l -1.38073,-1.16035 1.39128,1.14758 c 7.17873,-8.70443 19.09421,-12.31383 26.99515,-17.07916 3.95047,-2.38273 7.156,-5.36627 7.40367,-9.69965 0.24754,-4.3312 -2.29527,-9.18502 -8.14237,-15.67552 0,0 -0.002,-0.002 -0.002,-0.002 -0.002,-0.002 -0.004,-0.005 -0.008,-0.008 -1.92116,-2.17105 -2.83767,-6.19487 -3.82259,-10.47987 -0.98425,-4.28239 -2.0829,-8.9019 -5.5987,-11.89561 l 0,0 c -0.008,-0.006 -0.0142,-0.0118 -0.0212,-0.0179 0,0 0,0 0,0 -1.39924,-1.21928 -2.85329,-2.04679 -4.31759,-2.60275 4.88806,-14.49676 2.97022,-28.93202 -1.96398,-41.97648 -6.05565,-16.00917 -16.62791,-29.9587 -24.70212,-39.5014 -9.03775,-11.39974 -17.87748,-22.22287 -17.70334,-38.20828 0.2692,-24.39723 2.6836,-69.64113 -40.24815,-69.69972 z m 5.81213,37.5863 c 2.43613,0 4.51676,0.71406 6.65402,2.26532 2.1712,1.57587 3.73539,3.54861 4.99609,6.30346 1.23735,2.68484 1.83267,5.31125 1.89104,8.428 0,0.0817 0,0.15173 0.0233,0.23345 0.0233,3.19842 -0.52529,5.91826 -1.7393,8.69645 -0.69271,1.58527 -1.48823,2.91579 -2.4404,4.06773 -0.32325,-0.1552 -0.65899,-0.30442 -1.00717,-0.44761 l 0,0 c -2.41353,-1.03371 -4.265,-1.69156 -5.8081,-2.227 0.55937,-0.67238 1.02514,-1.4698 1.4347,-2.46666 0.61868,-1.50583 0.92217,-2.97667 0.98055,-4.72762 0,-0.07 0.0233,-0.12843 0.0233,-0.21014 0.035,-1.68089 -0.18677,-3.1167 -0.67703,-4.58753 -0.51362,-1.54083 -1.16731,-2.64977 -2.11283,-3.57194 -0.94552,-0.92222 -1.89103,-1.34241 -3.02335,-1.37746 -0.0531,-0.003 -0.10603,-0.003 -0.1583,-0.003 -1.06508,0.003 -1.98991,0.36844 -2.94674,1.16951 -1.00388,0.8405 -1.75096,1.91437 -2.36964,3.40854 -0.61867,1.49414 -0.92217,2.97661 -0.98053,4.73928 -0.0117,0.07 -0.0117,0.12843 -0.0117,0.19844 -0.0201,0.96889 0.0414,1.85647 0.19078,2.71837 -2.17931,-1.08592 -4.23303,-1.82626 -6.16047,-2.28501 -0.10987,-0.83348 -0.17342,-1.69357 -0.19371,-2.59286 l 0,-0.24517 c -0.035,-3.18676 0.49026,-5.91824 1.71595,-8.69643 1.22568,-2.77821 2.74318,-4.77432 4.87935,-6.39689 2.13618,-1.62254 4.23732,-2.36961 6.72371,-2.39296 0.0388,0 0.0777,0 0.11637,0 z m -33.3435,2.63995 c 1.61608,0.003 3.06218,0.54372 4.55799,1.73821 1.62255,1.29568 2.84823,2.95325 3.87547,5.28788 1.02723,2.33464 1.57586,4.66924 1.7276,7.4241 l 0,0.0232 c 0.0735,1.15701 0.0645,2.24612 -0.0266,3.3009 -0.31962,0.0909 -0.63285,0.18914 -0.93967,0.29477 -1.74255,0.59981 -3.27824,1.41726 -4.61672,2.30107 0.13089,-0.92452 0.15036,-1.86255 0.05,-2.90845 -0.0118,-0.0584 -0.0118,-0.10506 -0.0118,-0.16341 -0.14008,-1.3891 -0.43191,-2.5564 -0.92217,-3.7354 -0.52529,-1.22562 -1.10895,-2.08947 -1.87938,-2.75485 -0.69819,-0.60297 -1.35787,-0.87985 -2.08364,-0.87437 -0.0751,0 -0.15103,0.004 -0.22763,0.0108 -0.81712,0.0699 -1.49415,0.46686 -2.13618,1.24898 -0.64202,0.7821 -1.06224,1.75096 -1.36575,3.03498 -0.3035,1.28406 -0.38521,2.54475 -0.25681,3.9922 0,0.0584 0.0118,0.10506 0.0118,0.16344 0.14006,1.40078 0.42022,2.56806 0.92218,3.74708 0.51361,1.214 1.10894,2.07779 1.87937,2.74315 0.12902,0.11143 0.25667,0.21153 0.38373,0.30096 -0.80135,0.61674 -1.18401,0.90109 -1.84068,1.38361 -0.42119,0.30905 -0.9228,0.67702 -1.50583,1.10677 -1.27146,-1.19108 -2.26334,-2.68802 -3.1306,-4.65903 -1.02722,-2.33459 -1.57586,-4.66924 -1.73929,-7.4241 l 0,-0.0232 c -0.15175,-2.75483 0.11673,-5.12447 0.87549,-7.57582 0.75876,-2.45136 1.77433,-4.22565 3.24512,-5.68484 1.47081,-1.45911 2.95331,-2.19451 4.73929,-2.28787 0.13953,-0.008 0.27781,-0.0111 0.41475,-0.0108 z m 15.16446,19.11213 c 3.75618,-0.0145 8.27623,1.21694 13.74836,4.73529 3.36123,2.1858 5.97668,2.36847 11.99922,4.94791 l 0.008,0.003 0.008,0.002 c 2.89769,1.18892 4.5985,2.7386 5.42945,4.37047 0.83095,1.63188 0.85127,3.4015 0.15576,5.2631 -1.39098,3.72327 -5.831,7.64162 -12.0616,9.58728 l -0.006,0.003 -0.005,0.002 c -3.03801,0.98705 -5.68714,3.16678 -8.81028,4.95267 -3.12304,1.78581 -6.657,3.22618 -11.46225,2.9482 0,-2e-5 0,0 0,0 -4.09077,-0.23843 -6.5361,-1.62719 -8.74716,-3.40418 -2.21113,-1.77702 -4.13792,-4.00947 -6.95936,-5.66619 l -0.008,-0.004 -0.008,-0.004 c -4.54467,-2.56874 -7.02584,-5.53975 -7.80455,-8.11537 -0.77872,-2.57562 -0.0479,-4.77414 2.20694,-6.464 2.53511,-1.89986 4.29613,-3.19221 5.4692,-4.05309 1.16534,-0.85513 1.65018,-1.17577 2.02128,-1.53211 0.002,-0.002 0.003,-0.004 0.006,-0.005 0,0 0.002,-0.003 0.002,-0.003 1.90482,-1.80301 4.94123,-5.08794 9.51831,-6.66349 1.57533,-0.54228 3.33317,-0.89216 5.3007,-0.89993 z m 26.26593,15.53437 c -1.62092,0.0966 -3.31853,0.93119 -5.2952,2.03477 -1.97668,1.10354 -4.19951,2.5152 -6.60844,3.90536 -4.81786,2.78032 -10.36381,5.4393 -15.87541,5.4393 -5.52016,0 -9.93045,-2.54943 -13.23839,-5.17081 -1.65398,-1.31069 -3.01906,-2.6309 -4.10966,-3.65221 -0.5453,-0.51068 -1.01823,-0.94593 -1.45951,-1.28588 -0.4412,-0.33995 -0.80034,-0.67704 -1.53866,-0.67704 l -0.0355,1.55143 c -0.0529,0.51912 -0.10722,0.50312 -0.0857,0.51727 0.0345,0.0227 0.20575,0.0816 0.40564,0.23565 0.32442,0.24993 0.77475,0.65733 1.30921,1.15783 1.06893,1.00102 2.48931,2.37733 4.23807,3.76312 3.49749,2.77156 8.36147,5.61512 14.5144,5.61512 6.16149,0 11.99098,-2.87992 16.90266,-5.71435 2.45582,-1.41724 4.68626,-2.83193 6.58291,-3.89079 1.89654,-1.05889 3.49225,-1.72288 4.41606,-1.77797 l -0.12258,-2.0508 z m 5.47688,7.37336 c 4.09234,16.13187 13.61062,39.43244 19.72828,50.80354 3.25174,6.03295 9.72106,18.85085 12.51612,34.29412 1.77107,-0.0543 3.72119,0.20306 5.80956,0.73722 7.30787,-18.94539 -6.19698,-39.35209 -12.3724,-45.03518 -2.4932,-2.41927 -2.61305,-3.5032 -1.37706,-3.45196 6.70008,5.9251 15.49582,17.84236 18.69593,31.29376 1.4592,6.13362 1.7703,12.58175 0.20465,18.94544 0.766,0.31822 1.54397,0.6642 2.33242,1.03745 11.73049,5.71215 16.06882,10.67932 13.98292,17.45858 -0.68704,-0.0241 -1.36283,-0.0214 -2.022,-0.005 -0.0615,0.002 -0.12257,0.003 -0.18386,0.004 1.6987,-5.37371 -2.0645,-9.3371 -12.09222,-13.87419 -10.40075,-4.57586 -18.68864,-4.12061 -20.08941,5.15951 -0.0896,0.48619 -0.16177,0.98161 -0.21668,1.48394 -0.77705,0.26983 -1.55833,0.61434 -2.34157,1.04291 -4.88383,2.6723 -7.54948,7.52111 -9.03206,13.46821 -1.48139,5.94228 -1.90608,13.12615 -2.31492,21.20164 0,0.002 0,0.002 0,0.004 -0.2498,4.06063 -1.91927,9.55276 -3.61246,15.36985 -17.03802,12.15352 -40.68516,17.41907 -60.76248,3.71715 -1.36064,-2.15242 -2.92147,-4.28506 -4.52809,-6.38843 -1.02596,-1.34324 -2.07987,-2.67824 -3.12767,-3.99444 2.06105,0.002 3.81294,-0.33593 5.22883,-0.97794 1.76073,-0.79839 2.99787,-2.08076 3.60991,-3.72702 1.22407,-3.29257 -0.005,-7.93733 -3.92398,-13.24136 -3.9184,-5.30368 -10.55476,-11.28937 -20.30647,-17.26994 0,0 -0.002,0 -0.002,-0.002 -7.16415,-4.45711 -11.17077,-9.92017 -13.04613,-15.85169 -1.87554,-5.93205 -1.61256,-12.34651 -0.16707,-18.67953 2.77448,-12.156 9.90316,-23.97867 14.45166,-31.39809 1.22458,-0.90104 0.43752,1.67253 -4.60468,11.03583 -4.51892,8.56069 -12.96707,28.31683 -1.40004,43.73838 0.30911,-10.97475 2.93005,-22.16764 7.32998,-32.63726 6.40882,-14.52741 19.81377,-39.71974 20.87844,-59.79837 0.54894,0.39861 2.43525,1.67134 3.27576,2.14933 0.002,0.002 0.003,0.002 0.005,0.002 2.45918,1.44816 4.3061,3.56504 6.69819,5.48747 2.39682,1.92626 5.39109,3.59001 9.91484,3.85359 l 0,0 c 5.28014,0.30554 9.30438,-1.32989 12.60146,-3.21523 3.29213,-1.88248 5.92212,-3.96583 8.41378,-4.77905 0.003,-0.002 0.008,-0.002 0.0112,-0.003 5.26507,-1.64647 9.45136,-4.56065 11.8336,-7.9596 z m 33.44125,92.35467 c 2.13258,-0.01 4.71592,0.70112 7.54375,1.96618 7.61085,3.51361 9.99216,6.52527 7.91436,10.94939 -1.75097,3.33851 -9.24511,8.64976 -14.38126,7.24899 -5.24121,-1.35408 -7.79764,-8.90658 -6.9455,-14.61472 0.45644,-3.87621 2.64887,-5.53479 5.86865,-5.54984 z m -8.61109,10.43101 c 0.43022,6.98027 3.88377,14.09938 9.99143,15.64014 6.68371,1.761 16.32025,-3.97368 20.3889,-8.65123 0.81128,-0.0324 1.60445,-0.0722 2.37476,-0.0908 3.56897,-0.0861 6.56237,0.11756 9.62083,2.79241 l 0.0108,0.009 0.0109,0.009 c 2.35034,1.99126 3.46755,5.75434 4.43651,9.96994 0.96891,4.2156 1.74374,8.80686 4.64955,12.07764 l 0.004,0.004 0.003,0.004 c 5.58648,6.19926 7.38214,10.3895 7.2293,13.064 -0.15287,2.67456 -2.08933,4.66006 -5.6651,6.81671 -7.14842,4.31154 -19.81443,8.06076 -27.90454,17.86023 -7.02478,8.35987 -15.59072,12.95125 -23.13463,13.54665 -7.54391,0.59534 -14.05253,-2.53568 -17.88977,-10.23734 l -0.009,-0.0174 -0.009,-0.0172 c -2.38051,-4.52837 -1.38886,-11.67476 0.61647,-19.21281 2.00538,-7.53809 4.88656,-15.27807 5.27224,-21.56901 l 0,-0.01 0,-0.01 c 0.40801,-8.06041 0.85916,-15.09953 2.21316,-20.53078 1.35397,-5.43125 3.48599,-9.10963 7.26358,-11.17663 0.17592,-0.0963 0.35054,-0.18705 0.52419,-0.27286 z m -122.673358,0.52675 c 0.563826,0.002 1.160499,0.0494 1.796202,0.14556 4.276076,0.64773 8.004966,3.63753 11.597576,8.5104 3.59264,4.87295 6.93551,11.52484 10.37193,18.90351 l 0.004,0.009 0.004,0.009 c 2.76151,5.76364 8.58873,12.10118 13.52695,18.5664 4.93818,6.46521 8.76003,12.95483 8.26234,17.92185 l -0.002,0.0216 -0.002,0.0215 c -0.6438,8.47151 -5.42253,13.0833 -12.75835,14.75883 -7.33363,1.675 -17.27549,0.005 -27.20561,-5.18435 -0.003,-0.002 -0.006,-0.002 -0.009,-0.004 -10.986293,-5.81877 -24.055844,-5.24083 -32.439566,-6.99181 -4.193,-0.87578 -6.92895,-2.19239 -8.184667,-4.63866 -1.255803,-2.44619 -1.28383,-6.71404 1.384705,-13.99087 l 0.01174,-0.0321 0.01059,-0.0324 c 1.319694,-4.07078 0.343058,-8.52482 -0.297664,-12.70544 -0.640721,-4.18064 -0.954059,-7.98329 0.473491,-10.63379 l 0.0066,-0.0121 0.0065,-0.0124 c 1.827737,-3.52312 4.508641,-4.78254 7.835941,-5.97626 3.327281,-1.19377 7.27273,-2.13128 10.388323,-5.25363 l 0.01613,-0.0164 0.01609,-0.0169 c 2.880249,-3.03848 5.043761,-6.84718 7.575839,-9.55042 2.136442,-2.28084 4.274446,-3.79252 7.497058,-3.81492 0.03729,0 0.07476,0 0.112354,0 z"
       id="path154" />
    <g
       transform="matrix(0.91159133,0,0,0.91159133,-140.97298,1091.3033)"
       style="font-size:429.75283813px;font-style:normal;font-weight:normal;line-height:125%;letter-spacing:0px;word-spacing:0px;fill:#000000;fill-opacity:1;stroke:none;font-family:Sans"
       id="text2999">
      <path
         style="font-family:Linux Libertine O;-inkscape-font-specification:Linux Libertine O;fill:#ff0000;fill-opacity:1"
         d="m 217.13761,-121.40954 -0.20634,0.20635 0,2.05256 c 0,0.55995 0.27635,0.8363 0.83624,0.83624 l 2.88879,0.20634 c 2.09955,0.17504 3.58871,0.59499 4.46354,1.25977 0.90979,0.62994 1.35751,1.71845 1.35752,3.25806 l 0,54.007567 c -1e-5,1.819606 -0.34274,3.013112 -1.04257,3.572976 -0.69987,0.524902 -2.16972,0.878509 -4.40923,1.053452 l -3.25805,0.206326 c -0.55989,3.5e-5 -0.83624,0.276387 -0.83624,0.836249 l 0,2.052587 0.20634,0.206327 c 6.71858,-0.139984 11.27172,-0.206327 13.65122,-0.206327 l 22.99096,0 c 1.92455,-3.3e-5 6.19049,0.06634 12.80413,0.206327 0.34988,-5.038905 1.27547,-11.023287 2.78021,-17.951861 l -3.20375,-0.521286 c -0.59491,2.13457 -1.23331,3.966475 -1.93311,5.506116 -0.66491,1.539676 -1.52413,3.009533 -2.57386,4.409226 -1.01483,1.36473 -2.29401,2.395317 -3.83363,3.095161 -1.50472,0.699846 -3.24248,1.05342 -5.20203,1.05342 l -12.38057,0 c -1.5397,0 -2.77181,-0.467005 -3.6816,-1.411822 -0.90983,-0.979777 -1.35754,-2.297593 -1.35751,-3.94222 l 0,-52.172218 c -3e-5,-1.50462 0.43924,-2.59313 1.31407,-3.25806 0.87479,-0.69979 2.41102,-1.11973 4.61557,-1.25977 l 2.7802,-0.20634 c 0.55985,6e-5 0.83621,-0.27629 0.83624,-0.83624 l 0,-2.05256 -0.20635,-0.20635 c -6.71859,0.14005 -11.2995,0.20641 -13.74897,0.20635 -2.3795,6e-5 -6.93264,-0.0663 -13.65122,-0.20635 z m 68.80998,3.09515 c -1.39972,6e-5 -2.60165,0.52501 -3.61643,1.57472 -1.0148,1.01484 -1.52044,2.2168 -1.52043,3.61643 -10e-6,1.39977 0.50563,2.61257 1.52043,3.62729 1.01478,1.01485 2.21671,1.52049 3.61643,1.52043 1.39968,6e-5 2.61249,-0.50558 3.62729,-1.52043 1.04975,-1.01472 1.57471,-2.22752 1.57473,-3.62729 -2e-5,-1.39963 -0.52498,-2.60159 -1.57473,-3.61643 -1.0148,-1.04971 -2.22761,-1.57466 -3.62729,-1.57472 z m 4.51782,18.950978 c -2.48447,1.01483 -7.52397,2.11179 -15.11734,3.301461 l 0.20634,2.573883 4.62644,0.466972 c 0.83981,0.10506 1.43113,0.621546 1.78105,1.531291 0.38492,0.909853 0.57559,2.617419 0.5756,5.13687 l 0,26.770282 c -1e-5,1.574672 -0.31498,2.701799 -0.94483,3.36665 -0.62989,0.629854 -1.85113,1.049839 -3.67074,1.259778 l -2.05258,0.206326 c -0.55987,0.104983 -0.83623,0.38134 -0.83622,0.836249 l 0,2.052587 0.20634,0.206327 c 5.73877,-0.139984 9.47132,-0.206327 11.18596,-0.206327 1.92459,-3.3e-5 5.75126,0.06634 11.49005,0.206327 l 0.21721,-0.206327 0,-2.052587 c -3e-5,-0.419914 -0.33431,-0.696266 -0.99914,-0.836249 l -1.99827,-0.206326 c -1.67965,-0.174943 -2.8623,-0.594929 -3.56212,-1.259778 -0.66489,-0.699847 -0.99917,-1.826974 -0.99914,-3.36665 l 0,-26.770282 c -3e-5,-3.56922 0.12427,-7.796551 0.36925,-12.695537 -2e-5,-0.2099 -0.16293,-0.3149 -0.47786,-0.31494 z m 27.29159,0 c -2.51949,1.01483 -7.46242,2.11179 -14.84585,3.301461 l 0.20635,2.573883 4.61557,0.466972 c 0.83982,0.10506 1.44199,0.621546 1.79193,1.531291 0.3849,0.909853 0.57558,2.617419 0.57559,5.13687 l 0,26.770282 c -1e-5,1.574672 -0.3343,2.710245 -0.99914,3.410091 -0.66487,0.66485 -1.87768,1.076354 -3.6273,1.216337 l -2.0417,0.206326 c -0.5599,0.104983 -0.83624,0.38134 -0.83624,0.836249 l 0,2.052587 0.20635,0.206327 c 5.73876,-0.139984 9.46046,-0.206327 11.1751,-0.206327 1.57465,-3.3e-5 5.22996,0.06634 10.96876,0.206327 l 0.21721,-0.206327 0,-2.052587 c -3e-5,-0.454909 -0.28724,-0.731262 -0.8471,-0.836249 l -1.52043,-0.206326 c -1.78463,-0.279931 -3.00589,-0.738526 -3.67072,-1.36838 -0.62988,-0.629854 -0.94486,-1.718372 -0.94483,-3.258048 l 0,-26.031788 c 2.62441,-3.079312 5.03916,-5.237022 7.24372,-6.461814 2.20451,-1.224674 4.55288,-1.835303 7.03738,-1.835346 2.72939,4.3e-5 4.56127,0.859258 5.50611,2.57384 0.97975,1.679702 1.46608,4.514384 1.46611,8.503517 l 0,23.251591 c -3e-5,1.539676 -0.32344,2.628194 -0.98828,3.258048 -0.66488,0.629854 -1.87769,1.088449 -3.62729,1.36838 l -1.46611,0.206326 c -0.59491,0.104983 -0.89056,0.38134 -0.89054,0.836249 l 0,2.052587 0.20634,0.206327 c 5.73875,-0.139984 9.28906,-0.206327 10.65382,-0.206327 1.92454,-3.3e-5 5.76209,0.06634 11.50091,0.206327 l 0.20634,-0.206327 0,-2.052587 c -5e-5,-0.419914 -0.31502,-0.696266 -0.94484,-0.836249 l -2.05256,-0.206326 c -1.64471,-0.174943 -2.80802,-0.594929 -3.50784,-1.259778 -0.6649,-0.699847 -0.99917,-1.826974 -0.99912,-3.36665 l 0,-22.458806 c -5e-5,-2.029542 -0.10506,-3.852977 -0.31495,-5.462683 -0.17501,-1.609588 -0.5286,-3.145828 -1.05343,-4.615542 -0.52493,-1.504647 -1.22124,-2.745209 -2.09602,-3.725058 -0.87485,-0.979741 -2.01042,-1.75328 -3.4101,-2.31319 -1.39973,-0.59483 -3.0518,-0.8905 -4.94136,-0.89054 -3.07938,4e-5 -5.98045,0.65773 -8.70984,1.9874 -2.69447,1.294767 -5.63417,3.814532 -8.81845,7.558667 l -0.31495,0 0.31495,-9.546067 c -3e-5,-0.2099 -0.14363,-0.3149 -0.42355,-0.31494 z m 41.83333,1.15118 -0.31494,0.20633 0,2.736758 0.31494,0.206335 1.73762,0.206357 c 1.88961,0.21001 3.14947,0.687889 3.77934,1.422697 0.62986,0.699886 0.94483,1.940448 0.94484,3.725015 l 0,24.305042 c -10e-6,1.994586 0.20997,3.807172 0.62989,5.451799 0.41989,1.609668 1.09689,3.137424 2.0417,4.572145 0.97979,1.434689 2.38326,2.550938 4.20288,3.355772 1.8196,0.804834 4.00507,1.205461 6.55954,1.205495 2.44946,-3.4e-5 4.86421,-0.552703 7.24373,-1.672499 2.41445,-1.154721 5.01988,-3.235216 7.81932,-6.244574 l 0.2172,0 -0.2172,8.18856 2.46525,0 c 2.09951,-1.714619 6.69128,-3.223087 13.75982,-4.517825 l -0.31494,-2.519558 -5.14771,-0.521288 c -1.15481,-0.104984 -1.88974,-0.516491 -2.20462,-1.216338 -0.31498,-0.734842 -0.46704,-2.414674 -0.46698,-5.039114 l 0,-23.1973 c -6e-5,-2.134504 0.10495,-5.618478 0.31494,-10.447479 -5e-5,-0.13992 -0.16296,-0.20629 -0.47785,-0.20633 -0.6999,0.14001 -1.94046,0.20639 -3.72504,0.20633 -1.78466,6e-5 -5.33498,-0.0664 -10.65381,-0.20633 l -0.31495,0.20633 0,2.736758 0.31495,0.206335 1.72676,0.206357 c 1.85458,0.21001 3.09513,0.687889 3.72504,1.422697 0.66482,0.699886 0.99909,1.940448 0.99914,3.725015 l 0,26.661678 c -1.53971,1.819643 -3.42952,3.518762 -5.66901,5.093433 -2.20456,1.539676 -4.40933,2.313232 -6.61383,2.313232 -0.94483,0 -1.8318,-0.143633 -2.67161,-0.423563 -0.83983,-0.314928 -1.69906,-0.839865 -2.57386,-1.574707 -0.87483,-0.769838 -1.57114,-1.94402 -2.096,-3.518692 -0.52491,-1.609666 -0.79281,-3.52724 -0.79279,-5.766761 l 0,-20.634303 c -2e-5,-2.134504 0.10495,-5.618478 0.31494,-10.447479 -2e-5,-0.13992 -0.14362,-0.20629 -0.42354,-0.20633 -0.69988,0.14001 -1.94888,0.20639 -3.76849,0.20633 -1.78462,6e-5 -5.34581,-0.0664 -10.66467,-0.20633 z m 54.90897,0 -0.20635,0.31494 0,2.05255 c 0,0.384989 0.50564,0.642017 1.52043,0.781933 1.71462,0.140014 3.16517,0.731361 4.35492,1.781065 1.22473,1.049835 2.65596,2.787601 4.30062,5.202036 l 9.39404,13.640366 c 0.20994,0.31495 0.31493,0.602144 0.31494,0.847088 -1e-5,0.244965 -0.0664,0.501992 -0.20633,0.781923 l -9.0248,11.598655 c -1.39971,1.819606 -2.74527,3.223086 -4.03998,4.202864 -1.25974,0.979812 -2.22396,1.571125 -2.8888,1.781066 -0.66487,0.174979 -1.5627,0.337899 -2.68247,0.477847 -0.9098,0.104983 -1.35751,0.458594 -1.35751,1.053453 l 0,1.835383 0.20634,0.206327 c 5.31886,-0.139984 7.99066,-0.206327 8.02567,-0.206327 0.69983,-3.3e-5 3.71675,0.06634 9.03564,0.206327 l 0.26064,-0.206327 0,-2.052587 c -1e-5,-0.454909 -0.26791,-0.731262 -0.79279,-0.836249 l -1.46611,-0.206326 c -0.69988,-0.104984 -1.20551,-0.306517 -1.52043,-0.586447 -0.27996,-0.279933 -0.36563,-0.641984 -0.26065,-1.096861 0.10495,-0.489905 0.25703,-0.929177 0.467,-1.314096 0.20994,-0.419915 0.5249,-0.925528 0.94483,-1.520423 l 6.77673,-9.817586 c 0.4199,-0.629855 0.7433,-0.944813 0.98828,-0.944813 0.24493,0 0.55989,0.248586 0.94484,0.738494 l 6.25545,8.601243 c 0.7348,0.944782 1.26821,1.699015 1.61817,2.258912 0.34989,0.559863 0.61779,1.123445 0.79279,1.683307 0.17492,0.559899 0.0893,0.999135 -0.26065,1.314098 -0.31497,0.314927 -0.89784,0.544189 -1.73763,0.684172 l -1.25978,0.206326 c -0.52491,0.104983 -0.78196,0.38134 -0.78193,0.836249 l 0,2.052587 0.20635,0.206327 c 5.31883,-0.139984 9.05138,-0.206327 11.18596,-0.206327 0.94476,-3.3e-5 4.07513,0.06634 9.39404,0.206327 l 0.20634,-0.206327 0,-2.052587 c -5e-5,-0.209939 -0.0665,-0.362016 -0.20634,-0.466969 -0.10506,-0.104984 -0.26795,-0.182242 -0.47785,-0.217203 -0.17501,-0.06998 -0.45135,-0.117081 -0.83623,-0.152077 -1.92464,-0.174944 -3.49948,-0.652827 -4.72417,-1.422663 -1.18979,-0.804834 -2.86962,-2.741696 -5.03912,-5.821047 l -9.70898,-13.651243 c -0.20998,-0.314885 -0.31497,-0.591238 -0.31493,-0.836203 -4e-5,-0.174947 0.10495,-0.423533 0.31493,-0.738494 l 9.0248,-11.490049 c 1.95954,-2.484431 3.55369,-4.117203 4.77847,-4.887074 1.22469,-0.804794 2.83814,-1.291125 4.83276,-1.466137 0.83978,6.5e-5 1.25973,-0.295603 1.25979,-0.890494 l 0,-2.052599 -0.10861,-0.20633 c -3.56928,0.14001 -6.27969,0.20639 -8.13426,0.20633 -0.69989,6e-5 -3.71681,-0.0664 -9.03564,-0.20633 l -0.26065,0.31494 0,2.05255 c -3e-5,0.524938 0.22926,0.781998 0.68419,0.781933 l 1.73763,0.206357 c 0.83978,0.105059 1.4311,0.295679 1.78106,0.575566 0.38487,0.245008 0.50918,0.617914 0.36924,1.107768 -0.10506,0.454921 -0.28724,0.894191 -0.53215,1.314071 -0.24497,0.384957 -0.64562,0.929222 -1.20546,1.629021 l -6.98309,9.763276 c -0.41994,0.524927 -0.74336,0.781966 -0.98827,0.781922 -0.34996,4.4e-5 -0.70354,-0.334211 -1.05343,-0.999131 l -6.55955,-9.654671 c -0.48991,-0.734798 -0.8435,-1.259736 -1.05343,-1.574697 -0.17498,-0.349895 -0.32704,-0.731231 -0.46699,-1.151219 -0.13998,-0.419836 -0.13998,-0.726356 0,-0.901368 0.17495,-0.174915 0.45129,-0.346273 0.83624,-0.521296 0.38489,-0.174904 0.92914,-0.299213 1.62901,-0.369242 l 1.62903,-0.206357 c 0.55986,-0.139916 0.83621,-0.435595 0.83623,-0.890494 l 0,-1.943989 -0.31494,-0.31494 c -5.31889,0.14001 -8.94644,0.20639 -10.87103,0.20633 -1.04979,6e-5 -4.22721,-0.0664 -9.54607,-0.20633 z"
         id="path3006"
         inkscape:connector-curvature="0" />
    </g>
  </g>
</svg>
