<?xml version="1.0" encoding="UTF-8" standalone="no"?>
<!-- Created with Inkscape (http://www.inkscape.org/) -->

<svg
   xmlns:dc="http://purl.org/dc/elements/1.1/"
   xmlns:cc="http://creativecommons.org/ns#"
   xmlns:rdf="http://www.w3.org/1999/02/22-rdf-syntax-ns#"
   xmlns:svg="http://www.w3.org/2000/svg"
   xmlns="http://www.w3.org/2000/svg"
   xmlns:sodipodi="http://sodipodi.sourceforge.net/DTD/sodipodi-0.dtd"
   xmlns:inkscape="http://www.inkscape.org/namespaces/inkscape"
   width="177.16534"
   height="177.16534"
   id="svg3007"
   version="1.1"
   inkscape:version="0.48.3.1 r9886"
   sodipodi:docname="tux_monochrome_small.svg"
   inkscape:export-filename="/home/philipp/_daten/shack/embroidery/tux/tux_monochrome_small.png"
   inkscape:export-xdpi="300"
   inkscape:export-ydpi="300">
  <defs
     id="defs3009" />
  <sodipodi:namedview
     id="base"
     pagecolor="#ffffff"
     bordercolor="#666666"
     borderopacity="1.0"
     inkscape:pageopacity="0.0"
     inkscape:pageshadow="2"
     inkscape:zoom="3.7479113"
     inkscape:cx="88.582672"
     inkscape:cy="88.582672"
     inkscape:document-units="mm"
     inkscape:current-layer="layer1"
     showgrid="false"
     inkscape:window-width="839"
     inkscape:window-height="886"
     inkscape:window-x="0"
     inkscape:window-y="27"
     inkscape:window-maximized="0"
     units="mm" />
  <metadata
     id="metadata3012">
    <rdf:RDF>
      <cc:Work
         rdf:about="">
        <dc:format>image/svg+xml</dc:format>
        <dc:type
           rdf:resource="http://purl.org/dc/dcmitype/StillImage" />
        <dc:title></dc:title>
      </cc:Work>
    </rdf:RDF>
  </metadata>
  <g
     inkscape:label="Layer 1"
     inkscape:groupmode="layer"
     id="layer1"
     transform="translate(0,-875.19351)">
    <path
       inkscape:connector-curvature="0"
       style="font-size:medium;font-style:normal;font-variant:normal;font-weight:normal;font-stretch:normal;text-indent:0;text-align:start;text-decoration:none;line-height:normal;letter-spacing:normal;word-spacing:normal;text-transform:none;direction:ltr;block-progression:tb;writing-mode:lr-tb;text-anchor:start;baseline-shift:baseline;color:#000000;fill:#000000;fill-opacity:1;stroke:none;stroke-width:309;marker:none;visibility:visible;display:inline;overflow:visible;enable-background:accumulate;font-family:Bitstream Vera Sans;-inkscape-font-specification:Bitstream Vera Sans"
       d="m 92.242775,878.19014 c -1.101003,-0.002 -2.249424,0.0442 -3.447002,0.13967 -30.26757,2.43763 -22.240398,34.41375 -22.689627,45.12153 -0.552747,7.83052 -2.140413,14.00151 -7.525938,21.6568 -6.327183,7.52414 -15.235139,19.70207 -19.455072,32.37887 -1.991614,5.9829 -2.939347,12.08109 -2.064094,17.85262 -0.274175,0.24553 -0.535192,0.50276 -0.783383,0.76772 -1.857661,1.98322 -3.230262,4.38625 -4.759686,6.00395 -1.428886,1.4255 -3.464691,1.9675 -5.701873,2.7702 -2.238035,0.803 -4.695226,1.9869 -6.186759,4.8491 0,0 0,0 -0.001,0 -0.0023,0 -0.0051,0.01 -0.0077,0.014 l 0,0 c -1.350209,2.5218 -0.948813,5.426 -0.53645,8.1167 0.412375,2.6906 0.829841,5.2331 0.27571,6.958 -1.771253,4.8414 -1.997392,8.1903 -0.750487,10.6193 1.249562,2.4342 3.818768,3.5086 6.722528,4.1151 5.807537,1.2129 13.672464,0.9117 19.870937,4.1967 l 0.532765,-1.0052 -0.527251,1.0083 c 6.635769,3.4694 13.36312,4.7016 18.730372,3.4758 3.891349,-0.8889 7.050203,-3.2059 8.672475,-6.7714 4.198049,-0.02 8.804671,-1.7986 16.183898,-2.2049 5.00609,-0.4032 11.259561,1.7776 18.452601,1.3783 0.18803,0.7804 0.46015,1.531 0.83264,2.2443 0.004,0.01 0.007,0.014 0.0113,0.021 2.78841,5.576 7.96944,8.1264 13.49085,7.6907 5.52868,-0.4365 11.4068,-3.6964 16.15835,-9.3509 l -0.87108,-0.7321 0.87773,0.724 c 4.52894,-5.4916 12.04624,-7.7686 17.03082,-10.7749 2.4923,-1.5034 4.51461,-3.3857 4.67086,-6.1194 0.15618,-2.7327 -1.44803,-5.7947 -5.13688,-9.8895 0,0 -0.001,-0 -0.001,-0 -0.001,0 -0.003,0 -0.004,0 -1.21204,-1.3696 -1.79024,-3.9082 -2.41162,-6.6115 -0.62094,-2.7018 -1.31406,-5.6161 -3.53212,-7.50479 l 0,0 c -0.004,-0.004 -0.009,-0.007 -0.0134,-0.0112 0,0 0,0 0,0 -0.88276,-0.76922 -1.80011,-1.29129 -2.72391,-1.64203 3.08381,-9.14578 1.87386,-18.25275 -1.23905,-26.4823 -3.82042,-10.09992 -10.49028,-18.90047 -15.58416,-24.92081 -5.70179,-7.19191 -11.27863,-14.02005 -11.16878,-24.10499 0.16984,-15.39183 1.69306,-43.93551 -25.391913,-43.97246 z m 3.666765,23.7126 c 1.536924,0 2.849554,0.45049 4.19791,1.42917 1.36979,0.99418 2.35661,2.23875 3.15197,3.97675 0.78061,1.6938 1.15621,3.35078 1.19302,5.31708 0,0.0516 0,0.0958 0.0147,0.14727 0.0147,2.01784 -0.33138,3.73374 -1.0973,5.48647 -0.43701,1.00012 -0.93889,1.83953 -1.5396,2.56625 -0.20393,-0.0979 -0.41573,-0.19204 -0.63542,-0.28238 l 0,0 c -1.522645,-0.65215 -2.690713,-1.06719 -3.664223,-1.40499 0.352896,-0.42418 0.64674,-0.92727 0.905131,-1.55618 0.390315,-0.95 0.581788,-1.87792 0.618607,-2.98257 0,-0.0442 0.01469,-0.0811 0.01469,-0.13257 0.02205,-1.06045 -0.117835,-1.96628 -0.427133,-2.8942 -0.324028,-0.97209 -0.736452,-1.6717 -1.332959,-2.25348 -0.596506,-0.58181 -1.193023,-0.84692 -1.907376,-0.86902 -0.03343,-0.002 -0.06687,-0.002 -0.09989,-0.002 -0.671935,0.002 -1.255399,0.23244 -1.859048,0.73781 -0.633335,0.53026 -1.104646,1.20775 -1.494972,2.15041 -0.390315,0.94263 -0.581787,1.87789 -0.618596,2.98993 -0.0072,0.0442 -0.0072,0.0811 -0.0072,0.12521 -0.01273,0.61125 0.02608,1.17121 0.120372,1.71495 -1.374901,-0.68508 -2.670555,-1.15214 -3.886547,-1.44157 -0.06935,-0.52582 -0.10941,-1.06845 -0.122214,-1.6358 l 0,-0.15467 c -0.02205,-2.01048 0.309308,-3.73372 1.082568,-5.48643 0.773261,-1.75273 1.730633,-3.01205 3.078311,-4.0357 1.347668,-1.02364 2.673256,-1.49495 4.241876,-1.50968 0.02453,0 0.04896,0 0.07339,0 z m -21.035878,1.66549 c 1.01956,0.002 1.931873,0.34304 2.875553,1.09662 1.023651,0.81741 1.796913,1.86315 2.444974,3.33604 0.648065,1.47289 0.994191,2.94576 1.089922,4.68375 l 0,0.0146 c 0.04635,0.72996 0.04071,1.41705 -0.01681,2.08249 -0.201655,0.0574 -0.399257,0.11933 -0.592835,0.18596 -1.099338,0.37842 -2.068185,0.89413 -2.912601,1.45172 0.08256,-0.58327 0.09486,-1.17506 0.03155,-1.8349 -0.0075,-0.0369 -0.0075,-0.0663 -0.0075,-0.1031 -0.08838,-0.87636 -0.272485,-1.6128 -0.581783,-2.35661 -0.331397,-0.77322 -0.699619,-1.31821 -1.185671,-1.73798 -0.440477,-0.38041 -0.856654,-0.55509 -1.314539,-0.55163 -0.0474,0 -0.09528,0.002 -0.143605,0.006 -0.515502,0.0441 -0.942639,0.29456 -1.347689,0.78797 -0.40503,0.49342 -0.670147,1.10466 -0.861621,1.91473 -0.191479,0.81007 -0.243031,1.60544 -0.162025,2.51861 0,0.0369 0.0075,0.0663 0.0075,0.1031 0.08835,0.88375 0.265103,1.62016 0.581778,2.36399 0.324029,0.76589 0.699618,1.31083 1.185671,1.73061 0.0814,0.0703 0.161927,0.13345 0.242094,0.18986 -0.505568,0.3891 -0.746973,0.5685 -1.161267,0.87291 -0.265712,0.19497 -0.582171,0.42711 -0.949996,0.69824 -0.802144,-0.75144 -1.427911,-1.69584 -1.975042,-2.93931 -0.648065,-1.47285 -0.994195,-2.94573 -1.097295,-4.68374 l 0,-0.0146 c -0.09572,-1.73798 0.07365,-3.23295 0.552334,-4.77947 0.47869,-1.54653 1.119393,-2.66589 2.047292,-3.58648 0.927909,-0.92052 1.863189,-1.38448 2.989945,-1.44338 0.08802,-0.005 0.175265,-0.007 0.261656,-0.006 z m 9.567016,12.05755 c 2.369713,-0.009 5.221338,0.76776 8.67362,2.98743 2.120544,1.37899 3.770584,1.49423 7.570122,3.12156 l 0.004,0.002 0.004,0.002 c 1.82811,0.75007 2.90112,1.72774 3.42536,2.75726 0.52423,1.02954 0.53705,2.14596 0.0982,3.32042 -0.87754,2.34895 -3.67868,4.82097 -7.609458,6.04845 l -0.0031,0.001 -0.0031,0.001 c -1.91663,0.62271 -3.587921,1.99787 -5.558262,3.12456 -1.97028,1.12664 -4.199799,2.03534 -7.231344,1.85997 0,-10e-6 0,0 0,0 -2.580817,-0.15042 -4.123523,-1.02656 -5.518455,-2.14763 -1.394964,-1.12109 -2.610556,-2.52953 -4.39055,-3.57472 l -0.0046,-0.002 -0.0046,-0.002 c -2.867158,-1.62057 -4.432495,-3.49495 -4.923765,-5.11987 -0.49129,-1.62491 -0.0302,-3.01192 1.392321,-4.07802 1.599355,-1.19861 2.710359,-2.01392 3.450428,-2.55704 0.735201,-0.53948 1.041072,-0.74177 1.275195,-0.96659 0.001,-0.002 0.0025,-0.002 0.0035,-0.003 0,0 0.001,-0.002 0.001,-0.002 1.201713,-1.13749 3.117345,-3.2099 6.004952,-4.20389 0.993858,-0.34213 2.102846,-0.56286 3.344125,-0.56775 z m 16.570752,9.80039 c -1.022597,0.061 -2.093603,0.58747 -3.34065,1.28369 -1.247055,0.69622 -2.649406,1.58682 -4.169169,2.46385 -3.039506,1.75405 -6.538367,3.43157 -10.015532,3.43157 -3.482595,0 -6.264977,-1.60841 -8.351904,-3.26217 -1.043462,-0.82692 -1.904677,-1.65981 -2.59272,-2.30414 -0.344021,-0.3222 -0.642375,-0.59677 -0.920773,-0.81123 -0.278353,-0.21447 -0.504923,-0.42714 -0.970714,-0.42714 l -0.02235,0.97877 c -0.03331,0.32751 -0.06761,0.3174 -0.05407,0.32633 0.0217,0.0143 0.129801,0.0516 0.255915,0.14867 0.204668,0.15767 0.488773,0.4147 0.825956,0.73046 0.67437,0.63153 1.570468,1.49981 2.673733,2.3741 2.206507,1.74852 5.275119,3.54248 9.156915,3.54248 3.887178,0 7.564915,-1.81689 10.663607,-3.60508 1.549335,-0.89412 2.95649,-1.78662 4.153054,-2.45464 1.1965,-0.66804 2.20321,-1.08695 2.78603,-1.1217 l -0.0773,-1.29382 z m 3.45528,4.65175 c 2.58179,10.17733 8.58673,24.87729 12.44626,32.05113 2.05147,3.80609 6.13287,11.89271 7.89623,21.63562 1.11733,-0.0343 2.34764,0.12811 3.66516,0.46511 4.61041,-11.95235 -3.90959,-24.82661 -7.80556,-28.41199 -1.57292,-1.52629 -1.64853,-2.21012 -0.86876,-2.17779 4.22698,3.73805 9.77607,11.25648 11.79496,19.74274 0.92059,3.86961 1.11687,7.93762 0.12911,11.95238 0.48326,0.20076 0.97406,0.41905 1.47149,0.65452 7.40058,3.6037 10.13756,6.73741 8.8216,11.01434 -0.43342,-0.0152 -0.85979,-0.0135 -1.27563,-0.003 -0.0387,10e-4 -0.0773,0.002 -0.11601,0.003 1.07168,-3.39019 -1.30245,-5.89063 -7.6288,-8.75302 -6.56165,-2.88683 -11.79035,-2.59962 -12.67408,3.25507 -0.0565,0.30672 -0.10206,0.61927 -0.1367,0.93619 -0.49023,0.17024 -0.98312,0.38758 -1.47725,0.65796 -3.08113,1.68591 -4.76287,4.74494 -5.69819,8.49682 -0.93459,3.7489 -1.20252,8.281 -1.46045,13.3758 0,0 0,0 0,0 -0.1576,2.5618 -1.21083,6.0267 -2.27904,9.6966 -10.749025,7.6675 -25.667632,10.9894 -38.334094,2.345 -0.858405,-1.3578 -1.843115,-2.7033 -2.856696,-4.0303 -0.647265,-0.8474 -1.312159,-1.6896 -1.973194,-2.52 1.300278,0 2.405525,-0.2119 3.298786,-0.6169 1.110817,-0.5038 1.891301,-1.3127 2.277433,-2.3513 0.772242,-2.0773 -0.0035,-5.0077 -2.475585,-8.3538 -2.472049,-3.3461 -6.658824,-7.1223 -12.811031,-10.89533 0,0 -0.001,0 -0.001,-10e-4 -4.519752,-2.81191 -7.047462,-6.25848 -8.230598,-10.00058 -1.183246,-3.74242 -1.017338,-7.78922 -0.105401,-11.78462 1.750375,-7.66903 6.247743,-15.12778 9.117318,-19.80856 0.772578,-0.56846 0.276034,1.05517 -2.905008,6.96234 -2.850924,5.40079 -8.180725,17.86463 -0.88327,27.59384 0.195011,-6.92379 1.848526,-13.98521 4.62437,-20.59032 4.043226,-9.16513 12.500198,-25.05856 13.17188,-37.72586 0.346307,0.25148 1.53636,1.05444 2.066626,1.35599 0.001,0.001 0.0025,0.001 0.0035,0.002 1.551451,0.91362 2.716649,2.24912 4.225778,3.46196 1.512119,1.21524 3.401156,2.26487 6.255113,2.43116 l 0,0 c 3.331153,0.19276 5.869992,-0.839 7.950074,-2.02844 2.076946,-1.18763 3.736168,-2.50198 5.308111,-3.01502 0.002,-0.001 0.0042,-0.001 0.0073,-0.002 3.321661,-1.03872 5.962721,-2.87723 7.465641,-5.02158 z m 21.09755,58.26509 c 1.34541,-0.006 2.97522,0.44232 4.75924,1.24043 4.80157,2.21668 6.3039,4.11669 4.99304,6.9078 -1.10464,2.10621 -5.83258,5.45706 -9.07291,4.57326 -3.3066,-0.8543 -4.9194,-5.61901 -4.3818,-9.22018 0.28797,-2.44545 1.67113,-3.49182 3.70243,-3.50131 z m -5.43261,6.58076 c 0.27142,4.40375 2.45022,8.89513 6.30346,9.86713 4.21665,1.111 10.29619,-2.507 12.86304,-5.45793 0.51181,-0.0205 1.01221,-0.0456 1.49818,-0.0573 2.25162,-0.0543 4.14011,0.0741 6.06962,1.76159 l 0.006,0.01 0.007,0.01 c 1.48281,1.2563 2.18762,3.6304 2.79893,6.2899 0.61128,2.6595 1.10011,5.556 2.93333,7.6196 l 0.002,0 0.002,0 c 3.52441,3.911 4.65727,6.5546 4.56085,8.2419 -0.0965,1.6873 -1.31812,2.9399 -3.57402,4.3005 -4.50982,2.7202 -12.5006,5.0855 -17.60454,11.2678 -4.43182,5.2742 -9.83593,8.1708 -14.59527,8.5464 -4.75934,0.3756 -8.86551,-1.5998 -11.28637,-6.4587 l -0.005,-0.011 -0.005,-0.01 c -1.50183,-2.857 -0.8762,-7.3655 0.38892,-12.1212 1.26516,-4.7556 3.08284,-9.6387 3.32618,-13.6076 l 0,-0.01 0,-0.01 c 0.25739,-5.0852 0.54203,-9.5261 1.39624,-12.9526 0.85421,-3.42645 2.19925,-5.74707 4.58248,-7.05112 0.11099,-0.0607 0.22115,-0.118 0.33071,-0.17214 z m -77.392667,0.33232 c 0.355709,0.001 0.73214,0.0312 1.133195,0.0918 2.697708,0.40865 5.050207,2.29486 7.316727,5.3691 2.266539,3.0743 4.375506,7.2709 6.54349,11.926 l 0.0025,0.01 0.0025,0.01 c 1.742186,3.6363 5.418488,7.6345 8.533932,11.7134 3.115423,4.0787 5.526565,8.1729 5.212586,11.3066 l -0.0015,0.013 -0.001,0.013 c -0.406166,5.3445 -3.420987,8.254 -8.049047,9.3111 -4.626671,1.0568 -10.898824,0 -17.163581,-3.2707 -0.0018,0 -0.0037,0 -0.0055,0 -6.931079,-3.671 -15.176451,-3.3064 -20.465609,-4.411 -2.645299,-0.5525 -4.371366,-1.3831 -5.163577,-2.9265 -0.792267,-1.5432 -0.809949,-4.2357 0.873587,-8.8266 l 0.0075,-0.019 0.0066,-0.02 c 0.832575,-2.5681 0.216431,-5.3781 -0.187791,-8.0156 -0.404221,-2.6375 -0.601901,-5.0366 0.298719,-6.7086 l 0.0042,-0.01 0.0042,-0.01 c 1.153092,-2.2227 2.84443,-3.0173 4.943571,-3.7704 2.099129,-0.7531 4.58825,-1.3445 6.553829,-3.3144 l 0.01014,-0.01 0.01014,-0.01 c 1.817104,-1.917 3.18203,-4.31981 4.779479,-6.02525 1.347848,-1.43895 2.696679,-2.39263 4.729775,-2.40676 0.02353,0 0.04717,0 0.07089,0 z"
       id="path154" />
  </g>
</svg>
