<?xml version="1.0" encoding="UTF-8" standalone="no"?>
<!-- Created with Inkscape (http://www.inkscape.org/) -->

<svg
   xmlns:dc="http://purl.org/dc/elements/1.1/"
   xmlns:cc="http://creativecommons.org/ns#"
   xmlns:rdf="http://www.w3.org/1999/02/22-rdf-syntax-ns#"
   xmlns:svg="http://www.w3.org/2000/svg"
   xmlns="http://www.w3.org/2000/svg"
   xmlns:sodipodi="http://sodipodi.sourceforge.net/DTD/sodipodi-0.dtd"
   xmlns:inkscape="http://www.inkscape.org/namespaces/inkscape"
   id="svg2876"
   version="1.1"
   inkscape:version="0.48.3.1 r9886"
   width="177.16534"
   height="177.16534"
   sodipodi:docname="krebs_plain_small.svg"
   inkscape:export-filename="/home/philipp/_daten/shack/embroidery/krebs/krebs_plain_small.png"
   inkscape:export-xdpi="300"
   inkscape:export-ydpi="300">
  <metadata
     id="metadata2882">
    <rdf:RDF>
      <cc:Work
         rdf:about="">
        <dc:format>image/svg+xml</dc:format>
        <dc:type
           rdf:resource="http://purl.org/dc/dcmitype/StillImage" />
        <dc:title></dc:title>
      </cc:Work>
    </rdf:RDF>
  </metadata>
  <defs
     id="defs2880">
    <inkscape:perspective
       sodipodi:type="inkscape:persp3d"
       inkscape:vp_x="0 : 0.5 : 1"
       inkscape:vp_y="0 : 1000 : 0"
       inkscape:vp_z="1 : 0.5 : 1"
       inkscape:persp3d-origin="0.5 : 0.33333333 : 1"
       id="perspective2884" />
  </defs>
  <sodipodi:namedview
     pagecolor="#ffffff"
     bordercolor="#666666"
     borderopacity="1"
     objecttolerance="10"
     gridtolerance="10"
     guidetolerance="10"
     inkscape:pageopacity="0"
     inkscape:pageshadow="2"
     inkscape:window-width="1680"
     inkscape:window-height="886"
     id="namedview2878"
     showgrid="false"
     inkscape:snap-to-guides="true"
     inkscape:snap-grids="true"
     inkscape:snap-bbox="true"
     inkscape:zoom="3.883378"
     inkscape:cx="88.582672"
     inkscape:cy="88.582672"
     inkscape:window-x="0"
     inkscape:window-y="27"
     inkscape:window-maximized="1"
     inkscape:current-layer="svg2876"
     inkscape:document-units="mm"
     units="mm" />
  <path
     style="fill:#e4002b;fill-opacity:1"
     d="m 46.467769,157.57985 c -0.04912,-0.12813 -0.06164,-2.53708 -0.02784,-5.35326 l 0.06145,-5.12029 5.011556,-0.11389 5.011557,-0.1139 0.0593,-10.19814 0.0593,-10.19815 5.293953,0.0611 5.293959,0.0611 0.05855,15.43985 c 0.04638,12.23292 -9.9e-4,15.4616 -0.227797,15.54465 -0.628809,0.23012 -20.505644,0.2213 -20.593969,-0.01 z"
     id="path3699"
     inkscape:connector-curvature="0" />
  <path
     style="fill:#e4002b;fill-opacity:1"
     d="m 77.931473,157.64625 c -0.05991,-0.15899 -0.134308,-9.56612 -0.16534,-20.90475 l -0.05643,-20.61573 -15.490264,0 -15.490266,0 -0.113904,5.12546 -0.113892,5.12545 -5.00475,0.0615 c -3.043773,0.0375 -5.09667,0.15342 -5.239355,0.29605 -0.153975,0.15392 -0.273749,5.49556 -0.348502,15.54264 l -0.113904,15.30812 -4.995611,0.0615 c -2.747583,0.0338 -5.077599,-0.0205 -5.177812,-0.12071 -0.100211,-0.10016 -0.188576,-7.14975 -0.196367,-15.66566 l -0.01417,-15.48346 5.191974,-0.11389 5.191975,-0.11389 0.113904,-10.47871 0.113904,-10.4787 10.25091,-0.1139 10.250909,-0.11389 0,-5.011557 0,-5.01155 -15.604163,-0.11389 -15.604163,-0.1139 -0.05932,-10.241917 C 25.218078,77.781761 25.115555,74.146793 24.961267,73.992119 24.82029,73.850793 22.7775,73.709395 19.895141,73.641418 L 15.065248,73.527526 14.951344,63.458652 C 14.878364,57.00746 14.753152,53.305582 14.60284,53.155373 14.460227,53.012883 12.40579,52.896842 9.3634835,52.859438 l -5.004748,-0.06153 0,-10.59261 0,-10.592606 5.125455,-0.113904 5.1254555,-0.113892 0.113904,-5.125455 0.113904,-5.125456 5.239354,0 5.239355,0 0.113903,15.718061 0.113904,15.718063 5.125455,0 5.125456,0 0.113903,-15.718063 0.113904,-15.718061 5.125455,0 5.125456,0 0,26.19677 0,26.196772 -4.829894,0.113892 c -2.975927,0.0702 -4.923269,0.207477 -5.073155,0.357733 -0.161309,0.161693 -0.222509,1.888398 -0.181662,5.125461 l 0.0616,4.88162 10.009297,0.05933 c 6.812036,0.04035 10.086474,-0.01755 10.250908,-0.181678 0.14796,-0.147606 0.285768,-2.157429 0.355516,-5.184843 l 0.113892,-4.943759 4.829605,-0.113892 c 3.529548,-0.08321 4.909237,-0.193544 5.12545,-0.409772 0.216218,-0.216192 0.326513,-1.595901 0.409754,-5.125449 l 0.113892,-4.829589 4.879913,-0.06159 c 3.131101,-0.0395 4.988317,-0.151578 5.182402,-0.312652 0.424838,-0.35259 0.441461,-9.645951 0.01772,-9.920171 -0.156608,-0.10138 -2.488693,-0.235544 -5.182402,-0.298188 l -4.897658,-0.113904 -0.05932,-10.23715 c -0.03262,-5.630437 0.02079,-10.317268 0.118703,-10.415178 0.09792,-0.09793 4.840029,-0.187091 10.53803,-0.198159 l 10.360003,-0.02005 0.113892,15.56077 0.113904,15.56077 10.364807,0 10.364814,0 0,-4.897659 0,-4.897659 -5.23936,-0.113892 -5.239354,-0.113904 0,-10.592605 0,-10.592612 10.592614,0 10.5926,0 0.0581,20.707729 c 0.0412,14.656297 0.13144,20.796039 0.30894,21.009903 0.19073,0.229825 1.40393,0.316868 5.0673,0.363583 l 4.81651,0.06136 0.11389,4.943771 c 0.0697,3.027067 0.20756,5.037225 0.35549,5.184819 0.16446,0.164081 3.47336,0.222077 10.3648,0.181666 l 10.12323,-0.05933 0.0616,-4.88162 c 0.0408,-3.237266 -0.0203,-4.963768 -0.18168,-5.125461 -0.15043,-0.150781 -2.12997,-0.287321 -5.18705,-0.357733 l -4.94377,-0.113892 -0.11389,-10.06887 c -0.0729,-6.44851 -0.19823,-10.153121 -0.34841,-10.303171 -0.14205,-0.14194 -2.16272,-0.258621 -5.12546,-0.295954 l -4.89095,-0.06163 0,-10.592605 0,-10.592613 5.01156,-0.113892 5.01156,-0.113892 0.11389,-5.125456 0.11389,-5.125455 5.35325,0 5.35326,0 0.11389,15.718062 0.11389,15.718066 5.01156,0 5.01155,0 0.1139,-15.718066 0.11389,-15.718062 5.23935,0 5.23935,0 0,26.310673 0,26.310669 -5.12545,0.113892 -5.12546,0.113892 -0.11389,10.364814 -0.11389,10.364808 -15.60416,0.11389 -15.60418,0.11389 0,5.01156 0,5.011547 10.36482,0.1139 10.36481,0.11389 0.1139,10.47872 0.11389,10.4787 5.12546,0.11389 5.12545,0.1139 0,15.71805 0,15.71806 -5.23936,0 -5.23935,0 -0.0586,-15.48048 c -0.039,-10.34132 -0.13724,-15.55935 -0.29558,-15.71806 -0.14249,-0.14283 -2.20859,-0.283 -5.18079,-0.35148 l -4.94377,-0.11389 -0.0617,-4.76615 c -0.0394,-3.04678 -0.15221,-4.8752 -0.31264,-5.06851 -0.34991,-0.42163 -30.48142,-0.44993 -30.90233,-0.029 -0.20854,0.20856 -0.27336,5.11993 -0.27336,20.71617 0,11.24356 -0.0842,20.49486 -0.18716,20.55849 -0.10293,0.0636 -2.48628,0.13214 -5.2963,0.15226 l -5.109144,0.0365 -0.11389,-15.57211 -0.1139,-15.57211 -5.011551,0 -5.011557,0 -0.113904,15.60416 -0.113892,15.60416 -5.187912,0.0612 c -4.027342,0.0475 -5.212271,-0.004 -5.29682,-0.22779 z"
     id="path3697"
     inkscape:connector-curvature="0" />
  <path
     style="fill:#e4002b;fill-opacity:1"
     d="m 120.07185,157.64419 c -0.0603,-0.1578 -0.0831,-7.25759 -0.0507,-15.77725 l 0.059,-15.49026 5.23935,0 5.23935,0 0.11389,10.25091 0.1139,10.25091 5.01155,0.11389 5.01156,0.1139 0,5.35325 0,5.35326 -10.31411,0.0593 c -8.12968,0.0467 -10.33734,-0.002 -10.42379,-0.2278 z"
     id="path2921"
     inkscape:connector-curvature="0" />
</svg>
