<?xml version="1.0" encoding="UTF-8" standalone="no"?>
<!-- Created with Inkscape (http://www.inkscape.org/) -->

<svg
   xmlns:dc="http://purl.org/dc/elements/1.1/"
   xmlns:cc="http://creativecommons.org/ns#"
   xmlns:rdf="http://www.w3.org/1999/02/22-rdf-syntax-ns#"
   xmlns:svg="http://www.w3.org/2000/svg"
   xmlns="http://www.w3.org/2000/svg"
   xmlns:sodipodi="http://sodipodi.sourceforge.net/DTD/sodipodi-0.dtd"
   xmlns:inkscape="http://www.inkscape.org/namespaces/inkscape"
   id="svg2876"
   version="1.1"
   inkscape:version="0.48.3.1 r9886"
   width="354.33069"
   height="354.33069"
   sodipodi:docname="krebs_plain.svg">
  <metadata
     id="metadata2882">
    <rdf:RDF>
      <cc:Work
         rdf:about="">
        <dc:format>image/svg+xml</dc:format>
        <dc:type
           rdf:resource="http://purl.org/dc/dcmitype/StillImage" />
        <dc:title></dc:title>
      </cc:Work>
    </rdf:RDF>
  </metadata>
  <defs
     id="defs2880">
    <inkscape:perspective
       sodipodi:type="inkscape:persp3d"
       inkscape:vp_x="0 : 0.5 : 1"
       inkscape:vp_y="0 : 1000 : 0"
       inkscape:vp_z="1 : 0.5 : 1"
       inkscape:persp3d-origin="0.5 : 0.33333333 : 1"
       id="perspective2884" />
  </defs>
  <sodipodi:namedview
     pagecolor="#ffffff"
     bordercolor="#666666"
     borderopacity="1"
     objecttolerance="10"
     gridtolerance="10"
     guidetolerance="10"
     inkscape:pageopacity="0"
     inkscape:pageshadow="2"
     inkscape:window-width="1680"
     inkscape:window-height="886"
     id="namedview2878"
     showgrid="false"
     inkscape:snap-to-guides="true"
     inkscape:snap-grids="true"
     inkscape:snap-bbox="true"
     inkscape:zoom="1.941689"
     inkscape:cx="177.16534"
     inkscape:cy="177.16534"
     inkscape:window-x="0"
     inkscape:window-y="27"
     inkscape:window-maximized="1"
     inkscape:current-layer="svg2876"
     inkscape:document-units="mm"
     units="mm" />
  <path
     style="fill:#e4002b;fill-opacity:1"
     d="m 92.909722,313.97338 c -0.09921,-0.25881 -0.124516,-5.12525 -0.05625,-10.81431 l 0.12413,-10.34367 10.124028,-0.23009 10.12403,-0.23009 0.11979,-20.60166 0.11979,-20.60166 10.69451,0.12351 10.69452,0.12351 0.11826,31.19061 c 0.0937,24.71216 -0.002,31.23456 -0.46018,31.4023 -1.27028,0.46488 -41.424203,0.44707 -41.60263,-0.0184 z"
     id="path3699"
     inkscape:connector-curvature="0" />
  <path
     style="fill:#e4002b;fill-opacity:1"
     d="m 156.4707,314.10752 c -0.12101,-0.32116 -0.27132,-19.32484 -0.33401,-42.23045 l -0.114,-41.64657 -31.29245,0 -31.292453,0 -0.230092,10.35412 -0.230091,10.35412 -10.110278,0.12429 c -6.148838,0.0756 -10.295971,0.30994 -10.584212,0.59806 -0.311051,0.31094 -0.553011,11.10178 -0.704024,31.39825 l -0.230092,30.92448 -10.091815,0.12425 c -5.550494,0.0683 -10.257445,-0.0414 -10.459889,-0.24385 -0.202443,-0.20243 -0.380948,-14.44349 -0.396687,-31.64679 l -0.02862,-31.27869 10.488498,-0.23009 10.488498,-0.23009 0.230091,-21.16843 0.230092,-21.16842 20.708239,-0.23009 20.708235,-0.23009 0,-10.12403 0,-10.12403 -31.522538,-0.23009 -31.522541,-0.23009 -0.11985,-20.69006 c -0.07828,-13.51282 -0.285397,-20.85596 -0.597079,-21.16843 -0.284793,-0.28549 -4.411508,-0.57113 -10.234265,-0.70845 l -9.757046,-0.23009 -0.230091,-20.34051 c -0.14742,-13.03229 -0.400373,-20.51059 -0.704025,-20.81403 -0.288098,-0.28785 -4.438341,-0.52227 -10.584216,-0.59783 l -10.110273,-0.12429 0,-21.39852 0,-21.398512 10.35412,-0.230091 10.354119,-0.230092 0.230092,-10.354119 0.230091,-10.35412 10.584212,0 10.584211,0 0.230091,31.752634 0.230091,31.75263 10.35412,0 10.35412,0 0.230091,-31.75263 0.230092,-31.752634 10.354119,0 10.35412,0 0,52.921054 0,52.92106 -9.757046,0.23009 c -6.011777,0.14174 -9.945675,0.41914 -10.248466,0.72267 -0.325865,0.32664 -0.449498,3.81483 -0.366982,10.35412 l 0.124438,9.86154 20.220146,0.11993 c 13.761245,0.0816 20.376055,-0.0354 20.708235,-0.367 0.2989,-0.2982 0.57729,-4.3583 0.71819,-10.47409 l 0.23009,-9.98708 9.75646,-0.23009 c 7.13017,-0.16815 9.91733,-0.39097 10.35411,-0.82778 0.43679,-0.43676 0.6596,-3.22395 0.82776,-10.35412 l 0.23009,-9.75643 9.85809,-0.12443 c 6.32525,-0.0798 10.07708,-0.30621 10.46916,-0.6316 0.85823,-0.71228 0.89181,-19.48614 0.0358,-20.0401 -0.31637,-0.20479 -5.0275,-0.47583 -10.46916,-0.60238 l -9.89394,-0.2301 -0.11984,-20.68044 c -0.0659,-11.374254 0.042,-20.842292 0.23981,-21.040078 0.19781,-0.197833 9.77752,-0.377949 21.28826,-0.400314 l 20.92862,-0.0405 0.23009,31.434882 0.23009,31.43488 20.93833,0 20.93833,0 0,-9.89394 0,-9.89394 -10.58421,-0.23009 -10.58421,-0.23009 0,-21.39851 0,-21.398521 21.39851,0 21.39852,0 0.11749,41.832441 c 0.0832,29.60772 0.26554,42.01085 0.6241,42.44287 0.38531,0.46428 2.83613,0.64012 10.23663,0.7345 l 9.73002,0.12407 0.23009,9.98707 c 0.14088,6.1151 0.4193,10.1759 0.71813,10.47405 0.33224,0.33147 7.01666,0.44863 20.93833,0.36699 l 20.45029,-0.11987 0.12444,-9.86154 c 0.0825,-6.53971 -0.0411,-10.02749 -0.36702,-10.35412 -0.3039,-0.3046 -4.30284,-0.58043 -10.47856,-0.72267 l -9.9871,-0.2301 -0.23009,-20.3405 c -0.14736,-13.02687 -0.40043,-20.51069 -0.70384,-20.81381 -0.28697,-0.28674 -4.36897,-0.52245 -10.35412,-0.59787 l -9.88037,-0.12448 0,-21.39851 0,-21.398521 10.12403,-0.230092 10.12403,-0.230092 0.23009,-10.354119 0.23009,-10.35412 10.8143,0 10.81431,0 0.23009,31.75263 0.23009,31.752644 10.12403,0 10.12402,0 0.2301,-31.752644 0.23009,-31.75263 10.58421,0 10.58421,0 0,53.151154 0,53.15115 -10.35412,0.23009 -10.35412,0.23009 -0.23009,20.93833 -0.23009,20.93833 -31.52254,0.23009 -31.52255,0.2301 0,10.12402 0,10.12403 20.93833,0.23009 20.93834,0.23009 0.23009,21.16843 0.23009,21.16842 10.35412,0.23009 10.35412,0.23009 0,31.75264 0,31.75263 -10.58421,0 -10.58421,0 -0.11829,-31.27271 c -0.079,-20.89088 -0.27726,-31.43202 -0.59712,-31.75263 -0.28786,-0.28854 -4.46168,-0.57169 -10.46592,-0.71002 l -9.9871,-0.23009 -0.12462,-9.62827 c -0.0797,-6.15491 -0.3075,-9.84857 -0.63158,-10.23908 -0.70689,-0.85175 -61.57664,-0.90891 -62.42694,-0.0586 -0.42129,0.4213 -0.55222,10.34294 -0.55222,41.84947 0,22.71353 -0.17014,41.40244 -0.37809,41.53097 -0.20795,0.12853 -5.02262,0.26695 -10.69926,0.30759 l -10.32116,0.0739 -0.23009,-31.4578 -0.23009,-31.45779 -10.12403,0 -10.12403,0 -0.23009,31.52254 -0.23009,31.52254 -10.48029,0.1237 c -8.13578,0.096 -10.5295,-0.007 -10.7003,-0.46019 z"
     id="path3697"
     inkscape:connector-curvature="0" />
  <path
     style="fill:#e4002b;fill-opacity:1"
     d="m 241.6,314.10338 c -0.12186,-0.31877 -0.16794,-14.66134 -0.10241,-31.87219 l 0.11916,-31.29245 10.58421,0 10.58421,0 0.23009,20.70824 0.23009,20.70824 10.12403,0.23009 10.12403,0.23009 0,10.8143 0,10.81431 -20.83593,0.11974 c -16.42305,0.0944 -20.88285,-0.005 -21.05748,-0.46019 z"
     id="path2921"
     inkscape:connector-curvature="0" />
</svg>
