<?xml version="1.0" encoding="UTF-8" standalone="no"?>
<!-- Created with Inkscape (http://www.inkscape.org/) -->

<svg
   xmlns:dc="http://purl.org/dc/elements/1.1/"
   xmlns:cc="http://creativecommons.org/ns#"
   xmlns:rdf="http://www.w3.org/1999/02/22-rdf-syntax-ns#"
   xmlns:svg="http://www.w3.org/2000/svg"
   xmlns="http://www.w3.org/2000/svg"
   xmlns:sodipodi="http://sodipodi.sourceforge.net/DTD/sodipodi-0.dtd"
   xmlns:inkscape="http://www.inkscape.org/namespaces/inkscape"
   width="354.33069"
   height="354.33069"
   id="svg2"
   version="1.1"
   inkscape:version="0.48.2 r9819"
   sodipodi:docname="invader_top_2.svg">
  <defs
     id="defs4" />
  <sodipodi:namedview
     id="base"
     pagecolor="#ffffff"
     bordercolor="#666666"
     borderopacity="1.0"
     inkscape:pageopacity="0.0"
     inkscape:pageshadow="2"
     inkscape:zoom="1.8739557"
     inkscape:cx="177.16534"
     inkscape:cy="177.16534"
     inkscape:document-units="mm"
     inkscape:current-layer="layer1"
     showgrid="false"
     inkscape:window-width="824"
     inkscape:window-height="867"
     inkscape:window-x="0"
     inkscape:window-y="0"
     inkscape:window-maximized="0"
     borderlayer="false"
     units="mm">
    <inkscape:grid
       type="xygrid"
       id="grid2985"
       empspacing="5"
       visible="true"
       enabled="true"
       snapvisiblegridlinesonly="true" />
  </sodipodi:namedview>
  <metadata
     id="metadata7">
    <rdf:RDF>
      <cc:Work
         rdf:about="">
        <dc:format>image/svg+xml</dc:format>
        <dc:type
           rdf:resource="http://purl.org/dc/dcmitype/StillImage" />
        <dc:title></dc:title>
      </cc:Work>
    </rdf:RDF>
  </metadata>
  <g
     inkscape:label="Layer 1"
     inkscape:groupmode="layer"
     id="layer1"
     transform="translate(0,-698.03141)">
    <path
       style="fill:#000000;fill-opacity:1;stroke:none"
       d="m 150.86243,759.03932 0,27.93883 -27.93885,0 0,27.93878 -27.938787,0 0,27.93883 -27.938824,0 0,27.93884 0,27.93882 27.938824,0 0,27.93876 27.938787,0 0,-27.93876 27.93885,0 0,27.93876 55.87761,0 0,-27.93876 27.93884,0 0,27.93876 27.9388,0 0,-27.93876 27.93882,0 0,-27.93882 0,-27.93884 -27.93882,0 0,-27.93883 -27.9388,0 0,-27.93878 -27.93884,0 0,-27.93883 -55.87761,0 z m 111.75525,167.63286 0,27.93885 27.93882,0 0,-27.93885 -27.93882,0 z m 0,27.93885 -27.9388,0 0,27.93882 27.9388,0 0,-27.93882 z m -167.632887,-27.93885 -27.938824,0 0,27.93885 27.938824,0 0,-27.93885 z m 0,27.93885 0,27.93882 27.938787,0 0,-27.93882 -27.938787,0 z m 27.938787,-111.75527 27.93885,0 0,27.93884 -27.93885,0 0,-27.93884 z m 83.81646,0 27.93884,0 0,27.93884 -27.93884,0 0,-27.93884 z"
       id="rect3948"
       inkscape:connector-curvature="0" />
  </g>
</svg>
