<?xml version="1.0" encoding="UTF-8" standalone="no"?>
<!-- Created with Inkscape (http://www.inkscape.org/) -->

<svg
   xmlns:dc="http://purl.org/dc/elements/1.1/"
   xmlns:cc="http://creativecommons.org/ns#"
   xmlns:rdf="http://www.w3.org/1999/02/22-rdf-syntax-ns#"
   xmlns:svg="http://www.w3.org/2000/svg"
   xmlns="http://www.w3.org/2000/svg"
   xmlns:sodipodi="http://sodipodi.sourceforge.net/DTD/sodipodi-0.dtd"
   xmlns:inkscape="http://www.inkscape.org/namespaces/inkscape"
   width="354.33069"
   height="354.33069"
   id="svg2"
   version="1.1"
   inkscape:version="0.48.2 r9819"
   sodipodi:docname="invader_low_1.svg">
  <defs
     id="defs4" />
  <sodipodi:namedview
     id="base"
     pagecolor="#ffffff"
     bordercolor="#666666"
     borderopacity="1.0"
     inkscape:pageopacity="0.0"
     inkscape:pageshadow="2"
     inkscape:zoom="0.68885886"
     inkscape:cx="123.15641"
     inkscape:cy="120.87906"
     inkscape:document-units="mm"
     inkscape:current-layer="layer1"
     showgrid="false"
     inkscape:window-width="824"
     inkscape:window-height="867"
     inkscape:window-x="0"
     inkscape:window-y="0"
     inkscape:window-maximized="0"
     borderlayer="false"
     units="mm">
    <inkscape:grid
       type="xygrid"
       id="grid2985"
       empspacing="5"
       visible="true"
       enabled="true"
       snapvisiblegridlinesonly="true" />
  </sodipodi:namedview>
  <metadata
     id="metadata7">
    <rdf:RDF>
      <cc:Work
         rdf:about="">
        <dc:format>image/svg+xml</dc:format>
        <dc:type
           rdf:resource="http://purl.org/dc/dcmitype/StillImage" />
        <dc:title />
      </cc:Work>
    </rdf:RDF>
  </metadata>
  <g
     inkscape:label="Layer 1"
     inkscape:groupmode="layer"
     id="layer1"
     transform="translate(0,-698.03141)">
    <path
       style="fill:#000000;fill-opacity:1;fill-rule:evenodd;stroke:none"
       d="m 121.57913,759.13277 0,27.93878 -83.81643,0 0,27.93881 -27.9388179,0 0,83.81645 55.8776299,0 0,27.93884 -27.938812,0 0,27.93881 27.938812,0 0,27.93878 55.877618,0 0,-27.93878 -27.938801,0 0,-27.93881 55.877631,0 0,-27.93884 55.87763,0 0,27.93884 55.87764,0 0,27.93881 -27.93883,0 0,27.93878 55.87765,0 0,-27.93878 27.93881,0 0,-27.93881 -27.93881,0 0,-27.93884 55.87762,0 0,-83.81645 -27.93881,0 0,-27.93881 -83.81646,0 0,-27.93878 -111.75527,0 z m 83.81646,167.63288 -55.87763,0 0,27.93881 55.87763,0 0,-27.93881 z m -111.755261,-83.81644 55.877631,0 0,27.93878 -55.877631,0 0,-27.93878 z m 111.755261,0 55.87764,0 0,27.93878 -55.87764,0 0,-27.93878 z"
       id="rect3000"
       inkscape:connector-curvature="0" />
  </g>
</svg>
