<?xml version="1.0" encoding="UTF-8" standalone="no"?>
<!-- Created with Inkscape (http://www.inkscape.org/) -->

<svg
   xmlns:dc="http://purl.org/dc/elements/1.1/"
   xmlns:cc="http://creativecommons.org/ns#"
   xmlns:rdf="http://www.w3.org/1999/02/22-rdf-syntax-ns#"
   xmlns:svg="http://www.w3.org/2000/svg"
   xmlns="http://www.w3.org/2000/svg"
   xmlns:sodipodi="http://sodipodi.sourceforge.net/DTD/sodipodi-0.dtd"
   xmlns:inkscape="http://www.inkscape.org/namespaces/inkscape"
   id="svg2"
   version="1.1"
   inkscape:version="0.48.3.1 r9886"
   width="1280"
   height="1125"
   xml:space="preserve"
   sodipodi:docname="f_spaceInvaders.ai"><metadata
     id="metadata8"><rdf:RDF><cc:Work
         rdf:about=""><dc:format>image/svg+xml</dc:format><dc:type
           rdf:resource="http://purl.org/dc/dcmitype/StillImage" /><dc:title></dc:title></cc:Work></rdf:RDF></metadata><defs
     id="defs6"><clipPath
       clipPathUnits="userSpaceOnUse"
       id="clipPath18"><path
         d="M 0,900 1024,900 1024,0 0,0 0,900 z"
         id="path20" /></clipPath><clipPath
       clipPathUnits="userSpaceOnUse"
       id="clipPath34"><path
         d="M 0,900 1024,900 1024,0 0,0 0,900 z"
         id="path36" /></clipPath></defs><sodipodi:namedview
     pagecolor="#ffffff"
     bordercolor="#666666"
     borderopacity="1"
     objecttolerance="10"
     gridtolerance="10"
     guidetolerance="10"
     inkscape:pageopacity="0"
     inkscape:pageshadow="2"
     inkscape:window-width="839"
     inkscape:window-height="886"
     id="namedview4"
     showgrid="false"
     inkscape:zoom="0.20977778"
     inkscape:cx="649.5339"
     inkscape:cy="562.5"
     inkscape:window-x="0"
     inkscape:window-y="27"
     inkscape:window-maximized="0"
     inkscape:current-layer="g10" /><g
     id="g10"
     inkscape:groupmode="layer"
     inkscape:label="f_spaceInvaders"
     transform="matrix(1.25,0,0,-1.25,0,1125)"><path
       d="m 0,0 1023.5,0 0,99.5 L 0,99.5 0,0 z"
       style="fill:#000000;fill-opacity:1;fill-rule:nonzero;stroke:none"
       id="path12" /><g
       id="g14"><g
         id="g16"
         clip-path="url(#clipPath18)"><path
           d="m 1023.5,99.5 -1024,0 0,-100 1024,0 0,100 z"
           style="fill:none;stroke:#000000;stroke-opacity:1;stroke-width:1;stroke-linecap:butt;stroke-linejoin:miter;stroke-miterlimit:10;stroke-dasharray:none"
           id="path22" /></g></g><text
       transform="matrix(1,0,0,-1,273.3555,29.6631)"
       id="text24"><tspan
         style="fill:#00ccff;fill-opacity:1;fill-rule:nonzero;stroke:none;font-family:Myriad Pro;font-variant:normal;font-weight:bold;font-stretch:normal;font-size:58.6162;writing-mode:lr;-inkscape-font-specification:MyriadPro-Bold"
         x="0 45.6034036 91.2068072 132.8829254 148.1231374 164.2425924 194.8402488 224.5586622 249.998093 284.9333482 315.8827018 341.3221326 357.3829714 391.6734484 426.0225416 450.8758104 466.1160224 491.9071504 525.7286978"
         y="0"
         sodipodi:role="line"
         id="tspan26">www.leysdesigns.com</tspan></text>
<path
       d="m 0,95 1024,0 0,10 L 0,105 0,95 z"
       style="fill:#cccccc;fill-opacity:1;fill-rule:nonzero;stroke:none"
       id="path28" /><g
       id="g30"><g
         id="g32"
         clip-path="url(#clipPath34)"><g
           id="g38"
           transform="translate(195.3677,43.5996)"><path
             d="m 0,0 c -0.825,-2.241 -0.943,-4.369 -0.333,-6.67 0.465,-1.755 4.067,-0.205 4.532,0.891 4.977,11.722 7.475,24.334 13.524,35.663 0.569,1.066 1.208,2.091 1.894,3.086 0.349,0.507 0.739,0.977 1.17,1.418 0.651,0.666 -0.267,-0.426 -0.099,-1.23 0.9,-4.309 -2.111,-11.573 -3.036,-15.624 C 16.075,10.622 14.585,3.649 12.537,-3.141 10.393,-10.246 7.633,-17.12 6.013,-24.383 c 1.51,0.189 3.021,0.378 4.532,0.567 0.174,7.301 1.913,14.841 4.091,21.814 0.529,1.693 1.236,3.309 2.131,4.84 1.186,2.029 0.744,0.156 0.581,-1.335 -0.244,-2.222 -1.029,-4.378 -1.65,-6.513 -0.496,-1.702 3.825,-0.825 4.377,0.233 1.025,1.968 1.882,4.016 2.933,5.972 0.413,0.769 1.964,3.866 3.11,3.446 1.15,-0.422 -0.727,-2.161 -0.963,-2.398 -2.72,-2.745 -6.402,-4.771 -9.767,-6.629 1.173,-0.242 2.345,-0.484 3.518,-0.727 4.275,4.758 12.157,4.437 18.079,4.197 2.522,-0.103 5.115,-0.366 7.477,-1.305 4.286,-1.701 -1.012,-4.395 -3.179,-5.244 -7.801,-3.053 -16.517,-4.043 -24.678,-5.779 -4.494,-0.956 -9.017,-1.665 -13.593,-2.069 -3.389,-0.301 -9.7,-1.071 -12.002,1.956 -0.095,-0.422 -0.19,-0.843 -0.286,-1.265 4.454,3.349 14.464,2.487 19.657,2.512 7.464,0.036 14.912,-0.864 22.285,-1.945 3.71,-0.544 7.403,-0.964 11.126,-1.416 2.679,-0.326 9.137,-0.52 10.65,-3.224 0.863,-1.54 5.232,-0.035 4.533,1.215 -1.805,3.224 -6.995,3.658 -10.235,4.177 -6.279,1.006 -12.677,1.683 -18.983,2.505 -8.587,1.119 -17.202,1.522 -25.847,0.984 -5.845,-0.365 -11.956,-0.398 -16.822,-4.056 -0.412,-0.31 -0.615,-0.831 -0.286,-1.265 2.355,-3.095 7.001,-2.931 10.517,-2.913 6.107,0.032 12.169,0.943 18.141,2.167 6.832,1.401 13.72,2.676 20.493,4.343 4.625,1.138 9.71,2.585 13.493,5.601 C 56.357,-0.424 40.26,1.602 37.842,1.699 29.808,2.026 20.374,1.319 14.684,-5.012 13.23,-6.63 17.628,-6.056 18.202,-5.739 20.303,-4.58 33.646,2.508 30.726,6.025 28.754,8.401 24.827,7.221 22.64,5.883 19.045,3.685 17.688,-1.154 15.853,-4.676 c 1.459,0.077 2.918,0.155 4.377,0.233 0.885,3.038 2.325,6.505 1.584,9.704 -0.679,2.935 -5.235,1.201 -6.768,0.32 -3.663,-2.105 -4.953,-7.894 -5.936,-11.594 -1.588,-5.984 -2.949,-12.17 -3.097,-18.37 -0.046,-1.916 4.207,-0.891 4.532,0.567 1.886,8.45 5.211,16.462 7.558,24.782 2.351,8.336 3.975,16.906 5.923,25.342 0.521,2.253 3.016,9.078 -0.25,10.476 -2.195,0.941 -4.484,0.048 -6.27,-1.325 C 11.856,31.114 9.237,20.934 6.902,14.616 4.351,7.712 2.542,0.428 -0.333,-6.346 l 4.532,0.891 C 3.638,-3.338 3.788,-1.458 4.532,0.566 5.092,2.089 0.556,1.513 0,0"
             style="fill:#ffffff;fill-opacity:1;fill-rule:nonzero;stroke:none"
             id="path40" /></g></g></g><path
       d="m 189.18,764.987 -23.021,0 0,18.287 23.021,0 0,-18.287 z m -67.347,0 -23.023,0 0,18.287 23.023,0 0,-18.287 z m 88.435,38.7 0,-19.491 -21.947,0 0,19.491 -21.625,0 0,17.456 21.303,0 0,20.229 -22.594,0 0,-19.675 -43.572,0 0,19.675 -22.593,0 0,-20.229 21.948,0 0,-17.456 -21.948,0 0,-19.491 -21.946,0 0,19.491 -23.562,0 0,-115.549 46.153,0 0,19.674 -22.591,0 0,36.484 22.591,0 0,-18.749 21.303,0 0,-18.843 45.508,0 0,18.843 22.27,0 0,18.749 21.302,0 0,-36.484 -21.947,0 0,-19.674 45.508,0 0,115.549 -23.561,0 z"
       style="fill:#ec1c24;fill-opacity:1;fill-rule:nonzero;stroke:none"
       id="path42" /><path
       d="m 706.663,763.558 -19.404,0 0,19.77 19.404,0 0,-19.77 z m -75.419,0 -19.403,0 0,19.77 19.403,0 0,-19.77 z m 113.129,-37.344 0,18.306 19.037,0 0,76.882 -19.769,0 0,-38.074 -17.94,0 0,19.402 -18.673,0 0,17.207 18.673,0 0,20.136 -19.404,0 0,-18.671 -19.038,0 0,-18.672 -56.015,0 0,18.672 -19.036,0 0,18.671 -19.404,0 0,-20.136 18.67,0 0,-17.207 -19.037,0 0,-19.402 -18.305,0 0,38.074 -19.77,0 0,-76.882 19.036,0 0,-18.306 19.406,0 0,-17.94 -19.404,0 0,-20.136 20.5,0 0,18.306 18.308,0 0,19.77 94.089,0 0,-19.038 17.939,0 0,-19.038 20.503,0 0,20.136 -19.038,0 0,17.94 18.672,0 z"
       style="fill:#ec1c24;fill-opacity:1;fill-rule:nonzero;stroke:none"
       id="path44" /><path
       d="m 433.714,756.159 -19.145,0 0,32.252 19.145,0 0,-32.252 z m -68.071,0 -19.145,0 0,32.252 19.145,0 0,-32.252 z m 107.425,12.315 0,19.351 -19.145,0 0,13.488 -18.081,0 0,19.35 14.093,0 0,21.11 -19.677,0 0,-21.11 -14.093,0 0,-19.35 -47.065,0 0,19.35 -14.094,0 0,21.11 -19.677,0 0,-21.11 14.093,0 0,-19.35 -18.347,0 0,-13.488 -16.486,0 0,-19.351 -15.422,0 0,-69.194 20.208,0 0,39.875 11.7,0 0,-35.771 10.636,0 0,-15.246 35.632,0 0,21.696 -24.464,0 0,17.593 79.24,0 0,-17.593 -23.399,0 0,-21.696 35.631,0 0,15.246 9.572,0 0,35.771 14.89,0 0,-39.875 20.211,0 0,69.194 -15.956,0 z"
       style="fill:#ec1c24;fill-opacity:1;fill-rule:nonzero;stroke:none"
       id="path46" /><path
       d="m 928.608,763.644 -50.541,0 0,16.937 50.541,0 0,-16.937 z m 33.858,-12.511 0,45.139 -10.207,0 0,6.015 -12.96,0 0,-6.015 -9.611,0 0,27.252 -16.417,0 0,17.965 -19.868,0 0,-17.965 -16.414,0 0,-27.252 -9.613,0 0,6.015 -12.96,0 0,-6.015 -10.207,0 0,-45.139 -15.461,0 0,-62.995 24.736,0 0,28.085 23.505,0 0,-11.238 52.699,0 0,11.238 23.501,0 0,-28.085 24.738,0 0,62.995 -15.461,0 z"
       style="fill:#ec1c24;fill-opacity:1;fill-rule:nonzero;stroke:none"
       id="path48" /><path
       d="m 499.451,504.84 -16.25,0 0,34.182 16.25,0 0,-34.182 z m -68.366,0 -16.25,0 0,34.182 16.25,0 0,-34.182 z m 102.269,-10e-4 0,18.213 -16.057,0 0,34.183 -17.285,0 0,16.249 16.251,0 0,17.371 -17.653,0 0,-17.091 -16.809,0 0,-16.529 -49.875,0 0,16.81 -17.092,0 0,16.81 -17.651,0 0,-17.371 16.533,0 0,-16.249 -16.158,0 0,-34.183 -17.185,0 0,-18.213 -16.532,0 0,-51.553 17.091,0 0,34.462 16.812,0 0,-34.462 15.972,0 0,-17.092 17.931,0 0,-16.812 17.372,0 0,17.372 -17.093,0 0,16.811 -17.092,0 0,16.251 84.897,0 0,-16.251 -17.93,0 0,-16.811 -16.532,0 0,-17.372 17.373,0 0,16.812 17.37,0 0,17.092 16.81,0 0,34.462 16.532,0 0,-34.462 17.091,0 0,51.553 -17.091,0 z"
       style="fill:#ec1c24;fill-opacity:1;fill-rule:nonzero;stroke:none"
       id="path50" /><path
       d="m 53.732,417.329 32.689,0 0,22.59 -32.689,0 0,-22.59 z m 166.095,0 32.689,0 0,22.59 -32.689,0 0,-22.59 z m -17.668,88.038 -32.691,0 0,22.587 32.691,0 0,-22.587 z m -65.379,0 -32.689,0 0,22.587 32.689,0 0,-22.587 z m 98.95,44.016 0,21.432 -50.357,0 0,20.851 -64.496,0 0,-20.851 -49.034,0 0,-21.432 -16.786,0 0,-65.445 49.034,0 0,-21.433 -17.23,0 0,-22.586 32.691,0 0,22.586 16.786,0 0,-22.586 32.688,0 0,22.586 -32.246,0 0,21.433 32.686,0 0,-21.433 16.788,0 0,-22.586 32.69,0 0,22.586 -16.788,0 0,21.433 50.36,0 0,65.445 -16.786,0 z"
       style="fill:#ec1c24;fill-opacity:1;fill-rule:nonzero;stroke:none"
       id="path52" /><path
       d="m 227.491,253.485 -17.191,0 0,14.229 17.191,0 0,-14.229 z m -41.796,0 -17.192,0 0,14.229 17.192,0 0,-14.229 z m -41.796,0 -17.191,0 0,14.229 17.191,0 0,-14.229 z m -41.795,0 -17.192,0 0,14.229 17.192,0 0,-14.229 z m 151.77,5.336 0,14.824 -11.266,0 0,13.633 -15.413,0 0,14.228 -26.678,0 0,10.672 -84.779,0 0,-10.672 -29.047,0 0,-14.228 -14.823,0 0,-13.633 -13.634,0 0,-14.824 -14.823,0 0,-22.527 26.084,0 0,-18.38 16.008,0 0,-13.634 16.005,0 0,13.634 15.417,0 0,18.38 27.269,0 0,-18.38 29.645,0 0,18.38 24.897,0 0,-18.38 14.227,0 0,-13.634 16.008,0 0,13.634 17.194,0 0,18.38 24.9,0 0,22.527 -17.191,0 z"
       style="fill:#ec1c24;fill-opacity:1;fill-rule:nonzero;stroke:none"
       id="path54" /><path
       d="m 754.208,377.534 28.205,0 0,-28.205 -28.205,0 0,28.205 z"
       style="fill:#000000;fill-opacity:1;fill-rule:evenodd;stroke:none"
       id="path56" /><path
       d="m 870.347,377.534 28.206,0 0,-28.205 -28.206,0 0,28.205 z"
       style="fill:#000000;fill-opacity:1;fill-rule:evenodd;stroke:none"
       id="path58" /><path
       d="m 726.003,347.67 26.546,0 0,-26.546 -26.546,0 0,26.546 z"
       style="fill:#000000;fill-opacity:1;fill-rule:evenodd;stroke:none"
       id="path60" /><path
       d="m 754.208,347.67 28.205,0 0,-26.546 -28.205,0 0,26.546 z"
       style="fill:#000000;fill-opacity:1;fill-rule:evenodd;stroke:none"
       id="path62" /><path
       d="m 784.072,347.67 26.546,0 0,-26.546 -26.546,0 0,26.546 z"
       style="fill:#000000;fill-opacity:1;fill-rule:evenodd;stroke:none"
       id="path64" /><path
       d="m 812.277,347.67 26.546,0 0,-26.546 -26.546,0 0,26.546 z"
       style="fill:#000000;fill-opacity:1;fill-rule:evenodd;stroke:none"
       id="path66" /><path
       d="m 840.482,347.67 28.205,0 0,-26.546 -28.205,0 0,26.546 z"
       style="fill:#000000;fill-opacity:1;fill-rule:evenodd;stroke:none"
       id="path68" /><path
       d="m 870.347,347.67 28.206,0 0,-26.546 -28.206,0 0,26.546 z"
       style="fill:#000000;fill-opacity:1;fill-rule:evenodd;stroke:none"
       id="path70" /><path
       d="m 900.211,347.67 26.547,0 0,-26.546 -26.547,0 0,26.546 z"
       style="fill:#000000;fill-opacity:1;fill-rule:evenodd;stroke:none"
       id="path72" /><path
       d="m 697.797,319.465 26.547,0 0,-26.546 -26.547,0 0,26.546 z"
       style="fill:#000000;fill-opacity:1;fill-rule:evenodd;stroke:none"
       id="path74" /><path
       d="m 726.003,319.465 26.546,0 0,-26.546 -26.546,0 0,26.546 z"
       style="fill:#000000;fill-opacity:1;fill-rule:evenodd;stroke:none"
       id="path76" /><path
       d="m 784.072,319.465 26.546,0 0,-26.546 -26.546,0 0,26.546 z"
       style="fill:#000000;fill-opacity:1;fill-rule:evenodd;stroke:none"
       id="path78" /><path
       d="m 812.277,319.465 26.546,0 0,-26.546 -26.546,0 0,26.546 z"
       style="fill:#000000;fill-opacity:1;fill-rule:evenodd;stroke:none"
       id="path80" /><path
       d="m 840.482,319.465 28.205,0 0,-26.546 -28.205,0 0,26.546 z"
       style="fill:#000000;fill-opacity:1;fill-rule:evenodd;stroke:none"
       id="path82" /><path
       d="m 900.211,319.465 26.547,0 0,-26.546 -26.547,0 0,26.546 z"
       style="fill:#000000;fill-opacity:1;fill-rule:evenodd;stroke:none"
       id="path84" /><path
       d="m 928.417,319.465 26.546,0 0,-26.546 -26.546,0 0,26.546 z"
       style="fill:#000000;fill-opacity:1;fill-rule:evenodd;stroke:none"
       id="path86" /><path
       d="m 667.933,291.26 28.206,0 0,-28.206 -28.206,0 0,28.206 z"
       style="fill:#000000;fill-opacity:1;fill-rule:evenodd;stroke:none"
       id="path88" /><path
       d="m 697.797,291.26 26.547,0 0,-28.206 -26.547,0 0,28.206 z"
       style="fill:#000000;fill-opacity:1;fill-rule:evenodd;stroke:none"
       id="path90" /><path
       d="m 726.003,291.26 26.546,0 0,-28.206 -26.546,0 0,28.206 z"
       style="fill:#000000;fill-opacity:1;fill-rule:evenodd;stroke:none"
       id="path92" /><path
       d="m 754.208,291.26 28.205,0 0,-28.206 -28.205,0 0,28.206 z"
       style="fill:#000000;fill-opacity:1;fill-rule:evenodd;stroke:none"
       id="path94" /><path
       d="m 784.072,291.26 26.546,0 0,-28.206 -26.546,0 0,28.206 z"
       style="fill:#000000;fill-opacity:1;fill-rule:evenodd;stroke:none"
       id="path96" /><path
       d="m 812.277,291.26 26.546,0 0,-28.206 -26.546,0 0,28.206 z"
       style="fill:#000000;fill-opacity:1;fill-rule:evenodd;stroke:none"
       id="path98" /><path
       d="m 840.482,291.26 28.205,0 0,-28.206 -28.205,0 0,28.206 z"
       style="fill:#000000;fill-opacity:1;fill-rule:evenodd;stroke:none"
       id="path100" /><path
       d="m 870.347,291.26 28.206,0 0,-28.206 -28.206,0 0,28.206 z"
       style="fill:#000000;fill-opacity:1;fill-rule:evenodd;stroke:none"
       id="path102" /><path
       d="m 900.211,291.26 26.547,0 0,-28.206 -26.547,0 0,28.206 z"
       style="fill:#000000;fill-opacity:1;fill-rule:evenodd;stroke:none"
       id="path104" /><path
       d="m 928.417,291.26 26.546,0 0,-28.206 -26.546,0 0,28.206 z"
       style="fill:#000000;fill-opacity:1;fill-rule:evenodd;stroke:none"
       id="path106" /><path
       d="m 956.622,291.26 28.205,0 0,-28.206 -28.205,0 0,28.206 z"
       style="fill:#000000;fill-opacity:1;fill-rule:evenodd;stroke:none"
       id="path108" /><path
       d="m 667.933,261.395 28.206,0 0,-26.546 -28.206,0 0,26.546 z"
       style="fill:#000000;fill-opacity:1;fill-rule:evenodd;stroke:none"
       id="path110" /><path
       d="m 726.003,261.395 26.546,0 0,-26.546 -26.546,0 0,26.546 z"
       style="fill:#000000;fill-opacity:1;fill-rule:evenodd;stroke:none"
       id="path112" /><path
       d="m 754.208,261.395 28.205,0 0,-26.546 -28.205,0 0,26.546 z"
       style="fill:#000000;fill-opacity:1;fill-rule:evenodd;stroke:none"
       id="path114" /><path
       d="m 784.072,261.395 26.546,0 0,-26.546 -26.546,0 0,26.546 z"
       style="fill:#000000;fill-opacity:1;fill-rule:evenodd;stroke:none"
       id="path116" /><path
       d="m 812.277,261.395 26.546,0 0,-26.546 -26.546,0 0,26.546 z"
       style="fill:#000000;fill-opacity:1;fill-rule:evenodd;stroke:none"
       id="path118" /><path
       d="m 840.482,261.395 28.205,0 0,-26.546 -28.205,0 0,26.546 z"
       style="fill:#000000;fill-opacity:1;fill-rule:evenodd;stroke:none"
       id="path120" /><path
       d="m 870.347,261.395 28.206,0 0,-26.546 -28.206,0 0,26.546 z"
       style="fill:#000000;fill-opacity:1;fill-rule:evenodd;stroke:none"
       id="path122" /><path
       d="m 900.211,261.395 26.547,0 0,-26.546 -26.547,0 0,26.546 z"
       style="fill:#000000;fill-opacity:1;fill-rule:evenodd;stroke:none"
       id="path124" /><path
       d="m 956.622,261.395 28.205,0 0,-26.546 -28.205,0 0,26.546 z"
       style="fill:#000000;fill-opacity:1;fill-rule:evenodd;stroke:none"
       id="path126" /><path
       d="m 667.933,233.189 28.206,0 0,-28.205 -28.206,0 0,28.205 z"
       style="fill:#000000;fill-opacity:1;fill-rule:evenodd;stroke:none"
       id="path128" /><path
       d="m 726.003,233.189 26.546,0 0,-28.205 -26.546,0 0,28.205 z"
       style="fill:#000000;fill-opacity:1;fill-rule:evenodd;stroke:none"
       id="path130" /><path
       d="m 900.211,233.189 26.547,0 0,-28.205 -26.547,0 0,28.205 z"
       style="fill:#000000;fill-opacity:1;fill-rule:evenodd;stroke:none"
       id="path132" /><path
       d="m 956.622,233.189 28.205,0 0,-28.205 -28.205,0 0,28.205 z"
       style="fill:#000000;fill-opacity:1;fill-rule:evenodd;stroke:none"
       id="path134" /><path
       d="m 754.208,204.984 28.205,0 0,-28.205 -28.205,0 0,28.205 z"
       style="fill:#000000;fill-opacity:1;fill-rule:evenodd;stroke:none"
       id="path136" /><path
       d="m 870.347,204.984 28.206,0 0,-28.205 -28.206,0 0,28.205 z"
       style="fill:#000000;fill-opacity:1;fill-rule:evenodd;stroke:none"
       id="path138" /><path
       d="m 754.13,483.275 28.458,0 0,26.585 -28.458,0 0,-26.585 z m 0,-59.178 28.458,0 0,29.142 -28.458,0 0,-29.142 z m 0,87.383 28.458,0 0,28.335 -28.458,0 0,-28.335 z m -28.205,-57.444 26.799,0 0,27.619 -26.799,0 0,-27.619 z m 28.205,115.42 28.458,0 0,26.805 -28.458,0 0,-26.805 z m 0,28.24 28.458,0 0,28.371 -28.458,0 0,-28.371 z m 58.069,-1.435 0,-26.805 26.864,0 0,26.805 m -55.069,-55.008 26.799,0 0,26.767 -26.799,0 0,-26.767 z m 0,28.203 26.799,0 0,26.805 -26.799,0 0,-26.805 z m 0,-57.976 26.799,0 0,28.335 -26.799,0 0,-28.335 z m 0,-28.205 26.799,0 0,26.585 -26.799,0 0,-26.585 z m -116.139,0 28.458,0 0,26.585 -28.458,0 0,-26.585 z m 0,-29.239 28.458,0 0,27.619 -28.458,0 0,-27.619 z m 0,57.444 28.458,0 0,28.335 -28.458,0 0,-28.335 z m 58.07,-28.205 26.799,0 0,26.585 -26.799,0 0,-26.585 z m 86.274,57.978 26.864,0 0,26.767 -26.864,0 0,-26.767 z m -86.274,28.203 26.799,0 0,26.805 -26.799,0 0,-26.805 z m 0,-57.976 26.799,0 0,28.335 -26.799,0 0,-28.335 z m 0,29.773 26.799,0 0,26.767 -26.799,0 0,-26.767 z m -28.205,0 26.799,0 0,26.767 -26.799,0 0,-26.767 z m 0,-29.773 26.799,0 0,28.335 -26.799,0 0,-28.335 z m 258.892,-57.444 28.318,0 0,27.619 -28.318,0 0,-27.619 z m -28.344,87.217 26.935,0 0,26.767 -26.935,0 0,-26.767 z m 0,-29.773 26.935,0 0,28.335 -26.935,0 0,-28.335 z m -116.069,0 26.864,0 0,28.335 -26.864,0 0,-28.335 z m 87.864,-28.205 26.799,0 0,26.585 -26.799,0 0,-26.585 z m 0,-29.239 26.799,0 0,27.619 -26.799,0 0,-27.619 z m 56.549,57.444 28.318,0 0,28.335 -28.318,0 0,-28.335 z m -56.549,29.773 26.799,0 0,26.767 -26.799,0 0,-26.767 z m 56.549,-57.978 28.318,0 0,26.585 -28.318,0 0,-26.585 z m -56.549,28.205 26.799,0 0,28.335 -26.799,0 0,-28.335 z m -59.59,57.976 28.455,0 0,26.805 -28.455,0 0,-26.805 z m 0,-28.203 28.455,0 0,26.767 -28.455,0 0,-26.767 z m 0,-57.978 28.455,0 0,26.585 -28.455,0 0,-26.585 z m 0,28.205 28.455,0 0,28.335 -28.455,0 0,-28.335 z m -28.274,-28.205 26.864,0 0,26.585 -26.864,0 0,-26.585 z m 87.864,86.181 26.799,0 0,26.805 -26.799,0 0,-26.805 z m -29.726,-145.359 28.319,0 0,29.142 -28.319,0 0,-29.142 z m 0,59.178 28.319,0 0,26.585 -28.319,0 0,-26.585 z m 0,86.181 28.319,0 0,26.805 -28.319,0 0,-26.805 z m 0,28.24 28.319,0 0,28.371 -28.319,0 0,-28.371 z m 0,-86.216 28.319,0 0,28.335 -28.319,0 0,-28.335 z"
       style="fill:#ec1c24;fill-opacity:1;fill-rule:nonzero;stroke:none"
       id="path140" /><g
       id="g142"
       transform="translate(526.3496,263.9795)"><path
         d="m 0,0 0,13.074 -50.981,0 0,22.484 -14.908,0 0,13.597 -14.639,0 0,-13.597 -14.902,0 0,-22.484 -50.984,0 0,-13.074 -10.981,0 0,-60.655 168.376,0 L 10.981,0 0,0 z"
         style="fill:#231f20;fill-opacity:1;fill-rule:nonzero;stroke:none"
         id="path144" /></g></g></svg>