<?xml version="1.0" encoding="UTF-8" standalone="no"?>
<svg
   xmlns:dc="http://purl.org/dc/elements/1.1/"
   xmlns:cc="http://creativecommons.org/ns#"
   xmlns:rdf="http://www.w3.org/1999/02/22-rdf-syntax-ns#"
   xmlns:svg="http://www.w3.org/2000/svg"
   xmlns="http://www.w3.org/2000/svg"
   xmlns:sodipodi="http://sodipodi.sourceforge.net/DTD/sodipodi-0.dtd"
   xmlns:inkscape="http://www.inkscape.org/namespaces/inkscape"
   width="354.33069"
   height="354.33069"
   id="svg2543"
   sodipodi:version="0.32"
   inkscape:version="0.48.3.1 r9886"
   inkscape:output_extension="org.inkscape.output.svg.inkscape"
   sodipodi:docname="chaospferd.svg"
   version="1.1">
  <metadata
     id="metadata2570">
    <rdf:RDF>
      <cc:Work
         rdf:about="">
        <dc:format>image/svg+xml</dc:format>
        <dc:type
           rdf:resource="http://purl.org/dc/dcmitype/StillImage" />
      </cc:Work>
    </rdf:RDF>
  </metadata>
  <defs
     id="defs2568">
    <inkscape:perspective
       sodipodi:type="inkscape:persp3d"
       inkscape:vp_x="-50 : 600 : 1"
       inkscape:vp_y="0 : 1000 : 0"
       inkscape:vp_z="700 : 600 : 1"
       inkscape:persp3d-origin="300 : 400 : 1"
       id="perspective2572" />
  </defs>
  <sodipodi:namedview
     inkscape:window-height="886"
     inkscape:window-width="1680"
     inkscape:pageshadow="2"
     inkscape:pageopacity="0.0"
     guidetolerance="10.0"
     gridtolerance="10.0"
     objecttolerance="10.0"
     borderopacity="1.0"
     bordercolor="#666666"
     pagecolor="#ffffff"
     id="base"
     showgrid="false"
     inkscape:zoom="1.941689"
     inkscape:cx="177.16534"
     inkscape:cy="177.16534"
     inkscape:window-x="0"
     inkscape:window-y="27"
     inkscape:current-layer="svg2543"
     inkscape:window-maximized="1"
     inkscape:document-units="mm"
     units="mm" />
  <path
     inkscape:connector-curvature="0"
     style="fill:#131516;fill-opacity:1;fill-rule:evenodd;stroke:none"
     d="m 168.48733,349.81562 -0.98682,-0.10728 -1.00827,-0.0859 -1.00827,-0.10727 -0.98682,-0.10728 -1.00827,-0.10727 -0.98683,-0.0858 -1.00827,-0.10728 -0.98682,-0.0859 -1.00827,-0.10727 -0.98683,-0.0858 -0.98681,-0.10727 -1.00827,-0.0859 -0.98682,-0.0858 -0.98682,-0.10727 -0.98682,-0.0859 -3.08917,-0.5578 -3.06772,-0.57924 -3.00337,-0.62216 -2.98191,-0.64364 -2.93901,-0.68651 -2.8961,-0.72943 -1.45878,-0.36475 -1.43732,-0.38617 -1.43733,-0.38617 -1.41587,-0.40761 -1.43732,-0.42909 -1.41587,-0.40761 -1.41588,-0.45053 -1.39441,-0.42909 -1.41587,-0.47197 -1.39443,-0.47202 -1.41586,-0.47196 -1.39442,-0.49344 -1.39443,-0.49345 -1.39441,-0.51488 -1.39442,-0.53638 -1.39443,-0.53637 -1.41586,-0.5578 -1.39442,-0.5578 -1.39442,-0.57923 -1.39442,-0.60073 -2.29543,-1.13704 -1.80202,-0.87962 -1.50168,-0.75092 -1.35151,-0.68651 -1.37297,-0.72942 -1.566044,-0.81527 -1.90928,-1.02977 -2.445595,-1.30872 -2.059448,-1.28724 -2.037999,-1.28722 -2.016544,-1.30872 -1.973639,-1.30867 -1.952185,-1.35163 -1.909281,-1.33016 -1.909287,-1.37302 -1.866372,-1.37307 -1.866377,-1.41594 -1.823473,-1.39451 -1.823473,-1.43742 -1.802018,-1.45892 -1.780563,-1.45886 -1.759115,-1.48029 -1.737658,-1.50178 -1.73766,-1.52327 -2.188166,-2.25263 -1.71621,-1.75926 -1.394416,-1.45886 -1.201352,-1.2658 -1.17989,-1.26579 -1.265704,-1.41594 -1.544588,-1.71633 -1.930732,-2.16685 -1.308608,-1.6949 -1.287158,-1.69484 -1.24425,-1.69484 -1.24425,-1.69489 -1.201345,-1.69484 -1.179896,-1.6949 -1.158442,-1.69484 -1.115532,-1.6949 -1.115535,-1.69483 -1.072627,-1.71633 -1.072634,-1.6949 -1.029724,-1.71632 -0.98682,-1.73777 -0.98682,-1.73775 -0.965365,-1.73777 -0.922461,-1.75924 -0.643576,-1.41594 -0.622128,-1.41599 -0.643577,-1.41595 -0.622128,-1.3945 -0.622121,-1.416 -0.622127,-1.41593 -0.622129,-1.416 -0.622121,-1.41593 -0.49341,-1.50179 -0.49341,-1.50177 -0.49341,-1.50179 -0.471961,-1.48034 -0.4505,-1.50178 -0.450506,-1.48035 -0.450506,-1.48029 -0.429051,-1.48034 -0.429051,-1.45887 -0.386148,-1.48034 -0.407602,-1.45887 -0.364692,-1.45885 -0.386148,-1.43743 -0.343242,-1.43742 -0.343238,-1.43743 -0.321794,-1.43743 -0.278878,-1.95231 -0.257436,-1.71626 -0.214526,-1.50184 -0.19307,-1.3301 -0.171621,-1.1371 -0.150168,-1.00832 -0.107262,-0.90106 -0.107263,-0.79379 -0.08581,-0.72948 -0.08581,-0.66507 -0.06436,-0.66509 -0.06436,-0.64358 -0.08581,-0.66508 -0.06436,-0.72943 -0.06436,-0.79378 -0.08581,-0.87963 -1.179887,-29.90688 -1.029724,-26.21682 -0.901011,-22.84846 -0.77229,-19.78061 -0.686488,-17.012754 -0.557769,-14.567269 -0.49341,-12.378982 -0.407596,-10.533891 -0.343243,-8.989246 -0.278884,-7.723447 -0.25743,-6.800902 -0.214526,-6.135825 -0.214525,-5.792628 -0.193077,-5.771082 -0.214525,-6.028607 -0.214526,-6.6078427 20.85193,0 20.851922,0 20.85193,0 20.830476,0 20.851929,0 20.85194,0 20.85192,0 20.85193,0 20.85192,0 20.85194,0 20.85193,0 20.83047,0 20.85193,0 20.85192,0 20.85194,0 20.85192,0 -0.51486,13.1513307 -0.51486,13.151275 -0.51486,13.172764 -0.53632,13.151332 -0.51486,13.151275 -0.51486,13.151331 -0.51486,13.151276 -0.51486,13.151342 -0.51488,13.15127 -0.51486,13.17277 -0.51486,13.15132 -0.53631,13.15129 -0.51486,13.15132 -0.51486,13.15127 -0.51487,13.15134 -0.51486,13.17276 -0.21452,1.50178 -0.21453,1.50178 -0.21452,1.50178 -0.21454,1.52321 -0.19307,1.50178 -0.21453,1.52328 -0.21452,1.5232 -0.21453,1.52321 -0.51486,2.2527 -0.53631,2.23121 -0.55777,2.23121 -0.60067,2.23122 -0.64358,2.2312 -0.64357,2.20978 -0.6865,2.20978 -0.72938,2.20977 -0.72939,2.18829 -0.79375,2.20978 -0.79374,2.18829 -0.83665,2.18829 -0.87957,2.16685 -0.901,2.18834 -0.92246,2.16686 -0.96537,2.16686 -0.72938,1.30866 -0.7294,1.33015 -0.72939,1.30872 -0.72938,1.3301 -0.72939,1.33016 -0.72939,1.33014 -0.72938,1.33016 -0.7294,1.33015 -0.83665,1.28723 -0.8581,1.28723 -0.8581,1.2658 -0.85811,1.24437 -0.87956,1.24431 -0.87955,1.22288 -0.87956,1.20145 -0.90101,1.22287 -0.901,1.17996 -0.92248,1.17996 -0.92246,1.17996 -0.9439,1.15852 -0.94392,1.15852 -0.94391,1.13705 -0.96538,1.13709 -0.96536,1.13704 -0.98682,1.1156 -0.98681,1.1156 -1.00828,1.09418 -1.00828,1.1156 -1.02972,1.07268 -1.02972,1.09418 -1.02972,1.07268 -1.05119,1.07275 -1.07263,1.07268 -1.07263,1.05124 -1.07262,1.0727 -1.09409,1.05124 -2.20962,2.08102 -2.27398,2.08106 -1.45877,1.07269 -1.43732,1.09417 -1.45877,1.09418 -1.43734,1.1156 -1.43732,1.09411 -1.43732,1.09418 -1.43733,1.1156 -1.43732,1.09417 -2.31689,1.45887 -2.33833,1.43742 -2.31688,1.39451 -2.33833,1.37307 -2.35979,1.3301 -2.33833,1.30872 -2.38124,1.2658 -2.35978,1.24431 -2.38125,1.22287 -2.40268,1.17997 -2.4027,1.15852 -2.42413,1.11561 -2.44561,1.09417 -2.44559,1.05124 -2.46705,1.02977 -2.4885,0.9869 -2.14526,0.68651 -2.14526,0.66507 -2.12381,0.62222 -2.14526,0.62215 -2.12381,0.60072 -2.1238,0.57924 -2.12382,0.55781 -2.1238,0.53636 -2.12381,0.51488 -2.12381,0.49345 -2.12381,0.47196 -2.1238,0.45053 -2.12381,0.42909 -2.10236,0.40762 -2.1238,0.38617 -2.12381,0.38618 -2.03799,0.21454 -2.03801,0.19312 -2.03799,0.17163 -2.038,0.15013 -2.03799,0.1502 -2.03801,0.1287 -2.01654,0.10728 -2.038,0.0859 -2.01654,0.0858 -2.01654,0.0644 -2.01655,0.0644 -2.01654,0.0431 -2.01655,0.0431 -1.99509,0.0213 -2.01655,0.0213 -1.99508,0.0213 z"
     id="path2545" />
  <path
     inkscape:connector-curvature="0"
     style="fill:#fcdb00;fill-opacity:1;fill-rule:evenodd;stroke:none"
     d="m 170.39661,342.2638 -1.58749,-0.12876 -1.41588,-0.10722 -1.22279,-0.0859 -1.11553,-0.0859 -0.98682,-0.0858 -0.90101,-0.0644 -0.83666,-0.0644 -0.81519,-0.0859 -0.8152,-0.0859 -0.8152,-0.0644 -0.8581,-0.10727 -0.94393,-0.0858 -1.00826,-0.1287 -1.15844,-0.10728 -1.28716,-0.15019 -1.80202,-0.32182 -1.78056,-0.34325 -1.75912,-0.34326 -1.73766,-0.34325 -1.73765,-0.36474 -1.71622,-0.38617 -1.69475,-0.38619 -1.6733,-0.38617 -1.67331,-0.40761 -1.65185,-0.42909 -1.65185,-0.4291 -1.6304,-0.45052 -1.63039,-0.47196 -1.60895,-0.47203 -1.60894,-0.47196 -1.60894,-0.51488 -1.5875,-0.51493 -1.60895,-0.53632 -1.56603,-0.53637 -1.5875,-0.57924 -1.58749,-0.57929 -1.56604,-0.57923 -1.5875,-0.62215 -1.56603,-0.62222 -1.56604,-0.64359 -1.5875,-0.66507 -1.56604,-0.68651 -1.58748,-0.68656 -1.56605,-0.72944 -1.58749,-0.72942 -1.60895,-0.75092 -1.58749,-0.77229 -0.94391,-0.51495 -0.94392,-0.51488 -0.943915,-0.51488 -0.943915,-0.53636 -0.922461,-0.51488 -0.943911,-0.51488 -0.943916,-0.51495 -0.943915,-0.51488 -1.54459,-0.96541 -1.501678,-0.9869 -1.48023,-0.9869 -1.458781,-0.98683 -1.458775,-0.98691 -1.415871,-1.00833 -1.394417,-0.98689 -1.372967,-1.02983 -1.372967,-1.00832 -1.330063,-1.02976 -1.330063,-1.05126 -1.308608,-1.02982 -1.287154,-1.07268 -1.287158,-1.05126 -1.265699,-1.09416 -1.244255,-1.09412 -1.24425,-1.09417 -1.2228,-1.11561 -1.201346,-1.11561 -1.201345,-1.15852 -1.201345,-1.13703 -1.179891,-1.18002 -1.179891,-1.17995 -1.179896,-1.20139 -1.158442,-1.22289 -1.158441,-1.22287 -1.158436,-1.24437 -1.136992,-1.26574 -1.158437,-1.2873 -1.136991,-1.30866 -1.136988,-1.33015 -1.136986,-1.33015 -0.686481,-0.94398 -0.686486,-0.94398 -0.686481,-0.94397 -0.686486,-0.94398 -0.665032,-0.94398 -0.68648,-0.94398 -0.686487,-0.94397 -0.68648,-0.9225 -1.201346,-1.95235 -1.179891,-1.93083 -1.136992,-1.93088 -1.094083,-1.90938 -1.051173,-1.90944 -1.029729,-1.93082 -0.98682,-1.90944 -0.965362,-1.9094 -0.943917,-1.90938 -0.901005,-1.93088 -0.901012,-1.93088 -0.858103,-1.9523 -0.858102,-1.95231 -0.836653,-1.99523 -0.815199,-1.99522 -0.793749,-2.01667 -0.364692,-1.33016 -0.343243,-1.30871 -0.343238,-1.28723 -0.343244,-1.26575 -0.343242,-1.26579 -0.343243,-1.24438 -0.321789,-1.22287 -0.321789,-1.24432 -0.321787,-1.22287 -0.300334,-1.22288 -0.30034,-1.20145 -0.300333,-1.22287 -0.278885,-1.2014 -0.278884,-1.22287 -0.257435,-1.22288 -0.25743,-1.22288 -0.171621,-1.30872 -0.171621,-1.30867 -0.150168,-1.30871 -0.171621,-1.28724 -0.150166,-1.30866 -0.150168,-1.28729 -0.150166,-1.30866 -0.150172,-1.28723 -0.493411,-12.57197 -0.514859,-12.57205 -0.49341,-12.5506 -0.514865,-12.57204 -0.514859,-12.57204 -0.49341,-12.57205 -0.514864,-12.5506 -0.49341,-12.57204 -0.49341,-12.57205 -0.514865,-12.57204 -0.493405,-12.550608 -0.49341,-12.57204 -0.514864,-12.572041 -0.49341,-12.57204 -0.49341,-12.550609 -0.49341,-12.572041 19.88656,0 19.886561,0 19.88656,0 19.86511,0 19.886567,0 19.88656,0 19.88656,0 19.88656,0 19.88656,0 19.88656,0 19.88656,0 19.88656,0 19.88657,0 19.86511,0 19.88655,0 19.88657,0 -0.49341,12.464767 -0.4934,12.464766 -0.49342,12.443335 -0.49341,12.464767 -0.49341,12.464766 -0.49341,12.464767 -0.49341,12.464831 -0.49341,12.44327 -0.49341,12.46483 -0.47195,12.46477 -0.49341,12.46476 -0.49342,12.46477 -0.49341,12.44334 -0.47196,12.46476 -0.49341,12.46477 -0.47195,12.46476 -0.15017,1.5447 -0.17162,1.5447 -0.17162,1.52322 -0.19307,1.50177 -0.21453,1.52327 -0.21452,1.48029 -0.23598,1.50179 -0.25743,1.48034 -0.25743,1.45886 -0.27889,1.48034 -0.30033,1.45887 -0.30035,1.43742 -0.34324,1.45886 -0.34324,1.43743 -0.36469,1.43743 -0.3647,1.43742 -0.4076,1.43738 -0.40759,1.43742 -0.42905,1.416 -0.42905,1.43742 -0.47196,1.41594 -0.47196,1.43742 -0.49342,1.41595 -0.51486,1.41599 -0.53631,1.43743 -0.55777,1.43742 -0.55776,1.41594 -0.57922,1.43742 -0.62213,1.43744 -0.62212,1.43742 -0.64359,1.45886 -0.64358,1.43742 -0.92246,1.71634 -0.9439,1.69483 -0.92247,1.67341 -0.94392,1.65197 -0.96537,1.63049 -0.96536,1.63048 -1.00827,1.58763 -0.98682,1.60905 -1.02973,1.58757 -1.02972,1.58762 -1.07263,1.56613 -1.07263,1.58762 -1.11554,1.56613 -1.13698,1.58757 -1.15844,1.58762 -1.17989,1.58762 -1.35152,1.58756 -1.35151,1.54471 -1.37297,1.52321 -1.39443,1.50178 -1.39441,1.48034 -1.39442,1.45887 -1.43732,1.41599 -1.41588,1.41594 -1.45877,1.37307 -1.43732,1.37302 -1.48024,1.33015 -1.48022,1.33016 -1.50168,1.28723 -1.50169,1.26579 -1.52313,1.26581 -1.54458,1.22287 -1.56605,1.22289 -1.56604,1.20144 -1.58749,1.17996 -1.5875,1.15852 -1.63039,1.13704 -1.6304,1.11561 -1.65185,1.1156 -1.6733,1.07268 -1.67331,1.07274 -1.71621,1.07268 -1.7162,1.02983 -1.73767,1.02976 -1.78056,1.00833 -1.75912,0.9869 -1.80201,0.9869 -1.82347,0.9654 -1.9951,0.90107 -2.01654,0.87962 -1.9951,0.8367 -1.99508,0.8367 -2.01655,0.81528 -1.99509,0.79378 -2.01654,0.77235 -1.9951,0.75092 -2.01654,0.72943 -2.01655,0.70794 -2.01654,0.68656 -2.01655,0.64358 -2.01654,0.64366 -2.01655,0.60072 -2.03799,0.57923 -2.03799,0.5578 -1.88784,0.40761 -1.90927,0.38617 -1.88784,0.38618 -1.88782,0.34331 -1.86639,0.34326 -1.88782,0.30033 -1.86638,0.30033 -1.86637,0.30039 -1.86638,0.25747 -1.84493,0.25741 -1.86637,0.23598 -1.86637,0.23604 -1.84493,0.2145 -1.86637,0.21454 -1.84494,0.19312 -1.86637,0.19306 -0.98682,0.0213 -0.98681,0.0213 -0.98683,0 -0.98681,0.0213 -0.98682,0.0213 -0.96537,0.0213 -0.98683,0.0213 -0.98682,0.0213 -0.96536,0.0213 -0.98682,0.0213 -0.98681,0.0213 -0.96538,0.0213 -0.98681,0.0213 -0.96537,0.0213 -0.98682,0.0213 -0.96536,0.0213 z"
     id="path2547" />
  <!-- EMR_GDICOMMENT -->
  <!-- EMR_SETMAPMODE -->
  <!-- EMR_SETVIEWPORTEXTEX -->
  <!-- EMR_SETWINDOWEXTEX -->
  <!-- EMR_SETWINDOWEXTEX -->
  <!-- EMR_SETWINDOWEXTEX -->
  <!-- EMR_SETWINDOWEXTEX -->
  <path
     style="fill:#131516;fill-opacity:1;fill-rule:evenodd;stroke:none"
     d="m 211.02505,324.81497 -1.78056,-0.4291 -1.71621,-0.45054 -1.6733,-0.49344 -1.65186,-0.49339 -1.58749,-0.53637 -1.56603,-0.5578 -1.5446,-0.5793 0.0859,-0.32177 0.12871,-0.34331 0.12872,-0.34325 0.17162,-0.34325 0.21452,-0.34326 0.21453,-0.36474 0.25743,-0.34325 0.27888,-0.36469 0.27888,-0.36475 0.30034,-0.36468 0.34324,-0.36474 0.34324,-0.36475 0.70794,-0.72942 0.75083,-0.72943 0.77231,-0.708 0.79374,-0.68651 0.77229,-0.66507 0.77229,-0.62216 1.39442,-1.15853 1.15845,-0.94397 0.55776,-1.50179 0.49341,-1.28723 0.4076,-1.05124 0.38615,-0.87963 0.17162,-0.36469 0.17162,-0.34325 0.17162,-0.2789 0.19307,-0.2789 0.17162,-0.21455 0.19307,-0.21455 0.21453,-0.17163 0.21452,-0.15019 0.23598,-0.12871 0.25744,-0.10727 0.30034,-0.10727 0.30033,-0.0859 0.34325,-0.0644 0.36469,-0.0644 0.4076,-0.0644 0.42905,-0.0644 1.00827,-0.10727 1.20136,-0.15019 1.39441,-0.17163 1.6304,-0.25747 0.96536,-0.64358 0.96537,-0.66508 0.96537,-0.66508 0.98682,-0.64364 0.96536,-0.66508 0.96537,-0.66507 0.98682,-0.66509 0.98682,-0.64358 1.15844,-0.45053 1.15844,-0.45053 1.11554,-0.49344 1.11553,-0.51494 1.11554,-0.53632 1.11553,-0.5578 1.09409,-0.5578 1.09408,-0.57929 0.49341,-0.42904 0.42905,-0.45053 0.4505,-0.47202 0.42905,-0.47196 0.47196,-0.49345 0.49341,-0.51493 0.53632,-0.5578 0.60068,-0.57924 1.41586,-1.09417 1.54459,-1.11561 1.5875,-1.17996 1.58749,-1.20144 0.79374,-0.60067 0.79375,-0.62221 0.77229,-0.64359 0.75085,-0.64364 0.70793,-0.64359 0.70793,-0.66507 0.64358,-0.68658 0.60067,-0.6865 0.4076,-0.32182 0.3647,-0.32182 0.34325,-0.32177 0.27888,-0.34331 0.25743,-0.36468 0.21452,-0.36475 0.19307,-0.36469 0.15018,-0.38617 0.12871,-0.38618 0.10726,-0.38617 0.0644,-0.38618 0.0429,-0.4076 0,-0.40766 0,-0.38619 -0.0429,-0.4076 -0.0429,-0.40761 -0.0858,-0.40766 -0.10727,-0.38618 -0.10726,-0.4076 -0.12871,-0.38618 -0.17162,-0.4076 -0.15017,-0.38619 -0.19307,-0.36474 -0.19308,-0.38617 -0.19307,-0.36469 -0.23598,-0.34325 -0.21452,-0.36474 -0.23598,-0.32182 -0.23598,-0.34326 -0.25743,-0.30034 -0.25744,-0.30039 -0.25743,-0.30033 -0.70794,-0.49345 -0.70793,-0.45052 -0.70793,-0.45053 -0.70794,-0.45053 -1.41588,-0.81528 -1.37296,-0.79378 -1.39441,-0.75091 -1.37297,-0.75086 -1.39443,-0.70801 -1.39441,-0.72942 -1.39442,-1.28723 -1.39442,-1.28724 -1.37297,-1.28723 -1.37296,-1.28729 -1.33007,-1.30866 -1.33006,-1.28724 -1.30861,-1.30871 -1.28715,-1.33015 -1.24425,-1.30867 -1.24426,-1.33015 -1.20134,-1.35159 -1.1799,-1.33015 -1.15844,-1.37307 -1.11552,-1.37307 -1.09409,-1.37303 -1.05117,-1.39455 -0.42906,-1.15847 -0.4076,-1.1371 -0.32179,-1.1156 -0.27888,-1.09418 -0.21453,-1.07268 -0.17162,-1.05125 -0.12872,-1.05125 -0.0644,-1.00833 -0.0429,-1.00833 0.0214,-0.9869 0.0858,-0.98684 0.10727,-0.94398 0.15016,-0.96547 0.19307,-0.92248 0.21453,-0.92255 0.27888,-0.92255 0.30034,-0.90105 0.34324,-0.90106 0.3647,-0.87963 0.40759,-0.87962 0.42905,-0.87956 0.45052,-0.87963 0.49341,-0.85819 0.51486,-0.85814 0.51486,-0.85819 0.55776,-0.85814 0.57923,-0.85813 0.60067,-0.85819 1.24425,-1.71633 1.30861,-1.71632 0,-0.32177 0,-0.32183 0,-0.32182 0,-0.2789 -0.60067,-0.30033 -0.36469,-0.1502 -0.17162,-0.0431 -0.17163,0 -0.19307,-0.0213 -0.25744,0 -1.05118,1.26579 -0.98681,1.22289 -0.92246,1.20138 -0.8581,1.15854 -0.40761,0.60072 -0.38615,0.57923 -0.36469,0.57929 -0.36469,0.57923 -0.3647,0.5793 -0.32179,0.57923 -0.32179,0.60072 -0.32178,0.57924 -0.30034,0.62215 -0.27888,0.60073 -0.25744,0.62216 -0.27887,0.6222 -0.23598,0.64359 -0.23598,0.64365 -0.23598,0.66508 -0.21453,0.6865 -0.19307,0.68651 -0.19309,0.70799 -0.17161,0.72944 -0.17162,0.75092 -0.17162,0.77234 -0.15017,0.79378 -0.15017,0.81528 -0.12871,0.8367 -1.35152,-0.21455 -1.33005,-0.21454 -1.35153,-0.21455 -1.33005,-0.21455 -1.35152,-0.21454 -1.33005,-0.2145 -1.33007,-0.21454 -1.35151,-0.19313 -1.33006,-0.21454 -1.35152,-0.21455 -1.33006,-0.21449 -1.33006,-0.21455 -1.33007,-0.21455 -1.33006,-0.21455 -1.33006,-0.21454 -1.33005,-0.19306 -4.20471,-1.00833 -4.22616,-1.02982 -2.10237,-0.53637 -2.10234,-0.53631 -2.08091,-0.5578 -2.10236,-0.5793 -2.0809,-0.60067 -2.10235,-0.62221 -2.05946,-0.62215 -2.0809,-0.64359 -2.05944,-0.68657 -2.03801,-0.68651 -2.03798,-0.70799 -2.03801,-0.75086 -1.99509,-0.75093 -2.01655,-0.79378 -1.97363,-0.8367 -1.97365,-0.8367 -1.95218,-0.87963 -1.93073,-0.92254 -1.90929,-0.92249 -1.88782,-0.9869 -1.86638,-1.00833 -1.86638,-1.02981 -1.82346,-1.09412 -1.80203,-1.11561 -1.78056,-1.15853 -1.73766,-1.20144 -1.73766,-1.22287 -1.69475,-1.28724 -0.0214,-0.2789 -0.0215,-0.2789 0,-0.25747 0.0215,-0.2789 0.0214,-0.25741 0.0214,-0.25747 0.0644,-0.25747 0.0429,-0.25742 0.15017,-0.51488 0.19307,-0.49345 0.19307,-0.47201 0.23598,-0.49345 0.53632,-0.94398 0.57922,-0.94398 0.57921,-0.94397 0.53632,-0.96541 0.30034,-0.85814 0.21452,-0.68656 0.19307,-0.5578 0.15017,-0.51488 0.12872,-0.51489 0.15016,-0.60072 0.17162,-0.72943 0.19309,-0.94398 -0.0429,-0.0859 -0.0644,-0.0858 -0.0644,-0.0644 -0.0857,-0.0644 -0.19307,-0.0644 -0.17163,-0.0431 -0.32179,0.0213 -0.17162,0 -0.94392,1.97379 -0.87955,1.86647 -0.4505,0.90111 -0.42905,0.85814 -0.47196,0.87962 -0.47196,0.8367 -0.49341,0.83671 -0.51487,0.81527 -0.55776,0.81521 -0.57922,0.81528 -0.62213,0.79378 -0.68648,0.81527 -0.70793,0.79378 -0.79375,0.81528 -1.67331,0.0431 -1.69475,-0.0213 -1.6733,-0.0859 -1.67331,-0.15014 -1.65184,-0.21454 -1.65186,-0.25747 -1.65184,-0.30033 -1.65185,-0.34331 -1.65186,-0.36469 -1.63039,-0.4291 -1.65186,-0.45053 -1.63039,-0.47196 -1.6304,-0.49345 -1.6304,-0.51493 -1.6304,-0.51488 -1.60894,-0.53631 -3.239347,-1.09418 -3.239344,-1.07268 -1.608941,-0.53637 -1.630397,-0.51489 -1.608947,-0.49345 -1.608943,-0.47201 -1.630401,-0.42904 -1.608943,-0.4291 -1.608948,-0.36474 -1.608941,-0.34325 -1.630402,-0.30034 -1.608942,-0.23598 -1.630397,-0.19312 -1.630402,-0.15019 -0.278879,0.2789 -0.278885,0.2789 0.107264,1.65198 0.107263,1.45885 0.08581,1.26581 0.08581,1.13708 0.06435,0.98685 0.06436,0.90106 0.06436,0.81527 0.06436,0.75092 0.06436,0.70794 0.06436,0.708 0.06435,0.70799 0.06436,0.75086 0.08581,0.79384 0.107263,0.85814 0.107262,0.98689 0.128712,1.09413 0.622128,-0.62217 0.622127,-0.66507 0.643577,-0.66508 0.643577,-0.64358 0.343243,-0.2789 0.364692,-0.2789 0.364693,-0.23598 0.386147,-0.21455 0.193077,-0.10728 0.19307,-0.0859 0.214525,-0.0644 0.214526,-0.0859 0.214531,-0.0431 0.214526,-0.0431 0.235975,-0.0431 0.23598,0 0,0.81527 0,0.81527 0.02143,0.8367 0.02143,0.81522 0,0.83676 0.02143,0.81522 0.02143,0.81526 0.04292,0.83671 0.278883,-0.0859 0.257431,-0.0644 0.214525,-0.0431 0.23598,-0.0213 0.643577,-0.0213 1.051179,0.0431 0.04292,0.45053 0.02143,0.42909 -0.02143,0.47202 -0.06436,0.45053 -0.06436,0.47196 -0.107263,0.49345 -0.107263,0.47196 -0.128717,0.47202 -0.300334,0.96541 -0.321788,0.96547 -0.343243,0.9654 -0.300334,0.92255 0.128712,0 0.107263,-0.0213 0.107263,-0.0213 0.107262,-0.0431 0.214526,-0.10727 0.214531,-0.12876 0.429051,-0.32177 0.471955,-0.36475 0.235981,-0.17163 0.257429,-0.17162 0.278885,-0.1502 0.300333,-0.15019 0.321794,-0.0858 0.364693,-0.0859 0.19307,0 0.193077,-0.0213 0.193071,0 0.214526,0.0213 0,0.96547 0,0.94398 -0.02143,0.92249 -0.02143,0.94397 -0.02143,0.94398 -0.06436,0.94398 -0.08581,0.96547 -0.08581,0.96541 0.23598,0.34325 0.235975,0.38617 0.235981,0.4291 0.257429,0.49345 0.235981,0.51489 0.235979,0.53636 0.214526,0.57924 0.214526,0.60072 0.901006,0.0213 0.901012,0 0.901006,0.0213 0.922461,0 0.901012,0.0213 0.922461,0.0213 0.922461,0.0213 0.922462,0.0213 0.150172,0.51489 0.107263,0.5578 0.08581,0.60072 0.04292,0.64358 0.02143,0.66508 -0.02143,0.708 -0.04292,0.72943 -0.08581,0.75091 -0.107263,0.79378 -0.128718,0.79379 -0.150166,0.81527 -0.171621,0.8367 -0.193077,0.8367 -0.214525,0.8582 -0.235976,0.8367 -0.23598,0.87957 -0.536313,1.71633 -0.55777,1.6949 -0.579218,1.65191 -0.600678,1.5662 -0.579218,1.50177 -0.579218,1.37302 -0.536319,1.24437 -0.514859,1.09411 -0.514865,0.708 -0.514859,0.708 -0.514866,0.72943 -0.514859,0.75086 -0.429056,0 -0.407597,0 -0.407601,0 -0.386147,0 -0.858103,-1.52321 -0.836653,-1.45887 -0.407596,-0.70799 -0.407603,-0.68651 -0.429051,-0.68656 -0.407596,-0.6436 -0.429057,-0.64364 -0.4505,-0.62215 -0.450506,-0.62215 -0.471956,-0.60072 -0.493409,-0.57925 -0.49341,-0.5578 -0.53632,-0.5578 -0.557763,-0.53637 -1.308613,-0.19311 -1.136988,-0.19306 -0.471955,-0.0859 -0.450506,-0.10722 -0.386146,-0.12876 -0.364693,-0.10728 -0.321788,-0.12871 -0.278885,-0.15019 -0.23598,-0.15014 -0.214526,-0.1502 -0.171621,-0.17162 -0.150167,-0.19312 -0.107263,-0.21455 -0.107263,-0.21449 -0.06436,-0.25747 -0.04292,-0.25746 -0.04292,-0.2789 0,-0.30034 0.02143,-0.68651 0.06436,-0.77235 0.08581,-0.90111 0.107264,-1.00834 0.107263,-1.15852 0.08581,-1.28723 -0.407602,-0.96541 -0.386141,-0.87962 -0.364699,-0.79378 -0.386146,-0.72943 -0.386147,-0.66509 -0.407597,-0.60072 -0.407602,-0.57923 -0.407596,-0.51493 -0.450506,-0.51488 -0.471955,-0.47197 -0.49341,-0.47202 -0.514865,-0.49345 -1.179893,-0.9654 -1.330062,-1.07269 -0.879556,-0.45059 -0.793746,-0.47195 -0.729389,-0.45053 -0.665031,-0.49345 -0.57922,-0.49345 -0.514862,-0.49345 -0.450505,-0.51488 -0.407599,-0.51488 -0.343242,-0.53637 -0.278884,-0.53637 -0.235978,-0.55781 -0.171621,-0.57923 -0.150168,-0.57924 -0.08581,-0.57928 -0.06436,-0.60073 -0.02145,-0.62216 0.02145,-0.62215 0.0429,-0.62216 0.06436,-0.64364 0.107264,-0.66507 0.107262,-0.66509 0.150169,-0.6865 0.150168,-0.68651 0.171621,-0.70799 0.364694,-1.43743 0.386147,-1.50178 0.364694,-1.5447 0.364694,-1.58756 -0.02146,-1.02983 -0.06436,-1.02976 -0.08581,-1.02981 -0.107264,-1.02977 -0.150167,-1.02982 -0.171621,-1.02976 -0.171621,-1.02982 -0.214525,-1.02976 -0.214527,-1.0084 -0.235978,-1.02976 -0.257432,-0.98689 -0.235978,-0.98691 -0.257432,-0.98684 -0.257431,-0.94397 -0.257431,-0.94397 -0.257432,-0.94399 0.0429,-0.51493 0.06436,-0.4934 0.0429,-0.49344 0.08581,-0.49345 0.08581,-0.45054 0.08581,-0.45052 0.107263,-0.45053 0.107264,-0.4291 0.128715,-0.40766 0.128715,-0.4076 0.128717,-0.40761 0.150168,-0.40767 0.321789,-0.77229 0.343241,-0.75092 0.386146,-0.72943 0.4076,-0.75092 0.429052,-0.72943 0.450505,-0.75086 0.98682,-1.5447 1.051177,-1.6734 0.429052,-0.34326 0.429051,-0.3004 0.450505,-0.25741 0.450505,-0.23598 0.450504,-0.21455 0.471958,-0.17162 0.49341,-0.1502 0.47196,-0.10727 0.49341,-0.10727 0.49341,-0.0644 0.49341,-0.0644 0.514859,-0.0213 0.514864,0 0.514859,0 0.514865,0.0213 0.536315,0.0431 1.051178,0.1287 1.072628,0.1502 1.072634,0.19306 1.094082,0.23604 1.094082,0.23598 1.094084,0.23598 1.094082,0.21455 1.072629,0.19306 0.536313,0.0859 0.750845,0.10727 0.94391,0.15019 1.072634,0.17163 1.201346,0.17163 1.265704,0.17162 1.351512,0.15014 1.351512,0.1502 0.686487,0.0431 0.68648,0.0431 0.665032,0.0431 0.665031,0.0213 0.622123,0 0.622127,0 0.600673,-0.0213 0.557769,-0.0431 0.536314,-0.0644 0.49341,-0.0859 0.471955,-0.10727 0.407602,-0.12871 0.364691,-0.15019 0.321789,-0.19306 0.257436,-0.19306 0.19307,-0.25747 -0.278884,-0.1287 -0.278884,-0.15021 -0.25743,-0.1287 -0.23598,-0.1502 -0.150167,-1.07268 -0.150167,-1.07273 -0.150172,-1.07269 -0.150167,-1.07268 -0.128712,-1.05125 -0.150172,-1.05126 -0.128712,-1.05125 -0.128718,-1.05125 -0.128718,-1.05125 -0.107262,-1.05125 -0.08581,-1.02977 -0.08581,-1.05125 -0.06436,-1.02981 -0.04292,-1.02977 -0.04292,-1.05125 0,-1.02982 0.06436,-0.30033 0.08581,-0.27891 0.08581,-0.30033 0.128718,-0.30039 0.25743,-0.5578 0.278884,-0.5578 0.643577,-1.07268 0.643576,-1.00834 0.278885,-0.49345 0.235981,-0.47201 0.107262,-0.23598 0.08581,-0.23598 0.06436,-0.23598 0.06436,-0.21455 0.02143,-0.23604 0.02143,-0.21449 0,-0.21455 -0.04292,-0.21455 -0.06436,-0.21455 -0.08581,-0.19306 -0.107263,-0.21454 -0.128718,-0.19312 -0.23598,0 -0.235975,0 -0.23598,0 -0.235981,0 -0.793744,0.81527 -0.686485,0.75086 -0.321789,0.36475 -0.278884,0.34326 -0.25743,0.34325 -0.23598,0.34325 -0.214526,0.32182 -0.19307,0.34326 -0.171622,0.32182 -0.171621,0.32182 -0.150167,0.32183 -0.128718,0.32182 -0.107263,0.32176 -0.08581,0.34331 -0.08581,0.32177 -0.08581,0.34331 -0.06436,0.36468 -0.04292,0.36474 -0.06436,0.75087 -0.04292,0.81527 -0.04292,1.86646 0.02143,2.20978 0.171622,1.48035 0.19307,1.48029 0.193077,1.50179 0.19307,1.50177 0.193077,1.50179 0.171621,1.50177 0.193072,1.50178 0.193076,1.50178 -0.965371,0.0213 -1.136987,0.0213 -1.244249,0 -1.287159,-0.0213 -0.622123,-0.0213 -0.622127,-0.0431 -0.579217,-0.0431 -0.536314,-0.0644 -0.49341,-0.0858 -0.450507,-0.10727 -0.193076,-0.0644 -0.171621,-0.0644 -0.150168,-0.0644 -0.150166,-0.0857 -0.450506,-1.84504 -0.450506,-1.84509 -0.471955,-1.84503 -0.49341,-1.82361 -0.49341,-1.84504 -0.514859,-1.82359 -0.514865,-1.82355 -0.514865,-1.80216 -0.536314,-1.80212 -0.557768,-1.80218 -0.536314,-1.78067 -0.557769,-1.78069 -0.557764,-1.75918 -0.557768,-1.75925 -0.579223,-1.73777 -0.557763,-1.73775 -0.55777,-1.02983 -0.429051,-0.79378 -0.343243,-0.60072 -0.278884,-0.49345 -0.257429,-0.38617 -0.257436,-0.36469 -0.278879,-0.38618 -0.364697,-0.45053 -0.922462,-0.2789 -0.879556,-0.25747 -0.836654,-0.23598 -0.772289,-0.19311 -0.750845,-0.17163 -0.686481,-0.1287 -0.665032,-0.10728 -0.622127,-0.0859 -0.579219,-0.0644 -0.536314,-0.0213 -0.514863,0.0213 -0.49341,0.0431 -0.471957,0.0644 -0.429052,0.10727 -0.4076,0.12876 -0.407598,0.17163 -0.364695,0.19306 -0.364694,0.23598 -0.343242,0.25747 -0.343242,0.30033 -0.343241,0.34332 -0.321789,0.36468 -0.300337,0.40761 -0.321788,0.45058 -0.32179,0.47196 -0.321789,0.51488 -0.32179,0.5578 -0.34324,0.5793 -0.686484,1.28723 -0.75084,1.43743 -0.665031,0.38617 -0.707936,0.40761 -0.364694,0.19306 -0.343242,0.19311 -0.343242,0.21455 -0.321789,0.23598 -0.300336,0.23598 -0.278884,0.23604 -0.257431,0.27891 -0.214527,0.2789 -0.08581,0.17162 -0.08581,0.15014 -0.06436,0.17163 -0.06436,0.17168 -0.0429,0.17163 -0.0429,0.19306 -0.02146,0.19311 0,0.19306 0.429052,0.12871 0.536315,0.12876 0.557768,0.1287 0.600673,0.12871 0.600673,0.12876 0.579221,0.15014 0.278883,0.0859 0.278884,0.10727 0.257431,0.0858 0.235979,0.10727 0.214525,0.10728 0.193074,0.1287 0.150168,0.12877 0.150168,0.15014 0.08581,0.1502 0.08581,0.15019 0.02146,0.17163 0,0.19306 -0.06436,0.19311 -0.107263,0.21455 -0.128717,0.21455 -0.214525,0.23598 -0.235979,0.25746 -0.321789,0.2789 -0.364694,0.2789 -0.429052,0.30034 -0.643579,0.25747 -0.600672,0.25742 -0.600673,0.2789 -0.579221,0.2789 -0.557767,0.32182 -0.536315,0.34325 -0.257431,0.19312 -0.257431,0.19306 -0.257432,0.21454 -0.235978,0.23598 1.008272,0 0.922462,-0.0431 0.429052,-0.0213 0.429052,0 0.429052,0 0.4076,0.0213 0.407599,0.0431 0.4076,0.0644 0.407598,0.10727 0.429052,0.12877 0.429052,0.17163 0.450505,0.23598 0.450505,0.2789 0.493409,0.34325 0,0.19311 0,0.2145 -0.02146,0.19311 -0.0429,0.19306 -0.06436,0.17168 -0.06436,0.17163 -0.08581,0.15014 -0.107264,0.17162 -0.107262,0.1502 -0.128716,0.12871 -0.128715,0.15019 -0.150169,0.12871 -0.321788,0.25747 -0.32179,0.23598 -0.729389,0.4291 -0.75084,0.42909 -0.343242,0.21455 -0.343242,0.21449 -0.300336,0.21455 -0.257431,0.23603 -0.0429,0.42904 -0.06436,0.38619 -0.06436,0.34325 -0.107263,0.32182 -0.107263,0.2789 -0.128715,0.2789 -0.150169,0.23598 -0.150168,0.23603 -0.193073,0.21455 -0.214526,0.19306 -0.214526,0.17163 -0.257432,0.19311 -0.278883,0.17163 -0.300337,0.17164 -0.321789,0.17162 -0.364695,0.17163 -0.429051,0.42909 -0.514863,0.49345 -0.536315,0.51488 -0.557767,0.5578 -0.257432,0.2789 -0.235978,0.30033 -0.214527,0.3004 -0.193072,0.30033 -0.150168,0.30034 -0.128716,0.32182 -0.0429,0.17162 -0.0429,0.1502 0,0.17163 -0.02146,0.15019 0.600673,0.62215 0.536315,0.53638 0.235979,0.25741 0.214526,0.23598 0.193073,0.25747 0.193073,0.23598 0.171622,0.25747 0.150168,0.30033 0.128715,0.30039 0.128716,0.32182 0.107263,0.38617 0.08581,0.40762 0.08581,0.45053 0.06436,0.51488 -0.214526,0.45052 -0.214526,0.4291 -0.257432,0.4076 -0.257431,0.40767 -0.300336,0.38618 -0.300337,0.38617 -0.321789,0.36469 -0.343241,0.36474 -0.364695,0.34325 -0.386146,0.32182 -0.386147,0.32177 -0.4076,0.32182 -0.407599,0.30039 -0.429053,0.27891 -0.42905,0.2789 -0.450505,0.25741 -0.450505,0.2789 -0.471958,0.23604 -0.450505,0.23598 -0.471957,0.23598 -0.943914,0.42909 -0.943914,0.38617 -0.943915,0.36469 -0.943914,0.32183 -0.901009,0.30033 -0.879558,0.25747 -0.922461,0.0213 -0.858104,-0.0213 -0.386147,-0.0213 -0.386146,-0.0213 -0.386147,-0.0431 -0.343242,-0.0644 -0.343242,-0.0431 -0.343242,-0.0859 -0.321788,-0.0644 -0.300337,-0.10728 -0.600672,-0.19305 -0.57922,-0.23604 -0.557769,-0.2789 -0.536314,-0.30033 -0.514863,-0.34326 -0.536315,-0.36474 -1.115536,-0.81521 -1.201345,-0.90112 0.02146,-0.32176 0.02145,-0.30039 0.02146,-0.30034 0.0429,-0.32182 0.107263,-0.60072 0.150169,-0.62216 0.321788,-1.20144 0.364694,-1.20139 0.150168,-0.5793 0.128716,-0.57923 0.107264,-0.5578 0.0429,-0.5578 0.02146,-0.25747 0,-0.2789 -0.02146,-0.25741 -0.02145,-0.25747 -0.06436,-0.23599 -0.06436,-0.25747 -0.08581,-0.23598 -0.107262,-0.23598 0.0429,-0.38617 0.0429,-0.36474 0.08581,-0.36469 0.06436,-0.36474 0.193073,-0.708 0.214526,-0.68651 0.235979,-0.68651 0.257432,-0.66507 0.278883,-0.66507 0.278884,-0.66509 0.278883,-0.66507 0.257432,-0.66508 0.257431,-0.64364 0.235978,-0.66508 0.214527,-0.66508 0.171621,-0.6865 0.06436,-0.34326 0.06436,-0.34325 0.0429,-0.34325 0.0429,-0.34332 -0.321789,-1.63048 -0.321789,-1.50179 -0.150168,-0.70799 -0.128717,-0.68651 -0.107262,-0.66507 -0.08581,-0.68651 -0.06436,-0.64365 -0.02146,-0.66507 0.02146,-0.66508 0.0429,-0.64358 0.0429,-0.34332 0.06436,-0.34326 0.06436,-0.34325 0.08581,-0.34325 0.08581,-0.34326 0.107264,-0.36474 0.107262,-0.36468 0.150168,-0.36474 0.600674,-0.77236 0.600672,-0.75086 0.622126,-0.75092 0.600673,-0.75086 1.265703,-1.43743 1.265704,-1.41599 1.308608,-1.37302 1.308609,-1.35164 1.330061,-1.33015 1.351514,-1.30866 1.372967,-1.28724 1.372966,-1.2658 1.394419,-1.26579 1.437324,-1.26581 1.415872,-1.26574 1.458776,-1.2658 1.458778,-1.2658 1.48023,-1.2658 1.029724,-1.28723 1.008272,-1.24431 0.965367,-1.20145 0.943915,-1.13703 0.471958,-0.5578 0.471957,-0.53638 0.471957,-0.51488 0.49341,-0.49345 0.471957,-0.47201 0.49341,-0.45053 0.514862,-0.45053 0.49341,-0.40761 0.536315,-0.38618 0.536314,-0.38617 0.557769,-0.34325 0.557767,-0.32182 0.600673,-0.2789 0.622126,-0.2789 0.622125,-0.23598 0.665029,-0.21455 0.686481,-0.19311 0.707935,-0.15014 0.750846,-0.12878 0.772294,-0.0858 0.793744,-0.0644 0.858102,-0.0213 0.879557,0 0.901012,0.0431 0.943916,0.72943 0.965365,0.72944 0.965365,0.75086 0.965371,0.79383 0.98682,0.81522 0.986819,0.83671 0.986815,0.90111 0.98682,0.9654 0.707935,1.45887 0.686487,1.48034 0.68648,1.45886 0.686487,1.48034 0.707935,1.45887 0.729391,1.45885 0.386142,0.708 0.407602,0.68651 0.407602,0.708 0.407595,0.66507 0.450506,0.66508 0.450506,0.66508 0.471955,0.64359 0.493411,0.62221 0.514865,0.62215 0.536313,0.57923 0.557769,0.5793 0.600672,0.5578 0.600674,0.53631 0.643576,0.49345 0.686481,0.49345 0.707935,0.47202 0.729391,0.42904 0.772295,0.40766 0.815197,0.38618 0.836654,0.36468 0.08581,-0.0213 0.08581,-0.0431 0.08581,-0.0858 0.107262,-0.12876 0.235981,-0.30033 0.278884,-0.40761 0.278884,-0.49344 0.300333,-0.53638 0.321789,-0.57923 0.30034,-0.62221 0.600668,-1.22288 0.53632,-1.11561 0.38614,-0.87956 0.23598,-0.47202 0.92247,-1.37308 0.94391,-1.30866 0.49341,-0.62215 0.49341,-0.60073 0.51486,-0.5578 0.53632,-0.53637 0.27888,-0.25741 0.27888,-0.23604 0.30033,-0.23598 0.30034,-0.23598 0.30035,-0.21454 0.32179,-0.19312 0.32179,-0.19306 0.34323,-0.17163 0.34325,-0.17163 0.36469,-0.1502 0.36469,-0.1287 0.38615,-0.12876 0.4076,-0.10722 0.38614,-0.0859 0.42905,-0.0859 0.42905,-0.0644 0.23598,-1.5232 0.23599,-1.416 0.25743,-1.35158 0.25743,-1.26581 0.25744,-1.20139 0.30033,-1.15853 0.32179,-1.1156 0.36469,-1.09417 0.4076,-1.07269 0.42905,-1.05124 0.49341,-1.07268 0.53632,-1.09418 0.60067,-1.1156 0.66504,-1.13705 0.72939,-1.20144 0.81519,-1.26579 2.14526,-2.25265 1.90929,-1.99523 1.65184,-1.73776 1.45879,-1.544704 1.24424,-1.330154 1.09408,-1.179954 0.94392,-0.986904 0.79374,-0.879623 0.68649,-0.750862 0.60067,-0.643642 0.53632,-0.579232 0.49341,-0.536372 0.4505,-0.493452 0.42905,-0.471961 0.45051,-0.472012 0.4934,-0.514885 0.27889,-0.793783 0.27888,-0.77235 0.2789,-0.750918 0.27888,-0.772351 1.7162,0 1.69475,-0.04308 0.85811,-0.04309 0.83665,-0.06435 0.8581,-0.06435 0.85811,-0.06435 0.8581,-0.107275 0.8581,-0.107274 0.85812,-0.128706 0.8581,-0.171627 0.87955,-0.171683 0.87956,-0.193061 0.901,-0.214547 0.90102,-0.257469 0.53632,-0.257413 0.60067,-0.321821 0.64357,-0.364687 0.68649,-0.407664 0.72938,-0.450528 0.7294,-0.47196 0.70793,-0.514938 0.70794,-0.557803 0.34324,-0.278901 0.34324,-0.278901 0.32179,-0.300333 0.30033,-0.30039 0.30034,-0.300334 0.27888,-0.300333 0.25743,-0.321822 0.23598,-0.30039 0.21453,-0.321765 0.21452,-0.321823 0.15017,-0.321822 0.15018,-0.321821 0.10726,-0.343255 0.0857,-0.321822 0.0644,-0.321766 0.0214,-0.34331 -0.25743,-0.171627 -0.23598,-0.128707 -0.21452,-0.107274 -0.21453,-0.08579 -0.21452,-0.06441 -0.19307,-0.02127 -0.19308,-0.02127 -0.19307,0.02127 -0.17162,0.04308 -0.17162,0.06441 -0.17162,0.06435 -0.15017,0.107273 -0.17162,0.107275 -0.15017,0.128706 -0.15017,0.150195 -0.12871,0.150138 -0.30034,0.343254 -0.25743,0.364743 -0.27888,0.407608 -0.27888,0.407663 -0.25744,0.429041 -0.27889,0.407663 -0.27888,0.386175 -0.30033,0.343254 -0.51487,0.386176 -0.49341,0.343254 -0.51486,0.343255 -0.53631,0.300389 -0.53632,0.278901 -0.53631,0.257414 -0.55778,0.257468 -0.55776,0.214548 -0.57922,0.214492 -0.55777,0.171683 -0.57921,0.171628 -0.57923,0.150138 -0.57921,0.150195 -0.57922,0.128706 -0.60069,0.107274 -0.60067,0.08584 -1.17989,0.171628 -1.17988,0.107273 -1.20135,0.08579 -1.1799,0.06441 -1.15844,0.02127 -1.15844,0 -1.13699,0.02127 -1.11553,0 -0.72939,-0.407663 -0.72939,-0.407609 -0.70793,-0.386175 -0.72939,-0.407607 -0.7294,-0.407664 -0.70793,-0.386174 -0.72939,-0.407608 -0.70793,-0.407607 -1.86637,0.493448 -1.86639,0.493393 -1.86637,0.450585 -1.84493,0.450528 -1.82346,0.42904 -1.80202,0.386175 -1.78057,0.364743 -1.75912,0.321822 -0.53631,0.943977 -0.55778,0.901057 -0.27888,0.429096 -0.30033,0.42904 -0.30034,0.429096 -0.32179,0.386175 -0.32179,0.407608 -0.32179,0.386175 -0.34324,0.364743 -0.34323,0.343254 -0.34325,0.343254 -0.36469,0.321822 -0.3647,0.300335 -0.38614,0.300391 -0.38615,0.257411 -0.38615,0.257471 -0.4076,0.214541 -0.42905,0.214551 -0.42906,0.19306 -0.42905,0.15019 -0.4505,0.150201 -0.47196,0.10722 -0.47195,0.08586 -0.47196,0.06437 -0.49341,0.04308 -0.51486,0.02129 -0.51487,-0.02129 -0.51486,-0.04308 -0.53631,-0.08576 -0.55777,-0.10728 -0.471959,-0.364742 -0.386147,-0.321821 -0.321789,-0.257411 -0.278885,-0.236041 -0.214525,-0.235981 -0.171621,-0.23598 -0.150168,-0.257462 -0.150166,-0.278906 -0.471955,-0.107273 -0.450506,-0.08579 -0.450506,-0.06435 -0.471955,-0.08584 -0.450506,-0.06435 -0.450506,-0.08584 -0.450506,-0.06435 -0.429051,-0.08579 -0.04292,-0.750918 0.04292,-0.707941 0.107262,-0.686565 0.150173,-0.622156 0.214525,-0.579234 0.25743,-0.53637 0.300333,-0.514882 0.343244,-0.472016 0.407602,-0.450528 0.429051,-0.407608 0.471955,-0.364743 0.49341,-0.364687 0.536314,-0.321821 0.557768,-0.321822 0.600674,-0.278901 0.60067,-0.278902 0.62213,-0.257469 0.64358,-0.23598 0.64357,-0.235981 0.66503,-0.214548 1.33007,-0.429095 1.33006,-0.42904 1.30861,-0.429096 1.2657,-0.450528 0.60067,-0.257469 0.57923,-0.257413 0.55776,-0.257469 0.53632,-0.300334 0,-0.321822 -0.0214,-0.236035 -0.0429,-0.214492 -0.0429,-0.171628 -0.0858,-0.128762 -0.0858,-0.150139 -0.12872,-0.128763 -0.15017,-0.150195 -0.60067,-0.04308 -0.60067,0 -0.57922,0.04308 -0.60067,0.08584 -0.60067,0.107275 -0.60067,0.128706 -0.57923,0.171627 -0.60067,0.193115 -1.15844,0.407608 -1.17989,0.472017 -1.15845,0.471961 -1.13698,0.450528 -0.557771,0.214548 -0.557769,0.193115 -0.557768,0.171628 -0.536315,0.150138 -0.536314,0.128763 -0.536313,0.107274 -0.536314,0.04308 -0.514865,0.02127 -0.514859,0 -0.514864,-0.08584 -0.493411,-0.107273 -0.49341,-0.171628 -0.49341,-0.214548 -0.471955,-0.300333 -0.471961,-0.343255 -0.45073,-0.407663 -0.793744,-0.06435 -0.707935,-0.04308 -0.600673,-0.04309 -0.514865,-0.08579 -0.235974,-0.04309 -0.214526,-0.04308 -0.193076,-0.06435 -0.171621,-0.06441 -0.150168,-0.06435 -0.150166,-0.08579 -0.107263,-0.08584 -0.107263,-0.08579 -0.107263,-0.107274 -0.08581,-0.128763 -0.06436,-0.128706 -0.06435,-0.150195 -0.04292,-0.150139 -0.04292,-0.171627 -0.02143,-0.193115 -0.02143,-0.193059 -0.02143,-0.472017 0.02143,-0.514882 0.02143,-0.600723 0.04292,-0.686509 0.471955,-0.901112 0.49341,-0.879569 0.536314,-0.879624 0.514864,-0.858192 0.471955,-0.858136 0.450506,-0.836703 0.214527,-0.407608 0.171621,-0.407663 0.171622,-0.407608 0.150166,-0.407607 -0.193071,-1.609054 -0.150172,-1.158526 -0.04292,-0.429096 0,-0.364686 0,-0.171684 0.02143,-0.150139 0.02143,-0.150194 0.04292,-0.128707 0.04292,-0.128762 0.08581,-0.107218 0.06436,-0.128762 0.107263,-0.128706 0.235981,-0.235981 0.300333,-0.257469 0.836653,-0.665076 1.201346,-0.901056 0.793744,-0.193117 0.793748,-0.214491 0.793744,-0.236037 0.815204,-0.23598 0.793744,-0.257469 0.793749,-0.257413 0.815198,-0.278901 0.793742,-0.30039 1.58749,-0.600667 1.5875,-0.665076 1.58749,-0.686564 1.56603,-0.72943 1.56605,-0.750861 1.56604,-0.79384 1.54458,-0.793782 1.52314,-0.815271 1.52314,-0.815215 1.50168,-0.836704 1.48024,-0.815271 1.48022,-0.836703 0.57922,-0.407608 0.55777,-0.407663 0.53631,-0.450529 0.49341,-0.429039 0.98683,-0.879626 0.96536,-0.879624 0.49341,-0.429095 0.49341,-0.429096 0.51486,-0.407608 0.51486,-0.386175 0.55777,-0.386175 0.57923,-0.343254 0.60067,-0.321822 0.66503,-0.300334 0.72938,0.02127 0.72939,0.02127 0.72939,0.02127 0.72939,0.04308 0.72939,0.02127 0.72939,0.04308 0.72939,0.04308 0.72938,0.04309 0.68648,-0.193116 0.66503,-0.214548 0.64359,-0.193059 0.62212,-0.235981 0.60068,-0.236036 0.57921,-0.257413 0.57922,-0.278901 0.55777,-0.30039 0.53632,-0.321765 0.53631,-0.343311 0.53632,-0.386175 0.51486,-0.407608 0.51486,-0.450528 0.53632,-0.493449 0.51486,-0.53637 0.53631,-0.557802 -0.0858,-2.638817 -0.0429,-2.123935 0.0215,-0.472017 0.0214,-0.42904 0.0214,-0.386176 0.0644,-0.386174 0.0644,-0.343255 0.0858,-0.34331 0.10726,-0.300334 0.12872,-0.300333 0.15016,-0.257469 0.17162,-0.257469 0.21453,-0.23598 0.21452,-0.214548 0.27889,-0.214548 0.30034,-0.19306 0.32179,-0.171627 0.3647,-0.171627 0.4076,-0.150195 0.4505,-0.150195 0.47196,-0.150139 0.53631,-0.150194 0.55777,-0.128706 0.62212,-0.128763 0.66503,-0.128707 0.7294,-0.107273 0.75083,0.107273 0.72939,0.150195 0.70794,0.171628 0.70793,0.19306 0.72939,0.235979 0.72939,0.30039 0.77229,0.321822 0.8152,0.386176 0.85811,-0.836704 0.77229,-0.750918 0.75084,-0.665076 0.7294,-0.622155 0.36469,-0.30039 0.38614,-0.278902 0.38615,-0.300334 0.4076,-0.278901 0.87955,-0.579234 1.00827,-0.579291 0.23598,-0.643587 0.21453,-0.514938 0.17161,-0.42904 0.17164,-0.364743 0.17162,-0.386175 0.21452,-0.429096 0.27889,-0.536314 0.36469,-0.665077 0.17162,0 0.19307,0 0.21453,0 0.23598,0 0.62212,0.879626 0.64358,0.879568 0.64358,0.879624 0.62212,0.901057 0.64359,0.879624 0.64357,0.901113 0.66503,0.879568 0.64358,0.901112 0.92246,0 0.94391,0.04309 0.94392,0.04308 0.96537,0.04308 0.96536,0.06435 0.96536,0.08584 0.98683,0.08579 0.98682,0.06435 0.98682,0.08584 1.00827,0.08579 0.98682,0.06441 1.02973,0.06435 1.00827,0.06435 1.00827,0.04308 1.02972,0.02127 1.02974,0.02127 0.17161,0.300389 0.12872,0.300334 0.0644,0.193115 0.0429,0.214549 0.0214,0.278901 0,0.343254 -0.70793,0.471961 -0.70794,0.450529 -0.70793,0.429095 -0.72939,0.407607 -0.70793,0.364743 -0.70794,0.364744 -0.68649,0.321765 -0.68648,0.321822 0.0858,0.04308 0.17162,0.02127 0.23598,0 0.25743,-0.02127 0.68648,-0.107274 0.7723,-0.150195 0.79375,-0.171627 0.77229,-0.171628 0.64357,-0.150194 0.47196,-0.107218 1.43733,0.02127 1.82347,0.06435 1.02972,0.06435 1.07263,0.06435 1.11554,0.08584 1.11554,0.107273 1.09408,0.128707 1.09408,0.128706 1.02973,0.171684 0.98682,0.193059 0.4505,0.107274 0.4505,0.107274 0.4076,0.128706 0.38615,0.128763 0.36469,0.128706 0.34324,0.150195 0.27889,0.128706 0.25743,0.171628 0,0.171626 0,0.214549 0,0.193059 0,0.236037 -0.64358,0.429039 -0.60067,0.429096 -0.60067,0.450529 -0.55777,0.472017 -0.55777,0.47196 -0.53631,0.472017 -0.51486,0.471961 -0.51487,0.472016 -1.00827,0.96541 -0.98682,0.943977 -0.49341,0.471961 -0.51486,0.450585 -0.51486,0.450528 -0.53632,0.450529 0.0858,0.128706 0.10727,0.128706 0.10726,0.107274 0.12872,0.107274 0.15016,0.107274 0.12872,0.08584 0.17162,0.08579 0.15017,0.06435 0.34324,0.150195 0.38615,0.107273 0.38614,0.08584 0.42905,0.06435 0.42905,0.06435 0.45051,0.04309 0.4505,0.02127 0.4505,0.02127 0.92247,0 0.85811,0 1.39441,-0.536314 1.28716,-0.493449 1.17989,-0.472016 1.07263,-0.429041 1.02973,-0.364743 0.96536,-0.321821 0.47195,-0.128707 0.47197,-0.128706 0.47196,-0.08584 0.4505,-0.08579 0.47196,-0.04308 0.4505,-0.04308 0.47196,-0.02127 0.47196,0.02127 0.4934,0.04308 0.49341,0.04308 0.49342,0.08579 0.53632,0.128763 0.53631,0.128706 0.55777,0.171628 0.57921,0.214547 0.60067,0.23598 0.62213,0.257469 0.66503,0.300334 0.68649,0.343254 0.70793,0.364743 0.7723,-0.02127 0.75083,-0.02127 0.7723,-0.02127 0.77229,-0.02127 0.75085,-0.02127 0.79374,-0.02127 0.7723,-0.04309 0.77229,-0.02127 -0.0858,0.472016 -0.12872,0.450529 -0.15017,0.407608 -0.19307,0.386175 -0.21452,0.364743 -0.23598,0.343254 -0.27889,0.300334 -0.30033,0.300389 -0.32179,0.278901 -0.34324,0.235981 -0.3647,0.23598 -0.38614,0.214548 -0.40761,0.193059 -0.42905,0.193116 -0.42905,0.171627 -0.42905,0.150195 -0.4505,0.128707 -0.45051,0.128706 -0.47195,0.128762 -0.47196,0.08579 -0.94391,0.193115 -0.92248,0.150139 -1.80201,0.278902 -1.58749,0.236035 -0.68649,0.235981 -0.62213,0.235981 -0.57921,0.23598 -0.53631,0.257468 -0.49341,0.235981 -0.49341,0.257469 -0.45051,0.257412 -0.42905,0.25747 -0.87956,0.557801 -0.8581,0.622156 -0.94392,0.643644 -1.05117,0.729429 1.52313,-0.128706 1.50168,-0.171627 0.72939,-0.08584 0.70794,-0.04308 0.70794,-0.04308 0.72938,-0.02127 0.34324,0 0.36469,0.02127 0.34324,0.04308 0.3647,0.04308 0.3647,0.04309 0.36469,0.06435 0.34325,0.08584 0.36469,0.107274 0.38615,0.107218 0.36469,0.128762 0.36469,0.150139 0.38615,0.171684 0.36469,0.193059 0.38615,0.214548 0.38614,0.23598 0.4076,0.257468 0.70794,0.235981 0.72939,0.235981 0.75084,0.23598 0.75084,0.236037 -0.0429,0.214548 -0.0644,0.193059 -0.10726,0.214548 -0.10727,0.214547 -0.15017,0.193061 -0.15016,0.214547 -0.17162,0.193116 -0.19307,0.214492 -0.45051,0.407664 -0.47195,0.407607 -0.53632,0.386175 -0.55777,0.386175 -1.15844,0.72943 -1.11554,0.665076 -1.00827,0.579235 -0.8152,0.493449 0.3647,0.107274 0.34324,0.06435 0.36469,0.06441 0.34325,0.06435 0.34323,0.02127 0.3647,0.04309 0.34324,0 0.34324,0.02127 0.70793,-0.04309 0.68649,-0.06441 0.70794,-0.08579 0.70794,-0.128706 0.72938,-0.171683 0.70793,-0.171627 0.72939,-0.19306 0.75084,-0.214548 1.50169,-0.47196 1.58749,-0.472017 0.8581,0.04308 0.83665,0.06435 0.81521,0.06435 0.79374,0.06435 0.77229,0.107274 0.75085,0.128762 0.38614,0.08579 0.36469,0.08584 0.34325,0.107275 0.36469,0.107273 0.34325,0.128706 0.34324,0.128707 0.34324,0.150195 0.34324,0.171627 0.34325,0.171627 0.32178,0.193059 0.34324,0.214549 0.32179,0.214548 0.32179,0.257468 0.32179,0.257414 0.32179,0.278957 0.32178,0.300333 0.32179,0.343254 0.32179,0.343255 0.30035,0.364743 0.32178,0.386174 -0.0644,0.171628 -0.0644,0.171627 -0.0858,0.150195 -0.0858,0.128706 -0.19307,0.257469 -0.21453,0.214492 -0.23598,0.171683 -0.25744,0.171627 -0.25743,0.128706 -0.30034,0.107275 -0.30033,0.08579 -0.30034,0.06441 -0.30034,0.06435 -0.32178,0.06435 -0.62212,0.08579 -0.60068,0.107273 -0.47195,0.321822 -0.47196,0.343255 -0.4505,0.321822 -0.45052,0.343255 -0.4505,0.321821 -0.4505,0.343255 -0.45051,0.343254 -0.4505,0.364743 -1.02972,0.2789 -1.02973,0.235981 -1.02973,0.214548 -1.00827,0.193115 -1.00827,0.150139 -1.02972,0.128763 -0.98683,0.128706 -1.00827,0.107275 -0.98682,0.08579 -0.98681,0.107275 -0.98682,0.107273 -0.98683,0.107275 -0.96536,0.107274 -0.96537,0.150195 -0.96536,0.150139 -0.96537,0.193115 0,0.278901 0,0.278901 0.8152,0.278902 0.8581,0.257468 0.92246,0.235981 0.94391,0.23598 0.98683,0.214548 1.00827,0.214548 1.02972,0.193059 1.02973,0.193116 0,0.278901 0,0.300334 0,0.300389 0,0.300334 -0.70794,0.429096 -0.68648,0.364686 -0.68648,0.30039 -0.66503,0.278901 -0.64359,0.257413 -0.66503,0.214548 -0.66503,0.214548 -0.66503,0.214548 -0.0429,0.128706 -0.0214,0.150195 0,0.150195 0,0.128707 1.35151,-0.150195 1.30861,-0.150139 0.64358,-0.08584 0.64357,-0.06435 0.64359,-0.04309 0.64357,-0.02127 0.64358,-0.02127 0.66504,0.02127 0.66503,0.04309 0.66503,0.08579 0.68648,0.107274 0.70793,0.150195 0.70793,0.193059 0.75084,0.257469 1.90929,0.96541 1.7162,0.879624 0.79375,0.386176 0.7723,0.364742 0.79375,0.343254 0.77229,0.300334 0.77229,0.300389 0.8152,0.278901 0.85811,0.235981 0.87955,0.214548 0.94392,0.214548 1.00826,0.171627 1.09408,0.150195 1.17991,0.150139 -0.0429,0.514881 -0.10726,0.472017 -0.17163,0.429096 -0.21452,0.386176 -0.27888,0.364686 -0.34326,0.30039 -0.38614,0.278901 -0.42905,0.257412 -0.47196,0.214549 -0.49341,0.171626 -0.53631,0.171628 -0.55777,0.128762 -0.60067,0.107274 -0.60067,0.08579 -0.62214,0.06435 -0.64357,0.04308 -0.64358,0.02127 -0.64358,0 -0.66503,0 -0.64357,0 -1.24426,-0.06435 -1.20134,-0.06435 -1.11554,-0.08584 -0.96536,-0.08579 -0.8152,-0.04308 -0.62213,-0.04309 -0.51486,0.128707 -0.47196,0.107273 -0.45051,0.107275 -0.40759,0.128706 -0.4076,0.128762 -0.38615,0.150139 -0.38614,0.128763 -0.3647,0.150139 -0.7294,0.34331 -0.72938,0.364686 -0.75084,0.407608 -0.8152,0.429096 0.45051,0.30039 0.4505,0.257412 0.47196,0.235981 0.4505,0.236034 0.47195,0.21449 0.47197,0.193121 0.47196,0.171621 0.49341,0.150201 0.47196,0.150139 0.49341,0.128762 0.4934,0.12871 0.49341,0.10727 0.49341,0.08586 0.49341,0.08576 0.51487,0.06437 0.51486,0.06437 1.02972,0.107281 1.02973,0.06437 1.07262,0.06437 1.07264,0.02129 1.09408,0.02129 1.09408,0 1.11553,0.02129 1.11555,0.02129 0.0858,0.08576 0.0644,0.08586 0.043,0.08576 0.0429,0.128761 0.0644,0.450532 0.0644,0.793782 -0.98683,0.643592 -0.77229,0.514932 -0.64358,0.407611 -0.51486,0.364742 -0.51486,0.364691 -0.53631,0.386171 -0.62213,0.472012 -0.79374,0.600671 -0.92247,0.343313 -0.94391,0.30033 -0.94392,0.257471 -0.92246,0.235981 -0.94392,0.17163 -0.94391,0.171621 -0.92246,0.12871 -0.94391,0.08586 -0.92246,0.08576 -0.94392,0.0859 -0.92246,0.0431 -0.92246,0.0431 -1.84493,0.0644 -1.82347,0.0644 0,0.27891 0,0.2789 0.60067,0.38618 0.66504,0.36474 0.68648,0.38618 0.70793,0.36469 0.75084,0.36474 0.7723,0.36474 0.79374,0.36469 0.79375,0.36474 0.0429,0.42904 0.0644,0.40766 0.0644,0.42905 0.0644,0.42909 -0.87956,0.21455 -0.83666,0.2789 -0.81519,0.2789 -0.77229,0.30033 -0.7723,0.32182 -0.75084,0.32182 -0.7723,0.34326 -0.79374,0.32183 -0.0429,0.0858 -0.0429,0.10729 -0.0214,0.10727 -0.0215,0.12876 0.30034,0.0858 0.32179,0.0859 0.3218,0.0644 0.32179,0.0431 0.64357,0.0859 0.68649,0.0644 1.41586,0.0431 1.50169,0.0213 0.75084,0 0.77229,0.0213 0.79375,0.0213 0.77229,0.0644 0.79374,0.0644 0.81521,0.10727 0.79375,0.12871 0.79374,0.17162 0.30034,0.36474 0.30033,0.32182 0.34324,0.2789 0.34324,0.25742 0.3647,0.23598 0.38614,0.19311 0.38615,0.19306 0.42906,0.17169 0.42905,0.15014 0.4505,0.12876 0.45051,0.15014 0.47195,0.10727 1.00827,0.25747 1.05118,0.25741 0.10726,0.23604 0.0644,0.21455 -0.0215,0.21449 -0.0429,0.21455 -0.0858,0.21454 -0.15017,0.21455 -0.17162,0.19306 -0.21452,0.21455 -0.23598,0.19312 -0.27889,0.19306 -0.30033,0.17163 -0.34324,0.19311 -0.34324,0.17163 -0.3647,0.17162 -0.36469,0.17163 -0.38614,0.1502 -0.8152,0.30033 -0.79376,0.2789 -0.77229,0.23598 -0.72938,0.21455 -1.24426,0.32182 -0.72938,0.17162 -0.94392,0 -0.94392,-0.0213 -0.92246,-0.0431 -0.92245,-0.0431 -1.82348,-0.0858 -1.78056,-0.12876 -1.73766,-0.10728 -1.73767,-0.10727 -0.83665,-0.0431 -0.8581,-0.0213 -0.83665,-0.0213 -0.83665,0 0.23598,0.38617 0.23598,0.40767 0.23598,0.40761 0.23598,0.42909 1.2657,0.34326 1.63039,0.4076 0.92247,0.23604 0.92246,0.2789 0.96536,0.2789 0.94391,0.34325 0.45051,0.17164 0.47195,0.19306 0.42905,0.19311 0.42907,0.21455 0.42905,0.23598 0.38615,0.23598 0.36469,0.23598 0.36469,0.2789 0.32179,0.25747 0.27888,0.30033 0.27888,0.30039 0.21453,0.32182 0.19308,0.34326 0.15016,0.34326 0.12872,0.36468 0.0644,0.38618 -0.49341,0.36474 -0.51486,0.32182 -0.53632,0.30033 -0.53631,0.25747 -0.55777,0.25741 -0.55776,0.21455 -0.55778,0.19312 -0.57922,0.17163 -0.57922,0.15019 -0.60067,0.12871 -0.60067,0.10727 -0.60068,0.0858 -0.62212,0.0644 -0.60067,0.0644 -0.62213,0.0431 -0.62213,0.0213 -0.62212,0 -0.62213,0 -0.62212,0 -0.62212,-0.0213 -1.24426,-0.0644 -1.2228,-0.0858 -1.2228,-0.10727 -1.17988,-0.10728 -1.15845,-0.1287 -1.13699,-0.0859 0.15017,0.21454 0.15017,0.19312 0.15017,0.19306 0.17162,0.17162 0.17162,0.17163 0.17162,0.1502 0.19307,0.15019 0.17162,0.12871 0.7723,0.47197 0.72939,0.42909 0.36469,0.23598 0.32179,0.25747 0.15017,0.15019 0.15017,0.15014 0.12871,0.17163 0.12872,0.17168 0.10726,0.19306 0.10726,0.19311 0.0858,0.23598 0.0858,0.23598 0.0429,0.25748 0.0429,0.30033 0.0215,0.30033 0.0214,0.32183 -0.21453,0.23598 -0.21452,0.21454 -0.23598,0.21455 -0.23598,0.17163 -0.25743,0.15019 -0.25743,0.12871 -0.25744,0.10727 -0.27888,0.10727 -0.27889,0.0644 -0.27888,0.0644 -0.27888,0.0644 -0.30034,0.0431 -0.57922,0.0431 -0.60067,0 -0.62213,-0.0213 -0.60067,-0.0644 -0.57921,-0.0431 -0.60069,-0.0644 -0.55776,-0.0644 -0.55777,-0.0213 -0.51486,-0.0213 -0.49341,0.0213 0.12871,0.19312 0.23598,0.34325 0.27889,0.4291 0.27888,0.4934 0.15017,0.25746 0.12872,0.27891 0.10726,0.2789 0.10726,0.2789 0.0644,0.2789 0.0429,0.2789 0.0214,0.25746 -0.0214,0.25742 -0.55777,0.17169 -0.55777,0.1287 -0.53631,0.10728 -0.51486,0.0858 -0.51486,0.0644 -0.49341,0.0431 -0.49342,0.0431 -0.47195,0.0431 0.62212,0.53637 0.7294,0.5578 0.36469,0.30039 0.34324,0.32176 0.32179,0.32182 0.27888,0.34326 0.10727,0.17162 0.10726,0.17163 0.0858,0.17169 0.0644,0.19306 0.043,0.17163 0.0429,0.19311 0,0.17163 -0.0215,0.19306 -0.0429,0.19311 -0.0858,0.19306 -0.0859,0.19312 -0.12872,0.19306 -0.17161,0.21454 -0.19308,0.19306 -0.23598,0.19312 -0.27888,0.21455 -1.02973,-0.0644 -0.83665,-0.0644 -0.68648,-0.0431 -0.60067,-0.0644 -0.64358,-0.0858 -0.70793,-0.12876 -0.87956,-0.15014 -1.13699,-0.21455 0.55776,0.53632 0.57923,0.53636 0.55777,0.5578 0.55777,0.53638 0.57921,0.53631 0.55777,0.53637 0.55777,0.5578 0.57921,0.53637 1.26572,0.90106 1.28715,0.90106 1.28715,0.85819 1.33006,0.83671 1.33007,0.8367 1.33006,0.79378 1.37296,0.79378 1.37298,0.77236 1.37296,0.72942 1.39441,0.72943 1.41588,0.72943 1.41587,0.68657 1.43732,0.6865 1.43732,0.66508 1.45879,0.66507 1.43732,0.64365 1.48023,0.62216 1.45878,0.62215 1.48022,0.62216 1.50168,0.57928 2.98192,1.17997 3.00336,1.13703 3.02482,1.1371 3.04627,1.09411 3.02482,1.09417 3.04626,1.07269 1.15845,0.0859 1.17989,0.0644 1.22279,0.0644 1.2228,0.0644 1.26571,0.0644 1.24425,0.0858 1.28715,0.10727 1.26571,0.15019 1.28715,0.15014 1.28716,0.21455 0.62213,0.10727 0.64357,0.12871 0.62213,0.12876 0.62213,0.15019 0.62212,0.17163 0.62212,0.17163 0.62213,0.21455 0.60067,0.19305 0.60067,0.23598 0.60069,0.23599 0.57921,0.25747 0.57922,0.2789 1.13699,0.85819 1.13698,0.87957 1.137,0.87963 1.15844,0.87962 1.20134,0.87962 1.24425,0.90106 1.30862,0.87962 1.35151,0.87963 0.4934,0.45052 0.51486,0.47196 0.53632,0.49346 0.51486,0.51488 1.05119,1.09417 1.07262,1.15853 1.05118,1.20144 1.07263,1.22288 1.05118,1.22288 1.05118,1.20139 0.25742,0 0.27889,-0.0213 0.27888,-0.0431 0.27889,-0.0644 0.27888,-0.0644 0.27888,-0.0644 0.27889,-0.10727 0.27888,-0.0859 0.55776,-0.23598 0.57922,-0.2789 0.55778,-0.32182 0.55776,-0.32183 0.55777,-0.36469 0.55777,-0.36474 0.53631,-0.38617 0.53631,-0.40761 1.02973,-0.77235 0.96538,-0.72942 0.42905,-0.47203 0.36469,-0.45053 0.32179,-0.45052 0.27888,-0.45053 0.21453,-0.45053 0.17161,-0.45052 0.12872,-0.45054 0.0859,-0.45053 0.0429,-0.45052 0.0214,-0.45053 -0.0429,-0.42909 -0.0644,-0.45053 -0.0858,-0.45053 -0.12872,-0.4291 -0.15016,-0.4291 -0.17162,-0.42904 -0.19307,-0.42909 -0.21453,-0.42909 -0.25743,-0.4291 -0.25743,-0.42904 -0.25743,-0.40767 -0.30034,-0.40761 -0.30033,-0.4076 -0.30034,-0.40766 -0.62213,-0.77235 -0.64358,-0.7723 -0.64358,-0.75092 -0.62212,-0.70799 -1.15844,-0.70794 -1.137,-0.70801 -1.15843,-0.70799 -1.13699,-0.708 -1.13698,-0.72942 -1.137,-0.72944 -1.11553,-0.72943 -1.11553,-0.72942 -1.09408,-0.75092 -1.09408,-0.72944 -1.07265,-0.75086 -1.05117,-0.75091 -1.02972,-0.75086 -1.02972,-0.75093 -1.00828,-0.75086 -0.96537,-0.75091 -0.55776,-0.85813 -0.51487,-0.8582 -0.4934,-0.87957 -0.45051,-0.87962 -0.87955,-1.78069 -0.83666,-1.7378 -0.8152,-1.73777 -0.79374,-1.65192 -0.42905,-0.79384 -0.42906,-0.79378 -0.42905,-0.75091 -0.47195,-0.70795 -0.79376,-0.57929 -0.70793,-0.60067 -0.62213,-0.6222 -0.55776,-0.64359 -0.45051,-0.68657 -0.38614,-0.70794 -0.30034,-0.708 -0.25743,-0.75091 -0.17162,-0.7723 -0.12872,-0.77235 -0.0644,-0.79384 -0.0215,-0.79378 0.0429,-0.81528 0.0644,-0.81521 0.10726,-0.8367 0.15017,-0.83671 0.17162,-0.8367 0.19307,-0.8367 0.21453,-0.8367 0.23598,-0.83671 0.51486,-1.67346 0.51486,-1.63049 0.51486,-1.58756 0.45051,-1.54471 0.19307,-0.72942 0.17162,-0.72943 0.12872,-0.708 0.10726,-0.66508 -0.0214,-0.96546 -0.0215,-0.96542 -0.0214,-0.94397 -0.0214,-0.94398 -0.0214,-0.94397 -0.0215,-0.94398 -0.0214,-0.94398 -0.0429,-0.94397 0.19308,-0.15014 0.21452,-0.10728 0.21453,-0.0644 0.23598,0 0.25742,0.0431 0.25743,0.0644 0.27889,0.12871 0.27888,0.15019 0.30033,0.17163 0.30034,0.21454 0.30034,0.23598 0.30033,0.2789 0.62214,0.57924 0.64358,0.66508 0.62212,0.68656 0.60067,0.72943 0.60067,0.70794 0.55777,0.68657 0.51486,0.64359 0.4505,0.57929 0.40761,0.47196 0.32179,0.36474 0.83665,-1.17996 0.79375,-1.1371 0.79374,-1.07268 0.79374,-1.00832 0.79376,-0.94399 0.79374,-0.90105 0.4076,-0.45058 0.42905,-0.40761 0.4076,-0.42909 0.42905,-0.40761 0.42905,-0.38619 0.45051,-0.38617 0.4505,-0.38617 0.47196,-0.36469 0.47196,-0.36474 0.49341,-0.36469 0.51486,-0.36474 0.51486,-0.34325 0.53632,-0.34325 0.53631,-0.34332 0.57922,-0.34326 0.57922,-0.34325 1.24426,-0.66507 1.3086,-0.66508 0.72939,-0.25741 0.72938,-0.25748 0.72939,-0.25746 0.7294,-0.2789 0.72939,-0.25742 0.72938,-0.25746 0.72939,-0.25747 0.72939,-0.25741 1.24426,-0.0859 1.24424,-0.10727 1.24425,-0.0858 1.24425,-0.12877 1.26571,-0.10727 1.24425,-0.15014 1.2657,-0.15019 1.24424,-0.19306 1.24427,-0.19312 1.24424,-0.23599 1.24425,-0.2789 1.24426,-0.30038 0.60067,-0.17163 0.62213,-0.19306 0.62212,-0.19311 0.60067,-0.19306 0.60067,-0.21455 0.62212,-0.21456 0.60068,-0.25741 0.60068,-0.236034 0.0644,-0.15013 0.0429,-0.150201 0.0214,-0.12871 0.0214,-0.193111 0,-0.579232 -0.0214,-1.072744 -0.77229,-0.643582 -0.7723,-0.665082 -0.72938,-0.643643 -0.68648,-0.643591 -0.66503,-0.622152 -0.60068,-0.622213 -0.53632,-0.600671 -0.4505,-0.579283 -0.12871,-0.579241 -0.0644,-0.536362 -0.0429,-0.514882 0,-0.493454 0.0429,-0.450528 0.0644,-0.429096 0.0858,-0.386175 0.12872,-0.386176 0.17162,-0.343254 0.17162,-0.321822 0.21453,-0.300334 0.23597,-0.278901 0.25745,-0.2789 0.30033,-0.235981 0.30034,-0.214548 0.32179,-0.214548 0.32178,-0.193116 0.3647,-0.171626 0.36469,-0.171628 0.38614,-0.150139 0.38615,-0.128762 0.4076,-0.128707 0.4076,-0.107273 0.4076,-0.107275 0.85811,-0.214548 0.8581,-0.171626 0.8581,-0.171628 0.8581,-0.150195 0.19308,-0.257413 0.15017,-0.257468 0.12871,-0.235981 0.10727,-0.23598 0.0644,-0.214548 0.0429,-0.214548 0,-0.193115 0,-0.19306 -0.0429,-0.193059 -0.0644,-0.171684 -0.0859,-0.171626 -0.0858,-0.150139 -0.12872,-0.171628 -0.12871,-0.128762 -0.15018,-0.150139 -0.17162,-0.128763 -0.36469,-0.235979 -0.40759,-0.19306 -0.42906,-0.193116 -0.4505,-0.150194 -0.47196,-0.150139 -0.4505,-0.107275 -0.42906,-0.107273 -0.4076,-0.06435 0,-0.343311 0.0429,-0.321765 0.0429,-0.30039 0.0429,-0.300334 0.51487,-0.193116 0.51486,-0.150139 0.49342,-0.150194 0.49341,-0.128707 0.49341,-0.107273 0.4934,-0.08584 0.47196,-0.06435 0.47195,-0.04309 0.45051,-0.02127 0.47195,-0.02127 0.42906,0.02127 0.45051,0.04309 0.4505,0.06435 0.42905,0.08584 0.42905,0.107274 0.4076,0.128706 0.42905,0.150195 0.4076,0.171627 0.4076,0.171628 0.4076,0.214548 0.38615,0.23598 0.40759,0.257468 0.38616,0.278901 0.38615,0.300334 0.38614,0.321822 0.38615,0.343254 0.36469,0.364743 0.38615,0.386119 0.36469,0.407664 0.36469,0.450529 0.3647,0.450528 0.36469,0.472016 0,0.943921 -0.0429,0.815272 -0.0429,0.386175 -0.0429,0.364743 -0.0644,0.343255 -0.0644,0.321821 -0.0858,0.300333 -0.0859,0.278901 -0.10726,0.25747 -0.10726,0.257413 -0.12871,0.236035 -0.12872,0.214492 -0.17162,0.214549 -0.15017,0.193115 -0.19307,0.19306 -0.19307,0.193116 -0.21453,0.150139 -0.21452,0.171626 -0.25743,0.150195 -0.25744,0.150195 -0.25743,0.150194 -0.30034,0.150139 -0.64357,0.278901 -0.70795,0.278902 -0.79374,0.300392 -0.87955,0.30033 -0.38615,0.278901 -0.3647,0.278901 -0.38614,0.278901 -0.36469,0.300392 0,0.364691 0,0.30033 0.0429,0.278952 0.0858,0.235981 0.12871,0.2789 0.19308,0.300341 0.25743,0.386171 0.34324,0.472013 0.66503,0.471961 0.64357,0.472022 0.30034,0.23598 0.30034,0.257411 0.27888,0.257471 0.25743,0.278901 0.25743,0.257471 0.25743,0.278901 0.23598,0.300331 0.21454,0.278901 0.21452,0.300391 0.19307,0.300331 0.17162,0.321821 0.15017,0.321821 0.15017,0.321771 0.12871,0.343253 0.10727,0.34331 0.10726,0.36469 0.0644,0.34325 0.0644,0.38617 0.0214,0.36476 0.0214,0.4076 0,0.38618 -0.0214,0.40766 -0.0644,0.42904 -0.0644,0.42909 -0.0858,0.4291 -0.10726,0.45053 -0.15017,0.47196 -0.17162,0.47202 -0.38615,0.34325 -0.40759,0.36469 -0.45052,0.3433 -0.42905,0.32177 -0.47196,0.32183 -0.47195,0.32182 -0.49341,0.30033 -0.49341,0.30039 -1.02972,0.57923 -1.05119,0.55781 -1.09408,0.51494 -1.11553,0.49339 -1.11553,0.47202 -1.11555,0.47196 -1.11553,0.42909 -1.11553,0.40761 -1.07263,0.40766 -1.07264,0.38618 -1.00827,0.38618 -0.98681,0.36468 -0.66503,0.32182 -0.64358,0.34326 -0.66503,0.32182 -0.66504,0.34325 -0.64357,0.32182 -0.66503,0.34325 -0.66503,0.34327 -0.66503,0.36474 0,0.19306 0,0.17163 0,0.19311 0,0.19306 1.43732,-0.15014 1.43733,-0.12876 1.43732,-0.15014 1.43732,-0.12876 1.43732,-0.15014 1.43734,-0.15019 1.43731,-0.12871 1.43733,-0.15019 0.42906,-0.36476 0.60067,-0.53631 0.75084,-0.64364 0.87956,-0.77235 0.96536,-0.81521 1.05118,-0.87963 1.13699,-0.87962 1.15844,-0.87962 0.60067,-0.40761 0.60067,-0.40767 0.60067,-0.38618 0.57922,-0.38611 0.60068,-0.32182 0.60067,-0.32183 0.57922,-0.2789 0.55777,-0.23598 0.55776,-0.21454 0.53632,-0.1502 0.51486,-0.10727 0.51486,-0.0644 0.47197,0 0.4505,0.0431 0.42905,0.10728 0.38615,0.19306 0.0858,0.21454 0.10726,0.2789 -0.32179,0.53637 -0.32179,0.51488 -0.36469,0.47202 -0.3647,0.45053 -0.4076,0.42904 -0.42905,0.4291 -0.4505,0.42909 -0.47196,0.45053 -0.10727,0.45052 -0.0858,0.47203 -0.0644,0.47196 -0.0429,0.47201 -0.0644,0.98684 -0.0644,0.98691 -0.0214,0.51488 -0.0644,0.51493 -0.0644,0.53631 -0.0644,0.51494 -0.10726,0.53632 -0.15017,0.53637 -0.15017,0.53631 -0.21452,0.5578 -0.90101,0.77235 -0.901,0.75093 -0.92248,0.72942 -0.92246,0.72943 -0.94391,0.68651 -0.96536,0.66508 -0.96538,0.64364 -1.00827,0.60072 0.3647,0 0.36469,-0.0213 0.3647,-0.0431 0.3647,-0.0431 0.34323,-0.0644 0.34325,-0.0859 0.36469,-0.0858 0.34324,-0.0859 0.68648,-0.21454 0.66503,-0.23598 0.68648,-0.25747 0.68648,-0.2789 0.6865,-0.2789 0.70793,-0.25741 0.70794,-0.25747 0.70793,-0.23598 0.75084,-0.21455 0.75084,-0.19311 0.38615,-0.0644 0.4076,-0.0644 0.38615,-0.0431 0.4076,-0.0431 0.17162,0.17163 0.10726,0.1287 0.0858,0.12876 0.0429,0.12871 0.0429,0.32182 0,0.5578 -0.51485,0.40761 -0.45051,0.36475 -0.40761,0.36469 -0.38615,0.34325 -0.34323,0.34331 -0.30034,0.34325 -0.30034,0.34325 -0.27888,0.34326 -0.25743,0.36474 -0.27888,0.38618 -0.25744,0.40761 -0.25743,0.42909 -0.55776,0.98684 -0.62212,1.15853 -0.81522,0.75092 -0.98681,0.87962 -0.53632,0.47196 -0.55776,0.49345 -0.53632,0.53637 -0.53631,0.53632 -0.51486,0.5578 -0.47197,0.5578 -0.21452,0.30039 -0.19307,0.2789 -0.17162,0.30033 -0.17163,0.3004 -0.15016,0.2789 -0.12872,0.30033 -0.10726,0.30033 -0.0644,0.30039 -0.0644,0.30033 -0.0214,0.30039 0,0.30034 0.0214,0.30033 0.72939,-0.30033 0.68648,-0.2789 0.64359,-0.25747 0.64358,-0.21455 0.60067,-0.19306 0.60067,-0.17163 0.60067,-0.15019 0.62213,-0.12871 0.60067,-0.1287 0.64358,-0.0859 0.64358,-0.10728 0.70793,-0.0858 1.50168,-0.12876 1.69477,-0.15014 0.4934,-0.32182 0.38615,-0.25748 0.38615,-0.23598 0.36469,-0.17163 0.40759,-0.17162 0.47196,-0.12876 0.55777,-0.15014 0.70793,-0.12877 -0.0858,0.79384 -0.0858,0.72944 -0.10726,0.70799 -0.10726,0.66502 -0.10727,0.62221 -0.12872,0.57923 -0.15017,0.53638 -0.15017,0.51488 -0.17162,0.47196 -0.19307,0.45058 -0.21453,0.42904 -0.21452,0.40766 -0.23598,0.3647 -0.25743,0.36474 -0.27888,0.34325 -0.30034,0.32182 -0.32179,0.30034 -0.34324,0.30038 -0.34324,0.2789 -0.38615,0.2789 -0.42905,0.25742 -0.42906,0.2789 -0.47196,0.25748 -0.47195,0.25741 -1.07263,0.53637 -1.17989,0.5578 -1.30861,0.60072 -1.43733,0.66507 -1.00826,0.70801 -0.87956,0.66507 -0.77229,0.60066 -0.66504,0.55781 -0.27889,0.2789 -0.27888,0.25746 -0.23597,0.27891 -0.23598,0.25747 -0.21453,0.2789 -0.19307,0.25741 -0.17162,0.2789 -0.17162,0.2789 -0.15017,0.30039 -0.12872,0.30034 -0.12871,0.30038 -0.12871,0.32177 -0.21453,0.708 -0.19308,0.75092 -0.38614,1.82355 -0.47196,2.27412 0.34324,-0.25741 0.34324,-0.25747 0.32179,-0.30033 0.30034,-0.30039 0.30033,-0.30033 0.30034,-0.32182 0.27888,-0.32182 0.25743,-0.34327 0.51487,-0.6865 0.49341,-0.72943 0.45051,-0.72943 0.42905,-0.72949 0.62212,-0.51488 0.94392,-0.79378 0.57921,-0.45053 0.60067,-0.47201 0.66503,-0.45053 0.66503,-0.45054 0.3218,-0.21454 0.34324,-0.19306 0.32179,-0.17163 0.34324,-0.17163 0.32179,-0.15019 0.32179,-0.12871 0.32179,-0.0859 0.30034,-0.0859 0.30033,-0.0431 0.27888,-0.0431 0.27889,0.0213 0.23598,0.0431 0.23597,0.0644 0.21453,0.12871 0.21452,0.15019 0.17162,0.19306 -0.0429,0.32183 -0.0429,0.34326 -0.0644,0.34325 -0.0429,0.36474 -0.21452,0.42909 -0.21454,0.45053 -0.17162,0.45053 -0.17162,0.45054 -0.15017,0.45052 -0.12871,0.47196 -0.12872,0.47202 -0.10726,0.47196 -0.19308,0.96547 -0.12871,0.9654 -0.12871,0.96541 -0.10727,0.9869 -0.10726,0.9869 -0.10727,0.9869 -0.15016,0.9654 -0.15017,0.96542 -0.10726,0.47201 -0.10727,0.45053 -0.10726,0.47202 -0.12872,0.47196 -0.15016,0.45053 -0.17162,0.45053 -0.17162,0.42909 -0.21453,0.4291 -0.49341,0.36468 -0.64357,0.40767 -0.70795,0.49339 -0.68648,0.53638 -0.32179,0.25746 -0.30033,0.2789 -0.25744,0.2789 -0.21452,0.2789 -0.0858,0.15014 -0.0644,0.12876 -0.0644,0.12871 -0.0429,0.15019 -0.0429,0.12871 0,0.12871 0.0214,0.12876 0.0215,0.1287 0.4076,0.0859 0.40759,0.0431 0.38615,0.0431 0.36469,0.0213 0.34324,0 0.3218,-0.0213 0.32179,-0.0431 0.30034,-0.0644 0.30033,-0.0858 0.27888,-0.0859 0.27889,-0.0858 0.25743,-0.12876 0.51486,-0.23598 0.51486,-0.2789 0.49341,-0.30034 0.49341,-0.30039 0.51486,-0.30034 0.55778,-0.25746 0.27888,-0.12871 0.27889,-0.12871 0.32178,-0.10727 0.30034,-0.10727 0.34324,-0.0859 0.34324,-0.0644 0.36469,-0.0431 0.3647,-0.0431 0.15017,0.21455 0.12871,0.21455 0.10727,0.23598 0.10726,0.23599 0.0644,0.23603 0.0644,0.25741 0.0214,0.25747 0.0215,0.25741 0.0214,0.25747 -0.0214,0.2789 -0.0215,0.25747 -0.0429,0.2789 -0.0429,0.2789 -0.0644,0.25741 -0.0858,0.2789 -0.0858,0.27891 -0.19308,0.53637 -0.25743,0.53637 -0.27888,0.53631 -0.30033,0.51494 -0.3218,0.47196 -0.36469,0.47202 -0.36469,0.42904 -0.3647,0.38617 -0.49341,0.2789 -0.57921,0.30039 -0.60067,0.2789 -0.64359,0.30033 -1.33006,0.60074 -1.35151,0.60072 -0.64357,0.30033 -0.60069,0.30039 -0.57922,0.30033 -0.49341,0.32182 -0.23598,0.15014 -0.19307,0.15019 -0.19307,0.17163 -0.17162,0.15019 -0.15017,0.1502 -0.10726,0.17164 -0.10727,0.15012 -0.0644,0.15021 0.64358,-0.0431 0.62212,-0.0213 0.64358,-0.0431 0.64358,-0.0213 0.64358,-0.0431 0.64357,-0.0213 0.64358,-0.0213 0.66503,-0.0213 0.47196,-0.17162 0.51486,-0.19312 0.51486,-0.19306 0.53632,-0.19306 0.27889,-0.0859 0.27888,-0.0644 0.30033,-0.0644 0.30034,-0.0431 0.30034,-0.0431 0.32179,0 0.32179,0 0.32178,0.0431 0.19307,0.66508 0.10727,0.62216 0.0644,0.60072 -0.0215,0.5578 -0.0858,0.51488 -0.12872,0.49345 -0.17161,0.47197 -0.25744,0.42909 -0.27888,0.40761 -0.32179,0.38617 -0.38615,0.36474 -0.40759,0.32182 -0.42905,0.32177 -0.47196,0.3004 -0.49342,0.30033 -0.51486,0.2789 -0.53631,0.25747 -0.55777,0.25746 -0.55777,0.23598 -0.57922,0.23598 -1.15843,0.47196 -1.137,0.45059 -0.55776,0.23598 -0.55777,0.23598 -0.53631,0.23599 -0.49341,0.25746 -0.49341,0.25747 -0.47196,0.2789 -0.42905,0.30033 -0.38616,0.30034 0.10726,0.23603 0.12873,0.23598 0.15017,0.23598 0.15016,0.21455 0.17163,0.19306 0.17162,0.19311 0.21452,0.17164 0.21453,0.17163 0.21452,0.15019 0.23598,0.15019 0.23598,0.15014 0.25743,0.12876 0.27889,0.12871 0.25742,0.10727 0.27889,0.10728 0.30034,0.0858 0.60067,0.17163 0.62212,0.15019 0.62213,0.10728 0.66503,0.0858 0.64358,0.0644 0.66503,0.0431 0.64358,0.0213 0.64357,0.0213 0.3647,-0.21455 0.51487,-0.30038 0.30033,-0.15014 0.30034,-0.17164 0.34324,-0.12876 0.34324,-0.15014 0.34324,-0.10727 0.34324,-0.0859 0.36469,-0.0644 0.3218,-0.0213 0.17161,0.0213 0.15017,0 0.17162,0.0431 0.15017,0.0431 0.12871,0.0644 0.15018,0.0859 0.12871,0.0858 0.10726,0.10728 -0.21453,0.53637 -0.23597,0.51488 -0.25743,0.47202 -0.30034,0.49339 -0.30034,0.45058 -0.34323,0.42904 -0.34325,0.4291 -0.38614,0.4076 -0.38615,0.40767 -0.4076,0.38618 -0.42905,0.36469 -0.42906,0.36474 -0.4505,0.34325 -0.4505,0.34325 -0.47196,0.32182 -0.49341,0.32182 -0.87956,0.17163 -1.02972,0.15014 -1.11554,0.17168 -1.15844,0.17164 -1.11553,0.15014 -1.05118,0.17162 -0.92247,0.17163 -0.75084,0.15019 -0.0429,0.30039 -0.0214,0.2789 0,0.2789 0,0.2789 0.21453,0.17163 0.23599,0.17163 0.21452,0.1287 0.21453,0.12871 0.21452,0.0859 0.21453,0.0859 0.19307,0.0644 0.21453,0.0644 0.21452,0.0431 0.21453,0.0213 0.21452,0.0213 0.21453,0 0.4076,-0.0213 0.42905,-0.0431 0.901,-0.1287 0.94393,-0.12876 0.51486,-0.0644 0.51486,-0.0213 0.53631,0 0.57922,0.0431 -0.0858,0.32182 -0.10726,0.30034 -0.12871,0.30038 -0.12872,0.30034 -0.17162,0.2789 -0.17162,0.2789 -0.19307,0.2789 -0.19308,0.27891 -0.23597,0.25746 -0.21453,0.25742 -0.25743,0.23603 -0.23598,0.25741 -0.53632,0.45053 -0.55777,0.45053 -0.60067,0.40766 -0.60067,0.40761 -0.60067,0.36475 -0.62213,0.34325 -1.20134,0.64359 -1.11555,0.5578 -0.79374,0 -0.75084,-0.0431 -0.72938,-0.0431 -0.70794,-0.0858 -0.66503,-0.0859 -0.64358,-0.12871 -0.60068,-0.1287 -0.60067,-0.1502 -0.57922,-0.19306 -0.55776,-0.19311 -0.53632,-0.19306 -0.51486,-0.23604 -0.49341,-0.25741 -0.49342,-0.25746 -0.47196,-0.2789 -0.47195,-0.30034 -0.4505,-0.32182 -0.4505,-0.32183 -0.45051,-0.36468 -0.42905,-0.34331 -0.87955,-0.7723 -0.87956,-0.83675 -0.90102,-0.87958 -0.92246,-0.92254 -0.96536,-0.98689 -1.00827,-1.02977 -0.45051,-0.10728 -0.42906,-0.0644 -0.40759,-0.0644 -0.38615,-0.0431 -0.3647,-0.0213 -0.34323,0 -0.32179,0 -0.32179,0.0431 -0.62213,0.0858 -0.60067,0.15021 -0.62212,0.15019 -0.64359,0.19306 0,1.50178 0,1.50178 0,1.52321 0,1.50178 0,1.52326 0,1.50179 0,1.52321 0,1.52327 -0.53631,1.63048 -0.57922,1.58757 -0.30034,0.79384 -0.30034,0.77234 -0.32178,0.79379 -0.34324,0.77235 -0.32179,0.77235 -0.36469,0.75086 -0.3647,0.75092 -0.36469,0.75086 -0.38614,0.75092 -0.38616,0.75086 -0.4076,0.72943 -0.42905,0.72943 -0.42905,0.708 -0.42905,0.72942 -0.47196,0.70801 -0.47196,0.70799 -0.47196,0.68651 -0.4934,0.68651 -0.51486,0.68657 -0.53633,0.6865 -0.53631,0.66508 -0.53632,0.66507 -0.57921,0.66508 -0.57922,0.64365 -0.60068,0.64358 -0.60067,0.64365 -0.64357,0.62215 -0.64359,0.62216 -0.90101,1.17996 -0.83664,1.07273 -0.79375,1.02977 -0.72939,0.96546 -0.32178,0.47196 -0.3218,0.45053 -0.30034,0.45053 -0.27888,0.45053 -0.25743,0.45053 -0.21453,0.45058 -0.21452,0.45053 -0.19308,0.45053 -0.15016,0.45052 -0.12872,0.47197 -0.10726,0.47202 -0.0644,0.47196 -0.0429,0.49345 -0.0215,0.51488 0.0215,0.53636 0.0644,0.53638 0.0858,0.5578 0.12872,0.60072 0.15017,0.60067 0.19307,0.64364 0.23598,0.66508 0.25743,0.68651 0.32179,0.72943 0.34324,0.75091 0.83666,0.87963 0.83665,0.87957 0.8152,0.90111 0.83665,0.90106 0.81519,0.90106 0.81521,0.94397 0.79374,0.94397 0.8152,0.94399 0.77229,0.98689 0.79375,1.00834 0.77229,1.02976 0.75085,1.02982 0.75084,1.07269 0.72939,1.1156 0.70793,1.1156 0.70793,1.18002 0.0429,0.6865 -0.0214,0.66508 -0.0214,0.32182 -0.0214,0.30033 -0.0429,0.30033 -0.0429,0.27891 -0.12871,0.55786 -0.17162,0.51488 -0.19308,0.51488 -0.23598,0.49345 -0.27889,0.47196 -0.30033,0.47202 -0.32179,0.49345 -0.36469,0.47196 -0.79375,1.00833 -0.8581,1.09417 -0.64358,1.00833 -0.47195,0.77235 -0.40761,0.62215 -0.34324,0.51495 -0.34324,0.49339 -0.36469,0.51494 -0.45051,0.60066 -0.55777,0.75092 -1.07262,0.60073 -1.02972,0.57923 -1.02974,0.60072 -1.02972,0.57923 -0.98682,0.57929 -0.98682,0.60073 -0.96537,0.60067 -0.96536,0.60072 -0.94392,0.62215 -0.94391,0.64364 -0.92246,0.64366 -0.92247,0.6865 -0.90101,0.68651 -0.901,0.72943 -0.90101,0.75092 -0.87956,0.79378 -0.51486,0.85819 -0.42906,0.77229 -0.38614,0.68657 -0.32179,0.62216 -0.25744,0.5578 -0.21452,0.53637 -0.0644,0.25741 -0.0858,0.25747 -0.0429,0.25747 -0.0429,0.23598 -0.0214,0.25742 0,0.25746 0,0.25747 0.0214,0.2789 0.0429,0.2789 0.0429,0.2789 0.0429,0.30033 0.0859,0.32183 0.17162,0.68651 0.23597,0.75092 0.27888,0.85813 0.32179,0.96547 0,0.47196 -0.0214,0.4291 -0.0429,0.38617 -0.0644,0.34325 -0.0859,0.32182 -0.0858,0.25742 -0.10726,0.25746 -0.12873,0.19306 -0.15016,0.19312 -0.15017,0.1502 -0.15017,0.10728 -0.19307,0.10721 -0.19308,0.0644 -0.19307,0.0431 -0.21452,0.0213 -0.21453,0 -0.23598,-0.0213 -0.23598,-0.0431 -0.25743,-0.0644 -0.25742,-0.0644 -0.53632,-0.19306 -0.55776,-0.23598 -1.15845,-0.57929 -1.2228,-0.64358 -0.0429,0.92248 -0.0429,0.92256 -0.0644,0.92248 -0.0644,0.92254 -0.0644,0.47196 -0.0644,0.47203 -0.0858,0.49344 -0.0858,0.49345 -0.10727,0.49345 -0.12871,0.51488 -0.15017,0.51488 -0.17162,0.51489 -0.21453,0.0431 -0.21452,0.0213 -0.21453,0 -0.23598,-0.0213 -0.23597,-0.0431 -0.23598,-0.0644 -0.23598,-0.0644 -0.23598,-0.0859 -0.47195,-0.21449 -0.47196,-0.25747 -0.47197,-0.2789 -0.47195,-0.32182 -0.90101,-0.64358 -0.8152,-0.64365 -0.34324,-0.27891 -0.34324,-0.23598 -0.27888,-0.21454 -0.25743,-0.1502 -0.0858,0.2789 -0.0644,0.25747 -0.0644,0.32183 -0.0644,0.42904 -0.0644,0.60072 -0.10726,0.85819 -0.12872,1.13704 -0.17162,1.52321 -0.3218,-0.0431 -0.34324,-0.0213 -0.32179,-0.0644 -0.30033,-0.0644 -0.60068,-0.1287 -0.57922,-0.19312 -0.53631,-0.21449 -0.53631,-0.23604 -0.49341,-0.25741 -0.49341,-0.2789 -0.45052,-0.3004 -0.45049,-0.32182 -0.45051,-0.32176 -0.42905,-0.32182 -0.83665,-0.66508 -0.8152,-0.64364 -0.42905,0.32182 -0.4076,0.32182 -0.4076,0.34326 -0.40761,0.32182 -0.4076,0.32182 -0.40759,0.34325 -0.4076,0.32182 -0.38615,0.32178 0,0.96546 0,0.77235 0.0214,0.66507 0.0215,0.66508 0.0644,0.70794 0.0644,0.85819 0.10726,1.07268 0.15017,1.39451 -0.15017,0.45053 -0.23597,0.4291 -0.27889,0.4076 -0.34324,0.38619 -0.4076,0.34325 -0.4505,0.32182 -0.47196,0.32182 -0.53632,0.2789 -0.57922,0.25747 -0.60067,0.23598 -0.62213,0.23598 -0.66503,0.19311 -0.66503,0.19306 -0.70793,0.17163 -0.70795,0.15019 -0.70793,0.15021 -0.72938,0.1072 -0.72939,0.12878 -0.72939,0.0858 -0.72938,0.10728 -1.41589,0.12876 -1.33005,0.1287 -1.24425,0.0858 -1.11553,0.0644 -0.96538,0.0431 -0.75084,0.0431 z"
     id="path2549"
     inkscape:connector-curvature="0" />
  <path
     style="fill:#131516;fill-opacity:1;fill-rule:evenodd;stroke:none"
     d="m 153.23174,305.46345 -0.40759,-0.0858 -0.4076,-0.0859 -0.42905,-0.0644 -0.51487,-0.0644 -0.68648,-0.0431 -0.92246,-0.0644 -1.1799,-0.0858 0.0858,-0.49345 0.10727,-0.45053 0.10726,-0.45053 0.10726,-0.4291 0.15017,-0.4076 0.12872,-0.40766 0.17162,-0.36469 0.15016,-0.38617 0.17162,-0.36475 0.19307,-0.34326 0.19309,-0.34325 0.19307,-0.34326 0.42905,-0.64364 0.45051,-0.62215 0.94391,-1.22288 1.00827,-1.24431 0.51486,-0.64364 0.49341,-0.68652 0.49342,-0.70799 0.49341,-0.75086 0.10726,-1.0084 0.0858,-0.85813 0.0858,-0.75086 0.10726,-0.62221 0.0644,-0.25741 0.0644,-0.25747 0.0644,-0.21455 0.0859,-0.21455 0.0858,-0.17163 0.0858,-0.17163 0.12871,-0.15019 0.10726,-0.15014 0.15017,-0.12876 0.15017,-0.10722 0.17162,-0.10727 0.19307,-0.0859 0.42905,-0.17163 0.51487,-0.17163 1.33006,-0.34325 1.75911,-0.45053 1.28716,-0.75092 1.05117,-0.62216 0.92246,-0.57928 0.96538,-0.60067 1.09408,-0.70799 1.37296,-0.90107 1.75912,-1.15852 2.29542,-1.52322 1.30861,-0.38617 1.30861,-0.34331 1.33007,-0.34325 1.3086,-0.32182 1.30861,-0.32177 1.30861,-0.32182 1.30861,-0.34325 1.3086,-0.34327 1.28717,-0.36474 1.3086,-0.4076 0.64358,-0.23604 0.64357,-0.21449 0.62213,-0.25747 0.64358,-0.25746 0.64358,-0.25742 0.64358,-0.30039 0.62212,-0.30033 0.64358,-0.3004 0.62212,-0.34325 0.62213,-0.36469 0.64358,-0.36474 0.62213,-0.4076 1.65184,-1.416 1.56604,-1.35158 0.75084,-0.64364 0.75085,-0.62216 0.72939,-0.62216 0.75084,-0.57923 0.75083,-0.57929 0.7723,-0.5578 0.79374,-0.5578 0.81521,-0.55781 0.83665,-0.53632 0.87955,-0.51493 0.92246,-0.53631 0.94391,-0.51494 0.0859,-1.05126 0.10726,-1.02976 0.12871,-1.02981 0.12872,-1.00834 0.15017,-1.00833 0.17162,-0.98689 0.17162,-0.98685 0.17162,-0.9869 0.19307,-0.9654 0.19308,-0.96548 0.21452,-0.94397 0.19307,-0.94397 0.21453,-0.96542 0.19307,-0.94397 0.19307,-0.92255 0.19308,-0.94398 -1.24425,-0.98684 -1.2657,-1.05125 -1.26571,-1.09418 -1.28716,-1.15852 -0.62212,-0.57923 -0.64357,-0.62215 -0.62213,-0.60074 -0.62214,-0.62215 -0.60067,-0.64364 -0.57921,-0.64364 -0.60067,-0.66509 -0.55777,-0.66501 -0.55777,-0.66508 -0.51486,-0.68656 -0.51486,-0.68651 -0.49342,-0.68651 -0.47195,-0.708 -0.45051,-0.68656 -0.42905,-0.72943 -0.38615,-0.70795 -0.36469,-0.70799 -0.32179,-0.72943 -0.30033,-0.72943 -0.27889,-0.72949 -0.21452,-0.72942 -0.21453,-0.72943 -0.15016,-0.72943 -0.10727,-0.75087 1.35151,0.0213 1.39442,0.0644 1.39442,0.10728 1.41587,0.1287 1.41587,0.1502 1.43733,0.19306 1.45878,0.19311 1.45877,0.21456 1.45877,0.23598 1.48024,0.25741 1.48023,0.23603 1.50167,0.23598 1.48024,0.25747 1.50168,0.23598 1.50168,0.21455 1.48023,0.21449 0.17162,0.66507 0.19308,0.64366 0.17162,0.64364 0.21452,0.66507 0.42906,1.28723 0.47195,1.28724 0.51487,1.26579 0.53631,1.26575 0.57921,1.2658 0.62214,1.24437 0.66503,1.24431 0.68648,1.22287 0.70793,1.22288 0.75084,1.22288 0.77229,1.22288 0.81521,1.20139 0.8152,1.18001 0.8581,1.2014 0.72939,0.62215 0.75084,0.62221 0.77229,0.66508 0.79375,0.66508 0.79375,0.72942 0.79374,0.77235 0.4076,0.38617 0.38615,0.42904 0.4076,0.42911 0.38614,0.45052 0.25743,1.69489 0.25744,1.73777 0.10726,0.90105 0.10727,0.90107 0.0857,0.90105 0.0858,0.92254 0.0429,0.92255 0.0214,0.92249 -0.0214,0.92254 -0.0215,0.94399 -0.0858,0.92248 -0.10727,0.92254 -0.0644,0.45053 -0.0859,0.45053 -0.10726,0.47202 -0.10726,0.45053 -0.38615,0.42904 -0.42905,0.40766 -0.4505,0.36469 -0.47196,0.36474 -0.49341,0.34325 -0.49342,0.30033 -0.53631,0.3004 -0.53631,0.2789 -0.55777,0.25747 -0.57922,0.23598 -0.57922,0.23598 -0.60067,0.21455 -0.60067,0.19305 -0.62214,0.17163 -0.62212,0.17168 -0.62212,0.17163 -1.26571,0.30033 -1.2657,0.25747 -1.2657,0.23598 -1.24425,0.21456 -1.2228,0.21454 -1.17989,0.2145 -1.13699,0.21454 -1.09409,0.23604 -1.09408,0.53631 -1.09408,0.53637 -1.07263,0.53631 -1.07263,0.53638 -1.05117,0.53637 -1.05118,0.53631 -1.02973,0.53637 -1.05118,0.53637 -1.02972,0.55781 -1.02973,0.5578 -1.02972,0.5578 -1.02973,0.5578 -1.02972,0.57923 -1.02972,0.60072 -1.02972,0.60073 -1.02974,0.62216 -0.15017,1.05124 -0.17162,1.07269 -0.15017,1.07274 -0.15016,1.07268 -0.12872,1.07269 -0.15017,1.09417 -0.15016,1.07268 -0.12872,1.07269 -0.25743,0.10727 -0.27888,0.0859 -0.25743,0.0431 -0.27889,0.0213 -0.27888,0 -0.27888,-0.0213 -0.27889,-0.0644 -0.27888,-0.0644 -0.27888,-0.0858 -0.30034,-0.10727 -0.27889,-0.12871 -0.27888,-0.12876 -0.57923,-0.32176 -0.55776,-0.34331 -1.07263,-0.72943 -0.96536,-0.70795 -0.42905,-0.32182 -0.4076,-0.2789 -0.34326,-0.19311 -0.30033,-0.15014 0,0.49339 0,0.51493 0,0.49346 0,0.49339 0,0.49345 0,0.51494 0,0.51488 0,0.51488 -0.60067,-0.10728 -0.57922,-0.0858 -0.57922,-0.0859 -0.55777,-0.10728 -0.47195,-0.19306 -0.45051,-0.12876 -0.42905,-0.10727 -0.40761,-0.0644 -0.40759,-0.0431 -0.38615,-0.0213 -0.38615,0.0213 -0.36469,0.0213 -0.75084,0.0859 -0.75084,0.10727 -0.40759,0.0644 -0.38615,0.0431 -0.42905,0.0213 -0.42907,0 -1.00826,-0.38618 -0.79375,-0.34326 -0.34324,-0.15019 -0.30034,-0.10728 -0.30033,-0.10727 -0.27888,-0.0644 -0.25744,-0.0431 -0.27888,-0.0213 -0.25743,0.0431 -0.27888,0.0431 -0.30035,0.10728 -0.32178,0.1287 -0.3647,0.19312 -0.38615,0.21455 0.3647,1.02976 0.34324,1.05125 0.36469,1.05125 0.34326,1.05126 0.36469,1.05125 0.36469,1.05124 0.3647,1.07269 0.38614,1.05125 -0.72939,0.23598 -0.70793,0.23598 -0.7294,0.21455 -0.70793,0.21455 -0.72939,0.19311 -0.72939,0.17163 -0.70793,0.17162 -0.72939,0.15014 -1.45878,0.27891 -1.43732,0.25747 -1.45877,0.21455 -1.43734,0.17162 -1.43732,0.1502 -1.43732,0.12871 -1.43733,0.10727 -1.43732,0.10727 -1.41587,0.0858 -1.43733,0.0859 -1.39442,0.0644 -1.41586,0.0859 z"
     id="path2551"
     inkscape:connector-curvature="0" />
  <path
     style="fill:#ffffff;fill-opacity:1;fill-rule:evenodd;stroke:none"
     d="m 187.8777,142.09123 -0.10726,0.0859 z"
     id="path2553"
     inkscape:connector-curvature="0" />
  <path
     style="fill:#ffffff;fill-opacity:1;fill-rule:evenodd;stroke:none"
     d="m 132.89468,56.318142 -0.27888,-0.128763 -0.27888,-0.128706 -0.27889,-0.107274 0.3647,-0.278901 0.30033,-0.257469 0.30034,-0.257413 0.25743,-0.23598 0.21452,-0.236036 0.19308,-0.235981 0.17162,-0.23598 0.15017,-0.257468 0.10726,-0.235981 0.10726,-0.278901 0.10727,-0.257469 0.0644,-0.300334 0.12872,-0.643643 0.10726,-0.750862 0.3647,0.23598 0.34323,0.235981 0.30034,0.236035 0.25743,0.214492 0.25744,0.236037 0.21453,0.214492 0.17162,0.214547 0.15017,0.193117 0.12871,0.214547 0.10726,0.19306 0.0644,0.193116 0.0429,0.193059 0.0214,0.193115 0,0.171628 -0.0429,0.171627 -0.0429,0.171628 -0.0858,0.171626 -0.10726,0.150195 -0.12872,0.150139 -0.12871,0.150195 -0.17162,0.128706 -0.19308,0.128763 -0.21452,0.107273 -0.23599,0.107275 -0.25743,0.107217 -0.25743,0.107275 -0.30034,0.08584 -0.30033,0.06435 -0.32179,0.08584 -0.34324,0.04308 -0.3647,0.06441 -0.36469,0.02127 z"
     id="path2559"
     inkscape:connector-curvature="0" />
  <path
     style="fill:#ffffff;fill-opacity:1;fill-rule:evenodd;stroke:none"
     d="m 128.43254,54.408699 -0.32178,-0.321822 -0.27889,-0.321767 -0.23598,-0.300389 -0.21452,-0.278901 -0.17162,-0.257413 -0.12872,-0.257469 -0.10727,-0.23598 -0.0858,-0.214548 -0.0429,-0.193115 -0.0214,-0.19306 0.0214,-0.19306 0.0214,-0.150194 0.0644,-0.150195 0.10726,-0.150195 0.10726,-0.128706 0.12872,-0.107275 0.17162,-0.107273 0.17162,-0.08579 0.21453,-0.08584 0.21452,-0.08579 0.23598,-0.06441 0.25743,-0.06435 0.27889,-0.04308 0.57921,-0.08579 0.64358,-0.04308 0.66503,-0.04309 0.7294,0 0,0.193117 0,0.171626 -0.6865,0.49345 -0.53631,0.386174 -0.21452,0.193061 -0.19308,0.171627 -0.17162,0.171627 -0.12871,0.193116 -0.12872,0.214548 -0.10726,0.214547 -0.0858,0.257413 -0.0858,0.278902 -0.15017,0.686564 -0.15017,0.901056 z"
     id="path2561"
     inkscape:connector-curvature="0" />
  <path
     style="fill:none;stroke:#fcdb00;stroke-width:4.47674417;stroke-miterlimit:4;stroke-opacity:1;stroke-dasharray:none"
     d="m 293.55827,229.13413 c -6.85683,-4.62498 -10.46076,-12.10266 -11.1301,-23.09334 -0.49879,-8.19027 0.31998,-14.36235 3.84273,-28.96756 3.14615,-13.04378 3.56672,-15.65423 3.76717,-23.38215 l 0.17427,-6.71842 -0.97366,-1.7889 c -0.53552,-0.98393 -1.06698,-1.77872 -1.18103,-1.76619 -0.35339,0.0386 -4.64285,5.12771 -7.24898,8.6 -5.68287,7.57157 -8.90815,15.04001 -9.49544,21.98769 l -0.22725,2.68828 -1.83376,0.38069 c -3.69413,0.76693 -3.78245,0.74169 -4.30332,-1.22886 -0.6961,-2.63339 -0.36736,-9.21101 0.6049,-12.10316 1.31861,-3.92247 4.27814,-9.41655 8.50842,-15.79512 4.69616,-7.08099 7.75776,-12.67311 8.8851,-16.22871 0.92267,-2.91021 1.03363,-2.97765 5.41142,-3.28839 l 3.03832,-0.21567 1.08627,2.76652 c 2.58706,6.58871 3.53929,11.22208 3.84909,18.72868 0.35393,8.57588 -0.55069,16.23167 -4.12455,34.90629 -3.09757,16.18573 -3.05962,15.81573 -2.13889,20.84954 1.5901,8.69362 3.77655,13.72956 7.87892,18.14716 0.98861,1.06457 1.0192,1.19658 0.77245,3.33277 -0.14132,1.22332 -0.39138,2.5795 -0.55566,3.01363 -0.47006,1.24201 -1.92977,0.98068 -4.60642,-0.82478 z m -31.44851,-34.77904 -1.53417,-0.13638 0.18858,-1.40609 c 0.28938,-2.15734 1.67558,-3.95078 3.89188,-5.0351 1.71913,-0.84107 2.5181,-0.97464 7.47275,-1.24907 3.0513,-0.169 6.13982,-0.31326 6.86338,-0.32064 l 1.31557,-0.0135 0,3.32611 c 0,3.93142 1.00651,3.38643 -8.09136,4.38134 -6.39753,0.6996 -7.02091,0.72758 -10.10663,0.45321 z m 31.66931,-4.49208 c -0.29015,-1.15606 0.0819,-3.4546 0.77656,-4.79795 0.83163,-1.60816 3.18233,-4.01284 6.09951,-6.23958 3.00647,-2.29483 5.6154,-4.9722 6.4864,-6.65652 1.8754,-3.62661 3.14578,-15.62165 2.31478,-21.85631 -1.13196,-8.49255 -5.52693,-17.94699 -11.25754,-24.21717 -0.9644,-1.05522 -1.75345,-2.0743 -1.75345,-2.26462 0,-0.19037 1.68367,-1.90474 3.7415,-3.80982 2.63779,-2.44195 3.79087,-3.30848 3.90881,-2.93753 0.46429,1.46044 6.31886,12.38212 7.63398,14.2412 2.84544,4.02236 6.62211,6.88931 10.33123,7.84259 0.86504,0.22232 2.168,0.633 2.89547,0.91258 3.92277,-2.13871 5.13672,7.48998 -4.07465,6.0741 -2.34475,-0.55036 -3.20184,-0.62938 -3.50817,-0.32344 -0.46018,0.45959 -0.48505,3.48319 -0.0694,8.43961 0.23317,2.78045 0.15318,3.9913 -0.48257,7.30661 -1.9325,10.07765 -5.70861,17.45303 -11.90291,23.24846 -2.44335,2.28604 -3.33168,2.88906 -4.93703,3.35151 -1.07666,0.31012 -2.86214,1.01784 -3.96772,1.57263 l -2.01015,1.00872 z m -19.86882,-61.90263 c -0.52789,-0.15898 -1.51457,-0.6319 -2.19261,-1.05091 -1.01154,-0.62518 -1.23278,-0.97213 -1.23278,-1.93323 l 0,-1.17134 2.36801,-0.23184 c 5.91552,-0.57913 10.69205,-2.53255 15.39671,-6.29676 5.01898,-4.01564 9.36609,-9.80374 16.43995,-21.889447 2.27661,-3.88962 3.71273,-5.997939 4.09091,-6.005773 0.70913,-0.01455 2.31995,1.830316 2.61124,2.990969 0.46942,1.870275 -2.22622,10.877211 -4.79908,16.035141 -4.96958,9.96283 -13.3118,16.74281 -23.65372,19.2242 -2.87743,0.69037 -7.29388,0.85131 -9.02861,0.32899 z m -14.82694,-10.66836 c -2.28576,-0.56491 -3.66016,-1.30592 -5.31271,-2.86445 l -1.34661,-1.27005 0.82111,-0.66485 c 1.27118,-1.02937 4.01714,-1.71879 8.99556,-2.25857 2.50835,-0.27197 5.27103,-0.72518 6.1393,-1.00715 9.54209,-3.09864 15.49219,-6.91232 23.20512,-14.87316 3.77446,-3.895773 11.54361,-13.531797 12.11889,-15.030947 0.11663,-0.303915 0.74799,-0.47834 1.7314,-0.47834 1.80979,0 1.80678,-0.208617 0.0731,5.075397 -3.91446,11.931082 -11.99168,21.80555 -23.53169,28.76768 -2.59491,1.56557 -3.08636,1.71582 -11.01374,3.36813 -8.92004,1.85919 -9.22914,1.89137 -11.87978,1.23631 z"
     id="path2161-5"
     inkscape:connector-curvature="0"
     sodipodi:nodetypes="sssscscsscsssssscssssssssscsssscsssssssssssssssccssssscsssscsssssssssscsssssssssssc" />
  <!-- EMR_SELECTPALETTE -->
  <!-- EMR_EXTSELECTCLIPRGN -->
  <path
     style="fill:#131516;fill-opacity:1"
     d="m 293.55828,229.13413 c -6.85683,-4.62498 -10.46077,-12.10266 -11.1301,-23.09334 -0.49879,-8.19027 0.31998,-14.36235 3.84273,-28.96756 3.14614,-13.04378 3.56672,-15.65423 3.76717,-23.38215 l 0.17427,-6.71842 -0.97366,-1.7889 c -0.53552,-0.98393 -1.06698,-1.77872 -1.18103,-1.76619 -0.35339,0.0386 -4.64285,5.12771 -7.24898,8.6 -5.68288,7.57157 -8.90815,15.04001 -9.49545,21.98769 l -0.22724,2.68828 -1.83376,0.38069 c -3.69414,0.76693 -3.78246,0.74169 -4.30334,-1.22886 -0.69609,-2.63339 -0.36735,-9.21101 0.6049,-12.10316 1.31862,-3.92247 4.27815,-9.41655 8.50844,-15.79512 4.69614,-7.08099 7.75775,-12.67311 8.88508,-16.22871 0.92268,-2.91021 1.03364,-2.97765 5.41143,-3.28839 l 3.03832,-0.21567 1.08627,2.76652 c 2.58706,6.58871 3.5393,11.22208 3.84909,18.72868 0.35393,8.57588 -0.55069,16.23167 -4.12455,34.90629 -3.09757,16.18573 -3.0596,15.81573 -2.13889,20.84954 1.59011,8.69362 3.77656,13.72956 7.87893,18.14716 0.98861,1.06457 1.0192,1.19658 0.77244,3.33277 -0.14131,1.22332 -0.39137,2.5795 -0.55566,3.01363 -0.47006,1.24201 -1.92976,0.98068 -4.60641,-0.82478 z m -31.44852,-34.77904 -1.53417,-0.13638 0.18859,-1.40609 c 0.28937,-2.15734 1.67557,-3.95078 3.89188,-5.0351 1.71913,-0.84107 2.5181,-0.97464 7.47275,-1.24907 3.0513,-0.169 6.13981,-0.31326 6.86337,-0.32064 l 1.31557,-0.0135 0,3.32611 c 0,3.93142 1.00651,3.38643 -8.09136,4.38134 -6.39753,0.6996 -7.02091,0.72758 -10.10663,0.45321 z m 31.66931,-4.49208 c -0.29015,-1.15606 0.0819,-3.4546 0.77655,-4.79795 0.83163,-1.60816 3.18233,-4.01284 6.09951,-6.23958 3.00648,-2.29483 5.61542,-4.9722 6.48641,-6.65652 1.8754,-3.62661 3.14578,-15.62165 2.31478,-21.85631 -1.13195,-8.49255 -5.52693,-17.94699 -11.25754,-24.21717 -0.9644,-1.05522 -1.75345,-2.0743 -1.75345,-2.26462 0,-0.19037 1.68367,-1.90474 3.7415,-3.80982 2.63779,-2.44195 3.79087,-3.30848 3.90881,-2.93753 0.46429,1.46044 6.31886,12.38212 7.63397,14.2412 2.84545,4.02236 6.62211,6.88931 10.33123,7.84259 0.86504,0.22232 2.16799,0.633 2.89547,0.91258 1.91489,0.73603 4.54412,0.6278 8.9584,-0.36867 3.46642,2.82959 1.82307,2.72248 1.81716,6.11507 -5.76361,1.93362 -7.23879,2.11426 -14.85022,0.3277 -2.34474,-0.55036 -3.20183,-0.62938 -3.50816,-0.32344 -0.46018,0.45959 -0.48505,3.48319 -0.0694,8.43961 0.23316,2.78045 0.15318,3.9913 -0.48257,7.30661 -1.9325,10.07765 -5.70861,17.45303 -11.90291,23.24846 -2.44335,2.28604 -3.33168,2.88906 -4.93703,3.35151 -1.07666,0.31012 -2.86214,1.01784 -3.96772,1.57263 l -2.01015,1.00872 z m -19.86881,-61.90263 c -0.5279,-0.15898 -1.51457,-0.6319 -2.19261,-1.05091 -1.01155,-0.62518 -1.23278,-0.97213 -1.23278,-1.93323 l 0,-1.17134 2.36801,-0.23184 c 5.91552,-0.57913 10.69205,-2.53255 15.3967,-6.29676 5.01898,-4.01564 9.36609,-9.80374 16.43995,-21.889447 2.27661,-3.88962 3.71273,-5.997939 4.09091,-6.005773 0.70913,-0.01455 2.31995,1.830316 2.61124,2.990969 0.46941,1.870275 -2.22622,10.877211 -4.79908,16.035141 -4.96958,9.96283 -13.3118,16.74281 -23.65373,19.2242 -2.87743,0.69037 -7.29387,0.85131 -9.02861,0.32899 z m -14.82694,-10.66836 c -2.28576,-0.56491 -3.66017,-1.30592 -5.31271,-2.86445 l -1.34661,-1.27005 0.82111,-0.66485 c 1.27118,-1.02937 4.01714,-1.71879 8.99556,-2.25857 2.50835,-0.27197 5.27103,-0.72518 6.1393,-1.00715 9.54209,-3.09864 15.49219,-6.91232 23.20512,-14.87316 3.77446,-3.895773 11.54361,-13.531797 12.11889,-15.030947 0.11663,-0.303915 0.74799,-0.47834 1.73139,-0.47834 1.8098,0 1.80678,-0.208617 0.0731,5.075397 -3.91446,11.931082 -11.99168,21.80555 -23.53168,28.76768 -2.59492,1.56557 -3.08637,1.71582 -11.01375,3.36813 -8.92004,1.85919 -9.22914,1.89137 -11.87978,1.23631 z M 222.25987,60.113022 c 8.75365,0.914487 16.01575,5.769068 23.70205,8.203802 2.3804,0.753995 4.39464,1.304242 4.4761,1.222766 0.0815,-0.08142 -0.28234,-0.712474 -0.80847,-1.402284 -1.23772,-1.622708 -3.98745,-3.427843 -6.86279,-4.505283 -4.80253,-1.79954 -17.55703,-9.856 -29.93245,-4.406292 -10.52566,3.976748 -12.57063,0.992383 -13.03821,-1.25595 -0.97492,-4.687711 4.47626,-4.833653 11.47853,-4.852287 21.47064,-2.863326 33.7375,6.020661 37.10772,7.635815 1.42244,0.681695 2.64767,1.177943 2.72278,1.102845 0.32736,-0.327362 -1.04635,-2.284203 -2.66893,-3.801987 -5.08945,-4.76057 -14.53878,-9.863051 -24.02389,-10.805126 -8.0791,0.159205 -11.34715,1.321871 -13.94246,1.567085 -1.05318,0.09955 3.28106,-3.738753 6.76021,-5.219268 11.28838,-2.040948 19.45657,0.651813 28.58523,6.173262 3.81757,2.309105 4.45891,2.276648 7.32009,5.315294 5.38303,5.716859 10.59555,13.357038 13.57687,19.90008 l 1.35873,2.981903 -0.12703,-2.137645 c -0.28331,-4.767509 -7.30409,-16.389921 -18.29344,-30.283608 -2.04757,-2.588677 -3.72283,-4.829344 -3.72283,-4.979202 0,-0.504642 1.55173,-1.364792 2.46208,-1.364792 1.60247,0 5.73497,2.789515 7.61304,5.13891 9.58263,11.987714 15.5691,21.751158 18.35954,29.94276 0.6244,1.833059 1.50742,3.724148 1.96228,4.202488 l 0.827,0.869663 1.06121,-1.061212 1.06121,-1.061213 -0.90758,-3.141219 c -2.02679,-7.014946 -4.23763,-11.352631 -12.76025,-25.0358 -6.50279,-10.440271 -6.54339,-10.555995 -3.7028,-10.555995 1.22963,0 1.97896,0.321598 4.07915,1.750631 1.41505,0.962891 2.82329,1.949566 3.12944,2.192654 0.89678,0.71197 7.9233,12.6266 10.3608,17.568479 1.23182,2.497351 2.8058,6.374939 3.49775,8.61678 1.83414,5.94243 1.84023,5.94909 3.83662,4.196276 1.27749,-1.121647 1.29905,-1.182419 1.0949,-3.087889 -0.47611,-4.444401 -3.03016,-12.420896 -6.05871,-18.921911 -0.84459,-1.81297 -1.53561,-3.507529 -1.53561,-3.765726 0,-0.258196 0.45711,-0.981078 1.01579,-1.606367 0.97799,-1.094508 1.0531,-1.117564 2.0172,-0.619413 1.63104,0.842746 4.42834,3.900642 5.62079,6.144443 0.61117,1.150019 2.01532,5.129901 3.12033,8.844143 1.10501,3.714299 2.13526,6.753225 2.28943,6.753225 0.15419,0 0.80231,-0.655283 1.44029,-1.456229 2.94404,-3.696056 4.01157,-4.210602 5.48403,-2.643238 0.95223,1.013591 0.96851,2.339212 0.0611,4.976517 -0.93756,2.725106 -0.90114,3.480053 0.19191,3.97809 0.49146,0.223894 1.12293,0.407104 1.40328,0.407104 0.68928,0 0.64106,0.91169 -0.17347,3.27916 -2.40954,7.003418 -7.60527,13.182444 -15.80521,18.796334 -7.78941,5.33281 -17.89577,8.666155 -27.48026,9.063625 -4.75427,0.19715 -7.52035,-0.35467 -9.88174,-1.97145 -1.8144,-1.242243 -1.87943,-2.332159 -0.20643,-3.459568 1.8277,-1.231725 4.24344,-1.807096 9.28684,-2.211967 15.66255,-1.25729 27.51509,-6.9488 36.11877,-17.343967 1.35029,-1.631494 1.38073,-1.71174 0.40702,-1.072796 -10.68398,7.010302 -22.32492,12.128507 -31.14455,13.693297 -2.64595,0.46944 -4.61063,0.567707 -8.59502,0.429819 -5.47271,-0.189362 -8.7398,-0.846604 -12.52145,-2.51906 -2.09122,-0.924839 -2.35798,-1.404018 -2.20467,-3.960184 l 0.089,-1.484824 -8.12786,3.922132 c -4.88603,2.130539 -15.15414,-4.150502 -16.52892,-6.71299 -1.37478,-2.562488 -2.61674,-3.329466 8.19913,-0.480354 12.95881,-0.52059 9.80609,-3.34799 16.07614,-3.095837 5.38569,0.216618 9.86017,0.325851 9.94326,0.242751 0.34918,-0.349185 -3.75234,-2.319681 -6.20538,-2.981288 -4.82996,-1.30262 -10.87572,-4.755029 -20.56332,-4.193701 -6.76622,-2.483642 -7.55487,-9.428472 -1.37401,-9.654211 z"
     id="path2161"
     inkscape:connector-curvature="0"
     sodipodi:nodetypes="sssscscsscsssssscssssssssscsssscssssssssssssssssccsssssscsssscsssssssssscsssssssssssccssscsccsscscsscssssssscccsssscsssssssssssssssssssssssssssscscsccsscc" />
  <path
     inkscape:connector-curvature="0"
     style="fill:#ffffff;fill-opacity:1;fill-rule:evenodd;stroke:none"
     d="m 187.53724,142.11937 -0.10726,0.0859 z"
     id="path2553-1" />
  <path
     inkscape:connector-curvature="0"
     style="fill:#fcdb00;fill-opacity:1;fill-rule:evenodd;stroke:none"
     d="m 180.13609,119.46396 -0.17162,-0.1287 -0.12871,-0.1502 -0.10727,-0.15019 -0.0644,-0.15014 -0.0429,-0.15019 -0.0215,-0.1502 0,-0.15014 0.0859,-0.51493 0.10726,-0.36469 0.40761,-1.09418 0.42905,-1.07268 0.42906,-1.09416 0.42905,-1.07269 0.4076,-1.09417 0.42905,-1.07269 0.42905,-1.09417 0.42905,-1.07268 0.51486,-2.08107 0.47196,-2.05959 0.21452,-1.02976 0.21453,-1.02982 0.19307,-1.02977 0.19307,-1.02982 0.17162,-1.008329 0.15018,-1.029763 0.15016,-1.008333 0.12871,-1.029814 0.10728,-1.008333 0.10726,-1.008333 0.0858,-1.008324 0.0644,-1.029824 0.0429,-1.008333 0.0214,-1.008327 0.0215,-1.00833 0,-1.008332 -0.0215,-1.008386 -0.0429,-1.00833 -0.0644,-1.008332 -0.0858,-1.00833 -0.0858,-1.00833 -0.12873,-1.029819 -0.15016,-1.008331 -0.15017,-1.008331 -0.19308,-1.008331 -0.19307,-1.00833 -0.23598,-1.029819 -0.25743,-1.008331 -0.42905,-1.115604 -0.4076,-1.094173 -0.42905,-1.115604 -0.42905,-1.094117 -0.42905,-1.094172 -0.4076,-1.094172 -0.42905,-1.094116 -0.42906,-1.094173 -0.87955,-1.437426 -0.90101,-1.415939 -0.87956,-1.330152 -0.87955,-1.30872 -0.90102,-1.244312 -0.90101,-1.222878 -0.92246,-1.179958 -0.94391,-1.158525 -0.96537,-1.115605 -0.98682,-1.115604 -1.00828,-1.072741 -1.07262,-1.094116 -1.09408,-1.051251 -1.11553,-1.072684 -1.20136,-1.051251 -1.22279,-1.072741 -0.0429,-0.321765 -0.0429,-0.321822 -0.0644,-0.321823 -0.0429,-0.300333 0.15018,-0.171683 0.12871,-0.19306 0.15017,-0.171626 0.15017,-0.150195 0.51485,0.04308 0.55777,0.128762 0.55778,0.19306 0.60067,0.278901 0.57922,0.343254 0.62212,0.386176 0.62213,0.472017 0.64358,0.514881 0.64357,0.557802 0.64359,0.600723 0.64358,0.665077 0.64357,0.686509 0.66503,0.707996 0.64358,0.750862 0.64357,0.772351 0.64358,0.793782 0.62212,0.815272 0.62214,0.815271 0.62212,0.815215 0.60067,0.836704 1.15844,1.630541 1.07263,1.609054 0.98683,1.501779 0.87955,1.415939 0.75084,1.244367 0.62212,1.072684 0.32179,0.729429 0.30034,0.72943 0.32179,0.729429 0.32179,0.72943 0.32178,0.750917 0.34326,0.729431 0.32178,0.750861 0.32179,0.750918 0.49341,1.909388 0.42905,1.887954 0.4076,1.887956 0.34324,1.845034 0.17162,0.943977 0.12872,0.922545 0.15016,0.922545 0.10727,0.922489 0.10726,0.922545 0.10726,0.92249 0.0644,0.922544 0.0858,0.92249 0.0429,0.943977 0.0429,0.922545 0.0214,0.943978 0.0214,0.943972 -0.0214,0.943983 -0.0214,0.943974 -0.0214,0.943983 -0.0429,0.965403 -0.0644,0.965474 -0.0858,0.986842 -0.10726,0.986894 -0.10726,0.986904 -0.12872,1.008323 -0.15016,1.008333 -0.15017,1.02983 -0.19308,1.02976 -0.25743,1.02981 -0.27888,1.00834 -0.27888,1.00833 -0.30034,1.02976 -0.30034,1.02982 -0.32178,1.00833 -0.32179,1.02981 -0.34324,1.02977 -0.34324,1.02982 -0.34325,1.02976 -0.3647,1.02982 -0.38614,1.00833 -0.38615,1.02976 -0.4076,1.02983 -0.4076,1.02976 -0.40759,1.02981 -0.12872,0.10729 -0.12871,0.10727 -0.10727,0.0858 -0.12871,0.0644 -0.21453,0.0859 -0.21452,0.0644 -0.42905,0.0213 -0.4076,0.0213 z"
     id="path2555-7" />
  <path
     inkscape:connector-curvature="0"
     style="fill:#fcdb00;fill-opacity:1;fill-rule:evenodd;stroke:none"
     d="m 97.672293,68.038705 0,-0.600722 0,-0.471961 -0.02143,-0.386175 -0.02143,-0.171628 -0.06436,-0.150194 -0.06436,-0.128707 -0.107263,-0.150195 -0.150167,-0.128706 -0.171622,-0.128706 -0.23598,-0.128762 -0.25743,-0.128707 -0.08581,-0.278901 -0.04292,-0.235981 -0.02143,-0.214547 0,-0.193116 0.02143,-0.150138 0.02143,-0.150195 0.06436,-0.107275 0.08581,-0.107273 0.08581,-0.06435 0.107263,-0.06435 0.107262,-0.04308 0.150168,-0.02127 0.128717,0 0.171616,0 0.150173,0.02127 0.19307,0.04308 0.364693,0.107274 0.364698,0.150139 0.386147,0.171684 0.386146,0.214491 0.386148,0.214548 0.343238,0.214548 0.30034,0.214548 0.27888,0.214548 0,0.321822 -0.0429,0.343254 -0.0429,0.300334 -0.0858,0.300389 -0.0858,0.278901 -0.12871,0.257414 -0.12872,0.257468 -0.171618,0.214548 -0.171622,0.214548 -0.214526,0.19306 -0.235974,0.171627 -0.257436,0.150195 -0.278883,0.128706 -0.300334,0.107274 -0.321789,0.08584 -0.343242,0.06435 z"
     id="path2557-0" />
  <path
     inkscape:connector-curvature="0"
     style="fill:#fcdb00;fill-opacity:1;fill-rule:evenodd;stroke:none"
     d="m 160.22808,46.02689 -0.21452,-0.150138 -0.15017,-0.171628 -0.15017,-0.171627 -0.10726,-0.150194 -0.0644,-0.171628 -0.0644,-0.171627 -0.0214,-0.171628 0,-0.171682 0.0214,-0.171628 0.0429,-0.171627 0.0644,-0.171627 0.0644,-0.171627 0.10726,-0.171628 0.10727,-0.171626 0.10726,-0.150195 0.27888,-0.321822 0.30034,-0.321766 0.32178,-0.300389 0.32179,-0.300334 0.60067,-0.53637 0.47196,-0.42904 0.38615,-0.858192 0.34324,-0.858136 0.27888,-0.836703 0.25744,-0.836704 0.21453,-0.815271 0.17162,-0.815271 0.12871,-0.815215 0.10726,-0.815272 0.0644,-0.81527 0.0215,-0.793783 0,-0.815271 -0.0215,-0.793783 -0.0644,-0.793782 -0.0644,-0.793783 -0.10727,-0.815272 -0.12871,-0.793782 0.12871,-0.278901 0.17162,-0.278901 0.27889,0 0.30034,0 0.23597,0.514882 0.23598,0.536314 0.21453,0.57929 0.19307,0.600724 0.19307,0.622155 0.17162,0.643587 0.17162,0.665076 0.12872,0.686565 0.12871,0.686509 0.0859,0.707997 0.0858,0.707998 0.0429,0.70794 0.0215,0.707998 0,0.729429 -0.0429,0.707997 -0.0644,0.686509 -0.0859,0.707997 -0.12872,0.686509 -0.15017,0.665076 -0.19307,0.643644 -0.23598,0.622156 -0.25743,0.600723 -0.30034,0.579234 -0.36469,0.536371 -0.38614,0.514881 -0.42905,0.493449 -0.47197,0.429096 -0.51486,0.407608 -0.55777,0.343254 -0.62212,0.321822 -0.66503,0.257468 -0.70793,0.214549 z"
     id="path2563-5" />
  <path
     inkscape:connector-curvature="0"
     style="fill:#fcdb00;fill-opacity:1;fill-rule:evenodd;stroke:none"
     d="m 149.02982,45.061481 -0.34324,-0.321823 -0.30034,-0.321821 -0.23598,-0.343255 -0.21452,-0.343254 -0.15017,-0.343254 -0.12871,-0.343255 -0.0859,-0.364743 -0.0429,-0.343254 -0.0214,-0.343255 0.0214,-0.364742 0.0429,-0.343254 0.0859,-0.343254 0.12871,-0.343255 0.12871,-0.343254 0.17163,-0.321823 0.17162,-0.321821 0.21452,-0.321822 0.23598,-0.300334 0.25743,-0.300389 0.25743,-0.278901 0.27889,-0.278901 0.30034,-0.257414 0.32179,-0.23598 0.32179,-0.236037 0.32178,-0.214548 0.34325,-0.193059 0.34323,-0.19306 0.34325,-0.150194 0.36469,-0.150194 0.34324,-0.128708 0.3647,-0.08584 0.51486,0 0.55776,0.02127 0.55778,0.04309 0.55777,0.04308 -0.0429,0.214548 -0.0429,0.214548 -0.0429,0.23598 -0.0644,0.214548 -1.35151,0.514882 -1.1799,0.429096 -0.53632,0.214547 -0.49341,0.214548 -0.21452,0.107275 -0.21453,0.128706 -0.19307,0.128706 -0.17162,0.150195 -0.17162,0.150195 -0.12872,0.150138 -0.15016,0.193117 -0.10727,0.171626 -0.0858,0.214549 -0.0859,0.214548 -0.0644,0.235979 -0.0429,0.25747 -0.0214,0.278901 0,0.300333 0.0214,0.321822 0.0429,0.343254 0.0644,0.364743 0.0859,0.386119 0.10726,0.429096 0.12871,0.450529 -0.0429,0.386175 -0.0429,0.407663 -0.0644,0.407608 -0.0429,0.429096 -0.12872,0 -0.15016,0.04308 -0.10727,0.04309 -0.10726,0.04308 z"
     id="path2565-5" />
</svg>
