<?xml version="1.0" encoding="UTF-8" standalone="no"?>
<svg
   xmlns:dc="http://purl.org/dc/elements/1.1/"
   xmlns:cc="http://creativecommons.org/ns#"
   xmlns:rdf="http://www.w3.org/1999/02/22-rdf-syntax-ns#"
   xmlns:svg="http://www.w3.org/2000/svg"
   xmlns="http://www.w3.org/2000/svg"
   xmlns:sodipodi="http://sodipodi.sourceforge.net/DTD/sodipodi-0.dtd"
   xmlns:inkscape="http://www.inkscape.org/namespaces/inkscape"
   width="177.16534"
   height="177.16534"
   id="svg2543"
   sodipodi:version="0.32"
   inkscape:version="0.48.3.1 r9886"
   inkscape:output_extension="org.inkscape.output.svg.inkscape"
   sodipodi:docname="chaospferd_small.svg"
   version="1.1"
   inkscape:export-filename="/home/philipp/_daten/shack/embroidery/chaosrössle/chaospferd_small.png"
   inkscape:export-xdpi="300"
   inkscape:export-ydpi="300">
  <metadata
     id="metadata2570">
    <rdf:RDF>
      <cc:Work
         rdf:about="">
        <dc:format>image/svg+xml</dc:format>
        <dc:type
           rdf:resource="http://purl.org/dc/dcmitype/StillImage" />
        <dc:title></dc:title>
      </cc:Work>
    </rdf:RDF>
  </metadata>
  <defs
     id="defs2568">
    <inkscape:perspective
       sodipodi:type="inkscape:persp3d"
       inkscape:vp_x="-50 : 600 : 1"
       inkscape:vp_y="0 : 1000 : 0"
       inkscape:vp_z="700 : 600 : 1"
       inkscape:persp3d-origin="300 : 400 : 1"
       id="perspective2572" />
  </defs>
  <sodipodi:namedview
     inkscape:window-height="886"
     inkscape:window-width="1680"
     inkscape:pageshadow="2"
     inkscape:pageopacity="0.0"
     guidetolerance="10.0"
     gridtolerance="10.0"
     objecttolerance="10.0"
     borderopacity="1.0"
     bordercolor="#666666"
     pagecolor="#ffffff"
     id="base"
     showgrid="false"
     inkscape:zoom="1.941689"
     inkscape:cx="88.582672"
     inkscape:cy="177.16534"
     inkscape:window-x="0"
     inkscape:window-y="27"
     inkscape:current-layer="svg2543"
     inkscape:window-maximized="1"
     inkscape:document-units="mm"
     units="mm" />
  <path
     inkscape:connector-curvature="0"
     style="fill:#131516;fill-opacity:1;fill-rule:evenodd;stroke:none"
     d="m 85.214947,172.70429 -0.490153,-0.0533 -0.500807,-0.0427 -0.500807,-0.0533 -0.490153,-0.0533 -0.500807,-0.0533 -0.490158,-0.0426 -0.500806,-0.0533 -0.490153,-0.0427 -0.500807,-0.0533 -0.490158,-0.0426 -0.490148,-0.0533 -0.500807,-0.0427 -0.490152,-0.0426 -0.490153,-0.0533 -0.490153,-0.0427 -1.534388,-0.27706 -1.523735,-0.28771 -1.491771,-0.30902 -1.481113,-0.3197 -1.459804,-0.34099 -1.43849,-0.3623 -0.724575,-0.18118 -0.713916,-0.19181 -0.713921,-0.19181 -0.703261,-0.20246 -0.713916,-0.21312 -0.703262,-0.20246 -0.703266,-0.22378 -0.692603,-0.21313 -0.703261,-0.23443 -0.692612,-0.23445 -0.703257,-0.23442 -0.692607,-0.24509 -0.692613,-0.2451 -0.692602,-0.25574 -0.692608,-0.26642 -0.692612,-0.26641 -0.703256,-0.27706 -0.692608,-0.27706 -0.692607,-0.28771 -0.692608,-0.29838 -1.140138,-0.56476 -0.895062,-0.43691 -0.745883,-0.37298 -0.671294,-0.34099 -0.681953,-0.3623 -0.777853,-0.40495 -0.948338,-0.51148 -1.214725,-0.65004 -1.022927,-0.63937 -1.012272,-0.63937 -1.001616,-0.65004 -0.980305,-0.65001 -0.969649,-0.67136 -0.948338,-0.66068 -0.948342,-0.68198 -0.927025,-0.68201 -0.927028,-0.70329 -0.905718,-0.69265 -0.905718,-0.71397 -0.895061,-0.72464 -0.884404,-0.72462 -0.873751,-0.73526 -0.863094,-0.74593 -0.863094,-0.75661 -1.08686,-1.11888 -0.852441,-0.87382 -0.692605,-0.72461 -0.596711,-0.62873 -0.58605,-0.62871 -0.628674,-0.7033 -0.767196,-0.8525 -0.958993,-1.07627 -0.649985,-0.84186 -0.63933,-0.84182 -0.618018,-0.84183 -0.618018,-0.84185 -0.596707,-0.84183 -0.586054,-0.84185 -0.575397,-0.84183 -0.554084,-0.84185 -0.554085,-0.84182 -0.532773,-0.8525 -0.532777,-0.84186 -0.511463,-0.85249 -0.490153,-0.86315 -0.490153,-0.86314 -0.479496,-0.86315 -0.458185,-0.87381 -0.319664,-0.7033 -0.309011,-0.70332 -0.319664,-0.7033 -0.30901,-0.69265 -0.309007,-0.70333 -0.30901,-0.70329 -0.309011,-0.70332 -0.309007,-0.70329 -0.245077,-0.74594 -0.245076,-0.74593 -0.245077,-0.74594 -0.234422,-0.73528 -0.223763,-0.74593 -0.223766,-0.73529 -0.223766,-0.73526 -0.21311,-0.73529 -0.213109,-0.72462 -0.191799,-0.73528 -0.202456,-0.72462 -0.181142,-0.72461 -0.1918,-0.71397 -0.170488,-0.71396 -0.170486,-0.71398 -0.159834,-0.71397 -0.138519,-0.96971 -0.127868,-0.85246 -0.106555,-0.74596 -0.0959,-0.66066 -0.08524,-0.5648 -0.07459,-0.50083 -0.05328,-0.44756 -0.05328,-0.39427 -0.04262,-0.36234 -0.04262,-0.33034 -0.03197,-0.33035 -0.03197,-0.31966 -0.04262,-0.33035 -0.03197,-0.3623 -0.03197,-0.39427 -0.04262,-0.43691 L 10.349461,90.267661 9.837998,77.245786 9.390467,65.896973 9.006871,56.071959 8.665893,47.621738 8.388849,40.386186 8.143773,34.237556 7.94132,29.005381 7.770832,24.540427 7.63231,20.704195 7.504445,17.326193 7.39789,14.278536 7.291336,11.401341 7.195436,8.5348499 7.088882,5.5404439 6.982327,2.2583347 l 10.357138,0 10.357134,0 10.357138,0 10.346482,0 10.357137,0 10.357143,0 10.357133,0 10.357138,0 10.35713,0 10.35714,0 10.35714,0 10.34648,0 10.35714,0 10.35713,0 10.35714,0 10.35714,0 -0.25574,6.5322557 -0.25573,6.5322256 -0.25573,6.542905 -0.26639,6.532256 -0.25573,6.532226 -0.25573,6.532259 -0.25573,6.532229 -0.25573,6.53226 -0.25574,6.532226 -0.25573,6.542905 -0.25573,6.532251 -0.26638,6.532236 -0.25574,6.53225 -0.25573,6.532226 -0.25573,6.532265 -0.25573,6.5429 -0.10655,0.74593 -0.10656,0.74593 -0.10655,0.74594 -0.10656,0.75657 -0.0959,0.74594 -0.10656,0.75661 -0.10655,0.75657 -0.10656,0.75658 -0.25573,1.11891 -0.26638,1.10824 -0.27705,1.10824 -0.29835,1.10825 -0.31967,1.10823 -0.31966,1.0976 -0.34098,1.09759 -0.36228,1.0976 -0.36229,1.08692 -0.39426,1.09759 -0.39425,1.08693 -0.41556,1.08692 -0.43688,1.07627 -0.44753,1.08695 -0.45818,1.07628 -0.4795,1.07627 -0.36228,0.65001 -0.3623,0.66069 -0.36228,0.65004 -0.36229,0.66066 -0.36228,0.66069 -0.36229,0.66068 -0.36228,0.66069 -0.36229,0.66068 -0.41557,0.63937 -0.42622,0.63936 -0.42621,0.62872 -0.42623,0.61808 -0.43687,0.61805 -0.43687,0.6074 -0.43688,0.59676 -0.44753,0.6074 -0.44753,0.58609 -0.45819,0.58608 -0.45819,0.58609 -0.46883,0.57543 -0.46885,0.57544 -0.46884,0.56477 -0.4795,0.56479 -0.47949,0.56477 -0.49016,0.55412 -0.49014,0.55411 -0.50082,0.54348 -0.50081,0.55412 -0.51146,0.5328 -0.51146,0.54348 -0.51146,0.5328 -0.52213,0.53283 -0.53277,0.5328 -0.53278,0.52215 -0.53277,0.53281 -0.54343,0.52215 -1.09752,1.03364 -1.12948,1.03366 -0.72457,0.53281 -0.71392,0.54347 -0.72457,0.54348 -0.71392,0.55412 -0.71392,0.54344 -0.71391,0.54348 -0.71392,0.55412 -0.71392,0.54347 -1.1508,0.72462 -1.16144,0.71396 -1.1508,0.69266 -1.16144,0.682 -1.17211,0.66066 -1.16145,0.65004 -1.18276,0.62872 -1.1721,0.61805 -1.18276,0.6074 -1.19341,0.58609 -1.19342,0.57543 -1.20406,0.55413 -1.21474,0.54347 -1.21472,0.52215 -1.22538,0.51149 -1.23604,0.49019 -1.06555,0.34099 -1.06555,0.33034 -1.05489,0.30905 -1.06555,0.30903 -1.05489,0.29837 -1.05489,0.28771 -1.0549,0.27706 -1.05489,0.26641 -1.0549,0.25574 -1.05489,0.2451 -1.0549,0.23442 -1.05489,0.22378 -1.05489,0.21313 -1.04424,0.20246 -1.05489,0.19181 -1.0549,0.19182 -1.01227,0.10656 -1.01227,0.0959 -1.01227,0.0853 -1.012276,0.0746 -1.01226,0.0746 -1.012282,0.0639 -1.001614,0.0533 -1.012273,0.0427 -1.001614,0.0426 -1.001614,0.032 -1.001618,0.032 -1.001614,0.0214 -1.001619,0.0214 -0.99096,0.0106 -1.001619,0.0106 -0.990955,0.0106 z"
     id="path2545" />
  <path
     inkscape:connector-curvature="0"
     style="fill:#fcdb00;fill-opacity:1;fill-rule:evenodd;stroke:none"
     d="m 86.163284,168.95331 -0.788505,-0.064 -0.703266,-0.0533 -0.607359,-0.0427 -0.554083,-0.0427 -0.490153,-0.0426 -0.447531,-0.032 -0.415568,-0.032 -0.404904,-0.0427 -0.40491,-0.0427 -0.404909,-0.032 -0.426217,-0.0533 -0.46885,-0.0426 -0.500802,-0.0639 -0.575396,-0.0533 -0.639331,-0.0746 -0.895062,-0.15985 -0.884403,-0.17049 -0.873754,-0.1705 -0.863094,-0.17049 -0.86309,-0.18116 -0.852445,-0.19181 -0.841781,-0.19182 -0.831127,-0.19181 -0.831132,-0.20246 -0.820472,-0.21313 -0.820473,-0.21314 -0.809818,-0.22377 -0.809814,-0.23442 -0.799164,-0.23446 -0.799159,-0.23442 -0.79916,-0.25574 -0.78851,-0.25577 -0.799164,-0.26639 -0.777846,-0.26641 -0.78851,-0.28771 -0.788505,-0.28773 -0.777851,-0.2877 -0.78851,-0.30903 -0.777846,-0.30905 -0.777851,-0.31967 -0.78851,-0.33034 -0.777851,-0.34099 -0.7885,-0.34102 -0.777856,-0.36231 -0.788505,-0.3623 -0.799164,-0.37298 -0.788505,-0.3836 -0.468839,-0.25577 -0.468845,-0.25574 -0.468842,-0.25574 -0.468842,-0.26641 -0.458185,-0.25574 -0.46884,-0.25574 -0.468842,-0.25578 -0.468842,-0.25574 -0.767197,-0.47952 -0.745882,-0.49019 -0.73523,-0.49019 -0.724575,-0.49016 -0.724572,-0.4902 -0.703262,-0.50084 -0.692606,-0.49018 -0.681952,-0.51152 -0.681952,-0.50083 -0.660641,-0.51148 -0.660641,-0.52216 -0.649985,-0.51151 -0.639328,-0.5328 -0.639331,-0.52216 -0.628671,-0.54347 -0.618021,-0.54345 -0.618018,-0.54347 -0.607364,-0.55412 -0.596708,-0.55413 -0.596707,-0.57543 -0.596707,-0.56477 -0.586051,-0.58611 -0.586051,-0.58608 -0.586053,-0.59673 -0.575397,-0.60741 -0.575397,-0.6074 -0.575395,-0.61808 -0.564743,-0.62869 -0.575394,-0.6394 -0.564743,-0.65001 -0.564741,-0.66068 -0.56474,-0.66069 -0.340975,-0.46887 -0.340977,-0.46888 -0.340974,-0.46887 -0.340978,-0.46887 -0.33032,-0.46887 -0.340975,-0.46888 -0.340977,-0.46887 -0.340974,-0.4582 -0.596708,-0.96973 -0.586051,-0.95904 -0.564743,-0.95907 -0.54343,-0.94839 -0.522117,-0.94842 -0.511466,-0.95903 -0.490152,-0.94842 -0.479495,-0.9484 -0.468843,-0.94838 -0.447528,-0.95907 -0.447532,-0.95907 -0.426219,-0.9697 -0.426219,-0.96971 -0.415565,-0.99103 -0.404909,-0.99103 -0.394254,-1.00168 -0.181142,-0.66069 -0.170489,-0.65003 -0.170486,-0.63937 -0.170489,-0.62869 -0.170488,-0.62872 -0.170489,-0.61808 -0.159832,-0.6074 -0.159832,-0.61806 -0.159832,-0.60739 -0.149175,-0.60741 -0.149179,-0.59676 -0.149175,-0.6074 -0.138522,-0.59673 -0.138522,-0.6074 -0.127867,-0.6074 -0.127866,-0.60741 -0.08524,-0.65004 -0.08524,-0.65001 -0.07459,-0.65004 -0.08524,-0.63937 -0.07459,-0.65001 -0.07459,-0.63939 -0.07459,-0.65001 L 14.7715,105.86826 14.52642,99.624001 14.27069,93.379473 14.025613,87.145599 13.76988,80.901077 13.51415,74.656554 13.269074,68.412026 13.013341,62.178153 12.768265,55.93363 12.523188,49.689102 12.267455,43.44458 12.022381,37.210705 11.777305,30.966182 11.521573,24.721654 11.276496,18.477131 11.03142,12.243258 10.786343,5.9987299 l 9.87764,0 9.87764,0 9.877639,0 9.866985,0 9.877643,0 9.87764,0 9.877639,0 9.877639,0 9.877642,0 9.87764,0 9.87764,0 9.87764,0 9.87764,0 9.86699,0 9.87763,0 9.87764,0 -0.24507,6.1912421 -0.24507,6.191242 -0.24508,6.180592 -0.24508,6.191242 -0.24508,6.191242 -0.24507,6.191238 -0.24508,6.191272 -0.24508,6.180562 -0.24507,6.191272 -0.23442,6.191242 -0.24508,6.191237 -0.24508,6.191242 -0.24507,6.180597 -0.23443,6.191237 -0.24507,6.191242 -0.23442,6.191239 -0.0746,0.76725 -0.0852,0.76725 -0.0853,0.75658 -0.0959,0.74593 -0.10656,0.75661 -0.10655,0.73526 -0.11721,0.74594 -0.12787,0.73528 -0.12786,0.72461 -0.13853,0.73529 -0.14917,0.72462 -0.14919,0.71396 -0.17048,0.72462 -0.17049,0.71397 -0.18114,0.71397 -0.18115,0.71396 -0.20245,0.71395 -0.20245,0.71396 -0.21311,0.70333 -0.21311,0.71397 -0.23442,0.70329 -0.23442,0.71397 -0.24509,0.7033 -0.25573,0.70332 -0.26638,0.71397 -0.27704,0.71397 -0.27704,0.70329 -0.2877,0.71397 -0.30901,0.71397 -0.30901,0.71397 -0.31967,0.72461 -0.31967,0.71397 -0.45818,0.8525 -0.46884,0.84182 -0.45819,0.83119 -0.46884,0.82053 -0.4795,0.80986 -0.47949,0.80986 -0.50081,0.78857 -0.49015,0.79922 -0.51147,0.78854 -0.51146,0.78857 -0.53277,0.7779 -0.53278,0.78857 -0.55409,0.77789 -0.56473,0.78855 -0.5754,0.78857 -0.58605,0.78857 -0.6713,0.78854 -0.67129,0.76725 -0.68196,0.75658 -0.69261,0.74593 -0.6926,0.73529 -0.69261,0.72462 -0.71391,0.70332 -0.70327,0.70329 -0.72457,0.68201 -0.71392,0.68197 -0.73523,0.66069 -0.73522,0.66069 -0.74589,0.63936 -0.74589,0.62872 -0.75653,0.62873 -0.7672,0.6074 -0.77785,0.60741 -0.77785,0.59675 -0.78851,0.58609 -0.78851,0.57543 -0.80981,0.56477 -0.80982,0.55412 -0.82047,0.55412 -0.83113,0.5328 -0.83113,0.53283 -0.85244,0.5328 -0.85244,0.51151 -0.8631,0.51148 -0.8844,0.50084 -0.87375,0.49019 -0.89506,0.49019 -0.90572,0.47952 -0.99096,0.44756 -1.00161,0.43691 -0.99097,0.41558 -0.99095,0.41559 -1.00162,0.40495 -0.99096,0.39427 -1.00162,0.38363 -0.99096,0.37298 -1.00161,0.36231 -1.00162,0.35163 -1.00162,0.34101 -1.00162,0.31967 -1.00161,0.3197 -1.00162,0.29838 -1.01227,0.2877 -1.01227,0.27706 -0.93768,0.20246 -0.94834,0.19181 -0.93769,0.19182 -0.93767,0.17052 -0.92704,0.1705 -0.93768,0.14917 -0.92703,0.14917 -0.92702,0.14921 -0.92703,0.12788 -0.91638,0.12786 -0.92702,0.11721 -0.92703,0.11724 -0.91637,0.10654 -0.92703,0.10656 -0.916376,0.0959 -0.927024,0.0959 -0.490153,0.0106 -0.490148,0.0106 -0.490158,0 -0.490147,0.0106 -0.490153,0.0106 -0.479499,0.0106 -0.490157,0.0106 -0.490153,0.0106 -0.479494,0.0106 -0.490153,0.0106 -0.490147,0.0106 -0.479504,0.0106 -0.490148,0.0106 -0.479498,0.0106 -0.490153,0.0106 -0.479494,0.0106 z"
     id="path2547" />
  <!-- EMR_GDICOMMENT -->
  <!-- EMR_SETMAPMODE -->
  <!-- EMR_SETVIEWPORTEXTEX -->
  <!-- EMR_SETWINDOWEXTEX -->
  <!-- EMR_SETWINDOWEXTEX -->
  <!-- EMR_SETWINDOWEXTEX -->
  <!-- EMR_SETWINDOWEXTEX -->
  <path
     style="fill:#131516;fill-opacity:1;fill-rule:evenodd;stroke:none"
     d="m 106.3434,160.28649 -0.8844,-0.21314 -0.85244,-0.22378 -0.83113,-0.24509 -0.82048,-0.24507 -0.7885,-0.26641 -0.77785,-0.27706 -0.7672,-0.28774 0.0427,-0.15982 0.0639,-0.17053 0.0639,-0.17049 0.0853,-0.17049 0.10655,-0.1705 0.10655,-0.18116 0.12787,-0.17049 0.13852,-0.18115 0.13852,-0.18117 0.14918,-0.18113 0.17048,-0.18117 0.17049,-0.18117 0.35163,-0.3623 0.37294,-0.36231 0.38361,-0.35166 0.39425,-0.34099 0.38359,-0.33034 0.3836,-0.30903 0.69261,-0.57544 0.5754,-0.46887 0.27704,-0.74594 0.24507,-0.63936 0.20246,-0.52215 0.1918,-0.43691 0.0852,-0.18115 0.0852,-0.17049 0.0853,-0.13853 0.0959,-0.13853 0.0852,-0.10656 0.0959,-0.10657 0.10655,-0.0853 0.10656,-0.0746 0.11721,-0.0639 0.12787,-0.0533 0.14918,-0.0533 0.14917,-0.0427 0.17049,-0.032 0.18114,-0.032 0.20246,-0.032 0.21311,-0.032 0.5008,-0.0533 0.59672,-0.0746 0.6926,-0.0852 0.80982,-0.12789 0.47949,-0.31967 0.4795,-0.33034 0.4795,-0.33034 0.49015,-0.3197 0.4795,-0.33034 0.47949,-0.33034 0.49016,-0.33035 0.49015,-0.31967 0.5754,-0.22378 0.57539,-0.22378 0.55409,-0.24509 0.55408,-0.25577 0.55409,-0.26639 0.55408,-0.27706 0.54344,-0.27705 0.54343,-0.28774 0.24507,-0.2131 0.21311,-0.22378 0.22376,-0.23445 0.21311,-0.23442 0.23443,-0.2451 0.24507,-0.25577 0.26639,-0.27705 0.29836,-0.28771 0.70326,-0.54348 0.76719,-0.55412 0.78851,-0.58608 0.78851,-0.59676 0.39425,-0.29835 0.39425,-0.30905 0.3836,-0.31967 0.37294,-0.3197 0.35163,-0.31967 0.35163,-0.33034 0.31967,-0.34102 0.29835,-0.34099 0.20245,-0.15984 0.18115,-0.15985 0.17049,-0.15982 0.13852,-0.17053 0.12787,-0.18113 0.10655,-0.18117 0.0959,-0.18114 0.0746,-0.19181 0.0639,-0.19182 0.0533,-0.19181 0.032,-0.19182 0.0213,-0.20245 0,-0.20248 0,-0.19182 -0.0213,-0.20246 -0.0213,-0.20246 -0.0426,-0.20248 -0.0533,-0.19182 -0.0533,-0.20245 -0.0639,-0.19182 -0.0852,-0.20245 -0.0746,-0.19182 -0.0959,-0.18117 -0.0959,-0.19181 -0.0959,-0.18114 -0.11721,-0.17049 -0.10655,-0.18117 -0.11721,-0.15985 -0.11721,-0.17049 -0.12787,-0.14918 -0.12787,-0.14921 -0.12786,-0.14917 -0.35164,-0.2451 -0.35163,-0.22377 -0.35162,-0.22378 -0.35164,-0.22377 -0.70326,-0.40495 -0.68195,-0.39427 -0.6926,-0.37298 -0.68196,-0.37295 -0.69261,-0.35167 -0.6926,-0.3623 -0.69261,-0.63937 -0.69261,-0.63937 -0.68195,-0.63937 -0.68195,-0.63939 -0.66064,-0.65001 -0.66064,-0.63937 -0.64999,-0.65004 -0.63933,-0.66068 -0.61801,-0.65002 -0.61803,-0.66068 -0.5967,-0.67134 -0.58606,-0.66068 -0.57539,-0.682 -0.55408,-0.68201 -0.54343,-0.68198 -0.52212,-0.69267 -0.21311,-0.57541 -0.20246,-0.5648 -0.15983,-0.55412 -0.13852,-0.54348 -0.10656,-0.53279 -0.0852,-0.52216 -0.0639,-0.52215 -0.032,-0.50084 -0.0213,-0.50084 0.0106,-0.49019 0.0426,-0.49016 0.0533,-0.46888 0.0746,-0.47955 0.0959,-0.45819 0.10655,-0.45823 0.13852,-0.45823 0.14918,-0.44755 0.17049,-0.44756 0.18115,-0.43691 0.20245,-0.43691 0.2131,-0.43687 0.22378,-0.43691 0.24507,-0.42627 0.25573,-0.42623 0.25573,-0.42627 0.27704,-0.42623 0.28771,-0.42624 0.29835,-0.42626 0.61802,-0.8525 0.64998,-0.85249 0,-0.15983 0,-0.15985 0,-0.15985 0,-0.13853 -0.29835,-0.14917 -0.18114,-0.0746 -0.0852,-0.0214 -0.0853,0 -0.0959,-0.0106 -0.12787,0 -0.52212,0.62872 -0.49015,0.6074 -0.45818,0.59673 -0.42622,0.57544 -0.20246,0.29838 -0.1918,0.2877 -0.18114,0.28774 -0.18114,0.2877 -0.18115,0.28774 -0.15983,0.2877 -0.15984,0.29838 -0.15982,0.28771 -0.14918,0.30902 -0.13852,0.29838 -0.12787,0.30903 -0.13852,0.30904 -0.11721,0.31967 -0.11721,0.3197 -0.11721,0.33035 -0.10656,0.34098 -0.0959,0.34099 -0.0959,0.35166 -0.0852,0.36231 -0.0852,0.37298 -0.0853,0.38362 -0.0746,0.39427 -0.0746,0.40495 -0.0639,0.41559 -0.6713,-0.10656 -0.66063,-0.10657 -0.6713,-0.10656 -0.66064,-0.10657 -0.6713,-0.10656 -0.66063,-0.10654 -0.66065,-0.10657 -0.67129,-0.0959 -0.66064,-0.10657 -0.6713,-0.10656 -0.66064,-0.10654 -0.66064,-0.10657 -0.66065,-0.10656 -0.66064,-0.10657 -0.66064,-0.10656 -0.66063,-0.0959 -2.08848,-0.50084 -2.099127,-0.51151 -1.044245,-0.26642 -1.044231,-0.26638 -1.033586,-0.27706 -1.044241,-0.28774 -1.033581,-0.29835 -1.044236,-0.30905 -1.022932,-0.30902 -1.033582,-0.31967 -1.022922,-0.34102 -1.012278,-0.34099 -1.012263,-0.35166 -1.012278,-0.37295 -0.99096,-0.37299 -1.001619,-0.39427 -0.9803,-0.41559 -0.980311,-0.41558 -0.969646,-0.43692 -0.958992,-0.45822 -0.948343,-0.4582 -0.937679,-0.49019 -0.92703,-0.50084 -0.927029,-0.51151 -0.905711,-0.54344 -0.895067,-0.55413 -0.884403,-0.57544 -0.863095,-0.596752 -0.863094,-0.607399 -0.841781,-0.639371 -0.01063,-0.138529 -0.01068,-0.13853 0,-0.127885 0.01068,-0.138529 0.01063,-0.127856 0.01063,-0.127885 0.03199,-0.127885 0.02131,-0.12786 0.07459,-0.255741 0.0959,-0.245096 0.0959,-0.234447 0.117211,-0.245096 0.26639,-0.468874 0.287698,-0.468875 0.287693,-0.468869 0.26639,-0.479518 0.149178,-0.426238 0.106552,-0.341014 0.0959,-0.277058 0.07459,-0.255741 0.06394,-0.255745 0.07458,-0.298378 0.08524,-0.362307 0.09591,-0.468874 -0.02131,-0.04267 -0.03199,-0.04262 -0.03199,-0.03199 -0.04257,-0.03199 -0.0959,-0.03199 -0.08525,-0.02141 -0.159833,0.01058 -0.08524,0 -0.468844,0.98038 -0.436872,0.927075 -0.223763,0.44758 -0.213109,0.426238 -0.234422,0.436906 -0.234422,0.415589 -0.245077,0.415593 -0.255735,0.404944 -0.277039,0.404914 -0.287698,0.404949 -0.309012,0.39427 -0.340974,0.404944 -0.351628,0.39427 -0.394255,0.404949 -0.831132,0.02141 -0.841781,-0.01058 -0.831127,-0.04267 -0.831132,-0.07457 L 60.407606,98.09675 59.587128,97.968865 58.76666,97.819691 57.946188,97.649169 57.12571,97.468028 56.315897,97.254895 55.495419,97.031117 54.685605,96.796694 53.875787,96.551598 53.065969,96.295833 52.25615,96.040092 51.456991,95.773708 49.84801,95.230229 48.23903,94.69743 47.43987,94.431015 46.630053,94.17527 45.83089,93.930174 45.03173,93.695727 44.221911,93.482623 43.42275,93.269489 l -0.799163,-0.181166 -0.79916,-0.170492 -0.80982,-0.149179 -0.79916,-0.117211 -0.809817,-0.09592 -0.809819,-0.0746 -0.138519,0.13853 -0.138522,0.138529 0.05328,0.820537 0.05328,0.72461 0.04262,0.628727 0.04262,0.564787 0.03196,0.490167 0.03197,0.447556 0.03197,0.404944 0.03197,0.372982 0.03197,0.351633 0.03197,0.351663 0.03196,0.351658 0.03197,0.372952 0.04262,0.394299 0.05328,0.426238 0.05328,0.490187 0.06393,0.54345 0.309011,-0.30903 0.30901,-0.330337 0.319664,-0.330345 0.319664,-0.319666 0.170489,-0.138529 0.181142,-0.138529 0.181143,-0.117211 0.191799,-0.106567 0.0959,-0.05329 0.0959,-0.04267 0.106554,-0.03199 0.106555,-0.04267 0.106558,-0.02141 0.106554,-0.02141 0.117209,-0.02141 0.117211,0 0,0.404944 0,0.404944 0.01064,0.415588 0.01064,0.404918 0,0.41562 0.01064,0.40492 0.01064,0.40494 0.02132,0.41559 0.138521,-0.0427 0.127866,-0.032 0.106555,-0.0214 0.117211,-0.0106 0.319664,-0.0106 0.52212,0.0214 0.02132,0.22377 0.01064,0.21313 -0.01064,0.23445 -0.03197,0.22378 -0.03197,0.23442 -0.05328,0.2451 -0.05328,0.23442 -0.06393,0.23445 -0.149175,0.47952 -0.159832,0.47955 -0.170489,0.47951 -0.149175,0.45823 0.06393,0 0.05328,-0.0106 0.05328,-0.0106 0.05328,-0.0214 0.106555,-0.0533 0.106557,-0.064 0.213109,-0.15982 0.23442,-0.18117 0.117212,-0.0852 0.127864,-0.0852 0.138522,-0.0746 0.149176,-0.0746 0.159834,-0.0426 0.181143,-0.0427 0.0959,0 0.0959,-0.0106 0.0959,0 0.106555,0.0106 0,0.47955 0,0.46887 -0.01064,0.4582 -0.01064,0.46887 -0.01064,0.46887 -0.03197,0.46888 -0.04262,0.47955 -0.04262,0.47952 0.117211,0.17049 0.117209,0.19181 0.117212,0.21313 0.127864,0.2451 0.117212,0.25574 0.117211,0.26641 0.106554,0.28771 0.106555,0.29838 0.447529,0.0106 0.447532,0 0.447529,0.0106 0.458186,0 0.447532,0.0106 0.458186,0.0106 0.458185,0.0106 0.458187,0.0106 0.07459,0.25574 0.05328,0.27706 0.04262,0.29838 0.02132,0.31966 0.01065,0.33035 -0.01065,0.35166 -0.02132,0.36231 -0.04262,0.37298 -0.05328,0.39427 -0.06393,0.39427 -0.07459,0.40494 -0.08524,0.41559 -0.0959,0.41559 -0.106554,0.42627 -0.117209,0.41559 -0.117211,0.43688 -0.266387,0.8525 -0.277044,0.84185 -0.287697,0.82051 -0.298356,0.77793 -0.287697,0.74592 -0.287697,0.68198 -0.26639,0.61808 -0.25573,0.54344 -0.255733,0.35167 -0.25573,0.35166 -0.255733,0.36231 -0.25573,0.37295 -0.213112,0 -0.202453,0 -0.202456,0 -0.191798,0 -0.42622,-0.75658 -0.415564,-0.72462 -0.202453,-0.35166 -0.202456,-0.34099 -0.21311,-0.34101 -0.202452,-0.31968 -0.213112,-0.31969 -0.223763,-0.30902 -0.223766,-0.30902 -0.234421,-0.29838 -0.245075,-0.28771 -0.245077,-0.27706 -0.26639,-0.27706 -0.27704,-0.26642 -0.649987,-0.0959 -0.564741,-0.0959 -0.23442,-0.0427 -0.223766,-0.0533 -0.191798,-0.0639 -0.181143,-0.0533 -0.159832,-0.0639 -0.138522,-0.0746 -0.117211,-0.0746 -0.106555,-0.0746 -0.08524,-0.0852 -0.07459,-0.0959 -0.05328,-0.10657 -0.05328,-0.10654 -0.03197,-0.12788 -0.02132,-0.12788 -0.02132,-0.13853 0,-0.14918 0.01064,-0.34099 0.03197,-0.38363 0.04262,-0.44758 0.05328,-0.50084 0.05328,-0.57543 0.04262,-0.63937 -0.202456,-0.47952 -0.191796,-0.43691 -0.181145,-0.39427 -0.191799,-0.3623 -0.191799,-0.33035 -0.202453,-0.29838 -0.202456,-0.2877 -0.202452,-0.25577 -0.223766,-0.25574 -0.23442,-0.23443 -0.245076,-0.23445 -0.255733,-0.24509 -0.586052,-0.47952 -0.660641,-0.5328 -0.436875,-0.22381 -0.394253,-0.23442 -0.362287,-0.22377 -0.33032,-0.2451 -0.287698,-0.2451 -0.255732,-0.24509 -0.223765,-0.25574 -0.202455,-0.25574 -0.170488,-0.26642 -0.138521,-0.26641 -0.11721,-0.27707 -0.08524,-0.2877 -0.07459,-0.28771 -0.04262,-0.28773 -0.03197,-0.29838 -0.01065,-0.30902 0.01065,-0.30903 0.02131,-0.30902 0.03197,-0.3197 0.05328,-0.33034 0.05328,-0.33035 0.07459,-0.34098 0.07459,-0.34099 0.08524,-0.35166 0.181143,-0.71397 0.191799,-0.74593 0.181144,-0.767251 0.181143,-0.78854 -0.01066,-0.511516 -0.03197,-0.511481 -0.04262,-0.511506 -0.05328,-0.511486 -0.07459,-0.511511 -0.08524,-0.511481 -0.08524,-0.511511 -0.106555,-0.511481 -0.106555,-0.500871 -0.11721,-0.511481 -0.127867,-0.490188 -0.11721,-0.490197 -0.127866,-0.490163 -0.127866,-0.468869 -0.127866,-0.468869 -0.127866,-0.46888 0.02131,-0.255765 0.03197,-0.245071 0.02131,-0.245092 0.04262,-0.245096 0.04262,-0.223783 0.04262,-0.223773 0.05328,-0.223778 0.05328,-0.213133 0.06393,-0.202485 0.06393,-0.202454 0.06393,-0.20246 0.07459,-0.202489 0.159833,-0.383596 0.170487,-0.372982 0.191799,-0.362307 0.202454,-0.372981 0.21311,-0.362308 0.223766,-0.372951 0.490152,-0.767251 0.522119,-0.831177 0.21311,-0.170497 0.213109,-0.149208 0.223766,-0.127856 0.223765,-0.117211 0.223765,-0.106567 0.234422,-0.08524 0.245076,-0.0746 0.234422,-0.05328 0.245076,-0.05328 0.245077,-0.03199 0.245076,-0.03199 0.25573,-0.01058 0.255733,0 0.25573,0 0.255733,0.01058 0.266387,0.02141 0.52212,0.06392 0.532773,0.0746 0.532777,0.09589 0.543429,0.117241 0.54343,0.117211 0.543431,0.117211 0.543429,0.106567 0.532774,0.09589 0.266387,0.04267 0.372944,0.05328 0.468839,0.0746 0.532777,0.08525 0.596707,0.08525 0.628675,0.08524 0.671295,0.07457 0.671295,0.0746 0.340977,0.02141 0.340974,0.02141 0.330321,0.02141 0.330321,0.01058 0.309008,0 0.30901,0 0.298353,-0.01058 0.277044,-0.02141 0.266387,-0.03199 0.245076,-0.04267 0.23442,-0.05328 0.202455,-0.06393 0.181142,-0.0746 0.159832,-0.09589 0.127869,-0.09589 0.0959,-0.127885 -0.138521,-0.06392 -0.138522,-0.07461 -0.127865,-0.06392 -0.117211,-0.0746 -0.07459,-0.532799 -0.07459,-0.532825 -0.07459,-0.532804 -0.07459,-0.532799 -0.06393,-0.522155 -0.07459,-0.52216 -0.06393,-0.522155 -0.06394,-0.522155 -0.06393,-0.522155 -0.05328,-0.522155 -0.04262,-0.511486 -0.04262,-0.522156 -0.03197,-0.511505 -0.02132,-0.511486 -0.02132,-0.522155 0,-0.511511 0.03197,-0.149174 0.04262,-0.138534 0.04262,-0.149174 0.06393,-0.149204 0.127865,-0.277058 0.138522,-0.277059 0.319664,-0.5328 0.319664,-0.500841 0.138522,-0.245097 0.117211,-0.234447 0.05328,-0.117211 0.04262,-0.117211 0.03197,-0.117211 0.03197,-0.106567 0.01064,-0.117241 0.01064,-0.106537 0,-0.106566 -0.02132,-0.106567 -0.03197,-0.106567 -0.04262,-0.09589 -0.05328,-0.106562 -0.06393,-0.09592 -0.117211,0 -0.117208,0 -0.117212,0 -0.117211,0 -0.394252,0.404944 -0.340977,0.372951 -0.159832,0.181171 -0.138522,0.170497 -0.127865,0.170492 -0.117211,0.170492 -0.106555,0.159848 -0.0959,0.170497 -0.08524,0.159848 -0.08524,0.159848 -0.07459,0.159852 -0.06393,0.159848 -0.05328,0.159818 -0.04262,0.170522 -0.04262,0.159823 -0.04262,0.170522 -0.03197,0.181136 -0.02132,0.181166 -0.03197,0.372957 -0.02132,0.404944 -0.02132,0.927069 0.01064,1.097596 0.08525,0.735289 0.0959,0.735259 0.0959,0.745938 0.0959,0.745928 0.0959,0.745938 0.08524,0.745927 0.0959,0.745933 0.0959,0.745933 -0.479499,0.01058 -0.564741,0.01058 -0.618017,0 -0.639331,-0.01058 -0.309008,-0.01058 -0.30901,-0.02141 -0.287697,-0.02141 -0.266386,-0.03199 -0.245077,-0.04262 -0.223766,-0.05328 -0.0959,-0.03199 -0.08524,-0.03199 -0.07459,-0.03199 -0.07459,-0.04257 -0.223766,-0.91643 -0.223766,-0.916454 -0.234419,-0.916425 -0.245077,-0.905786 -0.245076,-0.91643 -0.25573,-0.905776 -0.255733,-0.905756 -0.255733,-0.895131 -0.266387,-0.895112 -0.277043,-0.895141 -0.266387,-0.884458 -0.277043,-0.884467 -0.277041,-0.873783 -0.277043,-0.873819 -0.2877,-0.863149 -0.27704,-0.863139 -0.277044,-0.511516 -0.213109,-0.39427 -0.170489,-0.298377 -0.138521,-0.245096 -0.127865,-0.19181 -0.127869,-0.181142 -0.138519,-0.191815 -0.181144,-0.223778 -0.458186,-0.138529 -0.436875,-0.127885 -0.415566,-0.117211 -0.383595,-0.09592 -0.372944,-0.08525 -0.340975,-0.06392 -0.330321,-0.05329 -0.30901,-0.04267 -0.287697,-0.03199 -0.266387,-0.01058 -0.255732,0.01058 -0.245077,0.02141 -0.23442,0.03199 -0.21311,0.05328 -0.202455,0.06396 -0.202453,0.08525 -0.181144,0.09589 -0.181143,0.117211 -0.170488,0.127885 -0.170488,0.149174 -0.170488,0.170527 -0.159832,0.181136 -0.149177,0.202459 -0.159832,0.223803 -0.159833,0.234422 -0.159832,0.255741 -0.159833,0.277059 -0.170487,0.287738 -0.340976,0.639366 -0.372942,0.71397 -0.33032,0.19181 -0.351632,0.20246 -0.181143,0.09589 -0.170488,0.09592 -0.170488,0.106567 -0.159832,0.117211 -0.149177,0.117211 -0.138522,0.117241 -0.127865,0.138535 -0.106556,0.138529 -0.04262,0.08524 -0.04262,0.07457 -0.03197,0.08525 -0.03197,0.08527 -0.02131,0.08525 -0.02131,0.09589 -0.01066,0.09592 0,0.09589 0.213109,0.06393 0.266388,0.06395 0.277043,0.06392 0.298353,0.06393 0.298354,0.06396 0.287699,0.07457 0.138521,0.04267 0.138521,0.05328 0.127866,0.04262 0.117211,0.05328 0.106554,0.05329 0.0959,0.06393 0.07459,0.06396 0.07459,0.07457 0.04262,0.0746 0.04262,0.0746 0.01066,0.08525 0,0.09589 -0.03197,0.09592 -0.05328,0.106567 -0.06393,0.106567 -0.106555,0.117211 -0.11721,0.12788 -0.159833,0.13853 -0.181143,0.138529 -0.21311,0.149179 -0.319665,0.127885 -0.298353,0.12786 -0.298354,0.13853 -0.287699,0.138529 -0.277042,0.159848 -0.266388,0.170492 -0.127865,0.09592 -0.127866,0.09589 -0.127866,0.106562 -0.11721,0.117211 0.500807,0 0.458187,-0.02141 0.213109,-0.01058 0.21311,0 0.21311,0 0.202455,0.01058 0.202454,0.02141 0.202454,0.03199 0.202454,0.05328 0.21311,0.06396 0.21311,0.08525 0.223765,0.117211 0.223766,0.138529 0.245076,0.170492 0,0.09592 0,0.106542 -0.01066,0.09592 -0.02131,0.09589 -0.03197,0.08527 -0.03197,0.08525 -0.04262,0.07458 -0.05328,0.08524 -0.05328,0.0746 -0.06393,0.06393 -0.06393,0.0746 -0.07459,0.06393 -0.159832,0.127885 -0.159833,0.117211 -0.362287,0.213134 -0.372942,0.213129 -0.170488,0.106566 -0.170488,0.106537 -0.149177,0.106567 -0.127865,0.117236 -0.02131,0.213104 -0.03197,0.19182 -0.03197,0.170492 -0.05328,0.159848 -0.05328,0.138529 -0.06393,0.13853 -0.07459,0.117211 -0.07459,0.117236 -0.0959,0.106567 -0.106555,0.09589 -0.106555,0.08525 -0.127866,0.09592 -0.138521,0.08525 -0.149177,0.08525 -0.159832,0.08524 -0.181144,0.08525 -0.213109,0.213129 -0.255732,0.245096 -0.266388,0.255741 -0.277042,0.277059 -0.127866,0.138529 -0.117211,0.149174 -0.106555,0.149208 -0.0959,0.149174 -0.07459,0.149178 -0.06393,0.159848 -0.02131,0.08524 -0.02131,0.0746 0,0.08525 -0.01066,0.0746 0.298354,0.309021 0.266387,0.26642 0.117211,0.127855 0.106555,0.117211 0.0959,0.127885 0.0959,0.117211 0.08524,0.127885 0.07459,0.149174 0.06393,0.149204 0.06393,0.159847 0.05328,0.191811 0.04262,0.202464 0.04262,0.223778 0.03197,0.255741 -0.106555,0.223773 -0.106555,0.213133 -0.127866,0.202455 -0.127866,0.202489 -0.149176,0.191816 -0.149178,0.19181 -0.159832,0.181141 -0.170487,0.181166 -0.181144,0.170492 -0.191799,0.159848 -0.191799,0.159823 -0.202454,0.159848 -0.202454,0.149203 -0.213111,0.138535 -0.213108,0.138529 -0.223766,0.127855 -0.223765,0.13853 -0.234422,0.117241 -0.223765,0.117211 -0.234421,0.117211 -0.468841,0.213129 -0.468842,0.19181 -0.468841,0.181141 -0.468842,0.159853 -0.44753,0.149174 -0.436876,0.127885 -0.458186,0.01058 -0.426219,-0.01058 -0.191799,-0.01058 -0.191799,-0.01058 -0.191799,-0.02141 -0.170488,-0.03199 -0.170488,-0.02141 -0.170488,-0.04267 -0.159832,-0.03199 -0.149177,-0.05329 -0.298353,-0.09589 -0.287698,-0.117241 -0.277044,-0.138529 -0.266386,-0.149174 -0.255733,-0.170497 -0.266387,-0.181166 -0.554086,-0.404914 -0.596707,-0.447586 0.01066,-0.159818 0.01065,-0.149203 0.01066,-0.149179 0.02131,-0.159848 0.05328,-0.298377 0.07459,-0.309026 0.159832,-0.596755 0.181143,-0.596729 0.07459,-0.287738 0.06393,-0.287703 0.05328,-0.277059 0.02131,-0.277059 0.01066,-0.127885 0,-0.13853 -0.01066,-0.127855 -0.01065,-0.127885 -0.03197,-0.117216 -0.03197,-0.127885 -0.04262,-0.117211 -0.05328,-0.117211 0.02131,-0.191811 0.02131,-0.181166 0.04262,-0.181141 0.03197,-0.181166 0.0959,-0.351663 0.106554,-0.340989 0.117211,-0.340989 0.127866,-0.33034 0.138521,-0.33034 0.138522,-0.330349 0.138521,-0.33034 0.127866,-0.330345 0.127866,-0.319695 0.11721,-0.330345 0.106555,-0.330345 0.08524,-0.340984 0.03197,-0.170497 0.03197,-0.170492 0.02131,-0.170492 0.02131,-0.170527 -0.159832,-0.809858 -0.159832,-0.745938 -0.07459,-0.351658 -0.06393,-0.340989 -0.05328,-0.33034 -0.04262,-0.340989 -0.03197,-0.3197 -0.01066,-0.33034 0.01066,-0.330345 0.02131,-0.319665 0.02131,-0.170527 0.03197,-0.170497 0.03197,-0.170492 0.04262,-0.170492 0.04262,-0.170497 0.05328,-0.181166 0.05328,-0.181136 0.07459,-0.181167 0.298354,-0.38363 0.298354,-0.372952 0.309009,-0.372981 0.298354,-0.372952 0.628674,-0.71397 0.628674,-0.703321 0.649985,-0.681978 0.649985,-0.671359 0.66064,-0.660684 0.671296,-0.650011 0.681952,-0.639371 0.681951,-0.628722 0.692607,-0.628717 0.713917,-0.628727 0.703263,-0.628692 0.724573,-0.628722 0.724574,-0.628722 0.735229,-0.628722 0.511463,-0.639366 0.500808,-0.618048 0.479497,-0.596759 0.468842,-0.564762 0.234421,-0.277059 0.234421,-0.266419 0.234421,-0.255741 0.245076,-0.245096 0.234421,-0.234447 0.245076,-0.223778 0.255732,-0.223778 0.245076,-0.202459 0.266387,-0.191816 0.266387,-0.19181 0.277043,-0.170492 0.277043,-0.159848 0.298354,-0.138529 0.309009,-0.13853 0.309009,-0.117211 0.33032,-0.106567 0.340974,-0.09592 0.351631,-0.07458 0.372945,-0.06396 0.383598,-0.04262 0.394252,-0.03199 0.426218,-0.01058 0.436875,0 0.447532,0.02141 0.468843,0.362308 0.479496,0.362312 0.479496,0.372952 0.479499,0.394294 0.490153,0.404919 0.490152,0.415594 0.49015,0.44758 0.490153,0.479514 0.351631,0.724619 0.340977,0.735284 0.340975,0.724615 0.340977,0.735284 0.351631,0.724619 0.362288,0.72461 0.191796,0.351663 0.202456,0.340989 0.202455,0.351663 0.202453,0.33034 0.223766,0.330345 0.223766,0.330344 0.234419,0.319671 0.245077,0.309051 0.255733,0.309022 0.266386,0.287703 0.277044,0.287738 0.298353,0.277059 0.298355,0.266384 0.319663,0.245097 0.340975,0.245096 0.351631,0.234452 0.362288,0.213104 0.383598,0.202484 0.404908,0.191815 0.415565,0.181137 0.04262,-0.01058 0.04262,-0.02141 0.04262,-0.04262 0.05328,-0.06395 0.117212,-0.149173 0.138521,-0.20246 0.138522,-0.245091 0.149175,-0.26642 0.159832,-0.287703 0.149179,-0.309051 0.298351,-0.607404 0.26639,-0.554122 0.191796,-0.436877 0.117211,-0.234452 0.45819,-0.682008 0.468839,-0.65001 0.245077,-0.309022 0.245076,-0.298382 0.255731,-0.277059 0.266389,-0.266414 0.13852,-0.127856 0.138519,-0.117241 0.149174,-0.117211 0.149179,-0.117211 0.149183,-0.106562 0.159833,-0.09592 0.159833,-0.09589 0.170482,-0.08525 0.170492,-0.08525 0.181141,-0.0746 0.181142,-0.06392 0.1918,-0.06395 0.202455,-0.05326 0.191795,-0.04267 0.213109,-0.04267 0.213109,-0.03199 0.117211,-0.756572 0.117216,-0.703326 0.127865,-0.671329 0.127865,-0.628727 0.127871,-0.596729 0.149173,-0.575441 0.159833,-0.554118 0.181141,-0.543473 0.202455,-0.532805 0.213109,-0.52215 0.245076,-0.532799 0.26639,-0.543479 0.298352,-0.554117 0.330325,-0.564772 0.362288,-0.596754 0.404904,-0.628717 1.065549,-1.11889 0.948343,-0.991029 0.820467,-0.863144 0.72458,-0.767253 0.618013,-0.660686 0.543429,-0.586082 0.468845,-0.490195 0.39425,-0.436908 0.340979,-0.372952 0.298352,-0.319697 0.26639,-0.287704 0.245076,-0.266416 0.223763,-0.245097 0.213109,-0.234423 0.223768,-0.234448 0.245071,-0.255743 0.138525,-0.394271 0.138519,-0.383626 0.13853,-0.37298 0.138519,-0.383626 0.852435,0 0.841781,-0.0214 0.426223,-0.0214 0.415563,-0.03196 0.426218,-0.03196 0.426223,-0.03196 0.426217,-0.05328 0.426218,-0.05328 0.426228,-0.06393 0.426217,-0.08525 0.436872,-0.08527 0.436877,-0.09589 0.447526,-0.106565 0.447536,-0.127885 0.266389,-0.127857 0.298353,-0.159848 0.319661,-0.18114 0.340979,-0.202486 0.362282,-0.223777 0.362293,-0.234422 0.351628,-0.25577 0.351633,-0.27706 0.170487,-0.13853 0.170487,-0.13853 0.159833,-0.149175 0.149174,-0.149204 0.149178,-0.149175 0.13852,-0.149175 0.127865,-0.159849 0.117211,-0.149204 0.106557,-0.15982 0.106552,-0.159849 0.07459,-0.159849 0.0746,-0.159848 0.05328,-0.170495 0.04257,-0.159849 0.03199,-0.159821 0.01063,-0.170521 -0.127866,-0.08525 -0.117211,-0.06393 -0.106552,-0.05328 -0.106557,-0.04262 -0.106552,-0.03199 -0.0959,-0.01058 -0.0959,-0.01058 -0.0959,0.01058 -0.08524,0.02141 -0.08524,0.03199 -0.08524,0.03199 -0.07459,0.05328 -0.08524,0.05328 -0.07459,0.06393 -0.07459,0.0746 -0.06393,0.07457 -0.149179,0.170494 -0.127865,0.181167 -0.138519,0.202459 -0.13852,0.202486 -0.12787,0.213104 -0.138525,0.202486 -0.138519,0.191813 -0.149174,0.170494 -0.255735,0.191813 -0.245077,0.170494 -0.25573,0.170495 -0.266385,0.149203 -0.26639,0.13853 -0.266384,0.127857 -0.277049,0.127884 -0.277039,0.106566 -0.287699,0.106538 -0.277043,0.08528 -0.287694,0.08525 -0.287703,0.07457 -0.287693,0.0746 -0.287698,0.06393 -0.298362,0.05328 -0.298353,0.04264 -0.58605,0.08525 -0.586046,0.05328 -0.596709,0.04261 -0.586056,0.03199 -0.575396,0.01056 -0.575396,0 -0.564742,0.01056 -0.554083,0 -0.362288,-0.202486 -0.362287,-0.202459 -0.351628,-0.191813 -0.362288,-0.202458 -0.362292,-0.202486 -0.351629,-0.191813 -0.362287,-0.202458 -0.351628,-0.202458 -0.927025,0.245095 -0.927035,0.245068 -0.927024,0.223805 -0.916375,0.223777 -0.905712,0.213104 -0.895062,0.191813 -0.884407,0.181167 -0.873754,0.159849 -0.266385,0.468873 -0.277049,0.447554 -0.138519,0.213132 -0.149174,0.213104 -0.149179,0.213131 -0.159832,0.191813 -0.159833,0.202459 -0.159833,0.191813 -0.170487,0.181167 -0.170482,0.170494 -0.170492,0.170494 -0.181141,0.159849 -0.181147,0.149176 -0.191795,0.149204 -0.191801,0.127856 -0.1918,0.127885 -0.202455,0.106563 -0.213108,0.106567 -0.213114,0.09589 -0.213109,0.0746 -0.223763,0.0746 -0.234422,0.05326 -0.234417,0.04265 -0.234423,0.03197 -0.245076,0.0214 -0.25573,0.01058 -0.255736,-0.01058 -0.255731,-0.0214 -0.266384,-0.0426 -0.277044,-0.05329 -0.234422,-0.181167 -0.191799,-0.159848 -0.159832,-0.127856 -0.138522,-0.117241 -0.106555,-0.117212 -0.08524,-0.117211 -0.07459,-0.127881 -0.07459,-0.138533 -0.23442,-0.05328 -0.223766,-0.04261 -0.223766,-0.03196 -0.23442,-0.04264 -0.223766,-0.03196 -0.223766,-0.04264 -0.223766,-0.03196 -0.213109,-0.04261 -0.02132,-0.37298 0.02132,-0.351634 0.05328,-0.341016 0.07459,-0.309025 0.106554,-0.287705 0.127865,-0.266414 0.149176,-0.255742 0.170489,-0.23445 0.202455,-0.223777 0.21311,-0.202458 0.234419,-0.181168 0.245077,-0.18114 0.266386,-0.159848 0.277043,-0.159849 0.298355,-0.13853 0.298352,-0.13853 0.309012,-0.127885 0.319665,-0.117211 0.319661,-0.117211 0.33032,-0.106566 0.660645,-0.213131 0.660639,-0.213104 0.649986,-0.213132 0.628672,-0.223777 0.298353,-0.127884 0.287703,-0.127857 0.277039,-0.127885 0.266389,-0.149176 0,-0.159848 -0.01063,-0.117239 -0.02131,-0.106538 -0.02131,-0.08525 -0.04262,-0.06396 -0.04262,-0.07457 -0.06394,-0.06396 -0.07459,-0.0746 -0.298352,-0.02141 -0.298352,0 -0.287699,0.02141 -0.298352,0.04262 -0.298352,0.05328 -0.298353,0.06393 -0.287703,0.08525 -0.298352,0.09592 -0.575396,0.202459 -0.586051,0.23445 -0.575401,0.234423 -0.564737,0.223777 -0.277045,0.106566 -0.277043,0.09592 -0.277043,0.08525 -0.266387,0.07457 -0.266387,0.06396 -0.266386,0.05328 -0.266387,0.0214 -0.255733,0.01056 -0.25573,0 -0.255733,-0.04264 -0.245077,-0.05328 -0.245076,-0.08525 -0.245076,-0.106566 -0.23442,-0.149175 -0.234423,-0.170494 -0.223877,-0.202486 -0.394252,-0.03196 -0.351631,-0.0214 -0.298354,-0.0214 -0.255733,-0.04261 -0.117208,-0.0214 -0.106555,-0.0214 -0.0959,-0.03196 -0.08524,-0.03199 -0.07459,-0.03196 -0.07459,-0.04261 -0.05328,-0.04264 -0.05328,-0.04261 -0.05328,-0.05328 -0.04262,-0.06396 -0.03197,-0.06393 -0.03196,-0.0746 -0.02132,-0.07457 -0.02132,-0.08525 -0.01064,-0.09592 -0.01064,-0.09589 -0.01064,-0.234447 0.01064,-0.255746 0.01064,-0.298377 0.02132,-0.340989 0.23442,-0.447581 0.245076,-0.436881 0.266387,-0.436907 0.255732,-0.426262 0.23442,-0.426238 0.223766,-0.415588 0.106556,-0.20246 0.08524,-0.202484 0.08524,-0.20246 0.07459,-0.202459 -0.0959,-0.799214 -0.07459,-0.575441 -0.02132,-0.213134 0,-0.181136 0,-0.08528 0.01064,-0.07457 0.01064,-0.0746 0.02132,-0.06393 0.02132,-0.06395 0.04262,-0.05326 0.03197,-0.06395 0.05328,-0.06393 0.117211,-0.117211 0.149175,-0.127885 0.415565,-0.330345 0.596708,-0.447555 0.394252,-0.09592 0.394254,-0.106537 0.394252,-0.117241 0.404911,-0.117211 0.394252,-0.127885 0.394255,-0.127855 0.404908,-0.13853 0.394251,-0.149203 0.788505,-0.298353 0.78851,-0.330344 0.788505,-0.341014 0.777846,-0.362308 0.777856,-0.372951 0.777851,-0.3943 0.767192,-0.39427 0.756542,-0.404944 0.756543,-0.404919 0.745883,-0.415588 0.735234,-0.404944 0.735224,-0.415594 0.287698,-0.202459 0.277044,-0.202485 0.266385,-0.223777 0.245076,-0.213104 0.490158,-0.436907 0.479494,-0.436911 0.245076,-0.213129 0.245077,-0.213134 0.25573,-0.202459 0.255731,-0.191811 0.277044,-0.191815 0.287703,-0.170492 0.298352,-0.159848 0.33032,-0.149178 0.362282,0.01058 0.362288,0.01058 0.362287,0.01058 0.362288,0.02141 0.362287,0.01058 0.362288,0.02141 0.362287,0.02141 0.362283,0.02141 0.340974,-0.09592 0.33032,-0.106567 0.31967,-0.09589 0.309007,-0.117211 0.298357,-0.117241 0.287693,-0.127855 0.287699,-0.13853 0.277044,-0.149203 0.266389,-0.159818 0.266385,-0.170527 0.26639,-0.19181 0.25573,-0.20246 0.255731,-0.223778 0.26639,-0.245096 0.25573,-0.266415 0.266385,-0.277058 -0.04262,-1.310695 -0.02131,-1.05496 0.01068,-0.234452 0.01063,-0.213104 0.01063,-0.19181 0.03199,-0.191815 0.03199,-0.170492 0.04262,-0.170522 0.05328,-0.149179 0.06394,-0.149173 0.07458,-0.127886 0.08524,-0.127885 0.106557,-0.117211 0.106552,-0.106562 0.138524,-0.106566 0.149179,-0.09589 0.159833,-0.08525 0.181146,-0.08525 0.202455,-0.0746 0.223763,-0.07461 0.234422,-0.07457 0.266385,-0.0746 0.277044,-0.06393 0.309006,-0.06395 0.33032,-0.06393 0.362293,-0.05328 0.372936,0.05328 0.362288,0.07461 0.351633,0.08525 0.351628,0.09589 0.362288,0.117211 0.362287,0.149203 0.383596,0.159848 0.404909,0.19181 0.426223,-0.415588 0.383596,-0.372981 0.372941,-0.33034 0.362293,-0.309026 0.181141,-0.149204 0.191796,-0.138529 0.1918,-0.149174 0.202455,-0.138534 0.436871,-0.287703 0.500807,-0.287733 0.117211,-0.319671 0.106557,-0.25577 0.08524,-0.213104 0.08525,-0.181166 0.08524,-0.1918106 0.106552,-0.2131336 0.138524,-0.2663848 0.181141,-0.3303447 0.08524,0 0.0959,0 0.106557,0 0.117211,0 0.309006,0.4369115 0.319666,0.4368772 0.319666,0.436911 0.309006,0.447551 0.319671,0.436912 0.319661,0.44758 0.33032,0.436882 0.319665,0.447581 0.458185,0 0.46884,0.02141 0.468844,0.02141 0.479499,0.02141 0.479493,0.03199 0.479494,0.04262 0.490158,0.04262 0.490152,0.03194 0.490153,0.04262 0.500807,0.04262 0.490153,0.03199 0.511466,0.03194 0.500807,0.03199 0.500807,0.02141 0.511461,0.01058 0.511471,0.01058 0.08524,0.149203 0.06394,0.149174 0.03199,0.09592 0.02131,0.106567 0.01063,0.138529 0,0.170492 -0.351628,0.234422 -0.351634,0.223778 -0.351628,0.213134 -0.362287,0.202459 -0.351629,0.181166 -0.351633,0.181166 -0.340979,0.159823 -0.340974,0.159848 0.04262,0.02141 0.08524,0.01058 0.117211,0 0.127866,-0.01058 0.340974,-0.05328 0.3836,-0.0746 0.394256,-0.08525 0.383595,-0.08524 0.319661,-0.07461 0.234422,-0.05326 0.713921,0.01058 0.905716,0.03194 0.511461,0.03194 0.532775,0.03199 0.554092,0.04262 0.55408,0.05329 0.54343,0.06392 0.543425,0.06393 0.51147,0.08527 0.49015,0.09589 0.22376,0.05329 0.22377,0.05328 0.20245,0.06393 0.1918,0.06395 0.18114,0.06393 0.17049,0.0746 0.13852,0.06393 0.12787,0.08524 0,0.08525 0,0.106567 0,0.09589 0,0.117241 -0.31967,0.213099 -0.29835,0.213134 -0.29835,0.223778 -0.27705,0.234452 -0.27704,0.234422 -0.26638,0.234447 -0.25573,0.234422 -0.25574,0.234452 -0.500805,0.479518 -0.49015,0.468875 -0.24508,0.234422 -0.25573,0.223802 -0.25573,0.223778 -0.26639,0.223778 0.0426,0.06393 0.0533,0.06393 0.0533,0.05329 0.0639,0.05328 0.0746,0.05328 0.0639,0.04262 0.0852,0.04262 0.0746,0.03199 0.17049,0.0746 0.1918,0.05328 0.1918,0.04262 0.21311,0.03194 0.2131,0.03194 0.223765,0.02141 0.22377,0.01058 0.22376,0.01058 0.45819,0 0.42622,0 0.6926,-0.266385 0.63934,-0.245096 0.58605,-0.234452 0.53277,-0.213104 0.51147,-0.181166 0.47949,-0.159848 0.23442,-0.06393 0.23442,-0.06393 0.23443,-0.04262 0.22376,-0.04262 0.23442,-0.02141 0.22376,-0.02141 0.23443,-0.01058 0.23442,0.01058 0.24507,0.02141 0.24508,0.02141 0.24508,0.04262 0.26639,0.06395 0.26638,0.06393 0.27705,0.08525 0.28769,0.106567 0.29835,0.117211 0.30901,0.127885 0.33032,0.149174 0.34098,0.170497 0.35163,0.181166 0.3836,-0.01058 0.37294,-0.01058 0.3836,-0.01058 0.38359,-0.01058 0.37295,-0.01058 0.39425,-0.01058 0.3836,-0.02141 0.3836,-0.01058 -0.0426,0.234452 -0.0639,0.223773 -0.0746,0.20246 -0.0959,0.191815 -0.10655,0.181166 -0.11721,0.170492 -0.13853,0.149179 -0.14917,0.149203 -0.15983,0.13853 -0.17049,0.117211 -0.18115,0.117211 -0.19179,0.106567 -0.20246,0.09589 -0.21311,0.09592 -0.21311,0.08525 -0.21311,0.0746 -0.22376,0.06393 -0.22377,0.06393 -0.23442,0.06395 -0.23442,0.04262 -0.46884,0.09592 -0.45819,0.07457 -0.89506,0.138534 -0.78851,0.117236 -0.34098,0.117211 -0.30901,0.117211 -0.28769,0.117211 -0.26638,0.127886 -0.24508,0.117211 -0.24508,0.127885 -0.22377,0.127855 -0.2131,0.127885 -0.43688,0.277059 -0.42622,0.309027 -0.46884,0.319695 -0.52212,0.362307 0.75654,-0.06393 0.74588,-0.08525 0.36229,-0.04262 0.35163,-0.02141 0.35164,-0.02141 0.36228,-0.01058 0.17049,0 0.18114,0.01058 0.17048,0.02141 0.18115,0.02141 0.18115,0.02141 0.18114,0.03194 0.17049,0.04262 0.18114,0.05328 0.1918,0.05326 0.18114,0.06395 0.18114,0.07458 0.1918,0.08528 0.18115,0.09589 0.1918,0.106562 0.19179,0.117211 0.20246,0.127885 0.35163,0.117211 0.36229,0.117211 0.37294,0.117211 0.37294,0.117241 -0.0213,0.106567 -0.032,0.09589 -0.0533,0.106566 -0.0533,0.106562 -0.0746,0.09589 -0.0746,0.106567 -0.0852,0.09592 -0.0959,0.106537 -0.22377,0.202485 -0.23441,0.202459 -0.26639,0.191811 -0.27705,0.191815 -0.57539,0.362307 -0.55409,0.330345 -0.50081,0.287703 -0.40491,0.245096 0.18115,0.05328 0.17049,0.03194 0.18114,0.03199 0.17049,0.03194 0.17048,0.01058 0.18115,0.02141 0.17049,0 0.17048,0.01058 0.35163,-0.02141 0.34098,-0.03199 0.35163,-0.04262 0.35164,-0.06392 0.36228,-0.08528 0.35163,-0.08524 0.36228,-0.09589 0.37295,-0.106567 0.74588,-0.234422 0.78851,-0.234452 0.42622,0.02141 0.41556,0.03194 0.40491,0.03199 0.39425,0.03199 0.3836,0.05329 0.37295,0.06395 0.19179,0.04262 0.18114,0.04262 0.1705,0.05328 0.18114,0.05328 0.17049,0.06393 0.17049,0.06393 0.17048,0.0746 0.17049,0.08525 0.17049,0.08525 0.15983,0.09589 0.17049,0.106567 0.15983,0.106561 0.15983,0.127886 0.15984,0.12786 0.15983,0.138554 0.15983,0.149179 0.15983,0.170492 0.15983,0.170497 0.14919,0.181166 0.15982,0.19181 -0.032,0.08525 -0.032,0.08525 -0.0426,0.0746 -0.0426,0.06393 -0.0959,0.127885 -0.10656,0.106537 -0.11721,0.08527 -0.12787,0.08525 -0.12787,0.06393 -0.14917,0.05328 -0.14918,0.04262 -0.14918,0.03199 -0.14918,0.03199 -0.15982,0.03199 -0.30901,0.04262 -0.29836,0.05328 -0.23441,0.159852 -0.23443,0.170492 -0.22376,0.159848 -0.22377,0.170497 -0.22377,0.159848 -0.22376,0.170492 -0.22377,0.170497 -0.22376,0.181166 -0.51146,0.138529 -0.51147,0.117211 -0.51146,0.106567 -0.50081,0.09592 -0.50081,0.07457 -0.51146,0.06396 -0.49016,0.06392 -0.5008,0.05329 -0.49016,0.04262 -0.49014,0.05328 -0.49016,0.05329 -0.49015,0.05328 -0.4795,0.05328 -0.4795,0.0746 -0.47949,0.07457 -0.4795,0.09592 0,0.138529 0,0.138535 0.40491,0.138529 0.42622,0.127885 0.45818,0.117211 0.46884,0.117212 0.49016,0.106561 0.50081,0.106567 0.51146,0.09589 0.51147,0.09592 0,0.138529 0,0.149174 0,0.149203 0,0.149179 -0.35164,0.213128 -0.34097,0.181142 -0.34098,0.149203 -0.33032,0.13853 -0.31967,0.127856 -0.33032,0.106566 -0.33032,0.106566 -0.33032,0.106565 -0.0213,0.06393 -0.0106,0.0746 0,0.0746 0,0.06393 0.67129,-0.0746 0.64999,-0.07457 0.31966,-0.04264 0.31966,-0.03196 0.31967,-0.0214 0.31966,-0.01056 0.31967,-0.01056 0.33032,0.01056 0.33032,0.0214 0.33032,0.04261 0.34098,0.05328 0.35163,0.0746 0.35162,0.09589 0.37295,0.127884 0.94834,0.479519 0.85243,0.436908 0.39426,0.191814 0.3836,0.181167 0.39426,0.170494 0.38359,0.149176 0.3836,0.149203 0.40491,0.138529 0.42622,0.117212 0.43687,0.106566 0.46884,0.106566 0.50081,0.08525 0.54343,0.0746 0.58606,0.07457 -0.0213,0.255741 -0.0533,0.234451 -0.0853,0.213132 -0.10655,0.191813 -0.13852,0.181139 -0.1705,0.149204 -0.19179,0.13853 -0.21311,0.127856 -0.23442,0.106566 -0.24508,0.08525 -0.26638,0.08525 -0.27705,0.06396 -0.29835,0.05328 -0.29835,0.04261 -0.30902,0.03196 -0.31966,0.0214 -0.31966,0.01056 -0.31967,0 -0.33032,0 -0.31966,0 -0.61802,-0.03196 -0.59671,-0.03196 -0.55409,-0.04264 -0.47949,-0.04261 -0.40491,-0.0214 -0.30901,-0.0214 -0.25573,0.06393 -0.23442,0.05328 -0.22377,0.05328 -0.20245,0.06393 -0.20246,0.06396 -0.1918,0.07457 -0.19179,0.06396 -0.18115,0.07457 -0.36229,0.170522 -0.36228,0.181139 -0.37294,0.202459 -0.40491,0.213131 0.22376,0.149204 0.22377,0.127856 0.23442,0.117212 0.22376,0.117238 0.23442,0.106537 0.23443,0.09592 0.23442,0.08524 0.24508,0.0746 0.23442,0.07457 0.24507,0.06396 0.24508,0.06393 0.24507,0.05328 0.24508,0.04265 0.24507,0.0426 0.25574,0.03197 0.25573,0.03197 0.51146,0.05329 0.51147,0.03197 0.53277,0.03197 0.53278,0.01058 0.54343,0.01058 0.54342,0 0.55409,0.01057 0.55409,0.01057 0.0426,0.0426 0.032,0.04265 0.0214,0.0426 0.0213,0.06395 0.032,0.223779 0.032,0.394271 -0.49016,0.319672 -0.3836,0.255766 -0.31966,0.20246 -0.25573,0.181167 -0.25573,0.181142 -0.26639,0.191811 -0.30901,0.234448 -0.39425,0.298353 -0.45819,0.170523 -0.46884,0.149174 -0.46884,0.127885 -0.45819,0.117212 -0.46884,0.08525 -0.46884,0.08524 -0.45819,0.06393 -0.46884,0.04265 -0.45818,0.04258 -0.46885,0.04267 -0.45818,0.02141 -0.45819,0.02141 -0.91637,0.03199 -0.90572,0.03199 0,0.138534 0,0.13853 0.29835,0.191815 0.33033,0.181166 0.34097,0.191816 0.35163,0.181141 0.37294,0.181166 0.3836,0.181166 0.39425,0.181141 0.39426,0.181166 0.0213,0.213104 0.032,0.202485 0.032,0.213108 0.032,0.213129 -0.43688,0.106567 -0.41557,0.138529 -0.4049,0.13853 -0.3836,0.149173 -0.3836,0.159848 -0.37294,0.159848 -0.3836,0.170497 -0.39425,0.159853 -0.0213,0.04262 -0.0213,0.05329 -0.0106,0.05328 -0.0107,0.06395 0.14918,0.04262 0.15984,0.04267 0.15983,0.03199 0.15984,0.02141 0.31966,0.04267 0.34098,0.03199 0.70325,0.02141 0.74589,0.01058 0.37294,0 0.3836,0.01058 0.39425,0.01058 0.3836,0.03199 0.39425,0.03199 0.40491,0.05328 0.39426,0.06393 0.39425,0.08524 0.14918,0.181166 0.14917,0.159848 0.17049,0.138529 0.17049,0.12786 0.18114,0.117211 0.1918,0.09592 0.1918,0.09589 0.21311,0.08528 0.21311,0.07458 0.22376,0.06395 0.22377,0.07457 0.23442,0.05328 0.50081,0.127885 0.52212,0.127855 0.0533,0.117241 0.032,0.106567 -0.0107,0.106537 -0.0213,0.106567 -0.0426,0.106562 -0.0746,0.106567 -0.0853,0.09589 -0.10655,0.106567 -0.11721,0.09592 -0.13853,0.09589 -0.14917,0.08525 -0.17049,0.09592 -0.17048,0.08525 -0.18115,0.08524 -0.18114,0.08525 -0.1918,0.0746 -0.40491,0.149174 -0.39426,0.138529 -0.38359,0.117212 -0.36228,0.106566 -0.61803,0.159848 -0.36228,0.08524 -0.46884,0 -0.46885,-0.01058 -0.45818,-0.02141 -0.45818,-0.02141 -0.90572,-0.04262 -0.88441,-0.06395 -0.86309,-0.05329 -0.8631,-0.05328 -0.41556,-0.02141 -0.42622,-0.01058 -0.41557,-0.01058 -0.41556,0 0.11721,0.19181 0.11721,0.202489 0.11721,0.20246 0.11722,0.213129 0.62867,0.170497 0.80981,0.202454 0.45819,0.117241 0.45819,0.13853 0.47949,0.138529 0.46884,0.170492 0.22377,0.08525 0.23441,0.09589 0.21311,0.09592 0.21312,0.106567 0.21311,0.117211 0.1918,0.117211 0.18114,0.117211 0.18114,0.138529 0.15984,0.127886 0.13852,0.149173 0.13852,0.149204 0.10655,0.159847 0.0959,0.170497 0.0746,0.170497 0.0639,0.181137 0.032,0.191815 -0.24507,0.181166 -0.25574,0.159848 -0.26638,0.149174 -0.26639,0.127885 -0.27704,0.127855 -0.27704,0.106567 -0.27705,0.09592 -0.2877,0.08525 -0.2877,0.0746 -0.29835,0.06393 -0.29835,0.05328 -0.29836,0.04262 -0.30901,0.03199 -0.29835,0.03199 -0.30901,0.02141 -0.30901,0.01058 -0.30901,0 -0.30901,0 -0.30901,0 -0.309,-0.01058 -0.61803,-0.03199 -0.60736,-0.04262 -0.60736,-0.05328 -0.58605,-0.05329 -0.5754,-0.06393 -0.56474,-0.04267 0.0746,0.106562 0.0746,0.09592 0.0746,0.09589 0.0852,0.08524 0.0852,0.08525 0.0853,0.0746 0.0959,0.0746 0.0853,0.06393 0.3836,0.234427 0.36229,0.213129 0.18114,0.117211 0.15983,0.127885 0.0746,0.0746 0.0746,0.07457 0.0639,0.08525 0.0639,0.08527 0.0533,0.09589 0.0533,0.09592 0.0426,0.117211 0.0426,0.117211 0.0213,0.12789 0.0213,0.149174 0.0107,0.149173 0.0106,0.159853 -0.10655,0.117211 -0.10655,0.106562 -0.11722,0.106567 -0.11721,0.08525 -0.12786,0.0746 -0.12787,0.06393 -0.12787,0.05328 -0.13852,0.05328 -0.13852,0.03199 -0.13852,0.03199 -0.13852,0.03199 -0.14918,0.02141 -0.2877,0.02141 -0.29835,0 -0.30901,-0.01058 -0.29835,-0.03199 -0.2877,-0.02141 -0.29836,-0.03199 -0.27704,-0.03199 -0.27704,-0.01058 -0.25573,-0.01058 -0.24508,0.01058 0.0639,0.09592 0.11721,0.170492 0.13853,0.213133 0.13852,0.245072 0.0746,0.12788 0.0639,0.138534 0.0533,0.13853 0.0533,0.138529 0.032,0.138529 0.0213,0.13853 0.0106,0.12788 -0.0106,0.12786 -0.27704,0.08528 -0.27705,0.06392 -0.26638,0.05329 -0.25573,0.04262 -0.255725,0.03199 -0.24508,0.02141 -0.24508,0.02141 -0.23442,0.02141 0.30901,0.266415 0.36229,0.277059 0.181135,0.149203 0.17049,0.159818 0.15983,0.159848 0.13852,0.170497 0.0533,0.08524 0.0533,0.08525 0.0426,0.08528 0.032,0.09589 0.0214,0.08525 0.0213,0.09592 0,0.08525 -0.0107,0.09589 -0.0213,0.09592 -0.0426,0.09589 -0.0427,0.09592 -0.0639,0.09589 -0.0852,0.106562 -0.0959,0.09589 -0.11721,0.09592 -0.13852,0.106567 -0.511465,-0.03199 -0.41556,-0.03199 -0.34097,-0.02141 -0.29836,-0.03199 -0.31966,-0.04262 -0.35163,-0.06395 -0.436877,-0.07457 -0.564742,-0.106567 0.277039,0.26639 0.287703,0.266409 0.277044,0.277059 0.277043,0.26642 0.28769,0.266384 0.27705,0.266415 0.27704,0.277059 0.2877,0.266414 0.62868,0.447556 0.639315,0.447556 0.63933,0.426262 0.66064,0.415593 0.66064,0.415589 0.66064,0.39427 0.68195,0.39427 0.68196,0.38363 0.68195,0.362303 0.6926,0.362307 0.70327,0.362307 0.70326,0.341019 0.71392,0.340984 0.71391,0.330345 0.72458,0.33034 0.71392,0.3197 0.73523,0.309026 0.72457,0.309022 0.73523,0.309026 0.74588,0.287728 1.48112,0.58609 1.49176,0.564762 1.50243,0.564797 1.51308,0.543444 1.50242,0.543473 1.51308,0.532804 0.5754,0.04267 0.58605,0.03199 0.60736,0.03199 0.60736,0.03199 0.62868,0.03199 0.61802,0.04262 0.63933,0.05328 0.62867,0.0746 0.63933,0.07458 0.63933,0.106567 0.30901,0.05328 0.31966,0.06393 0.30901,0.06395 0.30902,0.0746 0.309,0.08525 0.30901,0.08525 0.30901,0.106567 0.29835,0.09589 0.29835,0.117211 0.29837,0.117216 0.28769,0.127885 0.2877,0.138529 0.56474,0.426263 0.56474,0.436881 0.56474,0.436912 0.5754,0.436907 0.59671,0.436906 0.61801,0.447556 0.64999,0.436907 0.6713,0.436911 0.24507,0.223773 0.25573,0.234422 0.26639,0.245101 0.25573,0.255741 0.52213,0.543473 0.53277,0.575441 0.52212,0.596755 0.53277,0.607403 0.52212,0.607404 0.52212,0.59673 0.12786,0 0.13853,-0.01058 0.13852,-0.02141 0.13852,-0.03199 0.13852,-0.03199 0.13852,-0.03199 0.13852,-0.05328 0.13852,-0.04267 0.27704,-0.117211 0.2877,-0.138529 0.27705,-0.159848 0.27704,-0.159852 0.27704,-0.181142 0.27705,-0.181166 0.26638,-0.19181 0.26638,-0.20246 0.51147,-0.383625 0.4795,-0.362303 0.21311,-0.234457 0.18114,-0.223778 0.15984,-0.223773 0.13852,-0.223777 0.10655,-0.223778 0.0852,-0.223773 0.0639,-0.223783 0.0427,-0.223778 0.0213,-0.223773 0.0106,-0.223778 -0.0213,-0.213129 -0.032,-0.223778 -0.0426,-0.223777 -0.0639,-0.213134 -0.0746,-0.213134 -0.0852,-0.213104 -0.0959,-0.213128 -0.10656,-0.213129 -0.12786,-0.213134 -0.12787,-0.213103 -0.12786,-0.20249 -0.14918,-0.202459 -0.14918,-0.202455 -0.14918,-0.202484 -0.30901,-0.383621 -0.31966,-0.383601 -0.31967,-0.372986 -0.309,-0.351658 -0.5754,-0.351634 -0.56475,-0.351668 -0.57539,-0.351658 -0.56474,-0.351663 -0.56474,-0.362302 -0.56475,-0.362312 -0.55408,-0.362308 -0.55408,-0.362302 -0.54343,-0.372981 -0.54343,-0.362313 -0.53278,-0.372951 -0.52212,-0.372977 -0.51146,-0.372951 -0.51146,-0.372987 -0.50081,-0.372951 -0.4795,-0.372977 -0.27704,-0.426232 -0.25574,-0.426268 -0.24507,-0.436881 -0.22377,-0.436907 -0.43687,-0.884467 -0.41557,-0.863164 -0.4049,-0.863149 -0.39425,-0.820508 -0.21311,-0.394299 -0.21312,-0.39427 -0.21311,-0.372977 -0.23441,-0.351638 -0.39426,-0.287733 -0.35163,-0.298352 -0.30901,-0.309047 -0.27704,-0.319665 -0.22377,-0.341019 -0.1918,-0.351633 -0.14917,-0.351663 -0.12787,-0.372977 -0.0852,-0.383601 -0.0639,-0.383625 -0.032,-0.3943 -0.0107,-0.39427 0.0213,-0.404949 0.032,-0.404914 0.0533,-0.415588 0.0746,-0.415594 0.0852,-0.415593 0.0959,-0.415588 0.10655,-0.415588 0.11722,-0.415594 0.25573,-0.831206 0.25573,-0.809863 0.25573,-0.78854 0.22377,-0.767256 0.0959,-0.362303 0.0853,-0.362307 0.0639,-0.351663 0.0533,-0.330345 -0.0106,-0.479538 -0.0107,-0.479523 -0.0106,-0.46887 -0.0106,-0.468874 -0.0106,-0.468869 -0.0107,-0.468874 -0.0106,-0.468874 -0.0213,-0.468869 0.0959,-0.07457 0.10655,-0.05329 0.10656,-0.03199 0.11721,0 0.12786,0.02141 0.12786,0.03199 0.13853,0.06393 0.13852,0.0746 0.14917,0.08525 0.14918,0.106562 0.14918,0.117211 0.14917,0.138529 0.30902,0.287708 0.31966,0.330345 0.30901,0.341014 0.29835,0.362307 0.29835,0.351633 0.27705,0.341019 0.25573,0.319671 0.22376,0.287733 0.20246,0.234422 0.15983,0.181166 0.41557,-0.586085 0.39425,-0.564797 0.39425,-0.532804 0.39425,-0.500827 0.39426,-0.468879 0.39425,-0.447551 0.20246,-0.223803 0.21311,-0.202464 0.20245,-0.213129 0.21311,-0.20246 0.21311,-0.19182 0.22377,-0.19181 0.22376,-0.191811 0.23442,-0.181141 0.23442,-0.181166 0.24508,-0.181141 0.25573,-0.181166 0.25573,-0.170492 0.26639,-0.170492 0.26639,-0.170527 0.28769,-0.170497 0.2877,-0.170492 0.61803,-0.33034 0.64998,-0.330345 0.36228,-0.127855 0.36229,-0.12789 0.36228,-0.12788 0.3623,-0.138525 0.36228,-0.12786 0.36229,-0.12788 0.36228,-0.127885 0.36229,-0.127856 0.61802,-0.04267 0.61802,-0.05328 0.61801,-0.04262 0.61802,-0.06396 0.62868,-0.05328 0.61802,-0.07457 0.62867,-0.0746 0.61801,-0.09589 0.61803,-0.09592 0.61801,-0.117216 0.61802,-0.138529 0.61803,-0.149199 0.29835,-0.08525 0.30901,-0.09589 0.30901,-0.09592 0.29835,-0.09589 0.29835,-0.106567 0.30901,-0.106572 0.29835,-0.127855 0.29836,-0.117228 0.032,-0.07457 0.0213,-0.0746 0.0106,-0.06393 0.0106,-0.09592 0,-0.287704 -0.0106,-0.532831 -0.3836,-0.319667 -0.3836,-0.330345 -0.36228,-0.319697 -0.34098,-0.319672 -0.33032,-0.309022 -0.29835,-0.309053 -0.26639,-0.298353 -0.22377,-0.287729 -0.0639,-0.287709 -0.032,-0.26641 -0.0213,-0.255742 0,-0.245098 0.0213,-0.223777 0.032,-0.213131 0.0426,-0.191813 0.0639,-0.191814 0.0852,-0.170494 0.0852,-0.159848 0.10656,-0.149176 0.11721,-0.13853 0.12787,-0.138529 0.14917,-0.117212 0.14918,-0.106566 0.15984,-0.106566 0.15982,-0.09592 0.18115,-0.08525 0.18114,-0.08525 0.1918,-0.07457 0.1918,-0.06396 0.20245,-0.06393 0.20246,-0.05328 0.20245,-0.05328 0.42622,-0.106565 0.42622,-0.08525 0.42622,-0.08525 0.42622,-0.0746 0.0959,-0.127857 0.0746,-0.127884 0.0639,-0.117212 0.0533,-0.117211 0.032,-0.106566 0.0213,-0.106566 0,-0.09592 0,-0.09589 -0.0213,-0.09589 -0.032,-0.08528 -0.0427,-0.08525 -0.0426,-0.07457 -0.0639,-0.08525 -0.0639,-0.06396 -0.0746,-0.07457 -0.0853,-0.06396 -0.18114,-0.117211 -0.20245,-0.09589 -0.21311,-0.09592 -0.22376,-0.0746 -0.23443,-0.07457 -0.22376,-0.05328 -0.21311,-0.05328 -0.20246,-0.03196 0,-0.170522 0.0213,-0.159821 0.0213,-0.149203 0.0213,-0.149176 0.25573,-0.09592 0.25573,-0.07457 0.24508,-0.0746 0.24508,-0.06393 0.24508,-0.05328 0.24507,-0.04264 0.23442,-0.03196 0.23442,-0.0214 0.22377,-0.01056 0.23441,-0.01057 0.21312,0.01057 0.22377,0.0214 0.22376,0.03196 0.21311,0.04264 0.21311,0.05328 0.20245,0.06393 0.21311,0.0746 0.20245,0.08525 0.20246,0.08525 0.20245,0.106566 0.1918,0.117211 0.20245,0.127884 0.19181,0.13853 0.1918,0.149176 0.19179,0.159848 0.1918,0.170494 0.18115,0.181168 0.1918,0.191785 0.18114,0.202486 0.18114,0.223778 0.18115,0.223777 0.18114,0.23445 0,0.468845 -0.0213,0.404945 -0.0213,0.191812 -0.0213,0.181168 -0.032,0.170495 -0.032,0.159848 -0.0426,0.149175 -0.0427,0.13853 -0.0533,0.127885 -0.0533,0.127857 -0.0639,0.117238 -0.0639,0.106538 -0.0853,0.106567 -0.0746,0.09592 -0.0959,0.09589 -0.0959,0.09592 -0.10656,0.07457 -0.10655,0.08525 -0.12787,0.0746 -0.12787,0.0746 -0.12786,0.0746 -0.14918,0.07457 -0.31966,0.13853 -0.35164,0.13853 -0.39425,0.149205 -0.43687,0.149174 -0.1918,0.13853 -0.18115,0.138529 -0.19179,0.13853 -0.18114,0.149205 0,0.181142 0,0.149173 0.0213,0.138556 0.0426,0.117211 0.0639,0.13853 0.0959,0.149179 0.12787,0.191811 0.17049,0.234448 0.33032,0.234423 0.31966,0.234453 0.14917,0.117211 0.14918,0.127856 0.13852,0.127885 0.12787,0.13853 0.12786,0.127886 0.12787,0.13853 0.11721,0.149174 0.10656,0.13853 0.10655,0.149204 0.0959,0.149174 0.0852,0.159848 0.0746,0.159848 0.0746,0.159824 0.0639,0.170483 0.0533,0.170522 0.0533,0.181142 0.032,0.170492 0.032,0.19181 0.0106,0.181176 0.0106,0.202455 0,0.191815 -0.0106,0.202484 -0.032,0.213104 -0.032,0.213129 -0.0426,0.213133 -0.0533,0.223778 -0.0746,0.234423 -0.0853,0.234452 -0.1918,0.170492 -0.20245,0.181141 -0.22377,0.170517 -0.21311,0.159823 -0.23442,0.159852 -0.23442,0.159848 -0.24507,0.149174 -0.24508,0.149203 -0.51146,0.287703 -0.52213,0.277064 -0.54342,0.25577 -0.55409,0.245067 -0.55408,0.234452 -0.55409,0.234422 -0.55409,0.213129 -0.55408,0.202459 -0.53277,0.202485 -0.53278,0.191815 -0.50081,0.191815 -0.49015,0.181137 -0.33032,0.159847 -0.31966,0.170497 -0.33032,0.159848 -0.33033,0.170492 -0.31966,0.159848 -0.33032,0.170492 -0.33032,0.170502 -0.33032,0.181166 0,0.09589 0,0.08525 0,0.09592 0,0.09589 0.71392,-0.07457 0.71392,-0.06395 0.71391,-0.07457 0.71392,-0.06395 0.71391,-0.07457 0.71393,-0.0746 0.71391,-0.06393 0.71392,-0.0746 0.21312,-0.181176 0.29835,-0.266385 0.37294,-0.319696 0.43688,-0.383625 0.47949,-0.404915 0.52212,-0.436911 0.56474,-0.436907 0.5754,-0.436906 0.29835,-0.20246 0.29835,-0.202489 0.29836,-0.191816 0.28769,-0.19178 0.29836,-0.159848 0.29835,-0.159853 0.2877,-0.138529 0.27705,-0.117211 0.27703,-0.106562 0.26639,-0.0746 0.25574,-0.05328 0.25573,-0.03199 0.23442,0 0.22377,0.02141 0.2131,0.05329 0.19181,0.09589 0.0426,0.106562 0.0533,0.138529 -0.15983,0.266415 -0.15984,0.25574 -0.18114,0.234452 -0.18115,0.223778 -0.20245,0.213104 -0.21311,0.213134 -0.22376,0.213128 -0.23442,0.223778 -0.0533,0.223773 -0.0426,0.234457 -0.032,0.234422 -0.0213,0.234447 -0.032,0.490163 -0.032,0.490197 -0.0106,0.255741 -0.032,0.255765 -0.032,0.266385 -0.032,0.25577 -0.0533,0.26639 -0.0746,0.266415 -0.0746,0.266384 -0.10655,0.277059 -0.44753,0.383626 -0.44753,0.372986 -0.45819,0.362303 -0.45819,0.362307 -0.46884,0.340989 -0.47949,0.330345 -0.4795,0.319695 -0.50081,0.298377 0.18114,0 0.18115,-0.01058 0.18114,-0.02141 0.18115,-0.02141 0.17048,-0.03199 0.17049,-0.04267 0.18114,-0.04262 0.17049,-0.04267 0.34098,-0.106562 0.33032,-0.117211 0.34097,-0.127885 0.34097,-0.13853 0.34099,-0.138529 0.35163,-0.127855 0.35163,-0.127885 0.35163,-0.117212 0.37294,-0.106566 0.37294,-0.09592 0.1918,-0.03199 0.20246,-0.03199 0.1918,-0.02141 0.20245,-0.02141 0.0852,0.08525 0.0533,0.06392 0.0426,0.06395 0.0213,0.06393 0.0213,0.159847 0,0.277059 -0.25572,0.20246 -0.22377,0.181171 -0.20246,0.181141 -0.1918,0.170492 -0.17048,0.170522 -0.14918,0.170492 -0.14918,0.170492 -0.13852,0.170497 -0.12786,0.181166 -0.13852,0.191815 -0.12787,0.20246 -0.12787,0.213129 -0.27704,0.490162 -0.309,0.575441 -0.40492,0.372982 -0.49015,0.436906 -0.26639,0.234422 -0.27704,0.245097 -0.26639,0.266414 -0.26638,0.26639 -0.25574,0.277059 -0.23442,0.277054 -0.10655,0.149203 -0.0959,0.13853 -0.0853,0.149173 -0.0852,0.149209 -0.0746,0.138529 -0.0639,0.149174 -0.0533,0.149173 -0.032,0.149204 -0.032,0.149174 -0.0106,0.149203 0,0.149179 0.0106,0.149173 0.36228,-0.149173 0.34098,-0.13853 0.31967,-0.127885 0.31966,-0.106567 0.29836,-0.09589 0.29835,-0.08525 0.29835,-0.0746 0.30901,-0.06393 0.29835,-0.06392 0.31967,-0.04267 0.31967,-0.05329 0.35162,-0.04262 0.74589,-0.06395 0.84179,-0.07457 0.24507,-0.159848 0.1918,-0.12789 0.1918,-0.117211 0.18114,-0.08525 0.20245,-0.08524 0.23442,-0.06395 0.27705,-0.07457 0.35163,-0.06396 -0.0426,0.394299 -0.0426,0.362313 -0.0533,0.351658 -0.0533,0.330315 -0.0533,0.309051 -0.0639,0.287703 -0.0746,0.26642 -0.0746,0.25574 -0.0853,0.234422 -0.0959,0.223803 -0.10655,0.213104 -0.10655,0.202484 -0.11722,0.181146 -0.12786,0.181167 -0.13852,0.170492 -0.14918,0.159847 -0.15983,0.149179 -0.17049,0.149198 -0.17049,0.13853 -0.1918,0.138529 -0.21311,0.127861 -0.21311,0.138524 -0.23442,0.12789 -0.23442,0.127856 -0.53277,0.266414 -0.58605,0.277059 -0.64999,0.298377 -0.71392,0.33034 -0.5008,0.351668 -0.43688,0.33034 -0.38359,0.298347 -0.33033,0.277064 -0.13852,0.138529 -0.13852,0.127881 -0.11721,0.138534 -0.11721,0.127885 -0.10656,0.138529 -0.0959,0.127856 -0.0853,0.138529 -0.0852,0.13853 -0.0746,0.149203 -0.0639,0.149179 -0.0639,0.149198 -0.0639,0.159823 -0.10655,0.351663 -0.0959,0.372982 -0.19179,0.905756 -0.23442,1.129553 0.17048,-0.127855 0.17049,-0.127885 0.15983,-0.149174 0.14918,-0.149203 0.14918,-0.149174 0.14917,-0.159848 0.13852,-0.159848 0.12787,-0.170501 0.25573,-0.340985 0.24508,-0.362307 0.22377,-0.362307 0.21311,-0.362337 0.309,-0.255741 0.46885,-0.39427 0.28769,-0.223778 0.29835,-0.234447 0.33032,-0.223778 0.33032,-0.223782 0.15984,-0.106562 0.17049,-0.09589 0.15983,-0.08525 0.17049,-0.08524 0.15983,-0.0746 0.15983,-0.06393 0.15984,-0.04267 0.14918,-0.04267 0.14917,-0.02141 0.13852,-0.02141 0.13852,0.01058 0.11721,0.02141 0.11721,0.03199 0.10656,0.06393 0.10655,0.0746 0.0852,0.09589 -0.0213,0.159853 -0.0213,0.170497 -0.032,0.170492 -0.0213,0.181166 -0.10655,0.213129 -0.10656,0.223778 -0.0853,0.223777 -0.0852,0.223783 -0.0746,0.223773 -0.0639,0.234422 -0.0639,0.234452 -0.0533,0.234423 -0.0959,0.479548 -0.0639,0.479513 -0.0639,0.479519 -0.0533,0.490192 -0.0533,0.490193 -0.0533,0.490192 -0.0746,0.479514 -0.0746,0.479523 -0.0533,0.234447 -0.0533,0.223778 -0.0533,0.234452 -0.0639,0.234422 -0.0746,0.223778 -0.0852,0.223778 -0.0853,0.213129 -0.10655,0.213133 -0.24508,0.181137 -0.31966,0.202489 -0.35164,0.245066 -0.34097,0.26642 -0.15983,0.12788 -0.14918,0.138529 -0.12787,0.13853 -0.10655,0.138529 -0.0426,0.07458 -0.032,0.06395 -0.032,0.06393 -0.0213,0.0746 -0.0213,0.06393 0,0.06393 0.0106,0.06395 0.0107,0.06392 0.20245,0.04267 0.20245,0.02141 0.1918,0.02141 0.18115,0.01058 0.17048,0 0.15984,-0.01058 0.15983,-0.02141 0.14918,-0.03199 0.14918,-0.04262 0.13852,-0.04267 0.13852,-0.04262 0.12786,-0.06396 0.25574,-0.117211 0.25573,-0.138529 0.24507,-0.149179 0.24508,-0.149203 0.25573,-0.149179 0.27705,-0.12788 0.13852,-0.06393 0.13852,-0.06393 0.15983,-0.05328 0.14918,-0.05328 0.17049,-0.04267 0.17048,-0.03199 0.18114,-0.02141 0.18115,-0.02141 0.0746,0.106567 0.0639,0.106567 0.0533,0.117211 0.0533,0.117216 0.032,0.117236 0.032,0.127855 0.0106,0.127885 0.0107,0.127856 0.0106,0.127885 -0.0106,0.138529 -0.0107,0.127885 -0.0213,0.13853 -0.0213,0.138529 -0.032,0.127856 -0.0426,0.138529 -0.0426,0.138534 -0.0959,0.266415 -0.12786,0.266415 -0.13852,0.266384 -0.14918,0.255771 -0.15984,0.234422 -0.18114,0.234452 -0.18114,0.213104 -0.18114,0.19181 -0.24508,0.138529 -0.28769,0.149204 -0.29836,0.138529 -0.31967,0.149174 -0.66064,0.298387 -0.67129,0.298377 -0.31966,0.149174 -0.29836,0.149203 -0.2877,0.149174 -0.24508,0.159848 -0.11721,0.07457 -0.0959,0.0746 -0.0959,0.08525 -0.0853,0.0746 -0.0746,0.07461 -0.0533,0.08525 -0.0533,0.07457 -0.032,0.07461 0.31966,-0.02141 0.30901,-0.01058 0.31967,-0.02141 0.31966,-0.01058 0.31967,-0.02141 0.31966,-0.01058 0.31966,-0.01058 0.33032,-0.01058 0.23443,-0.08524 0.25573,-0.09592 0.25573,-0.09589 0.26639,-0.09589 0.13852,-0.04267 0.13852,-0.03199 0.14917,-0.03199 0.14918,-0.02141 0.14918,-0.02141 0.15983,0 0.15984,0 0.15983,0.02141 0.0959,0.330345 0.0533,0.309027 0.032,0.298377 -0.0107,0.277059 -0.0426,0.25574 -0.0639,0.245096 -0.0852,0.234427 -0.12787,0.213129 -0.13852,0.20246 -0.15983,0.19181 -0.1918,0.181166 -0.20245,0.159848 -0.21311,0.159823 -0.23442,0.149208 -0.24508,0.149174 -0.25573,0.138529 -0.26639,0.127886 -0.27704,0.12788 -0.27705,0.117211 -0.28769,0.117211 -0.5754,0.234422 -0.56474,0.223808 -0.27704,0.117211 -0.27705,0.117211 -0.26638,0.117216 -0.24508,0.12788 -0.24507,0.127886 -0.23443,0.138529 -0.2131,0.149174 -0.19181,0.149178 0.0533,0.117236 0.0639,0.117211 0.0746,0.117211 0.0746,0.106567 0.0852,0.09589 0.0852,0.09592 0.10655,0.08525 0.10656,0.08525 0.10655,0.0746 0.11721,0.0746 0.11721,0.07457 0.12787,0.06396 0.13852,0.06393 0.12786,0.05328 0.13853,0.05329 0.14918,0.04262 0.29835,0.08525 0.30901,0.0746 0.30901,0.05329 0.33032,0.04262 0.31966,0.03199 0.33032,0.02141 0.31967,0.01058 0.31966,0.01058 0.18115,-0.106567 0.25573,-0.149198 0.14918,-0.07457 0.14917,-0.08525 0.17049,-0.06396 0.17049,-0.07457 0.17049,-0.05328 0.17048,-0.04267 0.18114,-0.03199 0.15984,-0.01058 0.0852,0.01058 0.0746,0 0.0852,0.02141 0.0746,0.02141 0.0639,0.03199 0.0746,0.04267 0.0639,0.04262 0.0533,0.05329 -0.10655,0.266414 -0.11721,0.255741 -0.12787,0.234452 -0.14917,0.245066 -0.14918,0.223803 -0.17048,0.213104 -0.1705,0.213134 -0.19179,0.202454 -0.1918,0.20249 -0.20246,0.191815 -0.21311,0.181141 -0.21311,0.181166 -0.22376,0.170492 -0.22377,0.170492 -0.23442,0.159848 -0.24507,0.159848 -0.43688,0.08525 -0.51146,0.07457 -0.55409,0.08527 -0.5754,0.08525 -0.55408,0.07457 -0.52212,0.08524 -0.45819,0.08525 -0.37294,0.0746 -0.0213,0.149204 -0.0106,0.138529 0,0.13853 0,0.138529 0.10656,0.08525 0.11721,0.08525 0.10656,0.06392 0.10655,0.06393 0.10655,0.04267 0.10656,0.04267 0.0959,0.03199 0.10656,0.03199 0.10655,0.02141 0.10655,0.01058 0.10656,0.01058 0.10655,0 0.20246,-0.01058 0.21311,-0.02141 0.44752,-0.06392 0.46885,-0.06396 0.25573,-0.03199 0.25573,-0.01058 0.26639,0 0.2877,0.02141 -0.0426,0.159848 -0.0533,0.149179 -0.0639,0.149198 -0.0639,0.149182 -0.0853,0.13853 -0.0852,0.13853 -0.0959,0.13853 -0.0959,0.13853 -0.11721,0.12788 -0.10655,0.12786 -0.12787,0.11724 -0.11721,0.12786 -0.26639,0.22377 -0.27704,0.22378 -0.29835,0.20249 -0.29836,0.20246 -0.29835,0.18117 -0.30901,0.17049 -0.59671,0.31967 -0.55409,0.27706 -0.39425,0 -0.37294,-0.0214 -0.36228,-0.0214 -0.35164,-0.0426 -0.33032,-0.0427 -0.31966,-0.0639 -0.29836,-0.0639 -0.29835,-0.0746 -0.2877,-0.0959 -0.27704,-0.0959 -0.26639,-0.0959 -0.25573,-0.11724 -0.24507,-0.12786 -0.24509,-0.12788 -0.23442,-0.13853 -0.23442,-0.14918 -0.22376,-0.15985 -0.22376,-0.15985 -0.22377,-0.18114 -0.21311,-0.17052 -0.43687,-0.3836 -0.43688,-0.41561 -0.44753,-0.436892 -0.45819,-0.458224 -0.47949,-0.490188 -0.50081,-0.511486 -0.22377,-0.05329 -0.21311,-0.03199 -0.20245,-0.03199 -0.1918,-0.02141 -0.18115,-0.01058 -0.17048,0 -0.15983,0 -0.15983,0.02141 -0.30902,0.04262 -0.29835,0.07461 -0.309,0.0746 -0.31968,0.09589 0,0.745933 0,0.745933 0,0.756574 0,0.74594 0,0.7566 0,0.74594 0,0.75658 0,0.7566 -0.26638,0.80986 -0.2877,0.78855 -0.14918,0.39429 -0.14918,0.38363 -0.15982,0.39427 -0.17049,0.38363 -0.15983,0.38362 -0.18114,0.37295 -0.18115,0.37298 -0.18114,0.37296 -0.1918,0.37298 -0.1918,0.37295 -0.20246,0.36231 -0.21311,0.3623 -0.21311,0.35167 -0.2131,0.3623 -0.23443,0.35167 -0.23442,0.35166 -0.23442,0.34098 -0.24507,0.34099 -0.25573,0.34102 -0.2664,0.34099 -0.26638,0.33034 -0.26639,0.33034 -0.28769,0.33035 -0.2877,0.3197 -0.29836,0.31966 -0.29835,0.3197 -0.31966,0.30902 -0.31967,0.30903 -0.44754,0.58609 -0.41555,0.53282 -0.39426,0.51149 -0.36229,0.47954 -0.15982,0.23442 -0.15984,0.22378 -0.14918,0.22378 -0.13852,0.22377 -0.12787,0.22378 -0.10655,0.22381 -0.10655,0.22377 -0.0959,0.22378 -0.0746,0.22377 -0.0639,0.23443 -0.0533,0.23445 -0.032,0.23443 -0.0213,0.24509 -0.0107,0.25574 0.0107,0.26641 0.032,0.26642 0.0426,0.27706 0.0639,0.29838 0.0746,0.29835 0.0959,0.3197 0.11721,0.33034 0.12786,0.34099 0.15984,0.36231 0.17048,0.37297 0.41557,0.43691 0.41557,0.43689 0.40491,0.44758 0.41556,0.44755 0.4049,0.44756 0.40492,0.46887 0.39425,0.46887 0.40491,0.46888 0.38359,0.49018 0.39426,0.50085 0.38359,0.51148 0.37295,0.51151 0.37294,0.5328 0.36229,0.55412 0.35163,0.55412 0.35163,0.58611 0.0213,0.34099 -0.0106,0.33034 -0.0106,0.15985 -0.0106,0.14917 -0.0213,0.14918 -0.0213,0.13853 -0.0639,0.27709 -0.0852,0.25574 -0.0959,0.25574 -0.11721,0.2451 -0.13852,0.23442 -0.14918,0.23445 -0.15983,0.2451 -0.18114,0.23442 -0.39426,0.50084 -0.42621,0.54347 -0.31967,0.50084 -0.23442,0.38362 -0.20246,0.30902 -0.17048,0.25578 -0.17049,0.24507 -0.18114,0.25577 -0.22377,0.29834 -0.27704,0.37298 -0.53277,0.29839 -0.51146,0.2877 -0.51147,0.29838 -0.51147,0.2877 -0.49015,0.28773 -0.49015,0.29839 -0.4795,0.29835 -0.47949,0.29837 -0.46885,0.30903 -0.46884,0.31969 -0.45818,0.31971 -0.45819,0.34098 -0.44753,0.34099 -0.44753,0.36231 -0.44753,0.37298 -0.43688,0.39427 -0.25573,0.42626 -0.21311,0.3836 -0.1918,0.34102 -0.15983,0.30902 -0.12787,0.27706 -0.10655,0.26642 -0.032,0.12785 -0.0426,0.12789 -0.0213,0.12788 -0.0213,0.11721 -0.0106,0.12786 0,0.12788 0,0.12789 0.0106,0.13853 0.0213,0.13853 0.0213,0.13853 0.0213,0.14917 0.0427,0.15985 0.0852,0.34099 0.11721,0.37298 0.13852,0.42624 0.15983,0.47954 0,0.23443 -0.0106,0.21313 -0.0213,0.19181 -0.032,0.17049 -0.0427,0.15985 -0.0426,0.12786 -0.0533,0.12788 -0.0639,0.0959 -0.0746,0.0959 -0.0746,0.0746 -0.0746,0.0533 -0.0959,0.0533 -0.0959,0.032 -0.0959,0.0214 -0.10656,0.0106 -0.10655,0 -0.11721,-0.0106 -0.11722,-0.0214 -0.12786,-0.032 -0.12786,-0.032 -0.26639,-0.0959 -0.27704,-0.11721 -0.5754,-0.28774 -0.60737,-0.31966 -0.0213,0.45819 -0.0213,0.45824 -0.032,0.45819 -0.032,0.45823 -0.032,0.23442 -0.032,0.23446 -0.0426,0.24509 -0.0426,0.24509 -0.0533,0.2451 -0.0639,0.25574 -0.0746,0.25574 -0.0852,0.25575 -0.10656,0.0214 -0.10655,0.0106 -0.10656,0 -0.11721,-0.0106 -0.1172,-0.0214 -0.11721,-0.032 -0.11721,-0.032 -0.11722,-0.0427 -0.23441,-0.10654 -0.23442,-0.12789 -0.23443,-0.13853 -0.23442,-0.15984 -0.44753,-0.31967 -0.40491,-0.3197 -0.17049,-0.13853 -0.17048,-0.11722 -0.13852,-0.10656 -0.12787,-0.0746 -0.0426,0.13853 -0.032,0.12788 -0.032,0.15986 -0.032,0.2131 -0.032,0.29838 -0.0533,0.42626 -0.0639,0.56477 -0.0852,0.75657 -0.15984,-0.0214 -0.17048,-0.0106 -0.15984,-0.032 -0.14917,-0.032 -0.29836,-0.0639 -0.2877,-0.0959 -0.26638,-0.10653 -0.26639,-0.11724 -0.24507,-0.12786 -0.24508,-0.13853 -0.22377,-0.14921 -0.22376,-0.15985 -0.22377,-0.15981 -0.21311,-0.15985 -0.41556,-0.33035 -0.40491,-0.31969 -0.21311,0.15985 -0.20245,0.15984 -0.20246,0.1705 -0.20246,0.15985 -0.20245,0.15985 -0.20245,0.17049 -0.20246,0.15985 -0.1918,0.15982 0,0.47955 0,0.38362 0.0106,0.33034 0.0107,0.33035 0.032,0.35163 0.032,0.42626 0.0533,0.5328 0.0746,0.69265 -0.0746,0.22378 -0.1172,0.21314 -0.13853,0.20245 -0.17048,0.19182 -0.20246,0.17049 -0.22376,0.15985 -0.23442,0.15985 -0.26639,0.13853 -0.2877,0.12788 -0.29835,0.11721 -0.30902,0.11721 -0.33032,0.0959 -0.33032,0.0959 -0.35162,0.0852 -0.35164,0.0746 -0.35163,0.0746 -0.36228,0.0532 -0.36229,0.064 -0.36229,0.0426 -0.36228,0.0533 -0.70327,0.064 -0.66064,0.0639 -0.61801,0.0426 -0.55409,0.032 -0.4795,0.0214 -0.37294,0.0214 z"
     id="path2549"
     inkscape:connector-curvature="0" />
  <path
     style="fill:#131516;fill-opacity:1;fill-rule:evenodd;stroke:none"
     d="m 77.637506,150.6746 -0.202449,-0.0426 -0.202455,-0.0427 -0.213109,-0.032 -0.255735,-0.032 -0.340974,-0.0214 -0.458185,-0.032 -0.586056,-0.0426 0.04262,-0.2451 0.05328,-0.22377 0.05328,-0.22378 0.05328,-0.21314 0.07459,-0.20245 0.06394,-0.20249 0.08524,-0.18114 0.07458,-0.19181 0.08524,-0.18117 0.0959,-0.17049 0.09591,-0.1705 0.0959,-0.17049 0.213109,-0.3197 0.223768,-0.30902 0.468839,-0.6074 0.500807,-0.61805 0.25573,-0.3197 0.245077,-0.34099 0.245081,-0.35166 0.245077,-0.37295 0.05328,-0.50087 0.04262,-0.42624 0.04262,-0.37295 0.05328,-0.30905 0.03199,-0.12785 0.03199,-0.12789 0.03199,-0.10657 0.04267,-0.10656 0.04262,-0.0853 0.04262,-0.0852 0.06393,-0.0746 0.05328,-0.0746 0.07459,-0.064 0.07459,-0.0533 0.08524,-0.0533 0.0959,-0.0427 0.213109,-0.0853 0.255736,-0.0853 0.66064,-0.17049 0.873748,-0.22378 0.639332,-0.37298 0.522115,-0.30903 0.458185,-0.28772 0.479504,-0.29836 0.543428,-0.35165 0.681949,-0.44757 0.873753,-0.57543 1.140134,-0.75658 0.649985,-0.19181 0.649986,-0.17053 0.660645,-0.17049 0.64998,-0.15985 0.649986,-0.15982 0.649985,-0.15985 0.649986,-0.17049 0.649981,-0.1705 0.639336,-0.18117 0.649981,-0.20245 0.319665,-0.11724 0.319661,-0.10654 0.309012,-0.12788 0.319665,-0.12788 0.319666,-0.12786 0.319666,-0.14921 0.309006,-0.14917 0.319666,-0.14921 0.309006,-0.17049 0.30901,-0.18114 0.31967,-0.18117 0.30901,-0.20245 0.82047,-0.70333 0.777852,-0.67133 0.37294,-0.31969 0.37295,-0.30903 0.36228,-0.30903 0.37295,-0.2877 0.37293,-0.28773 0.3836,-0.27706 0.39425,-0.27706 0.40492,-0.27706 0.41556,-0.26639 0.43687,-0.25577 0.45819,-0.26638 0.46884,-0.25577 0.0427,-0.52216 0.0533,-0.51149 0.0639,-0.5115 0.0639,-0.50084 0.0746,-0.50084 0.0853,-0.49019 0.0852,-0.49016 0.0852,-0.4902 0.0959,-0.47951 0.0959,-0.47955 0.10656,-0.46887 0.0959,-0.46887 0.10656,-0.47953 0.0959,-0.46886 0.0959,-0.45823 0.0959,-0.46888 -0.61802,-0.49016 -0.62867,-0.52216 -0.62868,-0.54347 -0.63933,-0.57544 -0.30901,-0.2877 -0.31966,-0.30903 -0.30901,-0.29838 -0.30901,-0.30902 -0.29836,-0.3197 -0.28769,-0.31969 -0.29835,-0.33035 -0.27705,-0.33031 -0.27704,-0.33035 -0.25573,-0.34101 -0.25573,-0.34099 -0.24508,-0.34099 -0.23442,-0.35166 -0.22377,-0.34102 -0.21311,-0.36231 -0.1918,-0.35163 -0.181142,-0.35166 -0.15983,-0.36231 -0.14918,-0.36231 -0.13852,-0.36233 -0.10655,-0.36231 -0.10656,-0.3623 -0.0746,-0.36231 -0.0533,-0.37296 0.67129,0.0106 0.692612,0.032 0.69261,0.0533 0.70326,0.0639 0.70326,0.0746 0.71392,0.0959 0.72457,0.0959 0.72457,0.10657 0.72457,0.11721 0.73524,0.12785 0.73523,0.11724 0.74588,0.11721 0.73523,0.12789 0.74588,0.11721 0.74589,0.10656 0.73523,0.10654 0.0852,0.33034 0.0959,0.31971 0.0852,0.31969 0.10656,0.33034 0.21311,0.63937 0.23442,0.63937 0.25573,0.62872 0.26639,0.62869 0.28769,0.62872 0.30902,0.61808 0.33032,0.61805 0.34097,0.6074 0.35163,0.6074 0.37294,0.60741 0.3836,0.6074 0.40491,0.59673 0.40491,0.58611 0.42622,0.59673 0.36229,0.30903 0.37294,0.30905 0.38359,0.33034 0.39426,0.33035 0.39425,0.3623 0.39425,0.38362 0.20246,0.19181 0.1918,0.21311 0.20245,0.21314 0.1918,0.22377 0.12786,0.84185 0.12787,0.86315 0.0533,0.44755 0.0533,0.44756 0.0426,0.44755 0.0426,0.45823 0.0213,0.45823 0.0106,0.4582 -0.0106,0.45822 -0.0107,0.46888 -0.0426,0.4582 -0.0533,0.45822 -0.032,0.22378 -0.0427,0.22378 -0.0533,0.23445 -0.0533,0.22378 -0.1918,0.2131 -0.21311,0.20248 -0.22376,0.18115 -0.23442,0.18116 -0.24508,0.17049 -0.24508,0.14918 -0.26639,0.14921 -0.26638,0.13853 -0.27704,0.12788 -0.2877,0.11721 -0.2877,0.11721 -0.29835,0.10657 -0.29836,0.0959 -0.30901,0.0853 -0.30901,0.0853 -0.30901,0.0853 -0.62867,0.14917 -0.62867,0.12789 -0.62868,0.11721 -0.61801,0.10657 -0.60737,0.10656 -0.58605,0.10654 -0.56474,0.10657 -0.54343,0.11724 -0.54343,0.26638 -0.54343,0.26641 -0.53278,0.26639 -0.53277,0.26642 -0.52212,0.26641 -0.52212,0.26639 -0.51146,0.26641 -0.52212,0.26642 -0.51146,0.27706 -0.51147,0.27706 -0.51146,0.27706 -0.51147,0.27706 -0.51146,0.2877 -0.51146,0.29838 -0.51146,0.29838 -0.51147,0.30903 -0.0746,0.52215 -0.0853,0.5328 -0.0746,0.53283 -0.0746,0.5328 -0.0639,0.5328 -0.0746,0.54348 -0.0746,0.5328 -0.0639,0.5328 -0.12787,0.0533 -0.13852,0.0427 -0.12786,0.0214 -0.13853,0.0106 -0.13852,0 -0.13852,-0.0106 -0.138522,-0.032 -0.13852,-0.032 -0.13852,-0.0426 -0.14918,-0.0533 -0.13852,-0.0639 -0.13852,-0.0639 -0.28771,-0.15982 -0.27703,-0.17052 -0.53278,-0.36231 -0.479493,-0.35164 -0.213108,-0.15984 -0.202455,-0.13853 -0.170497,-0.0959 -0.149174,-0.0746 0,0.24507 0,0.25577 0,0.2451 0,0.24506 0,0.2451 0,0.25577 0,0.25574 0,0.25574 -0.298352,-0.0533 -0.287698,-0.0426 -0.287698,-0.0427 -0.277044,-0.0533 -0.234417,-0.0959 -0.223768,-0.064 -0.213109,-0.0533 -0.20246,-0.032 -0.202449,-0.0214 -0.191801,-0.0106 -0.1918,0.0106 -0.181142,0.0106 -0.372941,0.0427 -0.372942,0.0533 -0.20245,0.032 -0.1918,0.0214 -0.213109,0.0106 -0.213118,0 -0.500802,-0.19181 -0.394256,-0.1705 -0.170487,-0.0746 -0.149178,-0.0533 -0.149174,-0.0533 -0.138519,-0.032 -0.127871,-0.0214 -0.138519,-0.0106 -0.127865,0.0214 -0.13852,0.0214 -0.149184,0.0533 -0.159827,0.0639 -0.181147,0.0959 -0.1918,0.10657 0.181146,0.51148 0.170487,0.52215 0.181141,0.52216 0.170497,0.52216 0.181142,0.52215 0.181141,0.52215 0.181146,0.53281 0.191796,0.52215 -0.362288,0.11721 -0.351628,0.11721 -0.362293,0.10657 -0.351628,0.10657 -0.362287,0.0959 -0.362288,0.0852 -0.351628,0.0853 -0.362288,0.0746 -0.724574,0.13854 -0.713916,0.12788 -0.72457,0.10657 -0.713926,0.0852 -0.713916,0.0746 -0.713915,0.0639 -0.713921,0.0533 -0.713916,0.0533 -0.703261,0.0426 -0.713921,0.0427 -0.692608,0.032 -0.703256,0.0427 z"
     id="path2551"
     inkscape:connector-curvature="0" />
  <path
     style="fill:#ffffff;fill-opacity:1;fill-rule:evenodd;stroke:none"
     d="m 94.846129,69.527742 -0.05328,0.04267 z"
     id="path2553"
     inkscape:connector-curvature="0" />
  <path
     style="fill:#ffffff;fill-opacity:1;fill-rule:evenodd;stroke:none"
     d="m 67.536104,26.924317 -0.138519,-0.06396 -0.13852,-0.06393 -0.138524,-0.05329 0.181146,-0.138529 0.149174,-0.127885 0.149178,-0.127855 0.127865,-0.117212 0.106552,-0.11724 0.0959,-0.117212 0.08524,-0.117211 0.07459,-0.127885 0.05328,-0.117211 0.05328,-0.138529 0.05328,-0.127885 0.03199,-0.149174 0.06394,-0.319696 0.05328,-0.372956 0.181147,0.117211 0.170482,0.117216 0.149178,0.117236 0.127866,0.106537 0.12787,0.117241 0.106557,0.106537 0.08524,0.106567 0.07459,0.09592 0.06393,0.106562 0.05328,0.09589 0.03199,0.09592 0.02131,0.09589 0.01063,0.09592 0,0.08525 -0.02131,0.08525 -0.02131,0.08525 -0.04262,0.08524 -0.05328,0.0746 -0.06394,0.07457 -0.06393,0.0746 -0.08524,0.06393 -0.0959,0.06395 -0.106552,0.05328 -0.117216,0.05329 -0.127865,0.05325 -0.127866,0.05329 -0.149178,0.04262 -0.149174,0.03199 -0.159833,0.04262 -0.170487,0.02141 -0.181146,0.03199 -0.181141,0.01058 z"
     id="path2559"
     inkscape:connector-curvature="0" />
  <path
     style="fill:#ffffff;fill-opacity:1;fill-rule:evenodd;stroke:none"
     d="m 65.319762,25.975894 -0.159827,-0.159848 -0.138525,-0.159823 -0.117211,-0.149203 -0.106552,-0.138529 -0.08524,-0.127856 -0.06394,-0.127885 -0.05328,-0.117211 -0.04262,-0.106567 -0.02131,-0.09592 -0.01063,-0.09589 0.01063,-0.09589 0.01063,-0.0746 0.03199,-0.0746 0.05328,-0.0746 0.05328,-0.06393 0.06394,-0.05329 0.08524,-0.05328 0.08524,-0.04262 0.106557,-0.04262 0.106552,-0.04262 0.117211,-0.03199 0.127865,-0.03199 0.138525,-0.02141 0.287693,-0.04262 0.319666,-0.02141 0.33032,-0.02141 0.362292,0 0,0.09592 0,0.08524 -0.340984,0.245096 -0.266385,0.191816 -0.106552,0.09589 -0.0959,0.08525 -0.08524,0.08524 -0.06393,0.09592 -0.06394,0.106567 -0.05328,0.106562 -0.04262,0.12786 -0.04262,0.138529 -0.07459,0.341014 -0.07459,0.447556 z"
     id="path2561"
     inkscape:connector-curvature="0" />
  <path
     style="fill:none;stroke:#fcdb00;stroke-width:2.22359538;stroke-miterlimit:4;stroke-opacity:1;stroke-dasharray:none"
     d="m 147.33759,112.76188 c -3.40578,-2.29722 -5.19585,-6.01138 -5.52831,-11.47044 -0.24775,-4.068101 0.15893,-7.133768 1.90868,-14.388165 1.56269,-6.478836 1.77158,-7.775444 1.87115,-11.613896 l 0.0866,-3.337035 -0.48362,-0.888545 c -0.26599,-0.488717 -0.52997,-0.883489 -0.58662,-0.877265 -0.17552,0.01917 -2.3061,2.54693 -3.60056,4.271613 -2.82268,3.760794 -4.42467,7.470362 -4.71638,10.921269 l -0.11287,1.335267 -0.91083,0.189088 c -1.83487,0.380934 -1.87874,0.368397 -2.13745,-0.610373 -0.34576,-1.308003 -0.18247,-4.575102 0.30045,-6.011631 0.65495,-1.948288 2.12495,-4.677193 4.22613,-7.845424 2.33257,-3.517122 3.85327,-6.294724 4.41322,-8.060788 0.45829,-1.445499 0.5134,-1.478996 2.68785,-1.633341 l 1.50913,-0.107123 0.53955,1.374128 c 1.28499,3.272608 1.75796,5.573999 1.91184,9.302522 0.17579,4.259633 -0.27353,8.062258 -2.04866,17.337927 -1.53856,8.039441 -1.51972,7.855662 -1.06239,10.355952 0.7898,4.31811 1.87581,6.81946 3.91345,9.01368 0.49105,0.52877 0.50624,0.59434 0.38368,1.65538 -0.0702,0.60763 -0.1944,1.28124 -0.276,1.49687 -0.23347,0.61691 -0.95851,0.48711 -2.288,-0.40967 z m -15.62045,-17.274718 -0.76202,-0.06774 0.0937,-0.698404 c 0.14374,-1.071549 0.83226,-1.962349 1.9331,-2.50093 0.85389,-0.417759 1.25074,-0.484103 3.71171,-0.620413 1.51558,-0.08394 3.04964,-0.155596 3.40903,-0.159261 l 0.65345,-0.0067 0,1.652077 c 0,1.952733 0.49993,1.682037 -4.01898,2.176208 -3.17765,0.347491 -3.48728,0.361389 -5.01995,0.225109 z m 15.73012,-2.231213 c -0.14412,-0.574214 0.0407,-1.715897 0.38572,-2.383138 0.41307,-0.798772 1.58066,-1.993175 3.02962,-3.099195 1.49331,-1.13984 2.78916,-2.469688 3.22179,-3.306289 0.93151,-1.801334 1.5625,-7.759261 1.14975,-10.856012 -0.56225,-4.218243 -2.74522,-8.914256 -5.59161,-12.02865 -0.47902,-0.524127 -0.87094,-1.030303 -0.87094,-1.124835 0,-0.09456 0.83628,-0.946083 1.8584,-1.892335 1.31019,-1.212915 1.88292,-1.643319 1.9415,-1.459069 0.23061,0.7254 3.13858,6.15019 3.79179,7.073593 1.41333,1.997904 3.2892,3.421916 5.13152,3.895409 0.42966,0.110426 1.07684,0.314411 1.43818,0.453278 1.94843,-1.062296 2.5514,3.720267 -2.02388,3.017001 -1.16463,-0.273364 -1.59035,-0.312613 -1.7425,-0.160653 -0.22858,0.228278 -0.24093,1.730098 -0.0345,4.191948 0.11582,1.381048 0.0761,1.982476 -0.23969,3.629188 -0.95987,5.005561 -2.83546,8.668907 -5.91216,11.547492 -1.21361,1.135475 -1.65485,1.434994 -2.45222,1.664693 -0.53478,0.154036 -1.42163,0.50556 -1.97077,0.781124 l -0.99844,0.501031 z m -9.86883,-30.74699 c -0.2622,-0.07896 -0.75228,-0.313864 -1.08907,-0.521986 -0.50243,-0.310526 -0.61232,-0.482856 -0.61232,-0.960234 l 0,-0.581804 1.17619,-0.115154 c 2.93824,-0.287654 5.31073,-1.257916 7.64754,-3.127596 2.49292,-1.994566 4.65213,-4.869511 8.16571,-10.872471 1.13079,-1.931971 1.84411,-2.979172 2.03195,-2.983063 0.35222,-0.0072 1.15232,0.909117 1.297,1.485612 0.23316,0.928964 -1.10576,5.402702 -2.3837,7.964641 -2.46839,4.948531 -6.61196,8.316142 -11.74878,9.548646 -1.42922,0.342906 -3.62287,0.422845 -4.48451,0.163409 z m -7.36453,-5.298966 c -1.13533,-0.28059 -1.818,-0.64865 -2.63882,-1.42277 l -0.66886,-0.630833 0.40785,-0.330231 c 0.63139,-0.511287 1.99531,-0.853721 4.46809,-1.12183 1.24589,-0.135087 2.61811,-0.360196 3.04938,-0.50025 4.73955,-1.539092 7.69496,-3.433344 11.52597,-7.387487 1.87477,-1.935027 5.7337,-6.721233 6.01944,-7.46586 0.0579,-0.150954 0.37153,-0.237591 0.85999,-0.237591 0.89892,0 0.89742,-0.10362 0.0363,2.520946 -1.94431,5.926159 -5.95625,10.830799 -11.68817,14.288884 -1.28889,0.777617 -1.53299,0.852246 -5.47052,1.672948 -4.43057,0.923458 -4.5841,0.939442 -5.90067,0.614074 z"
     id="path2161-5"
     inkscape:connector-curvature="0"
     sodipodi:nodetypes="sssscscsscsssssscssssssssscsssscsssssssssssssssccssssscsssscsssssssssscsssssssssssc" />
  <!-- EMR_SELECTPALETTE -->
  <!-- EMR_EXTSELECTCLIPRGN -->
  <path
     style="fill:#131516;fill-opacity:1"
     d="m 147.33759,112.76188 c -3.40578,-2.29722 -5.19585,-6.01138 -5.52831,-11.47044 -0.24775,-4.068101 0.15893,-7.133768 1.90868,-14.388165 1.56269,-6.478836 1.77159,-7.775444 1.87115,-11.613896 l 0.0866,-3.337035 -0.48361,-0.888545 c -0.266,-0.488717 -0.52997,-0.883489 -0.58662,-0.877265 -0.17553,0.01917 -2.3061,2.54693 -3.60056,4.271613 -2.82269,3.760794 -4.42467,7.470362 -4.71639,10.921269 l -0.11287,1.335267 -0.91082,0.189088 c -1.83488,0.380934 -1.87875,0.368397 -2.13747,-0.610373 -0.34575,-1.308003 -0.18246,-4.575102 0.30045,-6.011631 0.65496,-1.948288 2.12496,-4.677193 4.22614,-7.845424 2.33257,-3.517122 3.85327,-6.294724 4.41321,-8.060788 0.4583,-1.445499 0.51341,-1.478996 2.68786,-1.633341 l 1.50913,-0.107123 0.53955,1.374128 c 1.28499,3.272608 1.75796,5.573999 1.91184,9.302522 0.17579,4.259633 -0.27353,8.062258 -2.04866,17.337927 -1.53856,8.039441 -1.51971,7.855662 -1.06239,10.355952 0.78981,4.31811 1.87582,6.81946 3.91346,9.01368 0.49104,0.52877 0.50624,0.59434 0.38367,1.65538 -0.0702,0.60763 -0.19439,1.28124 -0.276,1.49687 -0.23347,0.61691 -0.95851,0.48711 -2.288,-0.40967 z m -15.62045,-17.274718 -0.76202,-0.06774 0.0937,-0.698404 c 0.14373,-1.071549 0.83225,-1.962349 1.93309,-2.50093 0.85389,-0.417759 1.25074,-0.484103 3.71171,-0.620413 1.51558,-0.08394 3.04964,-0.155596 3.40903,-0.159261 l 0.65345,-0.0067 0,1.652077 c 0,1.952733 0.49993,1.682037 -4.01898,2.176208 -3.17765,0.347491 -3.48728,0.361389 -5.01995,0.225109 z m 15.73012,-2.231213 c -0.14412,-0.574214 0.0407,-1.715897 0.38571,-2.383138 0.41307,-0.798772 1.58066,-1.993175 3.02962,-3.099195 1.49332,-1.13984 2.78918,-2.469688 3.2218,-3.306289 0.93151,-1.801334 1.5625,-7.759261 1.14975,-10.856012 -0.56224,-4.218243 -2.74522,-8.914256 -5.59161,-12.02865 -0.47902,-0.524127 -0.87094,-1.030303 -0.87094,-1.124835 0,-0.09456 0.83628,-0.946083 1.8584,-1.892335 1.31019,-1.212915 1.88292,-1.643319 1.9415,-1.459069 0.23061,0.7254 3.13858,6.15019 3.79179,7.073593 1.41333,1.997904 3.2892,3.421916 5.13151,3.895409 0.42967,0.110426 1.07684,0.314411 1.43818,0.453278 0.95113,0.365585 2.25706,0.311828 4.44963,-0.183118 1.72177,1.405455 0.90552,1.352253 0.90258,3.03735 -2.86278,0.960428 -3.5955,1.050152 -7.37609,0.162769 -1.16463,-0.273364 -1.59035,-0.312613 -1.7425,-0.160653 -0.22857,0.228278 -0.24092,1.730098 -0.0345,4.191948 0.11581,1.381048 0.0761,1.982476 -0.23969,3.629188 -0.95987,5.005561 -2.83547,8.668907 -5.91217,11.547492 -1.21361,1.135475 -1.65484,1.434994 -2.45222,1.664693 -0.53477,0.154036 -1.42162,0.50556 -1.97076,0.781124 l -0.99844,0.501031 z m -9.86882,-30.74699 c -0.26221,-0.07896 -0.75229,-0.313864 -1.08907,-0.521986 -0.50244,-0.310526 -0.61232,-0.482856 -0.61232,-0.960234 l 0,-0.581804 1.17619,-0.115154 c 2.93823,-0.287654 5.31073,-1.257916 7.64753,-3.127596 2.49292,-1.994566 4.65213,-4.869511 8.16571,-10.872471 1.13079,-1.931971 1.84411,-2.979172 2.03195,-2.983063 0.35222,-0.0072 1.15232,0.909117 1.297,1.485612 0.23316,0.928964 -1.10576,5.402702 -2.3837,7.964641 -2.46839,4.948531 -6.61196,8.316142 -11.74879,9.548646 -1.42922,0.342906 -3.62286,0.422845 -4.4845,0.163409 z m -7.36453,-5.298966 c -1.13534,-0.28059 -1.81801,-0.64865 -2.63882,-1.42277 l -0.66886,-0.630833 0.40784,-0.330231 c 0.6314,-0.511287 1.99531,-0.853721 4.46809,-1.12183 1.2459,-0.135087 2.61812,-0.360196 3.04939,-0.50025 4.73954,-1.539092 7.69495,-3.433344 11.52596,-7.387487 1.87477,-1.935027 5.7337,-6.721233 6.01944,-7.46586 0.0579,-0.150954 0.37153,-0.237591 0.85999,-0.237591 0.89892,0 0.89742,-0.10362 0.0363,2.520946 -1.94431,5.926159 -5.95625,10.830799 -11.68816,14.288884 -1.2889,0.777617 -1.533,0.852246 -5.47053,1.672948 -4.43057,0.923458 -4.5841,0.939442 -5.90067,0.614074 z M 111.92373,28.809231 c 4.34793,0.454221 7.95501,2.865487 11.77279,4.074821 1.18234,0.374506 2.18281,0.647815 2.22327,0.607344 0.0405,-0.04043 -0.14024,-0.353883 -0.40156,-0.696512 -0.61478,-0.805998 -1.98057,-1.702605 -3.40875,-2.237769 -2.38541,-0.89383 -8.72056,-4.895468 -14.86742,-2.188606 -5.22809,1.975249 -6.24382,0.49292 -6.47607,-0.623829 -0.48424,-2.328382 2.22335,-2.40087 5.70138,-2.410124 10.66445,-1.422214 16.75739,2.990457 18.43137,3.792701 0.70653,0.3386 1.3151,0.585087 1.35241,0.547785 0.1626,-0.1626 -0.51973,-1.134565 -1.32566,-1.888446 -2.52793,-2.364571 -7.2214,-4.898969 -11.93265,-5.3669 -4.01288,0.07908 -5.63612,0.656577 -6.92521,0.778373 -0.52311,0.04942 1.6297,-1.857034 3.35779,-2.592408 5.60693,-1.013738 9.66407,0.323754 14.19827,3.066254 1.89618,1.146933 2.21473,1.13081 3.63588,2.640105 2.67375,2.839561 5.2628,6.634432 6.74362,9.884355 l 0.67488,1.481108 -0.0631,-1.061764 c -0.14071,-2.368019 -3.62793,-8.140866 -9.08633,-15.041847 -1.01703,-1.285795 -1.84913,-2.398734 -1.84913,-2.473165 0,-0.250659 0.77074,-0.677895 1.22291,-0.677895 0.79595,0 2.84856,1.385553 3.78139,2.552493 4.75969,5.954291 7.73316,10.803785 9.11917,14.872546 0.31014,0.91048 0.74874,1.849784 0.97467,2.087375 l 0.41077,0.431961 0.5271,-0.527103 0.5271,-0.527104 -0.45079,-1.560242 c -1.00671,-3.48432 -2.10483,-5.638842 -6.33801,-12.435263 -3.22993,-5.185674 -3.2501,-5.243152 -1.83918,-5.243152 0.61076,0 0.98295,0.159734 2.02611,0.869537 0.70286,0.478266 1.40233,0.968345 1.55439,1.089087 0.44543,0.353635 3.9355,6.271623 5.14621,8.726251 0.61184,1.240432 1.39363,3.166428 1.73733,4.279948 0.91101,2.951601 0.91404,2.954909 1.90564,2.084289 0.63453,-0.557122 0.64524,-0.587307 0.54384,-1.533752 -0.23649,-2.20753 -1.50508,-6.169452 -3.00936,-9.398499 -0.41951,-0.900501 -0.76273,-1.742187 -0.76273,-1.870435 0,-0.128248 0.22704,-0.487302 0.50454,-0.797883 0.48576,-0.543642 0.52307,-0.555091 1.00194,-0.30766 0.81014,0.418593 2.19955,1.937445 2.79184,3.051938 0.30357,0.571214 1.00101,2.548018 1.54987,4.392883 0.54885,1.844885 1.06058,3.354319 1.13715,3.354319 0.0766,0 0.39851,-0.325477 0.7154,-0.723308 1.4623,-1.835825 1.99254,-2.091402 2.72391,-1.312895 0.47297,0.503449 0.48106,1.161889 0.0303,2.471833 -0.46569,1.353561 -0.4476,1.728539 0.0953,1.975915 0.24411,0.111206 0.55776,0.202206 0.69701,0.202206 0.34236,0 0.31841,0.452836 -0.0862,1.628756 -1.19681,3.478595 -3.77753,6.547713 -7.85043,9.336128 -3.869,2.648802 -8.88882,4.304471 -13.64943,4.501894 -2.36144,0.09792 -3.73535,-0.176164 -4.90825,-0.979217 -0.90121,-0.61702 -0.93351,-1.158381 -0.10253,-1.718364 0.90782,-0.611797 2.10771,-0.897583 4.61276,-1.098682 7.77958,-0.624495 13.66673,-3.451464 17.94017,-8.614736 0.67069,-0.810361 0.68581,-0.850221 0.20217,-0.532855 -5.30673,3.48201 -11.08877,6.024219 -15.46948,6.801449 -1.31424,0.23317 -2.29009,0.281979 -4.26914,0.21349 -2.71829,-0.09406 -4.34105,-0.420507 -6.21939,-1.251215 -1.03871,-0.459367 -1.17121,-0.697375 -1.09506,-1.96702 l 0.0442,-0.737511 -4.03711,1.94812 c -2.42688,1.058237 -7.52705,-2.061551 -8.2099,-3.334337 -0.68285,-1.272786 -1.29973,-1.653744 4.0725,-0.238592 6.43663,-0.258576 4.87068,-1.662945 7.98501,-1.537702 2.67507,0.107595 4.89754,0.161854 4.93881,0.120579 0.17344,-0.173443 -1.86378,-1.152189 -3.08221,-1.480805 -2.39904,-0.64701 -5.40196,-2.36182 -10.21378,-2.083008 -3.36078,-1.233627 -3.7525,-4.683119 -0.68247,-4.795238 z"
     id="path2161"
     inkscape:connector-curvature="0"
     sodipodi:nodetypes="sssscscsscsssssscssssssssscsssscssssssssssssssssccsssssscsssscsssssssssscsssssssssssccssscsccsscscsscssssssscccsssscsssssssssssssssssssssssssssscscsccsscc" />
  <path
     inkscape:connector-curvature="0"
     style="fill:#ffffff;fill-opacity:1;fill-rule:evenodd;stroke:none"
     d="m 94.677023,69.541719 -0.05328,0.04267 z"
     id="path2553-1" />
  <path
     inkscape:connector-curvature="0"
     style="fill:#fcdb00;fill-opacity:1;fill-rule:evenodd;stroke:none"
     d="m 91.000877,58.288794 -0.08524,-0.06393 -0.06393,-0.0746 -0.05328,-0.0746 -0.03199,-0.07457 -0.02131,-0.0746 -0.01068,-0.0746 0,-0.07457 0.04267,-0.255766 0.05328,-0.181141 0.202459,-0.543478 0.213109,-0.532799 0.213114,-0.543469 0.213109,-0.532804 0.202454,-0.543474 0.213109,-0.532804 0.213109,-0.543473 0.213109,-0.5328 0.25573,-1.033666 0.234423,-1.022996 0.106552,-0.511481 0.106556,-0.511511 0.0959,-0.511486 0.0959,-0.511511 0.08524,-0.500835 0.07459,-0.511483 0.07458,-0.500838 0.06393,-0.511508 0.05329,-0.500838 0.05328,-0.500838 0.04262,-0.500834 0.03199,-0.511513 0.02131,-0.500838 0.01063,-0.500836 0.01068,-0.500836 0,-0.500838 -0.01068,-0.500865 -0.02131,-0.500836 -0.03199,-0.500838 -0.04262,-0.500837 -0.04262,-0.500837 -0.06394,-0.51151 -0.07458,-0.500837 -0.07459,-0.500837 -0.0959,-0.500838 -0.0959,-0.500836 -0.117211,-0.511511 -0.127865,-0.500837 -0.213109,-0.554122 -0.202454,-0.543474 -0.213109,-0.554117 -0.213109,-0.543449 -0.213109,-0.543473 -0.202454,-0.543474 -0.213109,-0.543448 -0.213114,-0.543474 -0.436872,-0.71397 -0.447531,-0.703296 -0.436877,-0.660685 -0.436871,-0.65004 -0.447536,-0.618048 -0.447531,-0.607404 -0.458186,-0.586085 -0.468839,-0.575436 -0.479498,-0.554122 -0.490153,-0.554118 -0.500812,-0.532829 -0.53277,-0.543449 -0.543428,-0.522155 -0.554083,-0.532799 -0.596715,-0.522155 -0.607359,-0.532835 -0.02131,-0.159817 -0.02131,-0.159848 -0.03199,-0.159853 -0.02131,-0.149174 0.07459,-0.08527 0.06393,-0.09589 0.07459,-0.08525 0.07459,-0.0746 0.255725,0.02141 0.277044,0.06395 0.277049,0.09589 0.298352,0.138529 0.287699,0.170492 0.309006,0.191816 0.309012,0.234452 0.319665,0.25574 0.319661,0.277059 0.319671,0.298377 0.319665,0.330345 0.319661,0.340989 0.33032,0.351663 0.319666,0.372952 0.319661,0.383625 0.319665,0.39427 0.309007,0.404944 0.309016,0.404944 0.309007,0.404919 0.298352,0.415589 0.575396,0.809888 0.532775,0.799219 0.490158,0.745933 0.436871,0.703296 0.372942,0.618073 0.309007,0.532804 0.159832,0.362307 0.149179,0.362308 0.159833,0.362302 0.159833,0.362307 0.159828,0.372982 0.170497,0.362307 0.159828,0.372952 0.159832,0.372981 0.245077,0.948393 0.213109,0.937743 0.202454,0.937748 0.170487,0.916427 0.08524,0.468873 0.06394,0.458227 0.07458,0.458228 0.05328,0.458199 0.05328,0.458228 0.05328,0.4582 0.03199,0.458227 0.04262,0.4582 0.02131,0.468872 0.02131,0.458228 0.01063,0.468873 0.01063,0.46887 -0.01063,0.468876 -0.01063,0.468871 -0.01063,0.468876 -0.02131,0.479515 -0.03199,0.47955 -0.04262,0.490164 -0.05328,0.490189 -0.05328,0.490195 -0.06394,0.500833 -0.07458,0.500837 -0.07459,0.511516 -0.0959,0.511481 -0.127866,0.511506 -0.138519,0.500841 -0.138519,0.500837 -0.149179,0.511481 -0.149179,0.511511 -0.159828,0.500837 -0.159833,0.511506 -0.170487,0.511486 -0.170487,0.51151 -0.170492,0.511481 -0.181146,0.511511 -0.191795,0.500837 -0.191801,0.511481 -0.202454,0.511516 -0.202455,0.511481 -0.20245,0.511506 -0.06394,0.05329 -0.06393,0.05328 -0.05328,0.04262 -0.06393,0.03199 -0.106557,0.04267 -0.106552,0.03199 -0.213109,0.01058 -0.202454,0.01058 z"
     id="path2555-7" />
  <path
     inkscape:connector-curvature="0"
     style="fill:#fcdb00;fill-opacity:1;fill-rule:evenodd;stroke:none"
     d="m 50.041171,32.74591 0,-0.298377 0,-0.234422 -0.01064,-0.191816 -0.01064,-0.08525 -0.03197,-0.0746 -0.03197,-0.06393 -0.05328,-0.0746 -0.07459,-0.06393 -0.08525,-0.06393 -0.117211,-0.06395 -0.127865,-0.06393 -0.04262,-0.138535 -0.02132,-0.117211 -0.01064,-0.106562 0,-0.09592 0.01064,-0.07457 0.01064,-0.0746 0.03197,-0.05329 0.04262,-0.05328 0.04262,-0.03199 0.05328,-0.03199 0.05328,-0.02141 0.07459,-0.01058 0.06393,0 0.08524,0 0.07459,0.01058 0.0959,0.02141 0.181143,0.05328 0.181145,0.07457 0.191799,0.08528 0.191798,0.106537 0.1918,0.106567 0.170486,0.106562 0.149178,0.106566 0.13852,0.106567 0,0.159848 -0.02131,0.170497 -0.02131,0.149174 -0.04262,0.149203 -0.04262,0.13853 -0.06393,0.127855 -0.06394,0.127885 -0.08524,0.106567 -0.08525,0.106567 -0.106555,0.09589 -0.117208,0.08524 -0.127868,0.0746 -0.138521,0.06393 -0.149176,0.05328 -0.159832,0.04262 -0.170488,0.03199 z"
     id="path2557-0" />
  <path
     inkscape:connector-curvature="0"
     style="fill:#fcdb00;fill-opacity:1;fill-rule:evenodd;stroke:none"
     d="m 81.112583,21.812655 -0.106552,-0.07457 -0.07459,-0.08525 -0.07459,-0.08525 -0.05328,-0.0746 -0.03199,-0.08525 -0.03199,-0.08525 -0.01063,-0.08525 0,-0.08527 0.01063,-0.08525 0.02131,-0.08524 0.03199,-0.08525 0.03199,-0.08525 0.05328,-0.08525 0.05328,-0.08524 0.05328,-0.0746 0.138519,-0.159848 0.149179,-0.159818 0.159828,-0.149204 0.159833,-0.149178 0.298352,-0.266415 0.234422,-0.213104 0.191801,-0.426262 0.170487,-0.426237 0.138519,-0.415589 0.127871,-0.415588 0.106556,-0.404944 0.08524,-0.404944 0.06393,-0.404919 0.05328,-0.404944 0.03199,-0.404944 0.01068,-0.39427 0,-0.404949 -0.01068,-0.39427 -0.03199,-0.39427 -0.03199,-0.39427 -0.05328,-0.404949 -0.06393,-0.39427 0.06393,-0.138529 0.08524,-0.138529 0.138525,0 0.149178,0 0.117207,0.25574 0.117211,0.26639 0.106557,0.287733 0.0959,0.298377 0.0959,0.309026 0.08524,0.319666 0.08524,0.330345 0.06394,0.341014 0.06393,0.340989 0.04267,0.351663 0.04262,0.351663 0.02131,0.351633 0.01068,0.351663 0,0.362302 -0.02131,0.351663 -0.03199,0.340989 -0.04267,0.351663 -0.06394,0.340989 -0.07459,0.33034 -0.0959,0.319701 -0.117212,0.309021 -0.127865,0.298382 -0.149179,0.287703 -0.181141,0.266415 -0.191795,0.25574 -0.213109,0.245097 -0.234427,0.213133 -0.255731,0.202455 -0.277044,0.170497 -0.309006,0.159848 -0.33032,0.127885 -0.351628,0.106567 z"
     id="path2563-5" />
  <path
     inkscape:connector-curvature="0"
     style="fill:#fcdb00;fill-opacity:1;fill-rule:evenodd;stroke:none"
     d="m 75.550416,21.333137 -0.170487,-0.159848 -0.149179,-0.159848 -0.117211,-0.170492 -0.106552,-0.170497 -0.07459,-0.170492 -0.06393,-0.170497 -0.04267,-0.181166 -0.02131,-0.170492 -0.01063,-0.170497 0.01063,-0.181166 0.02131,-0.170497 0.04267,-0.170492 0.06393,-0.170492 0.06393,-0.170497 0.08525,-0.159847 0.08524,-0.159848 0.106552,-0.159848 0.117211,-0.149179 0.127865,-0.149203 0.127866,-0.13853 0.138524,-0.138529 0.149179,-0.127855 0.159833,-0.117211 0.159833,-0.117241 0.159827,-0.106567 0.170492,-0.09589 0.170482,-0.09589 0.170493,-0.0746 0.181141,-0.0746 0.170487,-0.06392 0.181146,-0.04262 0.255731,0 0.277039,0.01058 0.277048,0.02141 0.277044,0.02141 -0.02131,0.106562 -0.02131,0.106567 -0.02131,0.117211 -0.03199,0.106567 -0.671294,0.25574 -0.586056,0.213134 -0.266389,0.106567 -0.245077,0.106562 -0.106552,0.05329 -0.106557,0.06393 -0.0959,0.06393 -0.08524,0.0746 -0.08524,0.0746 -0.06394,0.07457 -0.07458,0.09592 -0.05328,0.08524 -0.04262,0.106567 -0.04267,0.106566 -0.03199,0.117212 -0.02131,0.127885 -0.01063,0.138529 0,0.149174 0.01063,0.159848 0.02131,0.170497 0.03199,0.181166 0.04267,0.191785 0.05328,0.213134 0.06393,0.223773 -0.02131,0.191815 -0.02131,0.202484 -0.03199,0.20246 -0.02131,0.213134 -0.06394,0 -0.07458,0.02141 -0.05328,0.02141 -0.05328,0.02141 z"
     id="path2565-5" />
</svg>
